# Blender 5.0.1
# www.blender.org
mtllib HugoInspoToolJawBottom.mtl
o JawBottom
v -2.061142 0.001988 -0.002091
v -2.061170 0.001988 -0.000863
v -2.060986 0.002013 -0.000919
v -2.060940 0.002013 -0.002082
v -2.061313 0.001919 -0.002098
v -2.061326 0.001919 -0.000815
v -2.061170 0.001988 -0.000863
v -2.061142 0.001988 -0.002091
v -2.061427 0.001814 -0.002103
v -2.061430 0.001814 -0.000783
v -2.061326 0.001919 -0.000815
v -2.061313 0.001919 -0.002098
v -2.061467 0.001691 -0.002105
v -2.061467 0.001691 -0.000772
v -2.061430 0.001814 -0.000783
v -2.061427 0.001814 -0.002103
v -2.056065 -0.001813 -0.000807
v -2.054714 -0.001813 -0.000035
v -2.054714 -0.001689 0.000000
v -2.056065 -0.001689 -0.000772
v -2.056065 -0.001917 -0.000906
v -2.054714 -0.001917 -0.000134
v -2.054714 -0.001813 -0.000035
v -2.056065 -0.001813 -0.000807
v -2.056065 -0.001987 -0.001055
v -2.054714 -0.001987 -0.000283
v -2.054714 -0.001917 -0.000134
v -2.056065 -0.001917 -0.000906
v -2.056065 -0.002011 -0.001231
v -2.054714 -0.002011 -0.000459
v -2.054714 -0.001987 -0.000283
v -2.056065 -0.001987 -0.001055
v -2.060117 0.001988 -0.000283
v -2.058766 0.001988 -0.001055
v -2.058766 0.002013 -0.001231
v -2.060117 0.002013 -0.000459
v -2.060117 0.001919 -0.000134
v -2.058766 0.001919 -0.000906
v -2.058766 0.001988 -0.001055
v -2.060117 0.001988 -0.000283
v -2.060117 0.001814 -0.000035
v -2.058766 0.001814 -0.000807
v -2.058766 0.001919 -0.000906
v -2.060117 0.001919 -0.000134
v -2.060117 0.001691 0.000000
v -2.058766 0.001691 -0.000772
v -2.058766 0.001814 -0.000807
v -2.060117 0.001814 -0.000035
v -2.058943 0.001988 -0.003574
v -2.060098 0.001988 -0.003229
v -2.059954 0.002013 -0.003165
v -2.058865 0.002013 -0.003491
v -2.059009 0.001919 -0.003645
v -2.060219 0.001919 -0.003284
v -2.060098 0.001988 -0.003229
v -2.058943 0.001988 -0.003574
v -2.059052 0.001814 -0.003692
v -2.060300 0.001814 -0.003320
v -2.060219 0.001919 -0.003284
v -2.059009 0.001919 -0.003645
v -2.059068 0.001691 -0.003709
v -2.060329 0.001691 -0.003333
v -2.060300 0.001814 -0.003320
v -2.059052 0.001814 -0.003692
v -2.060117 0.001814 -0.000035
v -2.061430 0.001814 -0.000783
v -2.061467 0.001691 -0.000772
v -2.060117 0.001691 0.000000
v -2.060117 0.001919 -0.000134
v -2.061326 0.001919 -0.000815
v -2.061430 0.001814 -0.000783
v -2.060117 0.001814 -0.000035
v -2.060117 0.001988 -0.000283
v -2.061170 0.001988 -0.000863
v -2.061326 0.001919 -0.000815
v -2.060117 0.001919 -0.000134
v -2.060117 0.002013 -0.000459
v -2.060986 0.002013 -0.000919
v -2.061170 0.001988 -0.000863
v -2.060117 0.001988 -0.000283
v -2.057415 -0.001813 -0.000035
v -2.056065 -0.001813 -0.000807
v -2.056065 -0.001689 -0.000772
v -2.057415 -0.001689 0.000000
v -2.057415 -0.001917 -0.000134
v -2.056065 -0.001917 -0.000906
v -2.056065 -0.001813 -0.000807
v -2.057415 -0.001813 -0.000035
v -2.057415 -0.001987 -0.000283
v -2.056065 -0.001987 -0.001055
v -2.056065 -0.001917 -0.000906
v -2.057415 -0.001917 -0.000134
v -2.057415 -0.002011 -0.000459
v -2.056065 -0.002011 -0.001231
v -2.056065 -0.001987 -0.001055
v -2.057415 -0.001987 -0.000283
v -2.047961 -0.001813 -0.000807
v -2.046611 -0.001813 -0.000035
v -2.046611 -0.001689 0.000000
v -2.047961 -0.001689 -0.000772
v -2.047961 -0.001917 -0.000906
v -2.046611 -0.001917 -0.000134
v -2.046611 -0.001813 -0.000035
v -2.047961 -0.001813 -0.000807
v -2.047961 -0.001987 -0.001055
v -2.046611 -0.001987 -0.000283
v -2.046611 -0.001917 -0.000134
v -2.047961 -0.001917 -0.000906
v -2.047961 -0.002011 -0.001231
v -2.046611 -0.002011 -0.000459
v -2.046611 -0.001987 -0.000283
v -2.047961 -0.001987 -0.001055
v -2.060098 -0.001987 -0.003229
v -2.058943 -0.001987 -0.003574
v -2.058865 -0.002011 -0.003491
v -2.059954 -0.002011 -0.003165
v -2.060219 -0.001917 -0.003284
v -2.059009 -0.001917 -0.003645
v -2.058943 -0.001987 -0.003574
v -2.060098 -0.001987 -0.003229
v -2.060300 -0.001813 -0.003320
v -2.059052 -0.001813 -0.003692
v -2.059009 -0.001917 -0.003645
v -2.060219 -0.001917 -0.003284
v -2.060329 -0.001689 -0.003333
v -2.059068 -0.001689 -0.003709
v -2.059052 -0.001813 -0.003692
v -2.060300 -0.001813 -0.003320
v -2.038507 -0.001813 -0.000035
v -2.037171 -0.001813 -0.000797
v -2.037157 -0.001689 -0.000772
v -2.038507 -0.001689 0.000000
v -2.038507 -0.001917 -0.000134
v -2.037211 -0.001917 -0.000869
v -2.037171 -0.001813 -0.000797
v -2.038507 -0.001813 -0.000035
v -2.038507 -0.001987 -0.000283
v -2.037270 -0.001987 -0.000976
v -2.037211 -0.001917 -0.000869
v -2.038507 -0.001917 -0.000134
v -2.038507 -0.002011 -0.000459
v -2.037340 -0.002011 -0.001103
v -2.037270 -0.001987 -0.000976
v -2.038507 -0.001987 -0.000283
v -2.058766 -0.001813 -0.000807
v -2.057415 -0.001813 -0.000035
v -2.057415 -0.001689 0.000000
v -2.058766 -0.001689 -0.000772
v -2.058766 -0.001917 -0.000906
v -2.057415 -0.001917 -0.000134
v -2.057415 -0.001813 -0.000035
v -2.058766 -0.001813 -0.000807
v -2.058766 -0.001987 -0.001055
v -2.057415 -0.001987 -0.000283
v -2.057415 -0.001917 -0.000134
v -2.058766 -0.001917 -0.000906
v -2.058766 -0.002011 -0.001231
v -2.057415 -0.002011 -0.000459
v -2.057415 -0.001987 -0.000283
v -2.058766 -0.001987 -0.001055
v -2.038507 0.001988 -0.000283
v -2.037270 0.001988 -0.000976
v -2.037340 0.002013 -0.001103
v -2.038507 0.002013 -0.000459
v -2.038507 0.001919 -0.000134
v -2.037211 0.001919 -0.000869
v -2.037270 0.001988 -0.000976
v -2.038507 0.001988 -0.000283
v -2.038507 0.001814 -0.000035
v -2.037171 0.001814 -0.000797
v -2.037211 0.001919 -0.000869
v -2.038507 0.001919 -0.000134
v -2.038507 0.001691 0.000000
v -2.037157 0.001691 -0.000772
v -2.037171 0.001814 -0.000797
v -2.038507 0.001814 -0.000035
v -2.061170 -0.001987 -0.000863
v -2.061142 -0.001987 -0.002091
v -2.060940 -0.002011 -0.002082
v -2.060986 -0.002011 -0.000919
v -2.061326 -0.001917 -0.000815
v -2.061313 -0.001917 -0.002098
v -2.061142 -0.001987 -0.002091
v -2.061170 -0.001987 -0.000863
v -2.061430 -0.001813 -0.000783
v -2.061427 -0.001813 -0.002103
v -2.061313 -0.001917 -0.002098
v -2.061326 -0.001917 -0.000815
v -2.061467 -0.001689 -0.000772
v -2.061467 -0.001689 -0.002105
v -2.061427 -0.001813 -0.002103
v -2.061430 -0.001813 -0.000783
v -2.039858 -0.001813 -0.000807
v -2.038507 -0.001813 -0.000035
v -2.038507 -0.001689 0.000000
v -2.039858 -0.001689 -0.000772
v -2.039858 -0.001917 -0.000906
v -2.038507 -0.001917 -0.000134
v -2.038507 -0.001813 -0.000035
v -2.039858 -0.001813 -0.000807
v -2.039858 -0.001987 -0.001055
v -2.038507 -0.001987 -0.000283
v -2.038507 -0.001917 -0.000134
v -2.039858 -0.001917 -0.000906
v -2.039858 -0.002011 -0.001231
v -2.038507 -0.002011 -0.000459
v -2.038507 -0.001987 -0.000283
v -2.039858 -0.001987 -0.001055
v -2.060117 -0.001987 -0.000283
v -2.061170 -0.001987 -0.000863
v -2.060986 -0.002011 -0.000919
v -2.060117 -0.002011 -0.000459
v -2.060117 -0.001917 -0.000134
v -2.061326 -0.001917 -0.000815
v -2.061170 -0.001987 -0.000863
v -2.060117 -0.001987 -0.000283
v -2.060117 -0.001813 -0.000035
v -2.061430 -0.001813 -0.000783
v -2.061326 -0.001917 -0.000815
v -2.060117 -0.001917 -0.000134
v -2.060117 -0.001689 0.000000
v -2.061467 -0.001689 -0.000772
v -2.061430 -0.001813 -0.000783
v -2.060117 -0.001813 -0.000035
v -2.014669 0.001988 -0.004159
v -2.015824 0.001988 -0.004673
v -2.015902 0.002013 -0.004548
v -2.014813 0.002013 -0.004063
v -2.014548 0.001919 -0.004240
v -2.015759 0.001919 -0.004779
v -2.015824 0.001988 -0.004673
v -2.014669 0.001988 -0.004159
v -2.014467 0.001814 -0.004294
v -2.015715 0.001814 -0.004849
v -2.015759 0.001919 -0.004779
v -2.014548 0.001919 -0.004240
v -2.014439 0.001691 -0.004313
v -2.015699 0.001691 -0.004874
v -2.015715 0.001814 -0.004849
v -2.014467 0.001814 -0.004294
v -2.013898 -0.001987 -0.003389
v -2.013625 -0.001987 -0.002459
v -2.013827 -0.002011 -0.002446
v -2.014085 -0.002011 -0.003337
v -2.013739 -0.001917 -0.003433
v -2.013454 -0.001917 -0.002470
v -2.013625 -0.001987 -0.002459
v -2.013898 -0.001987 -0.003389
v -2.013633 -0.001813 -0.003462
v -2.013340 -0.001813 -0.002478
v -2.013454 -0.001917 -0.002470
v -2.013739 -0.001917 -0.003433
v -2.013596 -0.001689 -0.003472
v -2.013300 -0.001689 -0.002481
v -2.013340 -0.001813 -0.002478
v -2.013633 -0.001813 -0.003462
v -2.060098 0.001988 -0.003229
v -2.060869 0.001988 -0.002714
v -2.060682 0.002013 -0.002679
v -2.059954 0.002013 -0.003165
v -2.060219 0.001919 -0.003284
v -2.061028 0.001919 -0.002743
v -2.060869 0.001988 -0.002714
v -2.060098 0.001988 -0.003229
v -2.060300 0.001814 -0.003320
v -2.061134 0.001814 -0.002763
v -2.061028 0.001919 -0.002743
v -2.060219 0.001919 -0.003284
v -2.060329 0.001691 -0.003333
v -2.061171 0.001691 -0.002769
v -2.061134 0.001814 -0.002763
v -2.060300 0.001814 -0.003320
v -2.060117 -0.001813 -0.000035
v -2.058766 -0.001813 -0.000807
v -2.058766 -0.001689 -0.000772
v -2.060117 -0.001689 0.000000
v -2.060117 -0.001917 -0.000134
v -2.058766 -0.001917 -0.000906
v -2.058766 -0.001813 -0.000807
v -2.060117 -0.001813 -0.000035
v -2.060117 -0.001987 -0.000283
v -2.058766 -0.001987 -0.001055
v -2.058766 -0.001917 -0.000906
v -2.060117 -0.001917 -0.000134
v -2.060117 -0.002011 -0.000459
v -2.058766 -0.002011 -0.001231
v -2.058766 -0.001987 -0.001055
v -2.060117 -0.001987 -0.000283
v -2.057549 0.001988 -0.003696
v -2.058943 0.001988 -0.003574
v -2.058865 0.002013 -0.003491
v -2.057529 0.002013 -0.003606
v -2.057565 0.001919 -0.003772
v -2.059009 0.001919 -0.003645
v -2.058943 0.001988 -0.003574
v -2.057549 0.001988 -0.003696
v -2.057577 0.001814 -0.003823
v -2.059052 0.001814 -0.003692
v -2.059009 0.001919 -0.003645
v -2.057565 0.001919 -0.003772
v -2.057581 0.001691 -0.003841
v -2.059068 0.001691 -0.003709
v -2.059052 0.001814 -0.003692
v -2.057577 0.001814 -0.003823
v -2.039858 0.001988 -0.001055
v -2.038507 0.001988 -0.000283
v -2.038507 0.002013 -0.000459
v -2.039858 0.002013 -0.001231
v -2.039858 0.001919 -0.000906
v -2.038507 0.001919 -0.000134
v -2.038507 0.001988 -0.000283
v -2.039858 0.001988 -0.001055
v -2.039858 0.001814 -0.000807
v -2.038507 0.001814 -0.000035
v -2.038507 0.001919 -0.000134
v -2.039858 0.001919 -0.000906
v -2.039858 0.001691 -0.000772
v -2.038507 0.001691 0.000000
v -2.038507 0.001814 -0.000035
v -2.039858 0.001814 -0.000807
v -2.015824 -0.001987 -0.004673
v -2.014669 -0.001987 -0.004159
v -2.014813 -0.002011 -0.004063
v -2.015902 -0.002011 -0.004548
v -2.015759 -0.001917 -0.004779
v -2.014548 -0.001917 -0.004240
v -2.014669 -0.001987 -0.004159
v -2.015824 -0.001987 -0.004673
v -2.015715 -0.001813 -0.004849
v -2.014467 -0.001813 -0.004294
v -2.014548 -0.001917 -0.004240
v -2.015759 -0.001917 -0.004779
v -2.015699 -0.001689 -0.004874
v -2.014439 -0.001689 -0.004313
v -2.014467 -0.001813 -0.004294
v -2.015715 -0.001813 -0.004849
v -2.041209 -0.001813 -0.000035
v -2.039858 -0.001813 -0.000807
v -2.039858 -0.001689 -0.000772
v -2.041209 -0.001689 0.000000
v -2.041209 -0.001917 -0.000134
v -2.039858 -0.001917 -0.000906
v -2.039858 -0.001813 -0.000807
v -2.041209 -0.001813 -0.000035
v -2.041209 -0.001987 -0.000283
v -2.039858 -0.001987 -0.001055
v -2.039858 -0.001917 -0.000906
v -2.041209 -0.001917 -0.000134
v -2.041209 -0.002011 -0.000459
v -2.039858 -0.002011 -0.001231
v -2.039858 -0.001987 -0.001055
v -2.041209 -0.001987 -0.000283
v -2.060869 -0.001987 -0.002714
v -2.060098 -0.001987 -0.003229
v -2.059954 -0.002011 -0.003165
v -2.060682 -0.002011 -0.002679
v -2.061028 -0.001917 -0.002743
v -2.060219 -0.001917 -0.003284
v -2.060098 -0.001987 -0.003229
v -2.060869 -0.001987 -0.002714
v -2.061134 -0.001813 -0.002763
v -2.060300 -0.001813 -0.003320
v -2.060219 -0.001917 -0.003284
v -2.061028 -0.001917 -0.002743
v -2.061171 -0.001689 -0.002769
v -2.060329 -0.001689 -0.003333
v -2.060300 -0.001813 -0.003320
v -2.061134 -0.001813 -0.002763
v -2.013627 0.001988 -0.000328
v -2.013625 0.001988 -0.002459
v -2.013827 0.002013 -0.002446
v -2.013829 0.002013 -0.000463
v -2.013455 0.001919 -0.000214
v -2.013454 0.001919 -0.002470
v -2.013625 0.001988 -0.002459
v -2.013627 0.001988 -0.000328
v -2.013340 0.001814 -0.000137
v -2.013340 0.001814 -0.002478
v -2.013454 0.001919 -0.002470
v -2.013455 0.001919 -0.000214
v -2.013300 0.001691 -0.000110
v -2.013300 0.001691 -0.002481
v -2.013340 0.001814 -0.002478
v -2.013340 0.001814 -0.000137
v -2.041209 0.001988 -0.000283
v -2.039858 0.001988 -0.001055
v -2.039858 0.002013 -0.001231
v -2.041209 0.002013 -0.000459
v -2.041209 0.001919 -0.000134
v -2.039858 0.001919 -0.000906
v -2.039858 0.001988 -0.001055
v -2.041209 0.001988 -0.000283
v -2.041209 0.001814 -0.000035
v -2.039858 0.001814 -0.000807
v -2.039858 0.001919 -0.000906
v -2.041209 0.001919 -0.000134
v -2.041209 0.001691 0.000000
v -2.039858 0.001691 -0.000772
v -2.039858 0.001814 -0.000807
v -2.041209 0.001814 -0.000035
v -2.042559 -0.001813 -0.000807
v -2.041209 -0.001813 -0.000035
v -2.041209 -0.001689 0.000000
v -2.042559 -0.001689 -0.000772
v -2.042559 -0.001917 -0.000906
v -2.041209 -0.001917 -0.000134
v -2.041209 -0.001813 -0.000035
v -2.042559 -0.001813 -0.000807
v -2.042559 -0.001987 -0.001055
v -2.041209 -0.001987 -0.000283
v -2.041209 -0.001917 -0.000134
v -2.042559 -0.001917 -0.000906
v -2.042559 -0.002011 -0.001231
v -2.041209 -0.002011 -0.000459
v -2.041209 -0.001987 -0.000283
v -2.042559 -0.001987 -0.001055
v -2.013625 -0.001987 -0.002459
v -2.013627 -0.001987 -0.000328
v -2.013829 -0.002011 -0.000463
v -2.013827 -0.002011 -0.002446
v -2.013454 -0.001917 -0.002470
v -2.013455 -0.001917 -0.000214
v -2.013627 -0.001987 -0.000328
v -2.013625 -0.001987 -0.002459
v -2.013340 -0.001813 -0.002478
v -2.013340 -0.001813 -0.000137
v -2.013455 -0.001917 -0.000214
v -2.013454 -0.001917 -0.002470
v -2.013300 -0.001689 -0.002481
v -2.013300 -0.001689 -0.000110
v -2.013340 -0.001813 -0.000137
v -2.013340 -0.001813 -0.002478
v -2.052013 0.001988 -0.000283
v -2.050663 0.001988 -0.001055
v -2.050663 0.002013 -0.001231
v -2.052013 0.002013 -0.000459
v -2.052013 0.001919 -0.000134
v -2.050663 0.001919 -0.000906
v -2.050663 0.001988 -0.001055
v -2.052013 0.001988 -0.000283
v -2.052013 0.001814 -0.000035
v -2.050663 0.001814 -0.000807
v -2.050663 0.001919 -0.000906
v -2.052013 0.001919 -0.000134
v -2.052013 0.001691 0.000000
v -2.050663 0.001691 -0.000772
v -2.050663 0.001814 -0.000807
v -2.052013 0.001814 -0.000035
v -2.015824 0.001988 -0.004673
v -2.017218 0.001988 -0.004855
v -2.017238 0.002013 -0.004720
v -2.015902 0.002013 -0.004548
v -2.015759 0.001919 -0.004779
v -2.017202 0.001919 -0.004969
v -2.017218 0.001988 -0.004855
v -2.015824 0.001988 -0.004673
v -2.015715 0.001814 -0.004849
v -2.017190 0.001814 -0.005045
v -2.017202 0.001919 -0.004969
v -2.015759 0.001919 -0.004779
v -2.015699 0.001691 -0.004874
v -2.017186 0.001691 -0.005071
v -2.017190 0.001814 -0.005045
v -2.015715 0.001814 -0.004849
v -2.042559 0.001988 -0.001055
v -2.041209 0.001988 -0.000283
v -2.041209 0.002013 -0.000459
v -2.042559 0.002013 -0.001231
v -2.042559 0.001919 -0.000906
v -2.041209 0.001919 -0.000134
v -2.041209 0.001988 -0.000283
v -2.042559 0.001988 -0.001055
v -2.042559 0.001814 -0.000807
v -2.041209 0.001814 -0.000035
v -2.041209 0.001919 -0.000134
v -2.042559 0.001919 -0.000906
v -2.042559 0.001691 -0.000772
v -2.041209 0.001691 0.000000
v -2.041209 0.001814 -0.000035
v -2.042559 0.001814 -0.000807
v -2.049312 -0.001813 -0.000035
v -2.047961 -0.001813 -0.000807
v -2.047961 -0.001689 -0.000772
v -2.049312 -0.001689 0.000000
v -2.049312 -0.001917 -0.000134
v -2.047961 -0.001917 -0.000906
v -2.047961 -0.001813 -0.000807
v -2.049312 -0.001813 -0.000035
v -2.049312 -0.001987 -0.000283
v -2.047961 -0.001987 -0.001055
v -2.047961 -0.001917 -0.000906
v -2.049312 -0.001917 -0.000134
v -2.049312 -0.002011 -0.000459
v -2.047961 -0.002011 -0.001231
v -2.047961 -0.001987 -0.001055
v -2.049312 -0.001987 -0.000283
v -2.043910 -0.001813 -0.000035
v -2.042559 -0.001813 -0.000807
v -2.042559 -0.001689 -0.000772
v -2.043910 -0.001689 0.000000
v -2.043910 -0.001917 -0.000134
v -2.042559 -0.001917 -0.000906
v -2.042559 -0.001813 -0.000807
v -2.043910 -0.001813 -0.000035
v -2.043910 -0.001987 -0.000283
v -2.042559 -0.001987 -0.001055
v -2.042559 -0.001917 -0.000906
v -2.043910 -0.001917 -0.000134
v -2.043910 -0.002011 -0.000459
v -2.042559 -0.002011 -0.001231
v -2.042559 -0.001987 -0.001055
v -2.043910 -0.001987 -0.000283
v -2.053364 0.001988 -0.001055
v -2.052013 0.001988 -0.000283
v -2.052013 0.002013 -0.000459
v -2.053364 0.002013 -0.001231
v -2.053364 0.001919 -0.000906
v -2.052013 0.001919 -0.000134
v -2.052013 0.001988 -0.000283
v -2.053364 0.001988 -0.001055
v -2.053364 0.001814 -0.000807
v -2.052013 0.001814 -0.000035
v -2.052013 0.001919 -0.000134
v -2.053364 0.001919 -0.000906
v -2.053364 0.001691 -0.000772
v -2.052013 0.001691 0.000000
v -2.052013 0.001814 -0.000035
v -2.053364 0.001814 -0.000807
v -2.043910 0.001988 -0.000283
v -2.042559 0.001988 -0.001055
v -2.042559 0.002013 -0.001231
v -2.043910 0.002013 -0.000459
v -2.043910 0.001919 -0.000134
v -2.042559 0.001919 -0.000906
v -2.042559 0.001988 -0.001055
v -2.043910 0.001988 -0.000283
v -2.043910 0.001814 -0.000035
v -2.042559 0.001814 -0.000807
v -2.042559 0.001919 -0.000906
v -2.043910 0.001919 -0.000134
v -2.043910 0.001691 0.000000
v -2.042559 0.001691 -0.000772
v -2.042559 0.001814 -0.000807
v -2.043910 0.001814 -0.000035
v -2.050663 -0.001813 -0.000807
v -2.049312 -0.001813 -0.000035
v -2.049312 -0.001689 0.000000
v -2.050663 -0.001689 -0.000772
v -2.050663 -0.001917 -0.000906
v -2.049312 -0.001917 -0.000134
v -2.049312 -0.001813 -0.000035
v -2.050663 -0.001813 -0.000807
v -2.050663 -0.001987 -0.001055
v -2.049312 -0.001987 -0.000283
v -2.049312 -0.001917 -0.000134
v -2.050663 -0.001917 -0.000906
v -2.050663 -0.002011 -0.001231
v -2.049312 -0.002011 -0.000459
v -2.049312 -0.001987 -0.000283
v -2.050663 -0.001987 -0.001055
v -2.045260 -0.001813 -0.000807
v -2.043910 -0.001813 -0.000035
v -2.043910 -0.001689 0.000000
v -2.045260 -0.001689 -0.000772
v -2.045260 -0.001917 -0.000906
v -2.043910 -0.001917 -0.000134
v -2.043910 -0.001813 -0.000035
v -2.045260 -0.001813 -0.000807
v -2.045260 -0.001987 -0.001055
v -2.043910 -0.001987 -0.000283
v -2.043910 -0.001917 -0.000134
v -2.045260 -0.001917 -0.000906
v -2.045260 -0.002011 -0.001231
v -2.043910 -0.002011 -0.000459
v -2.043910 -0.001987 -0.000283
v -2.045260 -0.001987 -0.001055
v -2.014669 -0.001987 -0.004159
v -2.013898 -0.001987 -0.003389
v -2.014085 -0.002011 -0.003337
v -2.014813 -0.002011 -0.004063
v -2.014548 -0.001917 -0.004240
v -2.013739 -0.001917 -0.003433
v -2.013898 -0.001987 -0.003389
v -2.014669 -0.001987 -0.004159
v -2.014467 -0.001813 -0.004294
v -2.013633 -0.001813 -0.003462
v -2.013739 -0.001917 -0.003433
v -2.014548 -0.001917 -0.004240
v -2.014439 -0.001689 -0.004313
v -2.013596 -0.001689 -0.003472
v -2.013633 -0.001813 -0.003462
v -2.014467 -0.001813 -0.004294
v -2.060869 0.001988 -0.002714
v -2.061142 0.001988 -0.002091
v -2.060940 0.002013 -0.002082
v -2.060682 0.002013 -0.002679
v -2.061028 0.001919 -0.002743
v -2.061313 0.001919 -0.002098
v -2.061142 0.001988 -0.002091
v -2.060869 0.001988 -0.002714
v -2.061134 0.001814 -0.002763
v -2.061427 0.001814 -0.002103
v -2.061313 0.001919 -0.002098
v -2.061028 0.001919 -0.002743
v -2.061171 0.001691 -0.002769
v -2.061467 0.001691 -0.002105
v -2.061427 0.001814 -0.002103
v -2.061134 0.001814 -0.002763
v -2.054714 0.001988 -0.000283
v -2.053364 0.001988 -0.001055
v -2.053364 0.002013 -0.001231
v -2.054714 0.002013 -0.000459
v -2.054714 0.001919 -0.000134
v -2.053364 0.001919 -0.000906
v -2.053364 0.001988 -0.001055
v -2.054714 0.001988 -0.000283
v -2.054714 0.001814 -0.000035
v -2.053364 0.001814 -0.000807
v -2.053364 0.001919 -0.000906
v -2.054714 0.001919 -0.000134
v -2.054714 0.001691 0.000000
v -2.053364 0.001691 -0.000772
v -2.053364 0.001814 -0.000807
v -2.054714 0.001814 -0.000035
v -2.013898 0.001988 -0.003389
v -2.014669 0.001988 -0.004159
v -2.014813 0.002013 -0.004063
v -2.014085 0.002013 -0.003337
v -2.013739 0.001919 -0.003433
v -2.014548 0.001919 -0.004240
v -2.014669 0.001988 -0.004159
v -2.013898 0.001988 -0.003389
v -2.013633 0.001814 -0.003462
v -2.014467 0.001814 -0.004294
v -2.014548 0.001919 -0.004240
v -2.013739 0.001919 -0.003433
v -2.013596 0.001691 -0.003472
v -2.014439 0.001691 -0.004313
v -2.014467 0.001814 -0.004294
v -2.013633 0.001814 -0.003462
v -2.045260 0.001988 -0.001055
v -2.043910 0.001988 -0.000283
v -2.043910 0.002013 -0.000459
v -2.045260 0.002013 -0.001231
v -2.045260 0.001919 -0.000906
v -2.043910 0.001919 -0.000134
v -2.043910 0.001988 -0.000283
v -2.045260 0.001988 -0.001055
v -2.045260 0.001814 -0.000807
v -2.043910 0.001814 -0.000035
v -2.043910 0.001919 -0.000134
v -2.045260 0.001919 -0.000906
v -2.045260 0.001691 -0.000772
v -2.043910 0.001691 0.000000
v -2.043910 0.001814 -0.000035
v -2.045260 0.001814 -0.000807
v -2.050663 0.001988 -0.001055
v -2.049312 0.001988 -0.000283
v -2.049312 0.002013 -0.000459
v -2.050663 0.002013 -0.001231
v -2.050663 0.001919 -0.000906
v -2.049312 0.001919 -0.000134
v -2.049312 0.001988 -0.000283
v -2.050663 0.001988 -0.001055
v -2.050663 0.001814 -0.000807
v -2.049312 0.001814 -0.000035
v -2.049312 0.001919 -0.000134
v -2.050663 0.001919 -0.000906
v -2.050663 0.001691 -0.000772
v -2.049312 0.001691 0.000000
v -2.049312 0.001814 -0.000035
v -2.050663 0.001814 -0.000807
v -2.052013 -0.001813 -0.000035
v -2.050663 -0.001813 -0.000807
v -2.050663 -0.001689 -0.000772
v -2.052013 -0.001689 0.000000
v -2.052013 -0.001917 -0.000134
v -2.050663 -0.001917 -0.000906
v -2.050663 -0.001813 -0.000807
v -2.052013 -0.001813 -0.000035
v -2.052013 -0.001987 -0.000283
v -2.050663 -0.001987 -0.001055
v -2.050663 -0.001917 -0.000906
v -2.052013 -0.001917 -0.000134
v -2.052013 -0.002011 -0.000459
v -2.050663 -0.002011 -0.001231
v -2.050663 -0.001987 -0.001055
v -2.052013 -0.001987 -0.000283
v -2.046611 -0.001813 -0.000035
v -2.045260 -0.001813 -0.000807
v -2.045260 -0.001689 -0.000772
v -2.046611 -0.001689 0.000000
v -2.046611 -0.001917 -0.000134
v -2.045260 -0.001917 -0.000906
v -2.045260 -0.001813 -0.000807
v -2.046611 -0.001813 -0.000035
v -2.046611 -0.001987 -0.000283
v -2.045260 -0.001987 -0.001055
v -2.045260 -0.001917 -0.000906
v -2.046611 -0.001917 -0.000134
v -2.046611 -0.002011 -0.000459
v -2.045260 -0.002011 -0.001231
v -2.045260 -0.001987 -0.001055
v -2.046611 -0.001987 -0.000283
v -2.058943 -0.001987 -0.003574
v -2.057549 -0.001987 -0.003696
v -2.057529 -0.002011 -0.003606
v -2.058865 -0.002011 -0.003491
v -2.059009 -0.001917 -0.003645
v -2.057565 -0.001917 -0.003772
v -2.057549 -0.001987 -0.003696
v -2.058943 -0.001987 -0.003574
v -2.059052 -0.001813 -0.003692
v -2.057577 -0.001813 -0.003823
v -2.057565 -0.001917 -0.003772
v -2.059009 -0.001917 -0.003645
v -2.059068 -0.001689 -0.003709
v -2.057581 -0.001689 -0.003841
v -2.057577 -0.001813 -0.003823
v -2.059052 -0.001813 -0.003692
v -2.056065 0.001988 -0.001055
v -2.054714 0.001988 -0.000283
v -2.054714 0.002013 -0.000459
v -2.056065 0.002013 -0.001231
v -2.056065 0.001919 -0.000906
v -2.054714 0.001919 -0.000134
v -2.054714 0.001988 -0.000283
v -2.056065 0.001988 -0.001055
v -2.056065 0.001814 -0.000807
v -2.054714 0.001814 -0.000035
v -2.054714 0.001919 -0.000134
v -2.056065 0.001919 -0.000906
v -2.056065 0.001691 -0.000772
v -2.054714 0.001691 0.000000
v -2.054714 0.001814 -0.000035
v -2.056065 0.001814 -0.000807
v -2.046611 0.001988 -0.000283
v -2.045260 0.001988 -0.001055
v -2.045260 0.002013 -0.001231
v -2.046611 0.002013 -0.000459
v -2.046611 0.001919 -0.000134
v -2.045260 0.001919 -0.000906
v -2.045260 0.001988 -0.001055
v -2.046611 0.001988 -0.000283
v -2.046611 0.001814 -0.000035
v -2.045260 0.001814 -0.000807
v -2.045260 0.001919 -0.000906
v -2.046611 0.001919 -0.000134
v -2.046611 0.001691 0.000000
v -2.045260 0.001691 -0.000772
v -2.045260 0.001814 -0.000807
v -2.046611 0.001814 -0.000035
v -2.053364 -0.001813 -0.000807
v -2.052013 -0.001813 -0.000035
v -2.052013 -0.001689 0.000000
v -2.053364 -0.001689 -0.000772
v -2.053364 -0.001917 -0.000906
v -2.052013 -0.001917 -0.000134
v -2.052013 -0.001813 -0.000035
v -2.053364 -0.001813 -0.000807
v -2.053364 -0.001987 -0.001055
v -2.052013 -0.001987 -0.000283
v -2.052013 -0.001917 -0.000134
v -2.053364 -0.001917 -0.000906
v -2.053364 -0.002011 -0.001231
v -2.052013 -0.002011 -0.000459
v -2.052013 -0.001987 -0.000283
v -2.053364 -0.001987 -0.001055
v -2.013625 0.001988 -0.002459
v -2.013898 0.001988 -0.003389
v -2.014085 0.002013 -0.003337
v -2.013827 0.002013 -0.002446
v -2.013454 0.001919 -0.002470
v -2.013739 0.001919 -0.003433
v -2.013898 0.001988 -0.003389
v -2.013625 0.001988 -0.002459
v -2.013340 0.001814 -0.002478
v -2.013633 0.001814 -0.003462
v -2.013739 0.001919 -0.003433
v -2.013454 0.001919 -0.002470
v -2.013300 0.001691 -0.002481
v -2.013596 0.001691 -0.003472
v -2.013633 0.001814 -0.003462
v -2.013340 0.001814 -0.002478
v -2.057415 0.001988 -0.000283
v -2.056065 0.001988 -0.001055
v -2.056065 0.002013 -0.001231
v -2.057415 0.002013 -0.000459
v -2.057415 0.001919 -0.000134
v -2.056065 0.001919 -0.000906
v -2.056065 0.001988 -0.001055
v -2.057415 0.001988 -0.000283
v -2.057415 0.001814 -0.000035
v -2.056065 0.001814 -0.000807
v -2.056065 0.001919 -0.000906
v -2.057415 0.001919 -0.000134
v -2.057415 0.001691 0.000000
v -2.056065 0.001691 -0.000772
v -2.056065 0.001814 -0.000807
v -2.057415 0.001814 -0.000035
v -2.047961 0.001988 -0.001055
v -2.046611 0.001988 -0.000283
v -2.046611 0.002013 -0.000459
v -2.047961 0.002013 -0.001231
v -2.047961 0.001919 -0.000906
v -2.046611 0.001919 -0.000134
v -2.046611 0.001988 -0.000283
v -2.047961 0.001988 -0.001055
v -2.047961 0.001814 -0.000807
v -2.046611 0.001814 -0.000035
v -2.046611 0.001919 -0.000134
v -2.047961 0.001919 -0.000906
v -2.047961 0.001691 -0.000772
v -2.046611 0.001691 0.000000
v -2.046611 0.001814 -0.000035
v -2.047961 0.001814 -0.000807
v -2.017218 -0.001987 -0.004855
v -2.015824 -0.001987 -0.004673
v -2.015902 -0.002011 -0.004548
v -2.017238 -0.002011 -0.004720
v -2.017202 -0.001917 -0.004969
v -2.015759 -0.001917 -0.004779
v -2.015824 -0.001987 -0.004673
v -2.017218 -0.001987 -0.004855
v -2.017190 -0.001813 -0.005045
v -2.015715 -0.001813 -0.004849
v -2.015759 -0.001917 -0.004779
v -2.017202 -0.001917 -0.004969
v -2.017186 -0.001689 -0.005071
v -2.015699 -0.001689 -0.004874
v -2.015715 -0.001813 -0.004849
v -2.017190 -0.001813 -0.005045
v -2.061142 -0.001987 -0.002091
v -2.060869 -0.001987 -0.002714
v -2.060682 -0.002011 -0.002679
v -2.060940 -0.002011 -0.002082
v -2.061313 -0.001917 -0.002098
v -2.061028 -0.001917 -0.002743
v -2.060869 -0.001987 -0.002714
v -2.061142 -0.001987 -0.002091
v -2.061427 -0.001813 -0.002103
v -2.061134 -0.001813 -0.002763
v -2.061028 -0.001917 -0.002743
v -2.061313 -0.001917 -0.002098
v -2.061467 -0.001689 -0.002105
v -2.061171 -0.001689 -0.002769
v -2.061134 -0.001813 -0.002763
v -2.061427 -0.001813 -0.002103
v -2.054714 -0.001813 -0.000035
v -2.053364 -0.001813 -0.000807
v -2.053364 -0.001689 -0.000772
v -2.054714 -0.001689 0.000000
v -2.054714 -0.001917 -0.000134
v -2.053364 -0.001917 -0.000906
v -2.053364 -0.001813 -0.000807
v -2.054714 -0.001813 -0.000035
v -2.054714 -0.001987 -0.000283
v -2.053364 -0.001987 -0.001055
v -2.053364 -0.001917 -0.000906
v -2.054714 -0.001917 -0.000134
v -2.054714 -0.002011 -0.000459
v -2.053364 -0.002011 -0.001231
v -2.053364 -0.001987 -0.001055
v -2.054714 -0.001987 -0.000283
v -2.058766 0.001988 -0.001055
v -2.057415 0.001988 -0.000283
v -2.057415 0.002013 -0.000459
v -2.058766 0.002013 -0.001231
v -2.058766 0.001919 -0.000906
v -2.057415 0.001919 -0.000134
v -2.057415 0.001988 -0.000283
v -2.058766 0.001988 -0.001055
v -2.058766 0.001814 -0.000807
v -2.057415 0.001814 -0.000035
v -2.057415 0.001919 -0.000134
v -2.058766 0.001919 -0.000906
v -2.058766 0.001691 -0.000772
v -2.057415 0.001691 0.000000
v -2.057415 0.001814 -0.000035
v -2.058766 0.001814 -0.000807
v -2.049312 0.001988 -0.000283
v -2.047961 0.001988 -0.001055
v -2.047961 0.002013 -0.001231
v -2.049312 0.002013 -0.000459
v -2.049312 0.001919 -0.000134
v -2.047961 0.001919 -0.000906
v -2.047961 0.001988 -0.001055
v -2.049312 0.001988 -0.000283
v -2.049312 0.001814 -0.000035
v -2.047961 0.001814 -0.000807
v -2.047961 0.001919 -0.000906
v -2.049312 0.001919 -0.000134
v -2.049312 0.001691 0.000000
v -2.047961 0.001691 -0.000772
v -2.047961 0.001814 -0.000807
v -2.049312 0.001814 -0.000035
v -2.037157 0.001691 -0.000772
v -2.038507 0.001691 0.000000
v -2.038507 -0.001689 0.000000
v -2.037157 -0.001689 -0.000772
v -2.038507 0.001691 0.000000
v -2.039858 0.001691 -0.000772
v -2.039858 -0.001689 -0.000772
v -2.038507 -0.001689 0.000000
v -2.039858 0.001691 -0.000772
v -2.041209 0.001691 0.000000
v -2.041209 -0.001689 0.000000
v -2.039858 -0.001689 -0.000772
v -2.041209 0.001691 0.000000
v -2.042559 0.001691 -0.000772
v -2.042559 -0.001689 -0.000772
v -2.041209 -0.001689 0.000000
v -2.042559 0.001691 -0.000772
v -2.043910 0.001691 0.000000
v -2.043910 -0.001689 0.000000
v -2.042559 -0.001689 -0.000772
v -2.043910 0.001691 0.000000
v -2.045260 0.001691 -0.000772
v -2.045260 -0.001689 -0.000772
v -2.043910 -0.001689 0.000000
v -2.045260 0.001691 -0.000772
v -2.046611 0.001691 0.000000
v -2.046611 -0.001689 0.000000
v -2.045260 -0.001689 -0.000772
v -2.046611 0.001691 0.000000
v -2.047961 0.001691 -0.000772
v -2.047961 -0.001689 -0.000772
v -2.046611 -0.001689 0.000000
v -2.047961 0.001691 -0.000772
v -2.049312 0.001691 0.000000
v -2.049312 -0.001689 0.000000
v -2.047961 -0.001689 -0.000772
v -2.049312 0.001691 0.000000
v -2.050663 0.001691 -0.000772
v -2.050663 -0.001689 -0.000772
v -2.049312 -0.001689 0.000000
v -2.050663 0.001691 -0.000772
v -2.052013 0.001691 0.000000
v -2.052013 -0.001689 0.000000
v -2.050663 -0.001689 -0.000772
v -2.052013 0.001691 0.000000
v -2.053364 0.001691 -0.000772
v -2.053364 -0.001689 -0.000772
v -2.052013 -0.001689 0.000000
v -2.053364 0.001691 -0.000772
v -2.054714 0.001691 0.000000
v -2.054714 -0.001689 0.000000
v -2.053364 -0.001689 -0.000772
v -2.054714 0.001691 0.000000
v -2.056065 0.001691 -0.000772
v -2.056065 -0.001689 -0.000772
v -2.054714 -0.001689 0.000000
v -2.056065 0.001691 -0.000772
v -2.057415 0.001691 0.000000
v -2.057415 -0.001689 0.000000
v -2.056065 -0.001689 -0.000772
v -2.057415 0.001691 0.000000
v -2.058766 0.001691 -0.000772
v -2.058766 -0.001689 -0.000772
v -2.057415 -0.001689 0.000000
v -2.058766 0.001691 -0.000772
v -2.060117 0.001691 0.000000
v -2.060117 -0.001689 0.000000
v -2.058766 -0.001689 -0.000772
v -2.060117 0.001691 0.000000
v -2.061467 0.001691 -0.000772
v -2.061467 -0.001689 -0.000772
v -2.060117 -0.001689 0.000000
v -2.059068 -0.001689 -0.003709
v -2.059068 0.001691 -0.003709
v -2.057581 0.001691 -0.003841
v -2.057581 -0.001689 -0.003841
v -2.060329 -0.001689 -0.003333
v -2.060329 0.001691 -0.003333
v -2.059068 0.001691 -0.003709
v -2.059068 -0.001689 -0.003709
v -2.061171 -0.001689 -0.002769
v -2.061171 0.001691 -0.002769
v -2.060329 0.001691 -0.003333
v -2.060329 -0.001689 -0.003333
v -2.061467 -0.001689 -0.002105
v -2.061467 0.001691 -0.002105
v -2.061171 0.001691 -0.002769
v -2.061171 -0.001689 -0.002769
v -2.013596 -0.001689 -0.003472
v -2.013596 0.001691 -0.003472
v -2.013300 0.001691 -0.002481
v -2.013300 -0.001689 -0.002481
v -2.014439 -0.001689 -0.004313
v -2.014439 0.001691 -0.004313
v -2.013596 0.001691 -0.003472
v -2.013596 -0.001689 -0.003472
v -2.015699 -0.001689 -0.004874
v -2.015699 0.001691 -0.004874
v -2.014439 0.001691 -0.004313
v -2.014439 -0.001689 -0.004313
v -2.017186 -0.001689 -0.005071
v -2.017186 0.001691 -0.005071
v -2.015699 0.001691 -0.004874
v -2.015699 -0.001689 -0.004874
v -2.061467 0.001691 -0.000772
v -2.061467 0.001691 -0.002105
v -2.061467 -0.001689 -0.002105
v -2.061467 -0.001689 -0.000772
v -2.013300 0.001691 -0.002481
v -2.013300 0.001691 -0.000110
v -2.013300 -0.001689 -0.000110
v -2.013300 -0.001689 -0.002481
v -2.034678 -0.001813 -0.000760
v -2.035091 -0.001813 -0.000776
v -2.035091 -0.001917 -0.000848
v -2.034678 -0.001917 -0.000832
v -2.035091 -0.001813 -0.000776
v -2.035504 -0.001813 -0.000788
v -2.035504 -0.001917 -0.000860
v -2.035091 -0.001917 -0.000848
v -2.035504 -0.001813 -0.000788
v -2.035917 -0.001813 -0.000795
v -2.035917 -0.001917 -0.000867
v -2.035504 -0.001917 -0.000860
v -2.035917 -0.001813 -0.000795
v -2.036330 -0.001813 -0.000797
v -2.036330 -0.001917 -0.000869
v -2.035917 -0.001917 -0.000867
v -2.034678 -0.001917 -0.000832
v -2.035091 -0.001917 -0.000848
v -2.035091 -0.001987 -0.000956
v -2.034678 -0.001987 -0.000940
v -2.035091 -0.001917 -0.000848
v -2.035504 -0.001917 -0.000860
v -2.035504 -0.001987 -0.000968
v -2.035091 -0.001987 -0.000956
v -2.035504 -0.001917 -0.000860
v -2.035917 -0.001917 -0.000867
v -2.035917 -0.001987 -0.000975
v -2.035504 -0.001987 -0.000968
v -2.035917 -0.001917 -0.000867
v -2.036330 -0.001917 -0.000869
v -2.036330 -0.001987 -0.000977
v -2.035917 -0.001987 -0.000975
v -2.034678 0.002013 -0.001067
v -2.035091 0.002013 -0.001084
v -2.035091 0.001988 -0.000956
v -2.034678 0.001988 -0.000940
v -2.035091 0.002013 -0.001084
v -2.035504 0.002013 -0.001095
v -2.035504 0.001988 -0.000968
v -2.035091 0.001988 -0.000956
v -2.035504 0.002013 -0.001095
v -2.035917 0.002013 -0.001102
v -2.035917 0.001988 -0.000975
v -2.035504 0.001988 -0.000968
v -2.035917 0.002013 -0.001102
v -2.036330 0.002013 -0.001104
v -2.036330 0.001988 -0.000977
v -2.035917 0.001988 -0.000975
v -2.036330 -0.001689 -0.000772
v -2.035917 -0.001689 -0.000769
v -2.035917 0.001691 -0.000769
v -2.036330 0.001691 -0.000772
v -2.035917 -0.001689 -0.000769
v -2.035504 -0.001689 -0.000762
v -2.035504 0.001691 -0.000762
v -2.035917 0.001691 -0.000769
v -2.035504 -0.001689 -0.000762
v -2.035091 -0.001689 -0.000751
v -2.035091 0.001691 -0.000751
v -2.035504 0.001691 -0.000762
v -2.035091 -0.001689 -0.000751
v -2.034678 -0.001689 -0.000734
v -2.034678 0.001691 -0.000734
v -2.035091 0.001691 -0.000751
v -2.034678 -0.001987 -0.000940
v -2.035091 -0.001987 -0.000956
v -2.035091 -0.002011 -0.001084
v -2.034678 -0.002011 -0.001067
v -2.035091 -0.001987 -0.000956
v -2.035504 -0.001987 -0.000968
v -2.035504 -0.002011 -0.001095
v -2.035091 -0.002011 -0.001084
v -2.035504 -0.001987 -0.000968
v -2.035917 -0.001987 -0.000975
v -2.035917 -0.002011 -0.001102
v -2.035504 -0.002011 -0.001095
v -2.035917 -0.001987 -0.000975
v -2.036330 -0.001987 -0.000977
v -2.036330 -0.002011 -0.001104
v -2.035917 -0.002011 -0.001102
v -2.034678 0.001988 -0.000940
v -2.035091 0.001988 -0.000956
v -2.035091 0.001919 -0.000848
v -2.034678 0.001919 -0.000832
v -2.035091 0.001988 -0.000956
v -2.035504 0.001988 -0.000968
v -2.035504 0.001919 -0.000860
v -2.035091 0.001919 -0.000848
v -2.035504 0.001988 -0.000968
v -2.035917 0.001988 -0.000975
v -2.035917 0.001919 -0.000867
v -2.035504 0.001919 -0.000860
v -2.035917 0.001988 -0.000975
v -2.036330 0.001988 -0.000977
v -2.036330 0.001919 -0.000869
v -2.035917 0.001919 -0.000867
v -2.036330 0.001691 -0.005733
v -2.035917 0.001691 -0.005730
v -2.035917 -0.001689 -0.005730
v -2.036330 -0.001689 -0.005733
v -2.035917 0.001691 -0.005730
v -2.035504 0.001691 -0.005720
v -2.035504 -0.001689 -0.005720
v -2.035917 -0.001689 -0.005730
v -2.035504 0.001691 -0.005720
v -2.035092 0.001691 -0.005704
v -2.035092 -0.001689 -0.005704
v -2.035504 -0.001689 -0.005720
v -2.035092 0.001691 -0.005704
v -2.034680 0.001691 -0.005682
v -2.034680 -0.001689 -0.005682
v -2.035092 -0.001689 -0.005704
v -2.036330 -0.002011 -0.005382
v -2.035917 -0.002011 -0.005379
v -2.035917 -0.002011 -0.001102
v -2.036330 -0.002011 -0.001104
v -2.035917 -0.002011 -0.005379
v -2.035504 -0.002011 -0.005369
v -2.035504 -0.002011 -0.001095
v -2.035917 -0.002011 -0.001102
v -2.035504 -0.002011 -0.005369
v -2.035092 -0.002011 -0.005353
v -2.035091 -0.002011 -0.001084
v -2.035504 -0.002011 -0.001095
v -2.035092 -0.002011 -0.005353
v -2.034680 -0.002011 -0.005331
v -2.034678 -0.002011 -0.001067
v -2.035091 -0.002011 -0.001084
v -2.034678 0.001919 -0.000832
v -2.035091 0.001919 -0.000848
v -2.035091 0.001814 -0.000776
v -2.034678 0.001814 -0.000760
v -2.035091 0.001919 -0.000848
v -2.035504 0.001919 -0.000860
v -2.035504 0.001814 -0.000788
v -2.035091 0.001814 -0.000776
v -2.035504 0.001919 -0.000860
v -2.035917 0.001919 -0.000867
v -2.035917 0.001814 -0.000795
v -2.035504 0.001814 -0.000788
v -2.035917 0.001919 -0.000867
v -2.036330 0.001919 -0.000869
v -2.036330 0.001814 -0.000797
v -2.035917 0.001814 -0.000795
v -2.036330 0.002013 -0.001104
v -2.035917 0.002013 -0.001102
v -2.035917 0.002013 -0.005379
v -2.036330 0.002013 -0.005382
v -2.035917 0.002013 -0.001102
v -2.035504 0.002013 -0.001095
v -2.035504 0.002013 -0.005369
v -2.035917 0.002013 -0.005379
v -2.035504 0.002013 -0.001095
v -2.035091 0.002013 -0.001084
v -2.035092 0.002013 -0.005353
v -2.035504 0.002013 -0.005369
v -2.035091 0.002013 -0.001084
v -2.034678 0.002013 -0.001067
v -2.034680 0.002013 -0.005331
v -2.035092 0.002013 -0.005353
v -2.036330 -0.001987 -0.005516
v -2.035917 -0.001987 -0.005513
v -2.035917 -0.002011 -0.005379
v -2.036330 -0.002011 -0.005382
v -2.035917 -0.001987 -0.005513
v -2.035504 -0.001987 -0.005503
v -2.035504 -0.002011 -0.005369
v -2.035917 -0.002011 -0.005379
v -2.035504 -0.001987 -0.005503
v -2.035092 -0.001987 -0.005487
v -2.035092 -0.002011 -0.005353
v -2.035504 -0.002011 -0.005369
v -2.035092 -0.001987 -0.005487
v -2.034680 -0.001987 -0.005465
v -2.034680 -0.002011 -0.005331
v -2.035092 -0.002011 -0.005353
v -2.034678 0.001814 -0.000760
v -2.035091 0.001814 -0.000776
v -2.035091 0.001691 -0.000751
v -2.034678 0.001691 -0.000734
v -2.035091 0.001814 -0.000776
v -2.035504 0.001814 -0.000788
v -2.035504 0.001691 -0.000762
v -2.035091 0.001691 -0.000751
v -2.035504 0.001814 -0.000788
v -2.035917 0.001814 -0.000795
v -2.035917 0.001691 -0.000769
v -2.035504 0.001691 -0.000762
v -2.035917 0.001814 -0.000795
v -2.036330 0.001814 -0.000797
v -2.036330 0.001691 -0.000772
v -2.035917 0.001691 -0.000769
v -2.036330 0.001814 -0.005706
v -2.035917 0.001814 -0.005703
v -2.035917 0.001691 -0.005730
v -2.036330 0.001691 -0.005733
v -2.035917 0.001814 -0.005703
v -2.035504 0.001814 -0.005693
v -2.035504 0.001691 -0.005720
v -2.035917 0.001691 -0.005730
v -2.035504 0.001814 -0.005693
v -2.035092 0.001814 -0.005677
v -2.035092 0.001691 -0.005704
v -2.035504 0.001691 -0.005720
v -2.035092 0.001814 -0.005677
v -2.034680 0.001814 -0.005655
v -2.034680 0.001691 -0.005682
v -2.035092 0.001691 -0.005704
v -2.036330 -0.001689 -0.005733
v -2.035917 -0.001689 -0.005730
v -2.035917 -0.001813 -0.005703
v -2.036330 -0.001813 -0.005706
v -2.035917 -0.001689 -0.005730
v -2.035504 -0.001689 -0.005720
v -2.035504 -0.001813 -0.005693
v -2.035917 -0.001813 -0.005703
v -2.035504 -0.001689 -0.005720
v -2.035092 -0.001689 -0.005704
v -2.035092 -0.001813 -0.005677
v -2.035504 -0.001813 -0.005693
v -2.035092 -0.001689 -0.005704
v -2.034680 -0.001689 -0.005682
v -2.034680 -0.001813 -0.005655
v -2.035092 -0.001813 -0.005677
v -2.036330 -0.001813 -0.005706
v -2.035917 -0.001813 -0.005703
v -2.035917 -0.001917 -0.005627
v -2.036330 -0.001917 -0.005630
v -2.035917 -0.001813 -0.005703
v -2.035504 -0.001813 -0.005693
v -2.035504 -0.001917 -0.005617
v -2.035917 -0.001917 -0.005627
v -2.035504 -0.001813 -0.005693
v -2.035092 -0.001813 -0.005677
v -2.035092 -0.001917 -0.005601
v -2.035504 -0.001917 -0.005617
v -2.035092 -0.001813 -0.005677
v -2.034680 -0.001813 -0.005655
v -2.034680 -0.001917 -0.005579
v -2.035092 -0.001917 -0.005601
v -2.036330 -0.001917 -0.005630
v -2.035917 -0.001917 -0.005627
v -2.035917 -0.001987 -0.005513
v -2.036330 -0.001987 -0.005516
v -2.035917 -0.001917 -0.005627
v -2.035504 -0.001917 -0.005617
v -2.035504 -0.001987 -0.005503
v -2.035917 -0.001987 -0.005513
v -2.035504 -0.001917 -0.005617
v -2.035092 -0.001917 -0.005601
v -2.035092 -0.001987 -0.005487
v -2.035504 -0.001987 -0.005503
v -2.035092 -0.001917 -0.005601
v -2.034680 -0.001917 -0.005579
v -2.034680 -0.001987 -0.005465
v -2.035092 -0.001987 -0.005487
v -2.036330 0.002013 -0.005382
v -2.035917 0.002013 -0.005379
v -2.035917 0.001988 -0.005513
v -2.036330 0.001988 -0.005516
v -2.035917 0.002013 -0.005379
v -2.035504 0.002013 -0.005369
v -2.035504 0.001988 -0.005503
v -2.035917 0.001988 -0.005513
v -2.035504 0.002013 -0.005369
v -2.035092 0.002013 -0.005353
v -2.035092 0.001988 -0.005487
v -2.035504 0.001988 -0.005503
v -2.035092 0.002013 -0.005353
v -2.034680 0.002013 -0.005331
v -2.034680 0.001988 -0.005465
v -2.035092 0.001988 -0.005487
v -2.036330 0.001988 -0.005516
v -2.035917 0.001988 -0.005513
v -2.035917 0.001919 -0.005627
v -2.036330 0.001919 -0.005630
v -2.035917 0.001988 -0.005513
v -2.035504 0.001988 -0.005503
v -2.035504 0.001919 -0.005617
v -2.035917 0.001919 -0.005627
v -2.035504 0.001988 -0.005503
v -2.035092 0.001988 -0.005487
v -2.035092 0.001919 -0.005601
v -2.035504 0.001919 -0.005617
v -2.035092 0.001988 -0.005487
v -2.034680 0.001988 -0.005465
v -2.034680 0.001919 -0.005579
v -2.035092 0.001919 -0.005601
v -2.036330 0.001919 -0.005630
v -2.035917 0.001919 -0.005627
v -2.035917 0.001814 -0.005703
v -2.036330 0.001814 -0.005706
v -2.035917 0.001919 -0.005627
v -2.035504 0.001919 -0.005617
v -2.035504 0.001814 -0.005693
v -2.035917 0.001814 -0.005703
v -2.035504 0.001919 -0.005617
v -2.035092 0.001919 -0.005601
v -2.035092 0.001814 -0.005677
v -2.035504 0.001814 -0.005693
v -2.035092 0.001919 -0.005601
v -2.034680 0.001919 -0.005579
v -2.034680 0.001814 -0.005655
v -2.035092 0.001814 -0.005677
v -2.036330 -0.001813 -0.000797
v -2.035917 -0.001813 -0.000795
v -2.035917 -0.001689 -0.000769
v -2.036330 -0.001689 -0.000772
v -2.035917 -0.001813 -0.000795
v -2.035504 -0.001813 -0.000788
v -2.035504 -0.001689 -0.000762
v -2.035917 -0.001689 -0.000769
v -2.035504 -0.001813 -0.000788
v -2.035091 -0.001813 -0.000776
v -2.035091 -0.001689 -0.000751
v -2.035504 -0.001689 -0.000762
v -2.035091 -0.001813 -0.000776
v -2.034678 -0.001813 -0.000760
v -2.034678 -0.001689 -0.000734
v -2.035091 -0.001689 -0.000751
v -2.034678 -0.001689 -0.000734
v -2.034678 -0.001813 -0.000760
v -2.013340 -0.001813 -0.000137
v -2.013300 -0.001689 -0.000110
v -2.036330 -0.001813 -0.000797
v -2.036330 -0.001689 -0.000772
v -2.037157 -0.001689 -0.000772
v -2.037171 -0.001813 -0.000797
v -2.034678 -0.001813 -0.000760
v -2.034678 -0.001917 -0.000832
v -2.013455 -0.001917 -0.000214
v -2.013340 -0.001813 -0.000137
v -2.036330 -0.001917 -0.000869
v -2.036330 -0.001813 -0.000797
v -2.037171 -0.001813 -0.000797
v -2.037211 -0.001917 -0.000869
v -2.034678 -0.001917 -0.000832
v -2.034678 -0.001987 -0.000940
v -2.013627 -0.001987 -0.000328
v -2.013455 -0.001917 -0.000214
v -2.036330 -0.001917 -0.000869
v -2.037211 -0.001917 -0.000869
v -2.037270 -0.001987 -0.000976
v -2.036330 -0.001987 -0.000977
v -2.034678 -0.001987 -0.000940
v -2.034678 -0.002011 -0.001067
v -2.013829 -0.002011 -0.000463
v -2.013627 -0.001987 -0.000328
v -2.036330 -0.001987 -0.000977
v -2.037270 -0.001987 -0.000976
v -2.037340 -0.002011 -0.001103
v -2.036330 -0.002011 -0.001104
v -2.017238 -0.002011 -0.004720
v -2.034680 -0.002011 -0.005331
v -2.034680 -0.001987 -0.005465
v -2.017218 -0.001987 -0.004855
v -2.036330 -0.001987 -0.005516
v -2.036330 -0.002011 -0.005382
v -2.057529 -0.002011 -0.003606
v -2.057549 -0.001987 -0.003696
v -2.017218 -0.001987 -0.004855
v -2.034680 -0.001987 -0.005465
v -2.034680 -0.001917 -0.005579
v -2.017202 -0.001917 -0.004969
v -2.036330 -0.001917 -0.005630
v -2.036330 -0.001987 -0.005516
v -2.057549 -0.001987 -0.003696
v -2.057565 -0.001917 -0.003772
v -2.017202 -0.001917 -0.004969
v -2.034680 -0.001917 -0.005579
v -2.034680 -0.001813 -0.005655
v -2.017190 -0.001813 -0.005045
v -2.036330 -0.001813 -0.005706
v -2.036330 -0.001917 -0.005630
v -2.057565 -0.001917 -0.003772
v -2.057577 -0.001813 -0.003823
v -2.017190 -0.001813 -0.005045
v -2.034680 -0.001813 -0.005655
v -2.034680 -0.001689 -0.005682
v -2.017186 -0.001689 -0.005071
v -2.036330 -0.001689 -0.005733
v -2.036330 -0.001813 -0.005706
v -2.057577 -0.001813 -0.003823
v -2.057581 -0.001689 -0.003841
v -2.057529 0.002013 -0.003606
v -2.036330 0.002013 -0.005382
v -2.036330 0.001988 -0.005516
v -2.057549 0.001988 -0.003696
v -2.034680 0.001988 -0.005465
v -2.034680 0.002013 -0.005331
v -2.017238 0.002013 -0.004720
v -2.017218 0.001988 -0.004855
v -2.057549 0.001988 -0.003696
v -2.036330 0.001988 -0.005516
v -2.036330 0.001919 -0.005630
v -2.057565 0.001919 -0.003772
v -2.034680 0.001919 -0.005579
v -2.034680 0.001988 -0.005465
v -2.017218 0.001988 -0.004855
v -2.017202 0.001919 -0.004969
v -2.057565 0.001919 -0.003772
v -2.036330 0.001919 -0.005630
v -2.036330 0.001814 -0.005706
v -2.057577 0.001814 -0.003823
v -2.034680 0.001814 -0.005655
v -2.034680 0.001919 -0.005579
v -2.017202 0.001919 -0.004969
v -2.017190 0.001814 -0.005045
v -2.057577 0.001814 -0.003823
v -2.036330 0.001814 -0.005706
v -2.036330 0.001691 -0.005733
v -2.057581 0.001691 -0.003841
v -2.034680 0.001691 -0.005682
v -2.034680 0.001814 -0.005655
v -2.017190 0.001814 -0.005045
v -2.017186 0.001691 -0.005071
v -2.013829 0.002013 -0.000463
v -2.034678 0.002013 -0.001067
v -2.034678 0.001988 -0.000940
v -2.013627 0.001988 -0.000328
v -2.037340 0.002013 -0.001103
v -2.037270 0.001988 -0.000976
v -2.036330 0.001988 -0.000977
v -2.036330 0.002013 -0.001104
v -2.013627 0.001988 -0.000328
v -2.034678 0.001988 -0.000940
v -2.034678 0.001919 -0.000832
v -2.013455 0.001919 -0.000214
v -2.037270 0.001988 -0.000976
v -2.037211 0.001919 -0.000869
v -2.036330 0.001919 -0.000869
v -2.036330 0.001988 -0.000977
v -2.013455 0.001919 -0.000214
v -2.034678 0.001919 -0.000832
v -2.034678 0.001814 -0.000760
v -2.013340 0.001814 -0.000137
v -2.037211 0.001919 -0.000869
v -2.037171 0.001814 -0.000797
v -2.036330 0.001814 -0.000797
v -2.036330 0.001919 -0.000869
v -2.013340 0.001814 -0.000137
v -2.034678 0.001814 -0.000760
v -2.034678 0.001691 -0.000734
v -2.013300 0.001691 -0.000110
v -2.037171 0.001814 -0.000797
v -2.037157 0.001691 -0.000772
v -2.036330 0.001691 -0.000772
v -2.036330 0.001814 -0.000797
v -2.034678 0.001691 -0.000734
v -2.034678 -0.001689 -0.000734
v -2.013300 -0.001689 -0.000110
v -2.013300 0.001691 -0.000110
v -2.036330 -0.001689 -0.000772
v -2.036330 0.001691 -0.000772
v -2.037157 0.001691 -0.000772
v -2.037157 -0.001689 -0.000772
v -2.014085 0.002013 -0.003337
v -2.017238 0.002013 -0.004720
v -2.013829 0.002013 -0.000463
v -2.013827 0.002013 -0.002446
v -2.014813 0.002013 -0.004063
v -2.015902 0.002013 -0.004548
v -2.017238 0.002013 -0.004720
v -2.014085 0.002013 -0.003337
v -2.034680 0.002013 -0.005331
v -2.034678 0.002013 -0.001067
v -2.013829 0.002013 -0.000463
v -2.017238 0.002013 -0.004720
v -2.053364 0.002013 -0.001231
v -2.050663 0.002013 -0.001231
v -2.057529 0.002013 -0.003606
v -2.060682 0.002013 -0.002679
v -2.060940 0.002013 -0.002082
v -2.060986 0.002013 -0.000919
v -2.058766 0.002013 -0.001231
v -2.056065 0.002013 -0.001231
v -2.057529 0.002013 -0.003606
v -2.058865 0.002013 -0.003491
v -2.058766 0.002013 -0.001231
v -2.060117 0.002013 -0.000459
v -2.058766 0.002013 -0.001231
v -2.060986 0.002013 -0.000919
v -2.047961 0.002013 -0.001231
v -2.046611 0.002013 -0.000459
v -2.045260 0.002013 -0.001231
v -2.043910 0.002013 -0.000459
v -2.042559 0.002013 -0.001231
v -2.036330 0.002013 -0.005382
v -2.045260 0.002013 -0.001231
v -2.041209 0.002013 -0.000459
v -2.039858 0.002013 -0.001231
v -2.036330 0.002013 -0.005382
v -2.042559 0.002013 -0.001231
v -2.038507 0.002013 -0.000459
v -2.037340 0.002013 -0.001103
v -2.036330 0.002013 -0.005382
v -2.039858 0.002013 -0.001231
v -2.037340 0.002013 -0.001103
v -2.036330 0.002013 -0.001104
v -2.036330 0.002013 -0.005382
v -2.058766 0.002013 -0.001231
v -2.057415 0.002013 -0.000459
v -2.056065 0.002013 -0.001231
v -2.053364 0.002013 -0.001231
v -2.052013 0.002013 -0.000459
v -2.050663 0.002013 -0.001231
v -2.050663 0.002013 -0.001231
v -2.049312 0.002013 -0.000459
v -2.047961 0.002013 -0.001231
v -2.050663 0.002013 -0.001231
v -2.047961 0.002013 -0.001231
v -2.057529 0.002013 -0.003606
v -2.054714 0.002013 -0.000459
v -2.053364 0.002013 -0.001231
v -2.057529 0.002013 -0.003606
v -2.056065 0.002013 -0.001231
v -2.058865 0.002013 -0.003491
v -2.059954 0.002013 -0.003165
v -2.060682 0.002013 -0.002679
v -2.058766 0.002013 -0.001231
v -2.045260 0.002013 -0.001231
v -2.036330 0.002013 -0.005382
v -2.057529 0.002013 -0.003606
v -2.047961 0.002013 -0.001231
v -2.017238 -0.002011 -0.004720
v -2.015902 -0.002011 -0.004548
v -2.014813 -0.002011 -0.004063
v -2.014085 -0.002011 -0.003337
v -2.034680 -0.002011 -0.005331
v -2.017238 -0.002011 -0.004720
v -2.013829 -0.002011 -0.000463
v -2.034678 -0.002011 -0.001067
v -2.014085 -0.002011 -0.003337
v -2.013827 -0.002011 -0.002446
v -2.013829 -0.002011 -0.000463
v -2.017238 -0.002011 -0.004720
v -2.060682 -0.002011 -0.002679
v -2.059954 -0.002011 -0.003165
v -2.058865 -0.002011 -0.003491
v -2.058766 -0.002011 -0.001231
v -2.056065 -0.002011 -0.001231
v -2.057415 -0.002011 -0.000459
v -2.058766 -0.002011 -0.001231
v -2.036330 -0.002011 -0.005382
v -2.036330 -0.002011 -0.001104
v -2.037340 -0.002011 -0.001103
v -2.036330 -0.002011 -0.005382
v -2.037340 -0.002011 -0.001103
v -2.038507 -0.002011 -0.000459
v -2.039858 -0.002011 -0.001231
v -2.036330 -0.002011 -0.005382
v -2.039858 -0.002011 -0.001231
v -2.041209 -0.002011 -0.000459
v -2.042559 -0.002011 -0.001231
v -2.036330 -0.002011 -0.005382
v -2.042559 -0.002011 -0.001231
v -2.043910 -0.002011 -0.000459
v -2.045260 -0.002011 -0.001231
v -2.057529 -0.002011 -0.003606
v -2.036330 -0.002011 -0.005382
v -2.045260 -0.002011 -0.001231
v -2.047961 -0.002011 -0.001231
v -2.045260 -0.002011 -0.001231
v -2.046611 -0.002011 -0.000459
v -2.047961 -0.002011 -0.001231
v -2.058766 -0.002011 -0.001231
v -2.060117 -0.002011 -0.000459
v -2.060986 -0.002011 -0.000919
v -2.060682 -0.002011 -0.002679
v -2.058766 -0.002011 -0.001231
v -2.060986 -0.002011 -0.000919
v -2.060940 -0.002011 -0.002082
v -2.057529 -0.002011 -0.003606
v -2.047961 -0.002011 -0.001231
v -2.050663 -0.002011 -0.001231
v -2.047961 -0.002011 -0.001231
v -2.049312 -0.002011 -0.000459
v -2.050663 -0.002011 -0.001231
v -2.057529 -0.002011 -0.003606
v -2.050663 -0.002011 -0.001231
v -2.053364 -0.002011 -0.001231
v -2.057529 -0.002011 -0.003606
v -2.053364 -0.002011 -0.001231
v -2.054714 -0.002011 -0.000459
v -2.056065 -0.002011 -0.001231
v -2.058865 -0.002011 -0.003491
v -2.057529 -0.002011 -0.003606
v -2.056065 -0.002011 -0.001231
v -2.058766 -0.002011 -0.001231
v -2.050663 -0.002011 -0.001231
v -2.052013 -0.002011 -0.000459
v -2.053364 -0.002011 -0.001231
v -2.057581 0.001691 -0.003841
v -2.036330 0.001691 -0.005733
v -2.036330 -0.001689 -0.005733
v -2.057581 -0.001689 -0.003841
v -2.034680 -0.001689 -0.005682
v -2.034680 0.001691 -0.005682
v -2.017186 0.001691 -0.005071
v -2.017186 -0.001689 -0.005071
vn -0.2586 0.9642 -0.0589
vn -0.2386 0.9570 0.1650
vn -0.0664 0.9967 0.0461
vn -0.0661 0.9977 -0.0157
vn -0.5325 0.8383 -0.1176
vn -0.4672 0.8232 0.3227
vn -0.2384 0.9570 0.1651
vn -0.2585 0.9642 -0.0588
vn -0.8228 0.5395 -0.1788
vn -0.7025 0.5210 0.4849
vn -0.4672 0.8231 0.3227
vn -0.5325 0.8382 -0.1176
vn -0.9658 0.1528 -0.2096
vn -0.8140 0.1487 0.5615
vn -0.7021 0.5214 0.4849
vn -0.8225 0.5399 -0.1788
vn 0.0001 -0.5456 0.8380
vn -0.0000 -0.4630 0.8863
vn -0.0000 -0.1316 0.9913
vn -0.0000 -0.1460 0.9893
vn -0.0000 -0.8511 0.5250
vn -0.0000 -0.7779 0.6283
vn -0.0000 -0.4629 0.8864
vn -0.0000 -0.5456 0.8381
vn -0.0000 -0.9755 0.2201
vn -0.0000 -0.9400 0.3412
vn -0.0000 -0.7780 0.6283
vn -0.0000 -0.9993 0.0380
vn -0.0000 -0.9950 0.1000
vn -0.0006 0.9376 0.3477
vn -0.0000 0.9755 0.2201
vn -0.0000 0.9993 0.0380
vn 0.0005 0.9948 0.1021
vn -0.0013 0.7716 0.6361
vn -0.0000 0.8511 0.5251
vn -0.0000 0.9755 0.2202
vn -0.0005 0.9376 0.3478
vn -0.0007 0.4561 0.8899
vn -0.0000 0.5457 0.8380
vn -0.0001 0.8512 0.5249
vn -0.0014 0.7717 0.6360
vn -0.0001 0.1289 0.9917
vn -0.0000 0.1458 0.9893
vn -0.0000 0.5455 0.8381
vn -0.0007 0.4559 0.8900
vn -0.0842 0.8822 -0.4633
vn -0.1662 0.9106 -0.3785
vn -0.0448 0.9930 -0.1088
vn -0.0226 0.9907 -0.1341
vn -0.1457 0.6205 -0.7705
vn -0.3018 0.6881 -0.6598
vn -0.1785 0.3122 -0.9331
vn -0.3916 0.3690 -0.8429
vn -0.3018 0.6880 -0.6600
vn -0.1457 0.6204 -0.7706
vn -0.1867 0.0772 -0.9794
vn -0.4184 0.0937 -0.9034
vn -0.3917 0.3689 -0.8429
vn -0.1785 0.3121 -0.9331
vn -0.0007 0.4560 0.8900
vn -0.7025 0.5208 0.4850
vn -0.8140 0.1478 0.5617
vn -0.0000 0.1290 0.9916
vn -0.0012 0.7718 0.6359
vn -0.4672 0.8232 0.3226
vn -0.7023 0.5212 0.4849
vn -0.0006 0.4562 0.8899
vn -0.0005 0.9376 0.3476
vn -0.2385 0.9570 0.1650
vn -0.0013 0.7717 0.6360
vn 0.0004 0.9948 0.1021
vn -0.0663 0.9967 0.0462
vn -0.2385 0.9570 0.1651
vn -0.0000 -0.4628 0.8864
vn -0.0000 -0.5455 0.8381
vn -0.0000 -0.1458 0.9893
vn -0.0000 -0.1315 0.9913
vn -0.0000 -0.8510 0.5251
vn -0.0000 -0.9755 0.2200
vn -0.0000 -0.7780 0.6282
vn 0.0001 -0.1315 0.9913
vn 0.0001 -0.8511 0.5249
vn 0.0001 -0.7781 0.6282
vn 0.0001 -0.4631 0.8863
vn -0.0000 -0.5457 0.8380
vn -0.0000 -0.9755 0.2202
vn -0.0001 -0.9400 0.3413
vn -0.0000 -0.8511 0.5251
vn -0.1662 -0.9106 -0.3784
vn -0.0842 -0.8822 -0.4633
vn -0.0226 -0.9907 -0.1341
vn -0.0448 -0.9931 -0.1088
vn -0.3018 -0.6881 -0.6598
vn -0.1457 -0.6205 -0.7705
vn -0.1662 -0.9106 -0.3785
vn -0.3916 -0.3690 -0.8429
vn -0.1785 -0.3122 -0.9331
vn -0.1457 -0.6204 -0.7706
vn -0.3018 -0.6880 -0.6600
vn -0.4184 -0.0937 -0.9034
vn -0.1867 -0.0772 -0.9794
vn -0.1785 -0.3121 -0.9331
vn -0.3917 -0.3689 -0.8429
vn 0.0005 -0.4585 0.8887
vn 0.2134 -0.4470 0.8687
vn 0.2377 -0.1149 0.9645
vn -0.0000 -0.1298 0.9915
vn 0.0007 -0.7744 0.6327
vn 0.1493 -0.7748 0.6143
vn 0.2133 -0.4474 0.8685
vn 0.0004 -0.4588 0.8885
vn 0.0004 -0.9387 0.3448
vn 0.0713 -0.9525 0.2960
vn 0.1494 -0.7747 0.6144
vn 0.0008 -0.7742 0.6329
vn -0.0002 -0.9949 0.1011
vn 0.0156 -0.9978 0.0649
vn 0.0712 -0.9526 0.2959
vn 0.0003 -0.9387 0.3447
vn -0.0000 -0.1459 0.9893
vn 0.0003 0.9387 0.3447
vn 0.0712 0.9526 0.2959
vn 0.0156 0.9978 0.0649
vn -0.0002 0.9949 0.1011
vn 0.0008 0.7743 0.6328
vn 0.1493 0.7748 0.6144
vn 0.0712 0.9525 0.2959
vn 0.0004 0.4589 0.8885
vn 0.2133 0.4474 0.8685
vn 0.1493 0.7748 0.6143
vn 0.0007 0.7744 0.6328
vn -0.0000 0.1298 0.9915
vn 0.2377 0.1148 0.9645
vn 0.2134 0.4470 0.8687
vn 0.0004 0.4585 0.8887
vn -0.2385 -0.9570 0.1650
vn -0.2586 -0.9642 -0.0589
vn -0.0661 -0.9977 -0.0157
vn -0.0664 -0.9967 0.0461
vn -0.4672 -0.8232 0.3227
vn -0.5325 -0.8382 -0.1176
vn -0.2585 -0.9642 -0.0589
vn -0.2384 -0.9570 0.1651
vn -0.7025 -0.5210 0.4849
vn -0.8228 -0.5395 -0.1788
vn -0.5326 -0.8382 -0.1176
vn -0.4672 -0.8231 0.3227
vn -0.8140 -0.1487 0.5615
vn -0.9658 -0.1528 -0.2096
vn -0.8225 -0.5399 -0.1788
vn -0.7021 -0.5214 0.4849
vn 0.0004 -0.4586 0.8886
vn 0.0001 -0.1299 0.9915
vn 0.0001 -0.8511 0.5250
vn 0.0008 -0.7743 0.6328
vn 0.0005 -0.4588 0.8885
vn -0.0006 -0.9376 0.3478
vn -0.2385 -0.9570 0.1651
vn -0.0663 -0.9967 0.0462
vn 0.0004 -0.9948 0.1021
vn -0.0013 -0.7717 0.6360
vn -0.2384 -0.9570 0.1650
vn -0.0005 -0.9376 0.3476
vn -0.0006 -0.4562 0.8899
vn -0.7023 -0.5212 0.4849
vn -0.4672 -0.8232 0.3226
vn -0.0012 -0.7718 0.6359
vn -0.0000 -0.1290 0.9916
vn -0.8141 -0.1478 0.5616
vn -0.7026 -0.5208 0.4850
vn -0.0007 -0.4560 0.8900
vn 0.1793 0.9463 -0.2689
vn 0.0952 0.9335 -0.3457
vn 0.0255 0.9954 -0.0928
vn 0.0475 0.9963 -0.0713
vn 0.3470 0.7802 -0.5205
vn 0.1781 0.7428 -0.6454
vn 0.1793 0.9463 -0.2690
vn 0.4920 0.4618 -0.7380
vn 0.2414 0.4204 -0.8747
vn 0.1781 0.7428 -0.6455
vn 0.5504 0.1243 -0.8256
vn 0.2646 0.1109 -0.9580
vn 0.2415 0.4201 -0.8747
vn 0.4920 0.4616 -0.7381
vn 0.2371 -0.9603 -0.1469
vn 0.2508 -0.9673 -0.0366
vn 0.0633 -0.9980 -0.0091
vn 0.0620 -0.9973 -0.0383
vn 0.4785 -0.8263 -0.2970
vn 0.5234 -0.8486 -0.0768
vn 0.2508 -0.9674 -0.0366
vn 0.7245 -0.5222 -0.4499
vn 0.8231 -0.5548 -0.1213
vn 0.5236 -0.8485 -0.0769
vn 0.4786 -0.8263 -0.2970
vn 0.8403 -0.1462 -0.5220
vn 0.9769 -0.1579 -0.1443
vn 0.8230 -0.5550 -0.1213
vn 0.7244 -0.5224 -0.4499
vn -0.1661 0.9106 -0.3784
vn -0.2347 0.9466 -0.2212
vn -0.0629 0.9960 -0.0627
vn -0.0448 0.9931 -0.1088
vn -0.3019 0.6880 -0.6599
vn -0.4576 0.7874 -0.4130
vn -0.2348 0.9465 -0.2213
vn -0.1663 0.9105 -0.3786
vn -0.3917 0.3691 -0.8428
vn -0.6601 0.4740 -0.5828
vn -0.4575 0.7875 -0.4130
vn -0.3018 0.6881 -0.6599
vn -0.4185 0.0938 -0.9034
vn -0.7429 0.1284 -0.6570
vn -0.0007 -0.4559 0.8900
vn -0.0001 -0.1289 0.9917
vn -0.0014 -0.7717 0.6360
vn -0.0001 -0.8511 0.5250
vn -0.0007 -0.4561 0.8900
vn -0.0005 -0.9376 0.3478
vn -0.0013 -0.7716 0.6361
vn 0.0005 -0.9948 0.1021
vn -0.0006 -0.9376 0.3477
vn -0.0382 0.8972 -0.4400
vn -0.0225 0.9907 -0.1341
vn -0.0102 0.9929 -0.1185
vn -0.0670 0.6430 -0.7630
vn -0.1456 0.6206 -0.7705
vn -0.0841 0.8822 -0.4633
vn -0.0833 0.3281 -0.9410
vn -0.0670 0.6428 -0.7631
vn -0.0882 0.0814 -0.9928
vn -0.1866 0.0773 -0.9794
vn -0.0000 0.8511 0.5249
vn -0.0000 0.9755 0.2200
vn 0.0004 0.4588 0.8886
vn 0.0001 0.8511 0.5250
vn 0.0001 0.1299 0.9915
vn 0.0004 0.4586 0.8886
vn 0.0952 -0.9335 -0.3457
vn 0.1793 -0.9463 -0.2689
vn 0.0475 -0.9963 -0.0712
vn 0.0255 -0.9954 -0.0928
vn 0.1781 -0.7428 -0.6454
vn 0.3470 -0.7802 -0.5205
vn 0.1793 -0.9463 -0.2690
vn 0.2414 -0.4204 -0.8746
vn 0.4920 -0.4618 -0.7380
vn 0.2646 -0.1109 -0.9580
vn 0.5504 -0.1243 -0.8256
vn 0.4921 -0.4616 -0.7381
vn 0.2415 -0.4201 -0.8747
vn -0.0001 -0.4631 0.8863
vn -0.0001 -0.5458 0.8379
vn -0.0000 -0.1461 0.9893
vn -0.0000 -0.1318 0.9913
vn 0.0001 -0.9400 0.3413
vn -0.2347 -0.9466 -0.2212
vn -0.1661 -0.9106 -0.3784
vn -0.0629 -0.9960 -0.0628
vn -0.4576 -0.7874 -0.4130
vn -0.3019 -0.6880 -0.6599
vn -0.1663 -0.9105 -0.3786
vn -0.2348 -0.9465 -0.2213
vn -0.6601 -0.4740 -0.5828
vn -0.3917 -0.3691 -0.8428
vn -0.3018 -0.6881 -0.6599
vn -0.4575 -0.7875 -0.4130
vn -0.7429 -0.1283 -0.6570
vn -0.4185 -0.0938 -0.9034
vn 0.1491 0.9581 0.2446
vn 0.2507 0.9674 -0.0365
vn 0.0633 0.9980 -0.0091
vn 0.0429 0.9965 0.0722
vn 0.2914 0.8355 0.4658
vn 0.5237 0.8485 -0.0769
vn 0.2510 0.9673 -0.0366
vn 0.1493 0.9581 0.2446
vn 0.4520 0.5406 0.7095
vn 0.8229 0.5550 -0.1213
vn 0.5234 0.8486 -0.0768
vn 0.2911 0.8356 0.4658
vn 0.5314 0.1629 0.8313
vn 0.9770 0.1571 -0.1442
vn 0.8233 0.5544 -0.1213
vn 0.4522 0.5404 0.7096
vn -0.0000 0.9400 0.3412
vn -0.0000 0.9950 0.1000
vn -0.0000 0.7779 0.6283
vn 0.0001 0.9400 0.3413
vn -0.0000 0.4629 0.8864
vn -0.0000 0.5456 0.8381
vn -0.0000 0.8511 0.5250
vn -0.0000 0.7779 0.6284
vn -0.0000 0.1318 0.9913
vn -0.0000 0.1461 0.9893
vn -0.0001 0.5458 0.8379
vn -0.0001 0.4631 0.8863
vn -0.0000 -0.5456 0.8380
vn -0.0001 -0.9399 0.3413
vn -0.0000 -0.7779 0.6284
vn -0.0001 -0.8510 0.5251
vn 0.2508 -0.9674 -0.0365
vn 0.1491 -0.9581 0.2446
vn 0.0430 -0.9965 0.0722
vn 0.5237 -0.8485 -0.0768
vn 0.2914 -0.8355 0.4658
vn 0.1493 -0.9581 0.2446
vn 0.2510 -0.9673 -0.0366
vn 0.8229 -0.5551 -0.1213
vn 0.4520 -0.5406 0.7095
vn 0.2911 -0.8356 0.4658
vn 0.9770 -0.1571 -0.1442
vn 0.5314 -0.1630 0.8313
vn 0.4522 -0.5404 0.7096
vn 0.8233 -0.5544 -0.1213
vn 0.0001 0.8510 0.5251
vn 0.0001 0.9755 0.2202
vn -0.0000 0.4631 0.8863
vn -0.0001 0.8511 0.5250
vn -0.0000 0.7780 0.6282
vn -0.0000 0.1314 0.9913
vn -0.0000 0.4628 0.8864
vn 0.0298 0.9327 -0.3595
vn 0.0077 0.9956 -0.0932
vn 0.0255 0.9954 -0.0929
vn 0.1780 0.7428 -0.6454
vn 0.0561 0.7344 -0.6764
vn 0.0298 0.9326 -0.3596
vn 0.2414 0.4202 -0.8747
vn 0.0755 0.4099 -0.9090
vn 0.0561 0.7343 -0.6765
vn 0.1780 0.7427 -0.6455
vn 0.2645 0.1110 -0.9580
vn 0.0825 0.1068 -0.9909
vn 0.0755 0.4098 -0.9090
vn -0.0001 0.8510 0.5251
vn -0.0001 0.9399 0.3413
vn -0.0001 0.9755 0.2202
vn 0.0001 0.4631 0.8863
vn 0.0001 0.5458 0.8379
vn -0.0001 -0.5457 0.8380
vn -0.0001 -0.1458 0.9893
vn -0.0001 -0.1315 0.9913
vn -0.0000 -0.4630 0.8864
vn 0.0001 0.7781 0.6282
vn 0.0001 0.9755 0.2200
vn -0.0000 0.7780 0.6283
vn -0.0000 0.4630 0.8864
vn -0.0001 0.1315 0.9913
vn -0.0001 0.1459 0.9893
vn 0.0001 -0.1458 0.9893
vn 0.3471 -0.7801 -0.5205
vn 0.4786 -0.8262 -0.2971
vn 0.2372 -0.9603 -0.1470
vn 0.1794 -0.9463 -0.2690
vn 0.4920 -0.4617 -0.7380
vn 0.7245 -0.5221 -0.4500
vn 0.8403 -0.1457 -0.5222
vn 0.7246 -0.5220 -0.4500
vn -0.2347 0.9466 -0.2211
vn -0.0660 0.9977 -0.0157
vn -0.4577 0.7873 -0.4130
vn -0.5328 0.8380 -0.1177
vn -0.2588 0.9641 -0.0590
vn -0.2350 0.9465 -0.2212
vn -0.6603 0.4735 -0.5829
vn -0.8231 0.5389 -0.1790
vn -0.5330 0.8379 -0.1178
vn -0.4579 0.7873 -0.4130
vn -0.7429 0.1284 -0.6569
vn -0.9658 0.1521 -0.2098
vn -0.8228 0.5394 -0.1789
vn -0.6601 0.4740 -0.5827
vn -0.0000 0.1315 0.9913
vn 0.2371 0.9603 -0.1469
vn 0.0475 0.9963 -0.0712
vn 0.0620 0.9973 -0.0383
vn 0.4786 0.8262 -0.2971
vn 0.3471 0.7801 -0.5206
vn 0.1794 0.9463 -0.2690
vn 0.2372 0.9603 -0.1470
vn 0.7245 0.5221 -0.4500
vn 0.4920 0.4617 -0.7381
vn 0.8403 0.1457 -0.5222
vn 0.4921 0.4616 -0.7381
vn 0.7246 0.5220 -0.4500
vn -0.0001 0.9400 0.3413
vn -0.0000 0.1460 0.9893
vn -0.0000 0.1316 0.9913
vn -0.0000 0.4630 0.8863
vn 0.0001 0.5457 0.8380
vn 0.0001 0.1458 0.9893
vn -0.0000 -0.7781 0.6282
vn -0.0000 -0.4631 0.8863
vn 0.0001 -0.9399 0.3413
vn 0.0001 -0.8510 0.5251
vn -0.0382 -0.8972 -0.4400
vn -0.0102 -0.9929 -0.1185
vn -0.1457 -0.6206 -0.7705
vn -0.0670 -0.6430 -0.7630
vn -0.0833 -0.3281 -0.9410
vn -0.0670 -0.6427 -0.7632
vn -0.1457 -0.6204 -0.7707
vn -0.1866 -0.0773 -0.9794
vn -0.0882 -0.0814 -0.9928
vn -0.0000 0.5456 0.8380
vn 0.0001 -0.5458 0.8379
vn 0.0001 -0.9755 0.2200
vn -0.0000 -0.8511 0.5249
vn 0.2508 0.9674 -0.0366
vn 0.0633 0.9980 -0.0092
vn 0.5234 0.8486 -0.0769
vn 0.4785 0.8263 -0.2970
vn 0.8231 0.5548 -0.1213
vn 0.7245 0.5222 -0.4499
vn 0.4786 0.8263 -0.2970
vn 0.5235 0.8485 -0.0768
vn 0.9769 0.1579 -0.1443
vn 0.8403 0.1462 -0.5220
vn 0.7244 0.5224 -0.4499
vn 0.8230 0.5550 -0.1213
vn 0.0001 0.8512 0.5249
vn 0.0001 0.1315 0.9913
vn -0.0000 0.4628 0.8865
vn 0.0298 -0.9327 -0.3595
vn 0.0255 -0.9954 -0.0929
vn 0.0077 -0.9956 -0.0932
vn 0.0561 -0.7344 -0.6764
vn 0.1780 -0.7428 -0.6455
vn 0.0298 -0.9326 -0.3596
vn 0.0755 -0.4099 -0.9090
vn 0.2414 -0.4203 -0.8747
vn 0.1780 -0.7427 -0.6455
vn 0.0561 -0.7343 -0.6765
vn 0.0825 -0.1068 -0.9909
vn 0.2645 -0.1110 -0.9580
vn 0.2414 -0.4202 -0.8747
vn 0.0755 -0.4098 -0.9090
vn -0.2347 -0.9466 -0.2211
vn -0.0629 -0.9960 -0.0627
vn -0.0660 -0.9977 -0.0156
vn -0.5328 -0.8380 -0.1177
vn -0.4577 -0.7873 -0.4130
vn -0.2350 -0.9465 -0.2213
vn -0.2588 -0.9641 -0.0590
vn -0.8231 -0.5389 -0.1790
vn -0.6603 -0.4735 -0.5829
vn -0.4579 -0.7873 -0.4130
vn -0.5330 -0.8379 -0.1178
vn -0.9658 -0.1521 -0.2098
vn -0.7429 -0.1284 -0.6569
vn -0.6601 -0.4740 -0.5827
vn -0.8228 -0.5394 -0.1789
vn -0.0001 0.5456 0.8380
vn 0.2377 0.1151 0.9645
vn -0.0000 0.1300 0.9915
vn -0.0000 -0.1300 0.9915
vn 0.2377 -0.1151 0.9645
vn 0.0001 0.1301 0.9915
vn 0.0001 -0.1301 0.9915
vn -0.0001 0.1460 0.9893
vn -0.0001 -0.1460 0.9893
vn 0.0001 0.1460 0.9893
vn 0.0001 -0.1460 0.9893
vn -0.0001 0.1290 0.9916
vn -0.0001 -0.1290 0.9916
vn -0.8140 0.1480 0.5616
vn -0.8140 -0.1480 0.5616
vn -0.1866 -0.0772 -0.9794
vn -0.1866 0.0772 -0.9794
vn -0.0882 0.0813 -0.9928
vn -0.0882 -0.0813 -0.9928
vn -0.7429 -0.1282 -0.6570
vn -0.7429 0.1282 -0.6570
vn -0.4185 0.0937 -0.9034
vn -0.4185 -0.0937 -0.9034
vn -0.9659 -0.1519 -0.2098
vn -0.9659 0.1519 -0.2098
vn 0.8404 -0.1458 -0.5220
vn 0.8404 0.1458 -0.5220
vn 0.9769 0.1574 -0.1443
vn 0.9769 -0.1574 -0.1443
vn 0.8403 0.1458 -0.5222
vn 0.8403 -0.1458 -0.5222
vn 0.5503 0.1244 -0.8256
vn 0.5503 -0.1244 -0.8256
vn 0.0825 -0.1067 -0.9909
vn 0.0825 0.1067 -0.9909
vn 0.2645 0.1109 -0.9580
vn 0.2645 -0.1109 -0.9580
vn -0.8141 0.1480 0.5616
vn -0.9659 0.1519 -0.2097
vn -0.9659 -0.1519 -0.2097
vn -0.8141 -0.1480 0.5616
vn 0.9770 0.1573 -0.1442
vn 0.5314 0.1632 0.8312
vn 0.5314 -0.1632 0.8312
vn 0.9770 -0.1573 -0.1442
vn -0.0316 -0.3957 0.9178
vn -0.0313 -0.3954 0.9180
vn -0.0236 -0.7208 0.6927
vn -0.0239 -0.7209 0.6926
vn -0.0208 -0.3954 0.9183
vn -0.0156 -0.7208 0.6930
vn -0.0103 -0.3952 0.9185
vn -0.0077 -0.7206 0.6933
vn -0.0156 -0.7208 0.6929
vn -0.0103 -0.3951 0.9186
vn -0.0025 -0.3944 0.9189
vn -0.0017 -0.7197 0.6943
vn -0.0239 -0.7210 0.6926
vn -0.0236 -0.7209 0.6927
vn -0.0125 -0.9293 0.3692
vn -0.0128 -0.9289 0.3700
vn -0.0236 -0.7209 0.6926
vn -0.0156 -0.7209 0.6929
vn -0.0082 -0.9293 0.3693
vn -0.0040 -0.9292 0.3696
vn -0.0083 -0.9293 0.3693
vn -0.0017 -0.7198 0.6942
vn -0.0008 -0.9288 0.3707
vn -0.0040 -0.9292 0.3697
vn -0.0033 0.9955 0.0948
vn -0.0032 0.9956 0.0941
vn -0.0125 0.9293 0.3691
vn -0.0128 0.9290 0.3699
vn -0.0021 0.9956 0.0941
vn -0.0083 0.9293 0.3692
vn -0.0021 0.9956 0.0942
vn -0.0010 0.9955 0.0943
vn -0.0040 0.9292 0.3696
vn -0.0083 0.9293 0.3693
vn -0.0010 0.9956 0.0942
vn -0.0002 0.9955 0.0947
vn -0.0008 0.9288 0.3706
vn -0.0040 0.9292 0.3695
vn -0.0028 -0.1011 0.9949
vn -0.0113 -0.1013 0.9948
vn -0.0113 0.1013 0.9948
vn -0.0028 0.1011 0.9949
vn -0.0226 -0.1013 0.9946
vn -0.0226 0.1013 0.9946
vn -0.0226 -0.1014 0.9946
vn -0.0339 -0.1014 0.9943
vn -0.0339 0.1014 0.9943
vn -0.0226 0.1014 0.9946
vn -0.0339 -0.1013 0.9943
vn -0.0343 -0.1016 0.9942
vn -0.0343 0.1016 0.9942
vn -0.0339 0.1013 0.9943
vn -0.0128 -0.9290 0.3699
vn -0.0125 -0.9293 0.3691
vn -0.0032 -0.9956 0.0941
vn -0.0033 -0.9955 0.0948
vn -0.0083 -0.9293 0.3692
vn -0.0021 -0.9956 0.0942
vn -0.0010 -0.9955 0.0943
vn -0.0021 -0.9956 0.0941
vn -0.0040 -0.9292 0.3695
vn -0.0008 -0.9288 0.3706
vn -0.0002 -0.9955 0.0946
vn -0.0010 -0.9956 0.0942
vn -0.0128 0.9289 0.3700
vn -0.0125 0.9293 0.3692
vn -0.0236 0.7209 0.6927
vn -0.0239 0.7209 0.6926
vn -0.0156 0.7209 0.6929
vn -0.0236 0.7209 0.6926
vn -0.0040 0.9292 0.3697
vn -0.0077 0.7206 0.6933
vn -0.0008 0.9288 0.3707
vn -0.0017 0.7198 0.6942
vn -0.0400 0.0981 -0.9944
vn 0.0154 0.1067 -0.9942
vn 0.0154 -0.1067 -0.9942
vn -0.0400 -0.0981 -0.9944
vn 0.0307 0.1067 -0.9938
vn 0.0307 -0.1066 -0.9938
vn 0.0461 0.1066 -0.9932
vn 0.0461 -0.1066 -0.9932
vn 0.0307 -0.1067 -0.9938
vn 0.0443 0.1069 -0.9933
vn 0.0443 -0.1069 -0.9933
vn -0.0045 -0.9947 -0.1026
vn 0.0014 -0.9959 -0.0905
vn -0.0010 -0.9956 0.0941
vn 0.0028 -0.9959 -0.0905
vn -0.0021 -0.9956 0.0940
vn 0.0043 -0.9959 -0.0905
vn -0.0032 -0.9956 0.0940
vn 0.0039 -0.9960 -0.0889
vn -0.0313 0.3954 0.9180
vn -0.0316 0.3958 0.9178
vn -0.0156 0.7208 0.6929
vn -0.0208 0.3954 0.9183
vn -0.0103 0.3952 0.9185
vn -0.0208 0.3955 0.9182
vn -0.0077 0.7206 0.6934
vn -0.0017 0.7197 0.6943
vn -0.0025 0.3944 0.9189
vn -0.0103 0.3951 0.9186
vn -0.0002 0.9955 0.0946
vn -0.0010 0.9956 0.0941
vn 0.0014 0.9959 -0.0905
vn -0.0045 0.9947 -0.1026
vn -0.0021 0.9956 0.0940
vn 0.0028 0.9959 -0.0906
vn -0.0032 0.9956 0.0940
vn 0.0042 0.9959 -0.0905
vn 0.0039 0.9960 -0.0889
vn -0.0166 -0.9215 -0.3881
vn 0.0055 -0.9344 -0.3561
vn 0.0014 -0.9959 -0.0906
vn 0.0111 -0.9344 -0.3560
vn 0.0028 -0.9959 -0.0906
vn 0.0166 -0.9344 -0.3558
vn 0.0043 -0.9959 -0.0906
vn 0.0157 -0.9356 -0.3528
vn 0.0039 -0.9960 -0.0890
vn -0.0316 0.3956 0.9179
vn -0.0313 0.3953 0.9180
vn -0.0343 0.1017 0.9942
vn -0.0208 0.3953 0.9183
vn -0.0028 0.1012 0.9949
vn -0.0113 0.1014 0.9948
vn -0.0373 0.3827 -0.9231
vn 0.0141 0.4112 -0.9114
vn 0.0154 0.1068 -0.9942
vn -0.0400 0.0982 -0.9944
vn 0.0141 0.4113 -0.9114
vn 0.0282 0.4112 -0.9111
vn 0.0307 0.1068 -0.9938
vn 0.0282 0.4111 -0.9111
vn 0.0423 0.4110 -0.9106
vn 0.0461 0.1067 -0.9932
vn 0.0308 0.1067 -0.9938
vn 0.0423 0.4111 -0.9106
vn 0.0406 0.4127 -0.9100
vn 0.0443 0.1071 -0.9933
vn 0.0141 -0.4112 -0.9114
vn -0.0373 -0.3826 -0.9232
vn 0.0154 -0.1068 -0.9942
vn 0.0307 -0.1068 -0.9938
vn 0.0282 -0.4111 -0.9111
vn 0.0461 -0.1067 -0.9932
vn 0.0423 -0.4111 -0.9106
vn 0.0443 -0.1071 -0.9933
vn 0.0406 -0.4127 -0.9100
vn -0.0374 -0.3828 -0.9231
vn 0.0141 -0.4113 -0.9114
vn 0.0105 -0.7365 -0.6764
vn -0.0294 -0.7054 -0.7082
vn 0.0282 -0.4113 -0.9111
vn 0.0209 -0.7364 -0.6762
vn 0.0105 -0.7364 -0.6764
vn 0.0282 -0.4112 -0.9111
vn 0.0314 -0.7362 -0.6760
vn 0.0210 -0.7364 -0.6763
vn 0.0423 -0.4112 -0.9106
vn 0.0406 -0.4128 -0.9099
vn 0.0301 -0.7383 -0.6738
vn 0.0314 -0.7363 -0.6759
vn 0.0105 -0.7365 -0.6763
vn -0.0166 -0.9214 -0.3881
vn 0.0210 -0.7365 -0.6762
vn 0.0111 -0.9344 -0.3561
vn 0.0056 -0.9344 -0.3561
vn 0.0314 -0.7364 -0.6758
vn 0.0166 -0.9344 -0.3559
vn 0.0157 -0.9355 -0.3530
vn 0.0166 -0.9344 -0.3560
vn 0.0014 0.9959 -0.0906
vn 0.0055 0.9345 -0.3560
vn -0.0166 0.9215 -0.3880
vn 0.0111 0.9344 -0.3560
vn 0.0055 0.9344 -0.3561
vn 0.0043 0.9959 -0.0906
vn 0.0166 0.9344 -0.3559
vn 0.0043 0.9959 -0.0905
vn 0.0039 0.9960 -0.0890
vn 0.0157 0.9356 -0.3528
vn 0.0166 0.9344 -0.3558
vn -0.0166 0.9214 -0.3882
vn 0.0055 0.9344 -0.3562
vn 0.0105 0.7365 -0.6764
vn -0.0294 0.7054 -0.7082
vn 0.0210 0.7365 -0.6761
vn 0.0105 0.7366 -0.6763
vn 0.0315 0.7364 -0.6758
vn 0.0166 0.9344 -0.3560
vn 0.0157 0.9355 -0.3529
vn 0.0301 0.7383 -0.6738
vn 0.0314 0.7364 -0.6759
vn -0.0293 0.7054 -0.7082
vn 0.0209 0.7364 -0.6762
vn 0.0282 0.4113 -0.9111
vn 0.0141 0.4114 -0.9114
vn 0.0209 0.7363 -0.6763
vn 0.0314 0.7363 -0.6760
vn 0.0301 0.7382 -0.6739
vn 0.0406 0.4127 -0.9099
vn -0.0112 -0.1014 0.9948
vn -0.0028 -0.1012 0.9949
vn -0.0208 -0.3953 0.9183
vn -0.0113 -0.1014 0.9948
vn -0.0313 -0.3953 0.9180
vn -0.0339 -0.1015 0.9943
vn -0.0343 -0.1017 0.9942
vn -0.0316 -0.3957 0.9179
vn 0.4521 -0.5405 0.7096
vn 0.5315 -0.1633 0.8311
vn -0.0025 -0.3944 0.9190
vn 0.2376 -0.1151 0.9645
vn 0.2132 -0.4472 0.8686
vn -0.0316 -0.3958 0.9178
vn 0.2913 -0.8356 0.4658
vn -0.0017 -0.7197 0.6942
vn 0.2132 -0.4473 0.8686
vn 0.1493 -0.7747 0.6144
vn -0.0239 -0.7210 0.6925
vn -0.0128 -0.9290 0.3700
vn 0.1491 -0.9581 0.2447
vn 0.1493 -0.7748 0.6144
vn 0.0712 -0.9525 0.2960
vn 0.0155 -0.9978 0.0649
vn -0.0002 -0.9955 0.0947
vn 0.0157 -0.9355 -0.3529
vn -0.0045 -0.9947 -0.1027
vn -0.0294 -0.7055 -0.7081
vn -0.0382 -0.8972 -0.4401
vn -0.0670 -0.6429 -0.7630
vn 0.0755 -0.4100 -0.9090
vn -0.0374 -0.3827 -0.9231
vn -0.0670 -0.6428 -0.7631
vn -0.0833 -0.3282 -0.9409
vn 0.0443 -0.1070 -0.9933
vn 0.0824 -0.1068 -0.9909
vn -0.0401 -0.0981 -0.9944
vn -0.0833 -0.3280 -0.9410
vn -0.0045 0.9947 -0.1027
vn -0.0166 0.9215 -0.3881
vn -0.0294 0.7055 -0.7081
vn -0.0670 0.6429 -0.7630
vn -0.0374 0.3827 -0.9231
vn -0.0833 0.3282 -0.9409
vn 0.0406 0.4128 -0.9099
vn 0.0755 0.4100 -0.9090
vn -0.0833 0.3280 -0.9410
vn -0.0374 0.3826 -0.9231
vn -0.0401 0.0981 -0.9944
vn 0.0443 0.1070 -0.9933
vn 0.0824 0.1068 -0.9909
vn 0.0430 0.9965 0.0722
vn 0.1491 0.9581 0.2447
vn 0.0155 0.9978 0.0649
vn -0.0239 0.7210 0.6925
vn 0.2913 0.8356 0.4658
vn 0.0712 0.9525 0.2960
vn 0.4521 0.5404 0.7096
vn 0.1493 0.7747 0.6145
vn 0.2132 0.4472 0.8686
vn -0.0017 0.7197 0.6942
vn 0.4521 0.5405 0.7096
vn -0.0316 0.3957 0.9179
vn 0.5315 0.1632 0.8312
vn 0.2376 0.1151 0.9645
vn -0.0025 0.3944 0.9190
vn 0.5315 -0.1633 0.8312
vn 0.0430 0.9965 0.0721
vn -0.0102 0.9929 -0.1184
vn -0.0663 0.9967 0.0461
vn -0.0225 0.9907 -0.1340
vn 0.0004 0.9948 0.1020
vn -0.0000 0.9950 0.0999
vn -0.0002 0.9949 0.1010
vn -0.0448 0.9931 -0.1087
vn 0.0430 -0.9965 0.0721
vn -0.0448 -0.9931 -0.1087
vn -0.0225 -0.9907 -0.1340
vn -0.0000 -0.9950 0.0999
vn -0.0002 -0.9949 0.1010
vn -0.0102 -0.9929 -0.1184
vn 0.0004 -0.9948 0.1020
vn -0.0663 -0.9967 0.0461
vn -0.0660 -0.9977 -0.0157
vn 0.0824 0.1067 -0.9909
vn 0.0824 -0.1067 -0.9909
s 1
usemtl chrome.001
f 1//1 2//2 3//3 4//4
f 5//5 6//6 7//7 8//8
f 9//9 10//10 11//11 12//12
f 13//13 14//14 15//15 16//16
f 17//17 18//18 19//19 20//20
f 21//21 22//22 23//23 24//24
f 25//25 26//26 27//27 28//21
f 29//28 30//29 31//26 32//25
f 33//30 34//31 35//32 36//33
f 37//34 38//35 39//36 40//37
f 41//38 42//39 43//40 44//41
f 45//42 46//43 47//44 48//45
f 49//46 50//47 51//48 52//49
f 53//50 54//51 55//47 56//46
f 57//52 58//53 59//54 60//55
f 61//56 62//57 63//58 64//59
f 65//60 66//61 67//62 68//63
f 69//64 70//65 71//66 72//67
f 73//68 74//69 75//6 76//70
f 77//71 78//72 79//73 80//30
f 81//74 82//75 83//76 84//77
f 85//22 86//78 87//24 88//23
f 89//26 90//79 91//21 92//80
f 93//29 94//28 95//25 96//26
f 97//75 98//74 99//81 100//76
f 101//82 102//83 103//84 104//85
f 105//86 106//87 107//22 108//88
f 109//28 110//29 111//26 112//25
f 113//89 114//90 115//91 116//92
f 117//93 118//94 119//90 120//95
f 121//96 122//97 123//98 124//99
f 125//100 126//101 127//102 128//103
f 129//104 130//105 131//106 132//107
f 133//108 134//109 135//110 136//111
f 137//112 138//113 139//114 140//115
f 141//116 142//117 143//118 144//119
f 145//75 146//74 147//81 148//120
f 149//21 150//22 151//23 152//24
f 153//25 154//26 155//27 156//21
f 157//28 158//29 159//26 160//79
f 161//121 162//122 163//123 164//124
f 165//125 166//126 167//127 168//121
f 169//128 170//129 171//130 172//131
f 173//132 174//133 175//134 176//135
f 177//136 178//137 179//138 180//139
f 181//140 182//141 183//142 184//143
f 185//144 186//145 187//146 188//147
f 189//148 190//149 191//150 192//151
f 193//75 194//152 195//153 196//76
f 197//154 198//155 199//156 200//85
f 201//79 202//119 203//155 204//21
f 205//28 206//116 207//119 208//25
f 209//157 210//158 211//159 212//160
f 213//161 214//140 215//162 216//163
f 217//164 218//165 219//166 220//167
f 221//168 222//169 223//170 224//171
f 225//172 226//173 227//174 228//175
f 229//176 230//177 231//173 232//178
f 233//179 234//180 235//181 236//176
f 237//182 238//183 239//184 240//185
f 241//186 242//187 243//188 244//189
f 245//190 246//191 247//192 248//186
f 249//193 250//194 251//195 252//196
f 253//197 254//198 255//199 256//200
f 257//201 258//202 259//203 260//204
f 261//205 262//206 263//207 264//208
f 265//209 266//210 267//211 268//212
f 269//213 270//214 271//210 272//209
f 273//215 274//75 275//76 276//216
f 277//217 278//218 279//85 280//219
f 281//220 282//86 283//88 284//221
f 285//222 286//28 287//25 288//223
f 289//224 290//46 291//225 292//226
f 293//227 294//228 295//229 296//224
f 297//230 298//52 299//55 300//231
f 301//232 302//233 303//52 304//230
f 305//31 306//121 307//124 308//32
f 309//234 310//125 311//121 312//235
f 313//39 314//236 315//125 316//237
f 317//43 318//238 319//239 320//44
f 321//240 322//241 323//242 324//243
f 325//244 326//245 327//246 328//240
f 329//247 330//248 331//245 332//244
f 333//249 334//250 335//251 336//252
f 337//253 338//254 339//255 340//256
f 341//22 342//21 343//24 344//23
f 345//257 346//86 347//88 348//22
f 349//29 350//28 351//25 352//26
f 353//258 354//259 355//92 356//260
f 357//261 358//262 359//263 360//264
f 361//265 362//266 363//267 364//268
f 365//269 366//270 367//266 368//265
f 369//271 370//272 371//273 372//274
f 373//275 374//276 375//277 376//278
f 377//279 378//280 379//281 380//282
f 381//283 382//284 383//285 384//286
f 385//287 386//31 387//32 388//288
f 389//289 390//35 391//36 392//290
f 393//291 394//292 395//293 396//294
f 397//295 398//296 399//297 400//298
f 401//299 402//18 403//19 404//20
f 405//21 406//22 407//23 408//75
f 409//86 410//300 411//301 412//302
f 413//28 414//29 415//26 416//25
f 417//303 418//304 419//305 420//188
f 421//306 422//307 423//308 424//309
f 425//310 426//311 427//312 428//191
f 429//313 430//314 431//315 432//316
f 433//287 434//31 435//32 436//288
f 437//294 438//317 439//318 440//290
f 441//319 442//39 443//320 444//321
f 445//322 446//43 447//44 448//323
f 449//173 450//324 451//325 452//326
f 453//327 454//328 455//329 456//173
f 457//330 458//331 459//332 460//333
f 461//334 462//335 463//336 464//330
f 465//31 466//287 467//288 468//32
f 469//337 470//294 471//338 472//339
f 473//292 474//291 475//289 476//293
f 477//296 478//295 479//340 480//341
f 481//18 482//342 483//20 484//19
f 485//22 486//21 487//24 488//23
f 489//26 490//25 491//21 492//27
f 493//29 494//28 495//79 496//26
f 497//74 498//75 499//343 500//344
f 501//27 502//21 503//24 504//345
f 505//26 506//79 507//21 508//27
f 509//29 510//28 511//25 512//26
f 513//31 514//287 515//288 516//32
f 517//234 518//346 519//287 520//347
f 521//292 522//291 523//348 524//293
f 525//296 526//295 527//340 528//341
f 529//287 530//31 531//32 532//288
f 533//348 534//293 535//235 536//287
f 537//349 538//292 539//293 540//348
f 541//350 542//351 543//44 544//323
f 545//75 546//74 547//77 548//352
f 549//21 550//22 551//23 552//24
f 553//25 554//26 555//27 556//21
f 557//28 558//29 559//26 560//79
f 561//17 562//18 563//19 564//20
f 565//21 566//301 567//23 568//24
f 569//25 570//26 571//27 572//21
f 573//28 574//29 575//26 576//25
f 577//241 578//186 579//189 580//242
f 581//353 582//354 583//355 584//356
f 585//357 586//358 587//354 588//353
f 589//250 590//359 591//360 592//251
f 593//361 594//8 595//362 596//203
f 597//363 598//364 599//365 600//366
f 601//367 602//368 603//369 604//370
f 605//371 606//372 607//373 608//374
f 609//287 610//31 611//32 612//288
f 613//289 614//35 615//36 616//290
f 617//291 618//292 619//293 620//289
f 621//375 622//43 623//44 624//323
f 625//376 626//172 627//377 628//378
f 629//379 630//380 631//381 632//382
f 633//383 634//384 635//380 636//379
f 637//385 638//182 639//386 640//387
f 641//31 642//287 643//288 644//32
f 645//35 646//289 647//388 648//36
f 649//292 650//291 651//348 652//293
f 653//389 654//390 655//391 656//392
f 657//235 658//287 659//288 660//32
f 661//293 662//348 663//287 664//31
f 665//292 666//291 667//289 668//293
f 669//393 670//375 671//323 672//44
f 673//74 674//75 675//76 676//77
f 677//394 678//218 679//85 680//395
f 681//396 682//86 683//397 684//22
f 685//29 686//28 687//25 688//26
f 689//18 690//85 691//20 692//19
f 693//27 694//88 695//24 696//23
f 697//26 698//25 699//21 700//27
f 701//29 702//28 703//25 704//26
f 705//90 706//398 707//399 708//91
f 709//400 710//401 711//398 712//90
f 713//102 714//402 715//403 716//404
f 717//405 718//406 719//402 720//97
f 721//31 722//287 723//288 724//32
f 725//35 726//289 727//388 728//36
f 729//292 730//291 731//289 732//293
f 733//389 734//390 735//391 736//392
f 737//287 738//31 739//32 740//288
f 741//348 742//293 743//31 744//287
f 745//291 746//292 747//293 748//289
f 749//390 750//389 751//407 752//391
f 753//408 754//84 755//256 756//255
f 757//302 758//301 759//74 760//75
f 761//409 762//26 763//83 764//410
f 765//28 766//29 767//26 768//79
f 769//411 770//376 771//378 772//412
f 773//413 774//414 775//376 776//411
f 777//415 778//416 779//417 780//418
f 781//419 782//420 783//421 784//422
f 785//287 786//31 787//32 788//288
f 789//321 790//293 791//235 792//287
f 793//291 794//292 795//293 796//294
f 797//375 798//43 799//44 800//323
f 801//31 802//287 803//288 804//32
f 805//35 806//289 807//388 808//36
f 809//39 810//340 811//346 812//423
f 813//43 814//424 815//425 816//44
f 817//426 818//240 819//427 820//428
f 821//429 822//430 823//240 824//431
f 825//432 826//433 827//434 828//435
f 829//436 830//437 831//438 832//439
f 833//142 834//440 835//441 836//442
f 837//443 838//444 839//445 840//446
f 841//447 842//448 843//449 844//450
f 845//451 846//452 847//453 848//454
f 849//74 850//75 851//76 852//77
f 853//22 854//21 855//24 856//23
f 857//26 858//25 859//21 860//27
f 861//29 862//28 863//25 864//26
f 865//31 866//287 867//288 868//32
f 869//293 870//348 871//287 872//31
f 873//292 874//291 875//289 876//293
f 877//43 878//424 879//323 880//44
f 881//287 882//235 883//32 884//288
f 885//348 886//293 887//31 888//287
f 889//291 890//292 891//293 892//289
f 893//390 894//389 895//455 896//391
f 897//456 898//457 899//458 900//459
f 901//460 902//389 903//20 904//461
f 905//462 906//390 907//19 908//463
f 909//390 910//389 911//20 912//19
f 913//389 914//390 915//19 916//20
f 917//390 918//464 919//465 920//19
f 921//389 922//390 923//19 924//20
f 925//390 926//389 927//20 928//19
f 929//389 930//390 931//19 932//20
f 933//390 934//464 935//465 936//19
f 937//389 938//390 939//19 940//20
f 941//390 942//389 943//20 944//19
f 945//389 946//390 947//19 948//20
f 949//390 950//464 951//465 952//19
f 953//389 954//390 955//19 956//20
f 957//390 958//389 959//20 960//19
f 961//389 962//466 963//467 964//20
f 965//63 966//468 967//469 968//168
f 969//470 970//471 971//472 972//473
f 973//100 974//57 975//56 976//101
f 977//474 978//475 979//476 980//477
f 981//478 982//479 983//475 984//474
f 985//480 986//481 987//482 988//483
f 989//250 990//182 991//484 992//485
f 993//437 994//334 995//486 996//487
f 997//488 998//489 999//490 1000//491
f 1001//492 1002//493 1003//494 1004//495
f 1005//496 1006//497 1007//498 1008//499
f 1009//500 1010//501 1011//502 1012//503
f 1013//501 1014//504 1015//505 1016//502
f 1017//504 1018//506 1019//507 1020//508
f 1021//509 1022//510 1023//511 1024//507
f 1025//512 1026//513 1027//514 1028//515
f 1029//516 1030//517 1031//518 1032//514
f 1033//517 1034//507 1035//519 1036//520
f 1037//507 1038//521 1039//522 1040//523
f 1041//524 1042//525 1043//526 1044//527
f 1045//525 1046//528 1047//529 1048//526
f 1049//530 1050//531 1051//532 1052//533
f 1053//534 1054//535 1055//536 1056//537
f 1057//538 1058//539 1059//540 1060//541
f 1061//539 1062//542 1063//543 1064//540
f 1065//544 1066//545 1067//546 1068//547
f 1069//548 1070//549 1071//550 1072//551
f 1073//552 1074//553 1075//554 1076//555
f 1077//553 1078//556 1079//557 1080//554
f 1081//520 1082//519 1083//558 1084//559
f 1085//560 1086//561 1087//562 1088//563
f 1089//564 1090//565 1091//566 1092//567
f 1093//526 1094//533 1095//568 1096//569
f 1097//533 1098//570 1099//571 1100//568
f 1101//570 1102//572 1103//573 1104//571
f 1105//574 1106//575 1107//576 1108//577
f 1109//575 1110//578 1111//579 1112//576
f 1113//578 1114//580 1115//581 1116//582
f 1117//580 1118//583 1119//584 1120//581
f 1121//585 1122//586 1123//587 1124//562
f 1125//586 1126//588 1127//589 1128//587
f 1129//588 1130//590 1131//591 1132//589
f 1133//590 1134//592 1135//555 1136//591
f 1137//567 1138//566 1139//593 1140//594
f 1141//566 1142//595 1143//596 1144//593
f 1145//568 1146//571 1147//597 1148//598
f 1149//599 1150//600 1151//601 1152//602
f 1153//603 1154//604 1155//605 1156//606
f 1157//604 1158//607 1159//608 1160//605
f 1161//607 1162//609 1163//610 1164//608
f 1165//609 1166//524 1167//611 1168//610
f 1169//612 1170//613 1171//614 1172//585
f 1173//613 1174//615 1175//616 1176//614
f 1177//615 1178//617 1179//618 1180//616
f 1181//617 1182//619 1183//620 1184//618
f 1185//621 1186//622 1187//546 1188//623
f 1189//622 1190//624 1191//547 1192//546
f 1193//624 1194//602 1195//540 1196//547
f 1197//602 1198//601 1199//625 1200//626
f 1201//627 1202//628 1203//629 1204//630
f 1205//631 1206//632 1207//633 1208//629
f 1209//634 1210//635 1211//636 1212//637
f 1213//638 1214//639 1215//640 1216//636
f 1217//577 1218//576 1219//641 1220//642
f 1221//643 1222//644 1223//645 1224//641
f 1225//582 1226//646 1227//647 1228//645
f 1229//646 1230//648 1231//649 1232//647
f 1233//650 1234//651 1235//652 1236//653
f 1237//651 1238//654 1239//655 1240//656
f 1241//657 1242//647 1243//658 1244//659
f 1245//660 1246//661 1247//662 1248//663
f 1249//653 1250//664 1251//613 1252//665
f 1253//664 1254//666 1255//667 1256//668
f 1257//666 1258//669 1259//670 1260//615
f 1261//663 1262//662 1263//671 1264//672
f 1265//606 1266//673 1267//674 1268//675
f 1269//673 1270//608 1271//676 1272//677
f 1273//608 1274//678 1275//679 1276//676
f 1277//680 1278//681 1279//682 1280//683
f 1281//684 1282//685 1283//686 1284//687
f 1285//677 1286//676 1287//688 1288//689
f 1289//676 1290//679 1291//690 1292//688
f 1293//691 1294//692 1295//693 1296//694
f 1297//695 1298//686 1299//631 1300//627
f 1301//686 1302//696 1303//697 1304//698
f 1305//699 1306//700 1307//638 1308//632
f 1309//700 1310//701 1311//702 1312//638
f 1313//510 1314//509 1315//703 1316//704
f 1317//509 1318//705 1319//544 1320//706
f 1321//705 1322//707 1323//708 1324//544
f 1325//707 1326//500 1327//709 1328//545
f 1329//709 1330//710 1331//711 1332//712
f 1333//713 1334//704 1335//714 1336//715
f 1337//716 1338//503 1339//717 1340//711
f 1341//718 1342//510 1343//719 1344//720
f 1345//721 1346//722 1347//723 1348//717
f 1349//521 1350//724 1351//725 1352//522
f 1353//552 1354//555 1355//305 1356//723
f 1357//561 1358//118 1359//726 1360//727
f 1361//428 1362//620 1363//728 1364//426
f 1365//612 1366//729 1367//399 1368//398
f 1369//431 1370//728 1371//662 1372//429
f 1373//730 1374//612 1375//731 1376//732
f 1377//435 1378//662 1379//661 1380//733
f 1381//734 1382//653 1383//735 1384//736
f 1385//432 1386//649 1387//737 1388//738
f 1389//739 1390//734 1391//740 1392//473
f 1393//226 1394//741 1395//742 1396//224
f 1397//692 1398//681 1399//325 1400//324
f 1401//224 1402//742 1403//743 1404//744
f 1405//693 1406//692 1407//329 1408//328
f 1409//231 1410//687 1411//745 1412//746
f 1413//747 1414//693 1415//332 1416//748
f 1417//749 1418//750 1419//751 1420//472
f 1421//752 1422//639 1423//331 1424//753
f 1425//754 1426//524 1427//527 1428//755
f 1429//756 1430//122 1431//536 1432//535
f 1433//755 1434//564 1435//757 1436//758
f 1437//759 1438//126 1439//573 1440//572
f 1441//758 1442//567 1443//594 1444//760
f 1445//761 1446//762 1447//601 1448//763
f 1449//764 1450//765 1451//623 1452//766
f 1453//762 1454//767 1455//625 1456//768
f 1457//623 1458//709 1459//769 1460//766
f 1461//704 1462//625 1463//767 1464//714
f 1465//378 1466//325 1467//754 1468//273
f 1469//377 1470//174 1471//325 1472//378
f 1473//611 1474//524 1475//770 1476//325
f 1477//32 1478//32 1479//771
f 1480//203 1481//362 1482//772 1483//32
f 1484//32 1485//771 1486//773 1487//32
f 1488//774 1489//32 1490//772
f 1491//32 1492//775 1493//32
f 1494//775 1495//32 1496//606 1497//32
f 1498//775 1499//32 1500//606 1501//32
f 1502//776 1503//756 1504//606 1505//32
f 1506//756 1507//603 1508//606
f 1509//32 1510//775 1511//32
f 1512//32 1513//775 1514//32
f 1515//32 1516//775 1517//32
f 1518//32 1519//32 1520//771
f 1521//775 1522//32 1523//771 1524//32
f 1525//773 1526//777 1527//203 1528//32
f 1529//32 1530//606 1531//771 1532//32
f 1533//428 1534//243 1535//242 1536//189
f 1537//592 1538//428 1539//778 1540//555
f 1541//189 1542//188 1543//305 1544//428
f 1545//441 1546//779 1547//780 1548//28
f 1549//28 1550//781 1551//28
f 1552//585 1553//562 1554//726
f 1555//585 1556//726 1557//782 1558//28
f 1559//585 1560//28 1561//781 1562//28
f 1563//585 1564//28 1565//781 1566//28
f 1567//783 1568//585 1569//28 1570//28
f 1571//28 1572//781 1573//28
f 1574//28 1575//784 1576//785
f 1577//441 1578//28 1579//785 1580//786
f 1581//783 1582//28 1583//28
f 1584//28 1585//781 1586//28
f 1587//783 1588//28 1589//28
f 1590//783 1591//28 1592//781 1593//28
f 1594//780 1595//783 1596//28 1597//28
f 1598//28 1599//781 1600//28
f 1601//472 1602//751 1603//739 1604//473
f 1605//584 1606//583 1607//787 1608//788
