# Blender 5.0.1
# www.blender.org
mtllib HugoInspoToolSecondGear.mtl
o SecondGear
v -2.006010 -0.005500 -0.006000
v -2.028311 -0.005491 0.000000
v -2.006010 -0.008200 -0.002000
v -2.029068 -0.005431 0.000000
v -2.006010 0.005500 -0.006000
v -2.029068 -0.005246 -0.001540
v -2.006010 0.008200 -0.002000
v -2.028311 -0.005304 -0.001558
v -2.004839 -0.005500 -0.005885
v -2.005620 -0.008200 -0.001962
v -2.029774 -0.005253 0.000000
v -2.004839 0.005500 -0.005885
v -2.029774 -0.005074 -0.001490
v -2.005620 0.008200 -0.001962
v -2.003714 -0.005500 -0.005543
v -2.030380 -0.004970 0.000000
v -2.005245 -0.008200 -0.001848
v -2.003714 0.005500 -0.005543
v -2.030380 -0.004801 -0.001410
v -2.005245 0.008200 -0.001848
v -2.002677 -0.005500 -0.004989
v -2.030844 -0.004602 0.000000
v -2.004899 -0.008200 -0.001663
v -2.002677 0.005500 -0.004989
v -2.030844 -0.004445 -0.001305
v -2.004899 0.008200 -0.001663
v -2.001767 -0.005500 -0.004243
v -2.004596 -0.008200 -0.001414
v -2.031137 -0.004172 0.000000
v -2.001767 0.005500 -0.004243
v -2.031137 -0.004030 -0.001184
v -2.004596 0.008200 -0.001414
v -2.001021 -0.005500 -0.003333
v -2.004347 -0.008200 -0.001111
v -2.031236 -0.003712 0.000000
v -2.001021 0.005500 -0.003333
v -2.031236 -0.003585 -0.001053
v -2.004347 0.008200 -0.001111
v -2.000467 -0.005500 -0.002296
v -2.031236 0.003216 0.002035
v -2.004162 -0.008200 -0.000765
v -2.031137 0.003615 0.002287
v -2.000467 0.005500 -0.002296
v -2.031137 0.004032 0.001184
v -2.031236 0.003587 0.001053
v -2.004162 0.008200 -0.000765
v -2.004049 -0.008200 -0.000390
v -2.000125 -0.005500 -0.001171
v -2.030844 0.003987 0.002522
v -2.000125 0.005500 -0.001171
v -2.030844 0.004446 0.001306
v -2.004049 0.008200 -0.000390
v -2.004010 -0.008200 0.000000
v -2.030380 0.004306 0.002724
v -2.000010 -0.005500 0.000000
v -2.000010 0.005500 0.000000
v -2.030380 0.004802 0.001410
v -2.004010 0.008200 0.000000
v -2.004049 -0.008200 0.000390
v -2.000125 -0.005500 0.001171
v -2.029774 0.004551 0.002879
v -2.000125 0.005500 0.001171
v -2.029774 0.005075 0.001490
v -2.004049 0.008200 0.000390
v -2.000467 -0.005500 0.002296
v -2.004162 -0.008200 0.000765
v -2.029068 0.004705 0.002976
v -2.029068 0.005247 0.001541
v -2.004162 0.008200 0.000765
v -2.000467 0.005500 0.002296
v -2.001021 -0.005500 0.003333
v -2.004347 -0.008200 0.001111
v -2.028311 0.004757 0.003010
v -2.028311 0.005306 0.001558
v -2.004347 0.008200 0.001111
v -2.001021 0.005500 0.003333
v -2.001767 -0.005500 0.004243
v -2.004596 -0.008200 0.001414
v -2.031137 -0.004030 0.001184
v -2.001767 0.005500 0.004243
v -2.004596 0.008200 0.001414
v -2.031236 -0.003585 0.001053
v -2.002677 -0.005500 0.004989
v -2.004899 -0.008200 0.001663
v -2.002677 0.005500 0.004989
v -2.030844 -0.004445 0.001306
v -2.004899 0.008200 0.001663
v -2.003714 -0.005500 0.005543
v -2.005245 -0.008200 0.001848
v -2.030380 -0.004801 0.001410
v -2.003714 0.005500 0.005543
v -2.005245 0.008200 0.001848
v -2.004839 -0.005500 0.005885
v -2.005620 -0.008200 0.001962
v -2.004839 0.005500 0.005885
v -2.029774 -0.005074 0.001490
v -2.005620 0.008200 0.001962
v -2.006010 -0.005500 0.006000
v -2.006010 -0.008200 0.002000
v -2.029068 -0.005246 0.001541
v -2.006010 0.005500 0.006000
v -2.006010 0.008200 0.002000
v -2.007181 -0.005500 0.005885
v -2.006400 -0.008200 0.001962
v -2.028311 -0.005304 0.001558
v -2.007181 0.005500 0.005885
v -2.006400 0.008200 0.001962
v -2.008306 -0.005500 0.005543
v -2.006775 -0.008200 0.001848
v -2.008306 0.005500 0.005543
v -2.031137 0.004174 0.000000
v -2.006775 0.008200 0.001848
v -2.031236 0.003714 0.000000
v -2.007121 -0.008200 0.001663
v -2.009343 -0.005500 0.004989
v -2.030844 0.004603 0.000000
v -2.009343 0.005500 0.004989
v -2.007121 0.008200 0.001663
v -2.010253 -0.005500 0.004243
v -2.007424 -0.008200 0.001414
v -2.030380 0.004972 0.000000
v -2.010253 0.005500 0.004243
v -2.007424 0.008200 0.001414
v -2.010999 -0.005500 0.003333
v -2.007673 -0.008200 0.001111
v -2.010999 0.005500 0.003333
v -2.029774 0.005255 0.000000
v -2.007673 0.008200 0.001111
v -2.011553 -0.005500 0.002296
v -2.007858 -0.008200 0.000765
v -2.011553 0.005500 0.002296
v -2.029068 0.005432 0.000000
v -2.007858 0.008200 0.000765
v -2.011895 -0.005500 0.001171
v -2.007972 -0.008200 0.000390
v -2.011895 0.005500 0.001171
v -2.028311 0.005493 0.000000
v -2.007972 0.008200 0.000390
v -2.031137 0.003615 -0.002287
v -2.012010 -0.005500 0.000000
v -2.030844 0.003987 -0.002522
v -2.008010 -0.008200 0.000000
v -2.012010 0.005500 0.000000
v -2.030844 0.003255 -0.003566
v -2.031137 0.002952 -0.003234
v -2.008010 0.008200 0.000000
v -2.011895 -0.005500 -0.001171
v -2.030380 0.004306 -0.002724
v -2.007972 -0.008200 -0.000390
v -2.011895 0.005500 -0.001171
v -2.030380 0.003516 -0.003852
v -2.007972 0.008200 -0.000390
v -2.011553 -0.005500 -0.002296
v -2.029774 0.004551 -0.002879
v -2.007858 -0.008200 -0.000765
v -2.011553 0.005500 -0.002296
v -2.029774 0.003716 -0.004071
v -2.007858 0.008200 -0.000765
v -2.010999 -0.005500 -0.003333
v -2.007673 -0.008200 -0.001111
v -2.029068 0.004705 -0.002976
v -2.029068 0.003841 -0.004209
v -2.010999 0.005500 -0.003333
v -2.007673 0.008200 -0.001111
v -2.010253 -0.005500 -0.004243
v -2.028311 0.004757 -0.003009
v -2.007424 -0.008200 -0.001414
v -2.028311 0.003884 -0.004256
v -2.010253 0.005500 -0.004243
v -2.007424 0.008200 -0.001414
v -2.009343 -0.005500 -0.004989
v -2.007121 -0.008200 -0.001663
v -2.009343 0.005500 -0.004989
v -2.031137 -0.003613 0.002287
v -2.007121 0.008200 -0.001663
v -2.031236 -0.003215 0.002035
v -2.008306 -0.005500 -0.005543
v -2.006775 -0.008200 -0.001848
v -2.006775 0.008200 -0.001848
v -2.030844 -0.003985 0.002522
v -2.008306 0.005500 -0.005543
v -2.006400 -0.008200 -0.001962
v -2.007181 -0.005500 -0.005885
v -2.006400 0.008200 -0.001962
v -2.030380 -0.004304 0.002724
v -2.007181 0.005500 -0.005885
v -2.008010 0.005500 0.000000
v -2.007972 0.005500 -0.000390
v -2.029774 -0.004549 0.002879
v -2.007972 0.005500 0.000390
v -2.007673 0.005500 0.001111
v -2.007673 0.005500 -0.001111
v -2.007424 0.005500 0.001414
v -2.007858 0.005500 0.000765
v -2.029068 -0.004703 0.002976
v -2.007858 0.005500 -0.000765
v -2.007121 0.005500 0.001663
v -2.007121 0.005500 -0.001663
v -2.028311 -0.004756 0.003010
v -2.006010 0.005500 -0.002000
v -2.006400 0.005500 -0.001962
v -2.005245 0.005500 -0.001848
v -2.005620 0.005500 -0.001962
v -2.006775 0.005500 -0.001848
v -2.031137 0.004032 -0.001184
v -2.007424 0.005500 -0.001414
v -2.031236 0.003587 -0.001053
v -2.006775 0.005500 0.001848
v -2.006010 0.005500 0.002000
v -2.030844 0.004446 -0.001305
v -2.005620 0.005500 0.001962
v -2.006400 0.005500 0.001962
v -2.005245 0.005500 0.001848
v -2.004899 0.005500 -0.001663
v -2.004899 0.005500 0.001663
v -2.030380 0.004802 -0.001410
v -2.004347 0.005500 0.001111
v -2.004347 0.005500 -0.001111
v -2.004010 0.005500 0.000000
v -2.029774 0.005075 -0.001490
v -2.004049 0.005500 0.000390
v -2.004049 0.005500 -0.000390
v -2.004162 0.005500 -0.000765
v -2.004596 0.005500 0.001414
v -2.004162 0.005500 0.000765
v -2.029068 0.005247 -0.001540
v -2.004596 0.005500 -0.001414
v -2.006400 -0.005500 -0.001962
v -2.005620 -0.005500 -0.001962
v -2.028311 0.005306 -0.001558
v -2.006010 -0.005500 -0.002000
v -2.004899 -0.005500 0.001663
v -2.005245 -0.005500 0.001848
v -2.004899 -0.005500 -0.001663
v -2.005245 -0.005500 -0.001848
v -2.030844 -0.003254 0.003567
v -2.031137 -0.002950 0.003234
v -2.004347 -0.005500 0.001111
v -2.004596 -0.005500 0.001414
v -2.004347 -0.005500 -0.001111
v -2.030380 -0.003514 0.003852
v -2.004010 -0.005500 0.000000
v -2.004049 -0.005500 -0.000390
v -2.004162 -0.005500 0.000765
v -2.004049 -0.005500 0.000390
v -2.004162 -0.005500 -0.000765
v -2.029774 -0.003714 0.004071
v -2.004596 -0.005500 -0.001414
v -2.008010 -0.005500 0.000000
v -2.007858 -0.005500 0.000765
v -2.007972 -0.005500 0.000390
v -2.029068 -0.003840 0.004209
v -2.007972 -0.005500 -0.000390
v -2.007673 -0.005500 0.001111
v -2.007673 -0.005500 -0.001111
v -2.007424 -0.005500 0.001414
v -2.028311 -0.003883 0.004256
v -2.007858 -0.005500 -0.000765
v -2.007121 -0.005500 0.001663
v -2.007121 -0.005500 -0.001663
v -2.006775 -0.005500 -0.001848
v -2.006400 -0.005500 0.001962
v -2.031236 0.003216 -0.002034
v -2.005620 -0.005500 0.001962
v -2.006010 -0.005500 0.002000
v -2.006775 -0.005500 0.001848
v -2.007424 -0.005500 -0.001414
v -2.031137 -0.002950 -0.003234
v -2.030844 -0.003254 -0.003566
v -2.030844 -0.003985 -0.002522
v -2.031137 -0.003613 -0.002287
v -2.030380 -0.003514 -0.003852
v -2.030380 -0.004304 -0.002724
v -2.029774 -0.003714 -0.004071
v -2.029774 -0.004549 -0.002879
v -2.029068 -0.003840 -0.004209
v -2.029068 -0.004703 -0.002976
v -2.028311 -0.003883 -0.004256
v -2.028311 -0.004756 -0.003009
v -2.031236 -0.003215 -0.002034
v -2.031137 0.002952 0.003234
v -2.030844 0.003255 0.003567
v -2.030380 0.003516 0.003852
v -2.029774 0.003716 0.004071
v -2.029068 0.003841 0.004209
v -2.028311 0.003884 0.004256
v -2.028311 -0.002745 0.005213
v -2.028311 0.002747 0.005213
v -2.028311 0.002747 -0.005212
v -2.028311 -0.002745 -0.005212
v -2.031236 0.002738 -0.002717
v -2.031202 0.002738 -0.003000
v -2.031137 0.002738 -0.003413
v -2.030844 0.002738 -0.004001
v -2.030380 0.002738 -0.004506
v -2.029774 0.002738 -0.004893
v -2.029068 0.002738 -0.005136
v -2.028525 0.002738 -0.005196
v -2.031202 -0.002737 0.003000
v -2.031236 -0.002737 0.002717
v -2.028525 -0.002737 -0.005196
v -2.028311 -0.002737 -0.005216
v -2.031202 -0.002737 -0.003000
v -2.031137 -0.002737 -0.003413
v -2.030844 -0.002737 -0.004001
v -2.030380 -0.002737 -0.004506
v -2.029774 -0.002737 -0.004893
v -2.029068 -0.002737 -0.005136
v -2.028525 0.002738 0.005196
v -2.028311 0.002738 0.005216
v -2.031236 -0.002737 -0.002717
v -2.031202 0.002738 0.003000
v -2.031137 0.002738 0.003414
v -2.030844 0.002738 0.004001
v -2.030380 0.002738 0.004506
v -2.029774 0.002738 0.004893
v -2.029068 0.002738 0.005137
v -2.031137 -0.002737 0.003414
v -2.030844 -0.002737 0.004001
v -2.030380 -0.002737 0.004506
v -2.029774 -0.002737 0.004893
v -2.029068 -0.002737 0.005137
v -2.028525 -0.002737 0.005196
v -2.031236 0.002738 0.002717
v -2.012955 -0.001421 0.005814
v -2.012955 -0.002737 0.005216
v -2.028311 -0.002737 0.005216
v -2.012955 0.000001 0.006019
v -2.012955 0.001422 0.005814
v -2.012955 0.002738 0.005216
v -2.012955 0.001422 -0.005814
v -2.012955 0.002738 -0.005216
v -2.028311 0.002738 -0.005216
v -2.012955 0.000001 -0.006019
v -2.012955 -0.001421 -0.005814
v -2.012955 -0.002737 -0.005216
v -2.006464 0.000001 0.006019
v -2.006121 0.000001 -0.006019
v -2.006462 -0.000439 0.005955
v -2.006462 0.000440 0.005955
v -2.007181 -0.000929 0.005885
v -2.007181 0.000931 0.005885
v -2.007414 -0.001421 0.005814
v -2.007414 0.001422 0.005814
v -2.008306 -0.002017 0.005543
v -2.008306 0.002018 0.005543
v -2.008918 0.002738 0.005216
v -2.008925 0.002747 0.005213
v -2.009343 0.003013 0.004989
v -2.008918 -0.002737 0.005216
v -2.008925 -0.002745 0.005213
v -2.009343 -0.003011 0.004989
v -2.010253 -0.003892 0.004243
v -2.010236 -0.003883 0.004256
v -2.010253 0.003894 0.004243
v -2.010236 0.003884 0.004256
v -2.010999 -0.004529 0.003333
v -2.010999 0.004530 0.003333
v -2.011172 0.004757 0.003010
v -2.011172 -0.004756 0.003010
v -2.011553 -0.005025 0.002296
v -2.011553 0.005027 0.002296
v -2.011777 0.005306 0.001558
v -2.011777 -0.005304 0.001558
v -2.011895 -0.005351 0.001171
v -2.011895 0.005352 0.001171
v -2.012010 -0.005491 0.000000
v -2.012010 0.005493 0.000000
v -2.012010 0.005493 0.000000
v -2.012010 -0.005491 0.000000
v -2.011895 -0.005351 -0.001171
v -2.011895 0.005352 -0.001171
v -2.011777 0.005306 -0.001558
v -2.011777 -0.005304 -0.001558
v -2.011553 -0.005025 -0.002296
v -2.011553 0.005027 -0.002296
v -2.011172 0.004757 -0.003009
v -2.010999 -0.004529 -0.003333
v -2.011172 -0.004756 -0.003009
v -2.010999 0.004530 -0.003333
v -2.010253 -0.003892 -0.004243
v -2.010253 0.003893 -0.004243
v -2.010237 0.003884 -0.004256
v -2.010237 -0.003883 -0.004256
v -2.009343 -0.003011 -0.004989
v -2.009343 0.003013 -0.004989
v -2.008918 0.002738 -0.005216
v -2.008918 0.002738 -0.005216
v -2.008925 0.002747 -0.005212
v -2.008925 -0.002745 -0.005212
v -2.008918 -0.002737 -0.005216
v -2.008306 -0.002016 -0.005543
v -2.008306 0.002018 -0.005543
v -2.007181 0.000929 -0.005885
v -2.007415 -0.001421 -0.005814
v -2.007181 -0.000927 -0.005885
v -2.007415 0.001422 -0.005814
v -2.006122 -0.000204 -0.005989
v -2.006122 0.000206 -0.005989
vn 0.0980 -0.0000 -0.9952
vn 0.2903 -0.0000 -0.9569
vn 0.4714 -0.0000 -0.8819
vn 0.6344 -0.0000 -0.7730
vn 0.7730 -0.0000 -0.6344
vn 0.8819 -0.0000 -0.4714
vn 0.9569 -0.0000 -0.2903
vn 0.9952 -0.0000 -0.0980
vn 0.9952 -0.0000 0.0980
vn 0.9569 -0.0000 0.2903
vn 0.8819 -0.0000 0.4714
vn 0.7730 -0.0000 0.6344
vn 0.6344 -0.0000 0.7730
vn 0.4714 -0.0000 0.8819
vn 0.2903 -0.0000 0.9569
vn 0.0980 -0.0000 0.9952
vn -0.0980 -0.0000 0.9952
vn -0.2903 -0.0000 0.9569
vn -0.4714 -0.0000 0.8819
vn -0.6344 -0.0000 0.7730
vn -0.7730 -0.0000 0.6344
vn -0.8819 -0.0000 0.4714
vn -0.9569 -0.0000 0.2903
vn -0.9952 -0.0000 0.0980
vn -0.9952 -0.0000 -0.0980
vn -0.9569 -0.0000 -0.2903
vn -0.8819 -0.0000 -0.4714
vn -0.7730 -0.0000 -0.6344
vn -0.6344 -0.0000 -0.7730
vn -0.4714 -0.0000 -0.8819
vn -0.0000 1.0000 -0.0000
vn -0.2903 -0.0000 -0.9569
vn -0.0980 -0.0000 -0.9952
vn -0.0000 -1.0000 -0.0000
vn -0.0398 -0.9992 -0.0000
vn -0.1613 -0.9869 -0.0000
vn -0.1621 -0.9585 -0.2344
vn -0.0400 -0.9706 -0.2374
vn -0.3320 -0.9433 -0.0000
vn -0.3337 -0.9157 -0.2239
vn -0.5202 -0.8540 -0.0000
vn -0.5224 -0.8283 -0.2026
vn -0.7245 -0.6893 -0.0000
vn -0.7264 -0.6676 -0.1632
vn -0.9121 -0.4099 -0.0000
vn -0.9130 -0.3963 -0.0969
vn -0.9933 -0.1153 -0.0000
vn -0.9934 -0.1114 -0.0272
vn -0.9936 0.0999 0.0526
vn -0.9153 0.3563 0.1877
vn -0.9130 0.3963 0.0969
vn -0.9934 0.1114 0.0272
vn -0.7318 0.6030 0.3177
vn -0.7264 0.6676 0.1632
vn -0.5283 0.7511 0.3958
vn -0.5224 0.8283 0.2026
vn -0.3384 0.8325 0.4387
vn -0.3337 0.9157 0.2239
vn -0.1646 0.8726 0.4598
vn -0.1621 0.9585 0.2344
vn -0.0406 0.8840 0.4658
vn -0.0400 0.9706 0.2374
vn -0.9130 -0.3963 0.0969
vn -0.9934 -0.1114 0.0272
vn -0.7264 -0.6676 0.1632
vn -0.5224 -0.8283 0.2026
vn -0.3337 -0.9157 0.2239
vn -0.1621 -0.9585 0.2344
vn -0.0400 -0.9706 0.2374
vn -0.9121 0.4099 -0.0000
vn -0.9933 0.1153 -0.0000
vn -0.7245 0.6893 -0.0000
vn -0.5202 0.8540 -0.0000
vn -0.3320 0.9433 -0.0000
vn -0.1613 0.9869 -0.0000
vn -0.0398 0.9992 -0.0000
vn -0.9153 0.3563 -0.1877
vn -0.7318 0.6030 -0.3177
vn -0.7393 0.4974 -0.4539
vn -0.9186 0.2920 -0.2664
vn -0.5283 0.7511 -0.3958
vn -0.5368 0.6232 -0.5687
vn -0.3384 0.8325 -0.4387
vn -0.3451 0.6932 -0.6327
vn -0.1646 0.8726 -0.4598
vn -0.1682 0.7281 -0.6645
vn -0.0406 0.8840 -0.4658
vn -0.0416 0.7380 -0.6735
vn -0.9153 -0.3563 0.1877
vn -0.9936 -0.0999 0.0526
vn -0.7318 -0.6030 0.3177
vn -0.5283 -0.7511 0.3958
vn -0.3384 -0.8325 0.4387
vn -0.1646 -0.8726 0.4598
vn -0.0406 -0.8840 0.4658
vn -0.9130 0.3963 -0.0969
vn -0.9934 0.1114 -0.0272
vn -0.7264 0.6676 -0.1632
vn -0.5224 0.8283 -0.2026
vn -0.3337 0.9157 -0.2239
vn -0.1621 0.9585 -0.2344
vn -0.0400 0.9706 -0.2374
vn -0.7393 -0.4974 0.4539
vn -0.9186 -0.2920 0.2664
vn -0.5368 -0.6232 0.5687
vn -0.3451 -0.6932 0.6327
vn -0.1682 -0.7281 0.6645
vn -0.0552 -0.7663 0.6401
vn -0.9936 0.0999 -0.0526
vn -0.9186 -0.2920 -0.2664
vn -0.7393 -0.4974 -0.4539
vn -0.7318 -0.6030 -0.3177
vn -0.9153 -0.3563 -0.1877
vn -0.5368 -0.6232 -0.5687
vn -0.5283 -0.7511 -0.3958
vn -0.3451 -0.6932 -0.6327
vn -0.3384 -0.8325 -0.4387
vn -0.1682 -0.7281 -0.6645
vn -0.1646 -0.8726 -0.4598
vn -0.0416 -0.7380 -0.6735
vn -0.0406 -0.8840 -0.4658
vn -0.9936 -0.0999 -0.0526
vn -0.9186 0.2920 0.2664
vn -0.7393 0.4974 0.4539
vn -0.5368 0.6232 0.5687
vn -0.3451 0.6932 0.6327
vn -0.1682 0.7281 0.6645
vn -0.0416 0.7380 0.6735
vn -0.0000 -0.9659 0.2589
vn -0.0000 -1.0000 0.0075
vn -0.0000 -0.9929 0.1193
vn -0.0000 -0.8678 0.4969
vn -0.0000 -0.9354 0.3536
vn -0.0000 -0.8192 0.5736
vn -0.0565 0.5721 0.8182
vn -0.0000 0.6436 0.7654
vn -0.0000 0.6958 0.7183
vn -0.0000 0.8192 0.5736
vn -0.0000 0.8678 0.4969
vn -0.0000 0.9354 0.3536
vn -0.0000 0.9659 0.2589
vn -0.0000 0.9929 0.1193
vn -0.0000 1.0000 0.0075
vn -0.0000 0.9929 -0.1193
vn -0.0000 0.9659 -0.2589
vn -0.0000 0.8678 -0.4969
vn -0.0000 0.9354 -0.3536
vn -0.0000 0.8192 -0.5736
vn -0.0000 0.6958 -0.7183
vn -0.0000 0.4739 -0.8806
vn -0.0282 0.5719 -0.8198
vn -0.0000 0.6436 -0.7654
vn -0.0425 -0.5338 -0.8445
vn -0.0000 -0.4739 -0.8806
vn -0.0000 -0.6436 -0.7654
vn -0.0000 -0.6958 -0.7183
vn -0.0000 -0.8192 -0.5736
vn -0.0000 -0.8678 -0.4969
vn -0.0000 -0.9354 -0.3536
vn -0.0000 -0.9659 -0.2589
vn -0.0000 -0.9929 -0.1193
vn -0.7298 -0.6801 -0.0698
vn -0.7261 -0.6810 -0.0946
vn -0.7439 -0.6040 -0.2861
vn -0.6718 -0.5387 -0.5084
vn -0.5374 -0.4946 -0.6831
vn -0.3697 -0.4677 -0.8028
vn -0.1874 -0.4535 -0.8714
vn -0.0953 -0.4859 -0.8688
vn -0.7261 0.6811 0.0946
vn -0.7298 0.6801 0.0698
vn -0.0957 0.4741 -0.8753
vn -0.0379 0.5776 -0.8155
vn -0.7261 0.6810 -0.0946
vn -0.7439 0.6040 -0.2861
vn -0.6718 0.5387 -0.5084
vn -0.5374 0.4946 -0.6831
vn -0.3697 0.4677 -0.8028
vn -0.1874 0.4535 -0.8714
vn -0.0957 -0.4741 0.8753
vn -0.0438 -0.8842 0.4651
vn -0.7298 0.6801 -0.0698
vn -0.7261 -0.6811 0.0946
vn -0.7439 -0.6040 0.2861
vn -0.6718 -0.5387 0.5084
vn -0.5374 -0.4946 0.6831
vn -0.3697 -0.4677 0.8028
vn -0.1874 -0.4535 0.8714
vn -0.7439 0.6040 0.2861
vn -0.6718 0.5387 0.5084
vn -0.5374 0.4946 0.6831
vn -0.3697 0.4677 0.8028
vn -0.1874 0.4535 0.8714
vn -0.0953 0.4860 0.8688
vn -0.0836 -0.6413 0.7627
vn -0.7298 -0.6801 0.0698
vn -0.7386 -0.3966 0.5451
vn -0.6764 0.2075 0.7067
vn -0.0000 0.2133 0.9770
vn -0.0000 0.4133 0.9106
vn -0.4109 -0.0542 -0.9100
vn -0.0000 -0.4131 -0.9107
vn -0.6764 -0.2075 -0.7067
vn -0.0000 -0.2134 -0.9770
vn -0.0000 -0.4133 -0.9106
vn -0.6764 -0.2075 0.7067
vn -0.6788 -0.0000 0.7344
vn -0.4111 -0.0551 0.9099
vn -0.6788 -0.0000 -0.7344
vn -0.6764 0.2075 -0.7067
vn -0.4110 0.0542 -0.9100
vn -0.0000 -0.8785 -0.4778
vn -0.0000 0.8784 0.4779
vn -0.0000 -0.0000 -1.0000
vn -0.0000 -0.1428 -0.9898
vn -0.0000 0.2134 -0.9770
vn -0.0000 0.1428 -0.9898
vn -0.0000 0.4127 -0.9109
vn -0.0000 0.4133 -0.9106
vn -0.0000 -0.0000 1.0000
vn -0.0000 0.1428 0.9898
vn -0.0000 -0.2133 0.9770
vn -0.0000 -0.1428 0.9898
vn -0.0000 -0.4135 0.9105
vn -0.0000 -0.4140 0.9103
vn -0.0000 -0.4133 0.9106
vt 1.000000 0.500000
vt 1.000000 1.000000
vt 0.968750 1.000000
vt 0.968750 0.500000
vt 0.937500 1.000000
vt 0.937500 0.500000
vt 0.906250 1.000000
vt 0.906250 0.500000
vt 0.875000 1.000000
vt 0.875000 0.500000
vt 0.843750 1.000000
vt 0.843750 0.500000
vt 0.812500 1.000000
vt 0.812500 0.500000
vt 0.781250 1.000000
vt 0.781250 0.500000
vt 0.750000 1.000000
vt 0.750000 0.500000
vt 0.718750 1.000000
vt 0.718750 0.500000
vt 0.687500 1.000000
vt 0.687500 0.500000
vt 0.656250 1.000000
vt 0.656250 0.500000
vt 0.625000 1.000000
vt 0.625000 0.500000
vt 0.593750 1.000000
vt 0.593750 0.500000
vt 0.562500 1.000000
vt 0.562500 0.500000
vt 0.531250 1.000000
vt 0.531250 0.500000
vt 0.500000 1.000000
vt 0.500000 0.500000
vt 0.468750 0.707764
vt 0.468750 0.500000
vt 0.468750 1.000000
vt 0.468750 0.792307
vt 0.487929 0.770016
vt 0.487936 0.730064
vt 0.437500 0.658334
vt 0.437500 0.500000
vt 0.462260 0.685424
vt 0.437500 1.000000
vt 0.437500 0.841737
vt 0.462260 0.814648
vt 0.406250 1.000000
vt 0.406250 0.886949
vt 0.418859 0.874856
vt 0.419077 0.874469
vt 0.418859 0.625215
vt 0.419077 0.625602
vt 0.406250 0.613122
vt 0.406250 0.500000
vt 0.375000 0.573086
vt 0.375561 0.573513
vt 0.375561 0.926559
vt 0.375000 0.926985
vt 0.375000 0.500000
vt 0.375000 1.000000
vt 0.343750 0.955923
vt 0.343750 0.544149
vt 0.343750 0.500000
vt 0.343750 1.000000
vt 0.333992 0.533840
vt 0.333992 0.966231
vt 0.312500 0.978488
vt 0.312500 0.521583
vt 0.312500 0.500000
vt 0.312500 1.000000
vt 0.281250 0.993286
vt 0.281250 0.506785
vt 0.292005 0.508901
vt 0.292005 0.991171
vt 0.281250 0.500000
vt 0.281250 1.000000
vt 0.250004 0.999677
vt 0.250000 0.999676
vt 0.250000 0.500395
vt 0.250004 0.500394
vt 0.250000 0.500000
vt 0.250000 1.000000
vt 0.218750 1.000000
vt 0.218750 0.993284
vt 0.218750 0.506787
vt 0.218750 0.500000
vt 0.187500 1.000000
vt 0.187500 0.978483
vt 0.208003 0.991171
vt 0.208003 0.508901
vt 0.187500 0.521588
vt 0.187500 0.500000
vt 0.156250 1.000000
vt 0.156250 0.955914
vt 0.166016 0.966232
vt 0.156250 0.544158
vt 0.166016 0.533840
vt 0.156250 0.500000
vt 0.125000 1.000000
vt 0.125000 0.926976
vt 0.125000 0.573095
vt 0.125000 0.500000
vt 0.093750 1.000000
vt 0.093750 0.886934
vt 0.124451 0.926559
vt 0.124451 0.573513
vt 0.093750 0.613137
vt 0.093750 0.500000
vt 0.062500 1.000000
vt 0.062500 0.841709
vt 0.080939 0.874469
vt 0.081157 0.874856
vt 0.062500 0.658363
vt 0.080939 0.625602
vt 0.081157 0.625215
vt 0.062500 0.500000
vt 0.050447 0.116663
vt 0.080294 0.080294
vt 0.116663 0.050447
vt 0.158156 0.028269
vt 0.219385 0.176090
vt 0.205554 0.183482
vt 0.193431 0.193431
vt 0.183482 0.205554
vt 0.176090 0.219385
vt 0.171537 0.234393
vt 0.170000 0.250000
vt 0.171537 0.265607
vt 0.176090 0.280615
vt 0.183482 0.294446
vt 0.193431 0.306569
vt 0.205554 0.316518
vt 0.219385 0.323910
vt 0.234393 0.328463
vt 0.250000 0.330000
vt 0.265607 0.328463
vt 0.280615 0.323910
vt 0.294446 0.316518
vt 0.306569 0.306569
vt 0.316518 0.294446
vt 0.323910 0.280615
vt 0.328463 0.265607
vt 0.330000 0.250000
vt 0.328463 0.234393
vt 0.323910 0.219385
vt 0.471731 0.158156
vt 0.485388 0.203178
vt 0.490000 0.250000
vt 0.485388 0.296822
vt 0.471731 0.341844
vt 0.449553 0.383337
vt 0.419706 0.419706
vt 0.383337 0.449553
vt 0.341844 0.471731
vt 0.296822 0.485388
vt 0.250000 0.490000
vt 0.203178 0.485388
vt 0.158156 0.471731
vt 0.116663 0.449553
vt 0.080294 0.419706
vt 0.050447 0.383337
vt 0.028269 0.341844
vt 0.014612 0.296822
vt 0.010000 0.250000
vt 0.014612 0.203178
vt 0.028269 0.158156
vt 0.383337 0.050447
vt 0.419706 0.080294
vt 0.449553 0.116663
vt 0.316518 0.205554
vt 0.306569 0.193431
vt 0.294446 0.183482
vt 0.280615 0.176090
vt 0.265607 0.171537
vt 0.250000 0.170000
vt 0.234393 0.171537
vt 0.203178 0.014612
vt 0.250000 0.010000
vt 0.296822 0.014612
vt 0.341844 0.028269
vt 0.031250 1.000000
vt 0.031250 0.792221
vt 0.037765 0.814648
vt 0.031250 0.707850
vt 0.037765 0.685424
vt 0.031250 0.500000
vt 0.000000 1.000000
vt 0.000000 0.500000
vt 0.002982 0.740706
vt 0.002985 0.759370
vt 0.734393 0.328463
vt 0.703178 0.485388
vt 0.750000 0.490000
vt 0.796822 0.485388
vt 0.841844 0.471731
vt 0.883337 0.449553
vt 0.919706 0.419706
vt 0.949553 0.383337
vt 0.971731 0.341844
vt 0.985388 0.296822
vt 0.990000 0.250000
vt 0.985388 0.203178
vt 0.971731 0.158156
vt 0.949553 0.116663
vt 0.919706 0.080294
vt 0.883337 0.050447
vt 0.841844 0.028269
vt 0.796822 0.014612
vt 0.750000 0.010000
vt 0.703178 0.014612
vt 0.658156 0.028269
vt 0.616663 0.050447
vt 0.580294 0.080294
vt 0.550447 0.116663
vt 0.528269 0.158156
vt 0.514612 0.203178
vt 0.671537 0.234393
vt 0.676090 0.219385
vt 0.683482 0.205554
vt 0.693431 0.193431
vt 0.705555 0.183482
vt 0.719385 0.176090
vt 0.734393 0.171537
vt 0.750000 0.170000
vt 0.765607 0.171537
vt 0.780615 0.176090
vt 0.794446 0.183482
vt 0.806569 0.193431
vt 0.816518 0.205554
vt 0.823910 0.219385
vt 0.828463 0.234393
vt 0.830000 0.250000
vt 0.828463 0.265607
vt 0.823910 0.280615
vt 0.816518 0.294446
vt 0.806569 0.306569
vt 0.794446 0.316518
vt 0.780615 0.323910
vt 0.765607 0.328463
vt 0.750000 0.330000
vt 0.670000 0.250000
vt 0.510000 0.250000
vt 0.514612 0.296822
vt 0.528269 0.341844
vt 0.550447 0.383337
vt 0.580294 0.419706
vt 0.616663 0.449553
vt 0.658156 0.471731
vt 0.719385 0.323910
vt 0.705554 0.316518
vt 0.693431 0.306569
vt 0.683482 0.294446
vt 0.676090 0.280615
vt 0.671537 0.265607
vt 1.000000 0.917683
vt 0.968750 0.917683
vt 1.000000 0.582317
vt 0.968750 0.582317
vt 0.937500 0.917683
vt 0.937500 0.582317
vt 0.906250 0.917683
vt 0.906250 0.582317
vt 0.875000 0.917683
vt 0.875000 0.582317
vt 0.843750 0.917683
vt 0.843750 0.582317
vt 0.812500 0.917683
vt 0.812500 0.582317
vt 0.781250 0.917683
vt 0.781250 0.582317
vt 0.750000 0.917683
vt 0.750000 0.582317
vt 0.718750 0.917683
vt 0.718750 0.582317
vt 0.687500 0.917683
vt 0.687500 0.582317
vt 0.656250 0.917683
vt 0.656250 0.582317
vt 0.625000 0.917683
vt 0.625000 0.582317
vt 0.593750 0.917683
vt 0.593750 0.582317
vt 0.562500 0.917683
vt 0.562500 0.582317
vt 0.531250 0.917683
vt 0.531250 0.582317
vt 0.500000 0.917683
vt 0.500000 0.582317
vt 0.468750 0.917683
vt 0.468750 0.582317
vt 0.437500 0.917683
vt 0.437500 0.582317
vt 0.406250 0.917683
vt 0.406250 0.582317
vt 0.375000 0.917683
vt 0.375000 0.582317
vt 0.343750 0.917683
vt 0.343750 0.582317
vt 0.312500 0.917683
vt 0.312500 0.582317
vt 0.281250 0.917683
vt 0.281250 0.582317
vt 0.250000 0.917683
vt 0.250000 0.582317
vt 0.218750 0.917683
vt 0.218750 0.582317
vt 0.187500 0.917683
vt 0.187500 0.582317
vt 0.156250 0.917683
vt 0.156250 0.582317
vt 0.125000 0.917683
vt 0.125000 0.582317
vt 0.093750 0.917683
vt 0.093750 0.582317
vt 0.062500 0.917683
vt 0.062500 0.582317
vt 0.031250 0.917683
vt 0.031250 0.582317
vt 0.000000 0.917683
vt 0.000000 0.582317
vt 0.000000 0.000000
s 0
usemtl chrome
f 1/1/1 5/2/1 12/3/1 9/4/1
f 9/4/2 12/3/2 18/5/2 15/6/2
f 15/6/3 18/5/3 24/7/3 21/8/3
f 21/8/4 24/7/4 30/9/4 27/10/4
f 27/10/5 30/9/5 36/11/5 33/12/5
f 33/12/6 36/11/6 43/13/6 39/14/6
f 39/14/7 43/13/7 50/15/7 48/16/7
f 48/16/8 50/15/8 56/17/8 55/18/8
f 55/18/9 56/17/9 62/19/9 60/20/9
f 60/20/10 62/19/10 70/21/10 65/22/10
f 65/22/11 70/21/11 76/23/11 71/24/11
f 71/24/12 76/23/12 80/25/12 77/26/12
f 77/26/13 80/25/13 85/27/13 83/28/13
f 83/28/14 85/27/14 91/29/14 88/30/14
f 88/30/15 91/29/15 95/31/15 93/32/15
f 93/32/16 95/31/16 101/33/16 98/34/16
f 341/35/17 103/36/17 98/34/17 101/33/17 106/37/17 342/38/17 340/39/17 339/40/17
f 339/40/17 340/39/17 342/38/17 341/35/17
f 345/41/18 108/42/18 103/36/18 341/35/18 343/43/18
f 342/38/18 106/37/18 110/44/18 346/45/18 344/46/18
f 343/43/18 341/35/18 342/38/18 344/46/18 346/45/18 345/41/18
f 346/45/19 110/44/19 117/47/19 349/48/19 348/49/19 347/50/19
f 351/51/19 350/52/19 345/41/19 346/45/19 347/50/19 348/49/19 349/48/19 352/53/19
f 352/53/19 115/54/19 108/42/19 345/41/19 350/52/19 351/51/19
f 353/55/20 354/56/20 352/53/20 349/48/20 356/57/20 355/58/20
f 353/55/20 119/59/20 115/54/20 352/53/20 354/56/20
f 349/48/20 117/47/20 122/60/20 355/58/20 356/57/20
f 355/58/21 358/61/21 357/62/21 353/55/21
f 124/63/21 119/59/21 353/55/21 357/62/21
f 355/58/21 122/60/21 126/64/21 358/61/21
f 360/65/22 357/62/22 358/61/22 359/66/22 362/67/22 361/68/22
f 129/69/22 124/63/22 357/62/22 360/65/22 361/68/22
f 126/64/22 131/70/22 362/67/22 359/66/22 358/61/22
f 366/71/23 365/72/23 364/73/23 361/68/23 362/67/23 363/74/23
f 134/75/23 129/69/23 361/68/23 364/73/23 365/72/23
f 131/70/23 136/76/23 366/71/23 363/74/23 362/67/23
f 365/72/24 366/71/24 369/77/24 368/78/24 370/79/24 367/80/24
f 140/81/24 134/75/24 365/72/24 367/80/24 370/79/24
f 136/76/24 143/82/24 368/78/24 369/77/24 366/71/24
f 150/83/25 372/84/25 368/78/25 143/82/25
f 371/85/25 370/79/25 368/78/25 372/84/25
f 147/86/25 140/81/25 370/79/25 371/85/25
f 150/83/26 156/87/26 376/88/26 373/89/26 372/84/26
f 374/90/26 371/85/26 372/84/26 373/89/26 376/88/26 375/91/26
f 153/92/26 147/86/26 371/85/26 374/90/26 375/91/26
f 156/87/27 163/93/27 380/94/27 377/95/27 376/88/27
f 380/94/27 378/96/27 379/97/27 375/91/27 376/88/27 377/95/27
f 378/96/27 159/98/27 153/92/27 375/91/27 379/97/27
f 163/93/28 169/99/28 382/100/28 380/94/28
f 382/100/28 381/101/28 378/96/28 380/94/28
f 165/102/28 159/98/28 378/96/28 381/101/28
f 169/99/29 173/103/29 386/104/29 383/105/29 382/100/29
f 384/106/29 381/101/29 382/100/29 383/105/29 386/104/29 385/107/29
f 171/108/29 165/102/29 381/101/29 384/106/29 385/107/29
f 173/103/30 181/109/30 393/110/30 387/111/30 388/111/30 389/112/30 386/104/30
f 385/107/30 386/104/30 389/112/30 388/111/30 387/111/30 393/110/30 392/113/30 391/114/30 390/115/30
f 392/113/30 177/116/30 171/108/30 385/107/30 390/115/30 391/114/30
f 126/117/31 122/118/31 117/119/31 110/120/31 208/121/31 197/122/31 193/123/31 191/124/31 194/125/31 190/126/31 187/127/31 188/128/31 196/129/31 192/130/31 206/131/31 198/132/31 204/133/31 201/134/31 200/135/31 203/136/31 202/137/31 214/138/31 227/139/31 218/140/31 223/141/31 222/142/31 219/143/31 221/144/31 225/145/31 70/146/31 62/147/31 56/148/31 50/149/31 43/150/31 36/151/31 30/152/31 24/153/31 18/154/31 12/155/31 5/156/31 186/157/31 181/158/31 173/159/31 169/160/31 163/161/31 156/162/31 150/163/31 143/164/31 136/165/31 131/166/31
f 85/167/31 80/168/31 76/169/31 70/146/31 225/145/31 217/170/31 224/171/31 215/172/31 213/173/31 211/174/31 209/175/31 212/176/31 208/121/31 110/120/31 106/177/31 101/178/31 95/179/31 91/180/31
f 186/181/32 394/182/32 397/183/32 393/110/32 181/109/32
f 392/113/32 393/110/32 397/183/32 394/182/32 396/184/32 395/185/32
f 183/186/32 177/116/32 392/113/32 395/185/32 396/184/32
f 5/187/33 1/188/33 183/186/33 396/184/33 398/189/33 399/190/33 394/182/33 186/181/33
f 399/190/33 398/189/33 396/184/33 394/182/33
f 228/191/34 183/192/34 1/193/34 9/194/34 15/195/34 21/196/34 27/197/34 33/198/34 39/199/34 48/200/34 55/201/34 60/202/34 65/203/34 71/204/34 77/205/34 83/206/34 88/207/34 93/208/34 98/209/34 103/210/34 108/211/34 115/212/34 119/213/34 124/214/34 129/215/34 134/216/34 251/217/34 250/218/34 254/219/34 256/220/34 259/221/34 266/222/34 262/223/34 265/224/34 264/225/34 233/226/34 232/227/34 239/228/34 238/229/34 244/230/34 245/231/34 242/232/34 243/233/34 246/234/34 240/235/34 248/236/34 234/237/34 235/238/34 229/239/34 231/240/34
f 249/241/34 251/217/34 134/216/34 140/242/34 147/243/34 153/244/34 159/245/34 165/246/34 171/247/34 177/248/34 183/192/34 228/191/34 261/249/34 260/250/34 267/251/34 255/252/34 258/253/34 253/254/34
f 200/255/1 7/2/1 14/3/1 203/256/1
f 10/4/1 3/1/1 231/257/1 229/258/1
f 203/256/2 14/3/2 20/5/2 202/259/2
f 17/6/2 10/4/2 229/258/2 235/260/2
f 20/5/3 26/7/3 214/261/3 202/259/3
f 23/8/3 17/6/3 235/260/3 234/262/3
f 214/261/4 26/7/4 32/9/4 227/263/4
f 28/10/4 23/8/4 234/262/4 248/264/4
f 227/263/5 32/9/5 38/11/5 218/265/5
f 240/266/5 34/12/5 28/10/5 248/264/5
f 218/265/6 38/11/6 46/13/6 223/267/6
f 246/268/6 41/14/6 34/12/6 240/266/6
f 223/267/7 46/13/7 52/15/7 222/269/7
f 243/270/7 47/16/7 41/14/7 246/268/7
f 222/269/8 52/15/8 58/17/8 219/271/8
f 242/272/8 53/18/8 47/16/8 243/270/8
f 219/271/9 58/17/9 64/19/9 221/273/9
f 245/274/9 59/20/9 53/18/9 242/272/9
f 221/273/10 64/19/10 69/21/10 225/275/10
f 244/276/10 66/22/10 59/20/10 245/274/10
f 225/275/11 69/21/11 75/23/11 217/277/11
f 238/278/11 72/24/11 66/22/11 244/276/11
f 217/277/12 75/23/12 81/25/12 224/279/12
f 239/280/12 78/26/12 72/24/12 238/278/12
f 224/279/13 81/25/13 87/27/13 215/281/13
f 232/282/13 84/28/13 78/26/13 239/280/13
f 215/281/14 87/27/14 92/29/14 213/283/14
f 233/284/14 89/30/14 84/28/14 232/282/14
f 213/283/15 92/29/15 97/31/15 211/285/15
f 264/286/15 94/32/15 89/30/15 233/284/15
f 211/285/16 97/31/16 102/33/16 209/287/16
f 265/288/16 99/34/16 94/32/16 264/286/16
f 209/287/17 102/33/17 107/37/17 212/289/17
f 262/290/17 104/36/17 99/34/17 265/288/17
f 212/289/18 107/37/18 112/44/18 208/291/18
f 266/292/18 109/42/18 104/36/18 262/290/18
f 208/291/19 112/44/19 118/47/19 197/293/19
f 259/294/19 114/54/19 109/42/19 266/292/19
f 197/293/20 118/47/20 123/60/20 193/295/20
f 256/296/20 120/59/20 114/54/20 259/294/20
f 193/295/21 123/60/21 128/64/21 191/297/21
f 125/63/21 120/59/21 256/296/21 254/298/21
f 191/297/22 128/64/22 133/70/22 194/299/22
f 130/69/22 125/63/22 254/298/22 250/300/22
f 194/299/23 133/70/23 138/76/23 190/301/23
f 135/75/23 130/69/23 250/300/23 251/302/23
f 190/301/24 138/76/24 146/82/24 187/303/24
f 142/81/24 135/75/24 251/302/24 249/304/24
f 187/303/25 146/82/25 152/83/25 188/305/25
f 149/86/25 142/81/25 249/304/25 253/306/25
f 188/305/26 152/83/26 158/87/26 196/307/26
f 155/92/26 149/86/26 253/306/26 258/308/26
f 196/307/27 158/87/27 164/93/27 192/309/27
f 160/98/27 155/92/27 258/308/27 255/310/27
f 192/309/28 164/93/28 170/99/28 206/311/28
f 167/102/28 160/98/28 255/310/28 267/312/28
f 206/311/29 170/99/29 175/103/29 198/313/29
f 172/108/29 167/102/29 267/312/29 260/314/29
f 198/313/30 175/103/30 179/109/30 204/315/30
f 178/116/30 172/108/30 260/314/30 261/316/30
f 128/117/31 123/118/31 118/119/31 112/120/31 107/177/31 102/178/31 97/179/31 92/180/31 87/167/31 81/168/31 75/169/31 69/146/31 64/147/31 58/148/31 52/149/31 46/150/31 38/151/31 32/152/31 26/153/31 20/154/31 14/155/31 7/156/31 184/157/31 179/158/31 175/159/31 170/160/31 164/161/31 158/162/31 152/163/31 146/164/31 138/165/31 133/166/31
f 204/315/32 179/109/32 184/181/32 201/317/32
f 182/186/32 178/116/32 261/316/32 228/318/32
f 201/317/33 184/181/33 7/187/33 200/319/33
f 3/188/33 182/186/33 228/318/33 231/320/33
f 178/248/34 182/192/34 3/193/34 10/194/34 17/195/34 23/196/34 28/197/34 34/198/34 41/199/34 47/200/34 53/201/34 59/202/34 66/203/34 72/204/34 78/205/34 84/206/34 89/207/34 94/208/34 99/209/34 104/210/34 109/211/34 114/212/34 120/213/34 125/214/34 130/215/34 135/216/34 142/242/34 149/243/34 155/244/34 160/245/34 167/246/34 172/247/34
s 1
f 2/321/35 4/321/36 6/321/37 8/321/38
f 4/321/36 11/321/39 13/321/40 6/321/37
f 11/321/39 16/321/41 19/321/42 13/321/40
f 16/321/41 22/321/43 25/321/44 19/321/42
f 22/321/43 29/321/45 31/321/46 25/321/44
f 29/321/45 35/321/47 37/321/48 31/321/46
f 40/321/49 42/321/50 44/321/51 45/321/52
f 42/321/50 49/321/53 51/321/54 44/321/51
f 49/321/53 54/321/55 57/321/56 51/321/54
f 54/321/55 61/321/57 63/321/58 57/321/56
f 61/321/57 67/321/59 68/321/60 63/321/58
f 67/321/59 73/321/61 74/321/62 68/321/60
f 35/321/47 29/321/45 79/321/63 82/321/64
f 29/321/45 22/321/43 86/321/65 79/321/63
f 22/321/43 16/321/41 90/321/66 86/321/65
f 16/321/41 11/321/39 96/321/67 90/321/66
f 11/321/39 4/321/36 100/321/68 96/321/67
f 4/321/36 2/321/35 105/321/69 100/321/68
f 45/321/52 44/321/51 111/321/70 113/321/71
f 44/321/51 51/321/54 116/321/72 111/321/70
f 51/321/54 57/321/56 121/321/73 116/321/72
f 57/321/56 63/321/58 127/321/74 121/321/73
f 63/321/58 68/321/60 132/321/75 127/321/74
f 68/321/60 74/321/62 137/321/76 132/321/75
f 139/321/77 141/321/78 144/321/79 145/321/80
f 141/321/78 148/321/81 151/321/82 144/321/79
f 148/321/81 154/321/83 157/321/84 151/321/82
f 154/321/83 161/321/85 162/321/86 157/321/84
f 161/321/85 166/321/87 168/321/88 162/321/86
f 82/321/64 79/321/63 174/321/89 176/321/90
f 79/321/63 86/321/65 180/321/91 174/321/89
f 86/321/65 90/321/66 185/321/92 180/321/91
f 90/321/66 96/321/67 189/321/93 185/321/92
f 96/321/67 100/321/68 195/321/94 189/321/93
f 100/321/68 105/321/69 199/321/95 195/321/94
f 113/321/71 111/321/70 205/321/96 207/321/97
f 111/321/70 116/321/72 210/321/98 205/321/96
f 116/321/72 121/321/73 216/321/99 210/321/98
f 121/321/73 127/321/74 220/321/100 216/321/99
f 127/321/74 132/321/75 226/321/101 220/321/100
f 132/321/75 137/321/76 230/321/102 226/321/101
f 174/321/89 180/321/91 236/321/103 237/321/104
f 180/321/91 185/321/92 241/321/105 236/321/103
f 185/321/92 189/321/93 247/321/106 241/321/105
f 189/321/93 195/321/94 252/321/107 247/321/106
f 195/321/94 199/321/95 257/321/108 252/321/107
f 207/321/97 205/321/96 139/321/77 263/321/109
f 205/321/96 210/321/98 141/321/78 139/321/77
f 210/321/98 216/321/99 148/321/81 141/321/78
f 216/321/99 220/321/100 154/321/83 148/321/81
f 220/321/100 226/321/101 161/321/85 154/321/83
f 226/321/101 230/321/102 166/321/87 161/321/85
f 268/321/110 269/321/111 270/321/112 271/321/113
f 269/321/111 272/321/114 273/321/115 270/321/112
f 272/321/114 274/321/116 275/321/117 273/321/115
f 274/321/116 276/321/118 277/321/119 275/321/117
f 276/321/118 278/321/120 279/321/121 277/321/119
f 280/321/122 271/321/113 31/321/46 37/321/48
f 271/321/113 270/321/112 25/321/44 31/321/46
f 270/321/112 273/321/115 19/321/42 25/321/44
f 273/321/115 275/321/117 13/321/40 19/321/42
f 275/321/117 277/321/119 6/321/37 13/321/40
f 277/321/119 279/321/121 8/321/38 6/321/37
f 281/321/123 282/321/124 49/321/53 42/321/50
f 282/321/124 283/321/125 54/321/55 49/321/53
f 283/321/125 284/321/126 61/321/57 54/321/55
f 284/321/126 285/321/127 67/321/59 61/321/57
f 285/321/127 286/321/128 73/321/61 67/321/59
f 364/321/129 105/321/69 2/321/35 367/321/130 365/321/131
f 360/321/132 199/321/95 105/321/69 364/321/129 361/321/133
f 354/321/134 257/321/108 199/321/95 360/321/132 357/321/134 353/321/134
f 286/321/128 288/321/135 348/321/136 349/321/136 356/321/137
f 73/321/61 286/321/128 356/321/137 355/321/138 358/321/138 359/321/139
f 74/321/62 73/321/61 359/321/139 362/321/140 363/321/141
f 137/321/76 74/321/62 363/321/141 366/321/142 369/321/143
f 372/321/144 373/321/145 230/321/102 137/321/76 369/321/143 368/321/144
f 377/321/146 166/321/87 230/321/102 373/321/145 376/321/147
f 382/321/148 383/321/149 168/321/88 166/321/87 377/321/146 380/321/148
f 389/321/150 289/321/151 168/321/88 383/321/149 386/321/152
f 290/321/153 390/321/154 385/321/155 384/321/156 278/321/120
f 278/321/120 384/321/156 381/321/157 378/321/157 379/321/158 279/321/121
f 279/321/121 379/321/158 375/321/159 374/321/160 8/321/38
f 370/321/161 367/321/130 2/321/35 8/321/38 374/321/160 371/321/161
f 145/321/80 291/321/162 263/321/109 139/321/77
f 145/321/80 292/321/163 291/321/162
f 293/321/164 292/321/163 145/321/80
f 294/321/165 293/321/164 145/321/80 144/321/79
f 294/321/165 144/321/79 151/321/82 295/321/166
f 296/321/167 295/321/166 151/321/82 157/321/84
f 297/321/168 296/321/167 157/321/84 162/321/86
f 289/321/151 298/321/169 168/321/88
f 297/321/168 162/321/86 168/321/88 298/321/169
f 237/321/104 299/321/170 300/321/171
f 237/321/104 300/321/171 176/321/90 174/321/89
f 301/321/172 302/321/173 290/321/153
f 303/321/174 304/321/175 268/321/110
f 268/321/110 304/321/175 305/321/176 269/321/111
f 269/321/111 305/321/176 306/321/177 272/321/114
f 274/321/116 272/321/114 306/321/177 307/321/178
f 276/321/118 274/321/116 307/321/178 308/321/179
f 278/321/120 276/321/118 308/321/179 301/321/172
f 278/321/120 301/321/172 290/321/153
f 309/321/180 310/321/181 288/321/135
f 268/321/110 271/321/113 280/321/122 311/321/182
f 311/321/182 303/321/174 268/321/110
f 312/321/183 313/321/184 281/321/123
f 281/321/123 313/321/184 314/321/185 282/321/124
f 282/321/124 314/321/185 315/321/186 283/321/125
f 284/321/126 283/321/125 315/321/186 316/321/187
f 285/321/127 284/321/126 316/321/187 317/321/188
f 286/321/128 309/321/180 288/321/135
f 286/321/128 285/321/127 317/321/188 309/321/180
f 318/321/189 299/321/170 237/321/104
f 319/321/190 318/321/189 237/321/104 236/321/103
f 320/321/191 319/321/190 236/321/103 241/321/105
f 321/321/192 320/321/191 241/321/105 247/321/106
f 322/321/193 321/321/192 247/321/106 252/321/107
f 322/321/193 252/321/107 257/321/108 323/321/194
f 287/321/195 323/321/194 257/321/108
f 281/321/123 42/321/50 40/321/49 324/321/196
f 324/321/196 312/321/183 281/321/123
f 300/321/171 311/321/182 37/321/48 35/321/47
f 311/321/182 280/321/122 37/321/48
f 176/321/90 300/321/171 35/321/47 82/321/64
f 45/321/52 113/321/71 291/321/162 324/321/196
f 113/321/71 207/321/97 263/321/109 291/321/162
f 45/321/52 324/321/196 40/321/49
f 330/321/197 329/321/198 344/321/199 346/321/200 347/321/200
f 290/321/153 302/321/173 336/321/201 391/321/202 390/321/154
f 335/321/203 395/321/204 392/321/205 391/321/202 336/321/201
f 325/321/206 328/321/207 326/321/208
f 334/321/209 335/321/203 336/321/201
f 331/321/210 334/321/209 336/321/201 332/321/211
f 329/321/198 330/321/197 326/321/208 328/321/207
f 332/321/211 336/321/201 326/321/208 330/321/197
f 310/321/181 312/321/183 324/321/196
f 314/321/185 313/321/184 312/321/183 310/321/181
f 294/321/165 333/321/212 292/321/163 293/321/164
f 332/321/211 330/321/197 310/321/181 333/321/212
f 317/321/188 316/321/187 315/321/186 309/321/180
f 295/321/166 296/321/167 297/321/168 298/321/169
f 295/321/166 298/321/169 333/321/212 294/321/165
f 333/321/212 291/321/162 292/321/163
f 310/321/181 324/321/196 291/321/162 333/321/212
f 310/321/181 309/321/180 315/321/186 314/321/185
f 320/321/191 323/321/194 327/321/213 319/321/190
f 326/321/208 336/321/201 302/321/173 327/321/213
f 320/321/191 321/321/192 322/321/193 323/321/194
f 305/321/176 304/321/175 303/321/174 302/321/173
f 302/321/173 303/321/174 311/321/182
f 327/321/213 302/321/173 311/321/182 300/321/171
f 327/321/213 300/321/171 299/321/170
f 308/321/179 307/321/178 306/321/177 301/321/172
f 319/321/190 327/321/213 299/321/170 318/321/189
f 302/321/173 301/321/172 306/321/177 305/321/176
f 335/321/203 334/321/209 338/321/214 398/321/215 396/321/215 395/321/204
f 338/321/214 334/321/209 331/321/210 397/321/216 394/321/217 399/321/217
f 388/321/218 332/321/211 333/321/212 289/321/151 389/321/150
f 397/321/216 331/321/210 332/321/211 387/321/219 393/321/219
f 344/321/199 329/321/198 328/321/207 337/321/220 340/321/221 342/321/221
f 337/321/220 328/321/207 325/321/206 343/321/222 341/321/223 339/321/223
f 350/321/224 326/321/208 327/321/213 287/321/225 351/321/225
f 343/321/222 325/321/206 326/321/208 350/321/224 345/321/226
s 0
f 287/321/152 351/321/152 352/321/152 354/321/152 257/321/152
