# Blender 5.0.1
# www.blender.org
mtllib HugoInspoToolFirstGear.mtl
o FirstGear
v -1.992000 0.002000 -0.010200
v -1.992000 0.002000 0.010200
v -2.012000 -0.008000 -0.000094
v -1.991610 0.001962 -0.010200
v -2.012000 -0.008000 0.000094
v -2.012000 0.008000 -0.000094
v -1.991610 0.001962 0.010200
v -2.012000 0.008000 0.000094
v -2.011856 0.008000 -0.001467
v -2.011401 0.008000 -0.002878
v -1.991234 0.001848 -0.010200
v -2.011401 0.008000 0.002878
v -1.991234 0.001848 0.010200
v -2.010662 0.008000 -0.004178
v -2.011856 0.008000 0.001467
v -2.009667 0.008000 -0.005317
v -1.990889 0.001663 -0.010200
v -2.009667 0.008000 0.005317
v -1.990889 0.001663 0.010200
v -1.986343 0.005657 -0.007500
v -1.990586 0.001414 -0.010200
v -1.986343 0.005657 0.007500
v -2.010662 0.008000 0.004178
v -1.990586 0.001414 0.010200
v -1.985348 0.004445 -0.007500
v -1.990337 0.001111 -0.010200
v -1.985348 0.004445 0.007500
v -1.990337 0.001111 0.010200
v -1.984609 0.003061 -0.007500
v -1.990152 0.000765 -0.010200
v -1.984609 0.003061 0.007500
v -1.990152 0.000765 0.010200
v -1.990038 0.000390 -0.010200
v -2.000010 -0.005500 0.000000
v -2.011856 -0.008000 -0.001467
v -2.000010 0.005500 -0.000000
v -1.984154 0.001561 -0.007500
v -2.011401 -0.008000 -0.002878
v -1.984154 0.001561 0.007500
v -2.011401 -0.008000 0.002878
v -1.990038 0.000390 0.010200
v -2.010662 -0.008000 -0.004178
v -1.990000 -0.000000 -0.010200
v -2.011856 -0.008000 0.001467
v -1.984000 -0.000000 -0.007500
v -2.009667 -0.008000 -0.005317
v -2.010662 -0.008000 0.004178
v -1.984000 0.000000 0.007500
v -2.009667 -0.008000 0.005317
v -1.990000 0.000000 0.010200
v -1.990038 -0.000390 -0.010200
v -1.984154 -0.001561 -0.007500
v -1.984154 -0.001561 0.007500
v -1.990038 -0.000390 0.010200
v -1.984609 -0.003061 -0.007500
v -1.990152 -0.000765 -0.010200
v -1.990152 -0.000765 0.010200
v -1.984609 -0.003061 0.007500
v -1.985348 -0.004445 -0.007500
v -1.990337 -0.001111 -0.010200
v -1.990337 -0.001111 0.010200
v -1.985348 -0.004445 0.007500
v -1.986343 -0.005657 -0.007500
v -1.990586 -0.001414 -0.010200
v -1.986343 -0.005657 0.007500
v -1.990586 -0.001414 0.010200
v -1.990889 -0.001663 -0.010200
v -1.990889 -0.001663 0.010200
v -1.991234 -0.001848 -0.010200
v -1.991234 -0.001848 0.010200
v -1.991610 -0.001962 -0.010200
v -1.991610 -0.001962 0.010200
v -1.992000 -0.002000 -0.010200
v -1.992000 -0.002000 0.010200
v -1.992390 -0.001962 -0.010200
v -1.992390 -0.001962 0.010200
v -1.992765 -0.001848 -0.010200
v -1.992765 -0.001848 0.010200
v -1.993111 -0.001663 -0.010200
v -1.993111 -0.001663 0.010200
v -1.997657 -0.005657 -0.007500
v -1.993414 -0.001414 -0.010200
v -1.997657 -0.005657 0.007500
v -1.993414 -0.001414 0.010200
v -1.998652 -0.004445 -0.007500
v -1.993663 -0.001111 -0.010200
v -1.998652 -0.004445 0.007500
v -1.993663 -0.001111 0.010200
v -1.999391 -0.003061 -0.007500
v -1.993847 -0.000765 -0.010200
v -1.999391 -0.003061 0.007500
v -1.993847 -0.000765 0.010200
v -1.999846 -0.001561 -0.007500
v -1.993961 -0.000390 -0.010200
v -1.999846 -0.001561 0.007500
v -1.993961 -0.000390 0.010200
v -2.000000 -0.000000 -0.007500
v -1.994000 -0.000000 -0.010200
v -2.000000 0.000000 0.007500
v -1.994000 0.000000 0.010200
v -1.999846 0.001561 -0.007500
v -1.993961 0.000390 -0.010200
v -1.999846 0.001561 0.007500
v -1.993961 0.000390 0.010200
v -1.999391 0.003061 -0.007500
v -1.993847 0.000765 -0.010200
v -1.999391 0.003061 0.007500
v -1.993847 0.000765 0.010200
v -1.998652 0.004445 -0.007500
v -1.993663 0.001111 -0.010200
v -1.998652 0.004445 0.007500
v -1.993663 0.001111 0.010200
v -1.997657 0.005657 -0.007500
v -1.993414 0.001414 -0.010200
v -1.997657 0.005657 0.007500
v -1.993414 0.001414 0.010200
v -1.993111 0.001663 -0.010200
v -1.993111 0.001663 0.010200
v -1.992765 0.001848 -0.010200
v -1.992765 0.001848 0.010200
v -1.992390 0.001962 -0.010200
v -1.992390 0.001962 0.010200
v -1.994000 0.000000 0.007500
v -1.993961 0.000390 0.007500
v -1.993961 -0.000390 0.007500
v -1.993663 -0.001111 0.007500
v -1.993663 0.001111 0.007500
v -1.993414 -0.001414 0.007500
v -1.993847 -0.000765 0.007500
v -1.993847 0.000765 0.007500
v -1.993111 -0.001663 0.007500
v -1.993111 0.001663 0.007500
v -1.992390 0.001962 0.007500
v -1.991234 0.001848 0.007500
v -1.991610 0.001962 0.007500
v -1.992000 0.002000 0.007500
v -1.992765 -0.001848 0.007500
v -1.992765 0.001848 0.007500
v -1.993414 0.001414 0.007500
v -1.992390 -0.001962 0.007500
v -1.991610 -0.001962 0.007500
v -1.992000 -0.002000 0.007500
v -1.990889 -0.001663 0.007500
v -1.990889 0.001663 0.007500
v -1.991234 -0.001848 0.007500
v -1.990337 -0.001111 0.007500
v -1.990337 0.001111 0.007500
v -1.990000 0.000000 0.007500
v -1.990038 -0.000390 0.007500
v -1.990038 0.000390 0.007500
v -1.990152 -0.000765 0.007500
v -1.990152 0.000765 0.007500
v -1.990586 0.001414 0.007500
v -1.990586 -0.001414 0.007500
v -1.992390 0.001962 -0.007500
v -1.992000 0.002000 -0.007500
v -1.991610 0.001962 -0.007500
v -1.991610 -0.001962 -0.007500
v -1.990889 -0.001663 -0.007500
v -1.990889 0.001663 -0.007500
v -1.991234 -0.001848 -0.007500
v -1.991234 0.001848 -0.007500
v -1.990337 -0.001111 -0.007500
v -1.990337 0.001111 -0.007500
v -1.990000 -0.000000 -0.007500
v -1.990038 0.000390 -0.007500
v -1.990038 -0.000390 -0.007500
v -1.990152 0.000765 -0.007500
v -1.990152 -0.000765 -0.007500
v -1.990586 0.001414 -0.007500
v -1.990586 -0.001414 -0.007500
v -1.994000 -0.000000 -0.007500
v -1.993847 -0.000765 -0.007500
v -1.993961 -0.000390 -0.007500
v -1.993961 0.000390 -0.007500
v -1.993663 0.001111 -0.007500
v -1.993663 -0.001111 -0.007500
v -1.993414 -0.001414 -0.007500
v -1.993847 0.000765 -0.007500
v -1.993111 -0.001663 -0.007500
v -1.993111 0.001663 -0.007500
v -1.992000 -0.002000 -0.007500
v -1.992390 -0.001962 -0.007500
v -1.992765 -0.001848 -0.007500
v -1.992765 0.001848 -0.007500
v -1.993414 0.001414 -0.007500
v -1.999692 -0.002067 0.007500
v -1.999692 -0.002067 -0.007500
v -1.992000 -0.002000 0.007500
v -1.992000 -0.002000 -0.007500
v -1.992000 0.002000 0.007500
v -1.992000 0.002000 -0.007500
v -1.998396 -0.000371 0.007500
v -1.993262 0.006348 -0.007500
v -1.999039 -0.001212 -0.007500
v -1.993590 0.005919 -0.007500
v -1.992000 0.008000 -0.005939
v -1.992000 0.008000 0.005939
v -1.990439 0.007846 -0.006127
v -1.990439 0.007846 0.006126
v -1.988938 0.007391 -0.006681
v -1.988938 0.007391 0.006681
v -1.988340 0.007071 0.007071
v -1.988340 0.007071 -0.007071
v -1.987555 0.006652 -0.007415
v -1.987555 0.006652 0.007415
v -1.987429 0.006548 0.007500
v -1.987429 0.006549 -0.007500
v -1.987429 -0.006548 0.007500
v -1.987555 -0.006652 -0.007415
v -1.987430 -0.006549 -0.007500
v -1.987555 -0.006652 0.007415
v -1.988340 -0.007071 0.007071
v -1.988938 -0.007391 0.006681
v -1.988340 -0.007071 -0.007071
v -1.988938 -0.007391 -0.006682
v -1.990439 -0.007846 -0.006127
v -1.990439 -0.007846 0.006126
v -1.992000 -0.008000 -0.005939
v -1.992000 -0.008000 0.005939
v -1.992000 -0.008000 -0.005939
v -1.992000 -0.008000 0.005939
v -1.992000 0.006548 0.007500
v -1.989287 0.006548 0.007500
v -1.996571 0.006548 0.007500
v -1.996570 -0.006548 0.007500
v -1.994712 -0.006548 0.007500
v -1.992000 -0.006548 0.007500
v -1.992000 0.008000 -0.005939
v -1.992000 0.008000 0.005939
v -1.992000 0.006549 -0.007500
v -1.993302 0.006549 -0.007500
v -1.992000 -0.006549 -0.007500
v -1.996570 -0.006549 -0.007500
v -1.996570 0.006549 -0.007500
v -1.993580 0.006549 -0.007500
v -2.008861 0.008000 -0.005939
v -2.008861 0.008000 0.005939
v -1.992000 0.008000 -0.005939
v -1.992000 0.008000 0.005939
v -1.992000 -0.008000 -0.005939
v -1.992000 -0.008000 0.005939
v -2.008860 -0.008000 -0.005939
v -2.008861 -0.008000 0.005939
v -2.004226 -0.006549 -0.007500
v -2.004226 0.006549 -0.007500
v -2.004226 -0.006548 0.007500
v -2.004226 0.006548 0.007500
v -2.005570 -0.006700 0.007376
v -2.005570 0.006700 0.007376
v -2.006639 0.007071 0.007071
v -2.006639 -0.007071 0.007071
v -2.007071 -0.007172 0.006948
v -2.007071 0.007172 0.006948
v -2.008454 -0.007743 0.006253
v -2.008454 0.007742 0.006253
v -2.008454 -0.007743 -0.006253
v -2.008454 0.007743 -0.006253
v -2.007071 -0.007173 -0.006948
v -2.007071 0.007173 -0.006948
v -2.006637 0.007071 -0.007071
v -2.005570 -0.006700 -0.007376
v -2.005570 0.006700 -0.007376
v -2.006637 -0.007071 -0.007071
v -2.012000 0.006000 0.000094
v -2.012000 -0.006000 0.000094
v -2.012000 -0.006000 -0.000094
v -2.012000 0.006000 -0.000094
v -2.000010 -0.006000 -0.007500
v -2.000010 0.006000 -0.007500
v -2.004226 -0.006000 -0.007500
v -2.004226 0.006000 -0.007500
v -2.000010 -0.006000 0.007500
v -2.000010 0.006000 0.007500
v -2.004226 -0.006000 0.007500
v -2.004226 0.006000 0.007500
v -2.005570 -0.006000 0.007376
v -2.005570 0.006000 0.007376
v -2.007071 -0.006000 0.006948
v -2.007071 0.006000 0.006948
v -2.008454 -0.006000 0.006253
v -2.008454 0.006000 0.006253
v -2.009667 -0.006000 0.005317
v -2.009667 0.006000 0.005317
v -2.010662 -0.006000 0.004178
v -2.010662 0.006000 0.004178
v -2.011401 0.006000 0.002878
v -2.011401 -0.006000 0.002878
v -2.011856 0.006000 0.001467
v -2.011856 -0.006000 0.001467
v -2.011856 0.006000 -0.001467
v -2.011856 -0.006000 -0.001467
v -2.011401 0.006000 -0.002878
v -2.011401 -0.006000 -0.002878
v -2.010662 0.006000 -0.004178
v -2.010662 -0.006000 -0.004178
v -2.009667 0.006000 -0.005317
v -2.009667 -0.006000 -0.005317
v -2.008454 -0.006000 -0.006253
v -2.008454 0.006000 -0.006253
v -2.007071 -0.006000 -0.006948
v -2.007071 0.006000 -0.006948
v -2.005570 -0.006000 -0.007376
v -2.005570 0.006000 -0.007376
v -2.007235 0.008000 0.001827
v -2.007565 0.008000 0.001556
v -2.006866 0.008000 -0.002025
v -2.007232 0.008000 -0.001829
v -2.007839 0.008000 0.001222
v -2.007565 0.008000 -0.001556
v -2.007839 0.008000 -0.001222
v -2.008042 0.008000 0.000842
v -2.008168 0.008000 0.000429
v -2.008042 0.008000 -0.000842
v -2.008168 0.008000 -0.000429
v -2.008210 0.008000 -0.000000
v -2.007232 0.008000 0.001829
v -2.006852 0.008000 -0.002033
v -2.006439 0.008000 -0.002158
v -2.006852 0.008000 0.002033
v -2.006439 0.008000 0.002158
v -2.006010 0.008000 -0.002200
v -2.005581 0.008000 -0.002158
v -2.006010 0.008000 0.002200
v -2.005581 0.008000 0.002158
v -2.005168 0.008000 0.002033
v -2.004787 0.008000 0.001829
v -2.005168 0.008000 -0.002033
v -2.004787 0.008000 -0.001829
v -2.004180 0.008000 -0.001222
v -2.004454 0.008000 -0.001556
v -2.004454 0.008000 0.001556
v -2.004180 0.008000 0.001222
v -2.003977 0.008000 -0.000842
v -2.003852 0.008000 -0.000429
v -2.003977 0.008000 0.000842
v -2.003810 0.008000 -0.000000
v -2.003852 0.008000 0.000429
v -2.007235 -0.008000 -0.001827
v -2.007565 -0.008000 -0.001556
v -2.006866 -0.008000 0.002025
v -2.007232 -0.008000 0.001829
v -2.007839 -0.008000 -0.001222
v -2.007565 -0.008000 0.001556
v -2.007839 -0.008000 0.001222
v -2.008042 -0.008000 -0.000842
v -2.008168 -0.008000 -0.000429
v -2.008042 -0.008000 0.000842
v -2.008168 -0.008000 0.000429
v -2.008210 -0.008000 0.000000
v -2.007232 -0.008000 -0.001829
v -2.006852 -0.008000 0.002033
v -2.006439 -0.008000 0.002158
v -2.006852 -0.008000 -0.002033
v -2.006439 -0.008000 -0.002158
v -2.006010 -0.008000 0.002200
v -2.005581 -0.008000 0.002158
v -2.006010 -0.008000 -0.002200
v -2.005581 -0.008000 -0.002158
v -2.005168 -0.008000 -0.002033
v -2.004787 -0.008000 -0.001829
v -2.005168 -0.008000 0.002033
v -2.004787 -0.008000 0.001829
v -2.004180 -0.008000 0.001222
v -2.004454 -0.008000 0.001556
v -2.004454 -0.008000 -0.001556
v -2.004180 -0.008000 -0.001222
v -2.003977 -0.008000 0.000842
v -2.003852 -0.008000 0.000429
v -2.003977 -0.008000 -0.000842
v -2.003810 -0.008000 0.000000
v -2.003852 -0.008000 -0.000429
v -2.008168 0.006000 -0.000429
v -2.008210 0.006000 -0.000000
v -2.006439 0.006000 -0.002158
v -2.006852 0.006000 -0.002033
v -2.007232 0.006000 -0.001829
v -2.007565 0.006000 -0.001556
v -2.007839 0.006000 -0.001222
v -2.008042 0.006000 -0.000842
v -2.008163 0.006000 0.000443
v -2.008168 0.006000 0.000429
v -2.006846 0.006000 0.002034
v -2.006439 0.006000 0.002158
v -2.003810 0.006000 -0.000000
v -2.003852 0.006000 -0.000429
v -2.003852 0.006000 0.000429
v -2.003977 0.006000 0.000842
v -2.004180 0.006000 -0.001222
v -2.003977 0.006000 -0.000842
v -2.004180 0.006000 0.001222
v -2.004454 0.006000 0.001556
v -2.005581 0.006000 -0.002158
v -2.005168 0.006000 -0.002033
v -2.004787 0.006000 -0.001829
v -2.004454 0.006000 -0.001556
v -2.004787 0.006000 0.001829
v -2.005168 0.006000 0.002033
v -2.005581 0.006000 0.002158
v -2.006010 0.006000 -0.002200
v -2.006010 0.006000 0.002200
v -2.006852 0.006000 0.002033
v -2.008042 0.006000 0.000842
v -2.007232 0.006000 0.001829
v -2.007839 0.006000 0.001222
v -2.007565 0.006000 0.001556
v -2.008168 -0.006000 -0.000429
v -2.008210 -0.006000 0.000000
v -2.006439 -0.006000 -0.002158
v -2.006852 -0.006000 -0.002033
v -2.007232 -0.006000 -0.001829
v -2.007565 -0.006000 -0.001556
v -2.007839 -0.006000 -0.001222
v -2.008042 -0.006000 -0.000842
v -2.008163 -0.006000 0.000443
v -2.008168 -0.006000 0.000429
v -2.006846 -0.006000 0.002034
v -2.006439 -0.006000 0.002158
v -2.003810 -0.006000 0.000000
v -2.003852 -0.006000 -0.000429
v -2.003852 -0.006000 0.000429
v -2.003977 -0.006000 0.000842
v -2.004180 -0.006000 -0.001222
v -2.003977 -0.006000 -0.000842
v -2.004180 -0.006000 0.001222
v -2.004454 -0.006000 0.001556
v -2.005581 -0.006000 -0.002158
v -2.005168 -0.006000 -0.002033
v -2.004787 -0.006000 -0.001829
v -2.004454 -0.006000 -0.001556
v -2.004787 -0.006000 0.001829
v -2.005168 -0.006000 0.002033
v -2.005581 -0.006000 0.002158
v -2.006010 -0.006000 -0.002200
v -2.006010 -0.006000 0.002200
v -2.006852 -0.006000 0.002033
v -2.007232 -0.006000 0.001829
v -2.008042 -0.006000 0.000842
v -2.007839 -0.006000 0.001222
v -2.007565 -0.006000 0.001556
vn 0.0980 0.9952 -0.0000
vn 0.2903 0.9569 -0.0000
vn 0.4714 0.8819 -0.0000
vn 0.6344 0.7730 -0.0000
vn 0.7730 0.6344 -0.0000
vn 0.8819 0.4714 -0.0000
vn 0.9569 0.2903 -0.0000
vn 0.9952 0.0980 -0.0000
vn 0.9952 -0.0980 -0.0000
vn 0.9569 -0.2903 -0.0000
vn 0.8819 -0.4714 -0.0000
vn 0.7730 -0.6344 -0.0000
vn 0.6344 -0.7730 -0.0000
vn 0.4714 -0.8819 -0.0000
vn 0.2903 -0.9569 -0.0000
vn 0.0980 -0.9952 -0.0000
vn -0.0964 -0.9953 -0.0000
vn -0.0000 -0.0000 1.0000
vn -0.0964 0.9953 -0.0000
vn -0.0000 -0.0000 -1.0000
vn -0.0980 -0.9952 -0.0000
vn -0.2903 -0.9569 -0.0000
vn -0.4714 -0.8819 -0.0000
vn -0.6344 -0.7730 -0.0000
vn -0.7730 -0.6344 -0.0000
vn -0.8819 -0.4714 -0.0000
vn -0.9569 -0.2903 -0.0000
vn -0.9952 -0.0980 -0.0000
vn -0.9952 0.0980 -0.0000
vn -0.9569 0.2903 -0.0000
vn -0.8819 0.4714 -0.0000
vn -0.7730 0.6344 -0.0000
vn -0.6344 0.7730 -0.0000
vn -0.4714 0.8819 -0.0000
vn -0.2903 0.9569 -0.0000
vn -0.0980 0.9952 -0.0000
vn -1.0000 -0.0000 -0.0000
vn -0.0000 1.0000 -0.0000
vn 1.0000 -0.0000 -0.0000
vn -0.0000 -1.0000 -0.0000
vn -0.0922 -0.0000 0.9957
vn -0.2742 -0.0000 0.9617
vn -0.4490 -0.0000 0.8936
vn -0.6108 -0.0000 0.7918
vn -0.7533 -0.0000 0.6577
vn -0.8693 -0.0000 0.4943
vn -0.9517 -0.0000 0.3071
vn -0.9946 -0.0000 0.1042
vn -0.9946 -0.0000 -0.1042
vn -0.9517 -0.0000 -0.3071
vn -0.8693 -0.0000 -0.4943
vn -0.7533 -0.0000 -0.6577
vn -0.6108 -0.0000 -0.7918
vn -0.4490 -0.0000 -0.8936
vn -0.2742 -0.0000 -0.9617
vn -0.0922 -0.0000 -0.9957
vn -0.0000 0.6344 0.7730
vn -0.0000 -0.6344 0.7730
vn -0.0000 -0.7730 0.6344
vn -0.0000 -0.7730 -0.6344
vn -0.0000 -0.6344 -0.7730
vn -0.0000 0.6344 -0.7730
vn -0.0000 0.7730 -0.6344
vn -0.0000 0.7730 0.6344
vn -0.0980 -0.0000 0.9952
vn -0.2903 -0.0000 0.9569
vn -0.4714 -0.0000 0.8819
vn -0.6344 -0.0000 0.7730
vn -0.7730 -0.0000 0.6344
vn -0.8819 -0.0000 0.4714
vn -0.9569 -0.0000 0.2903
vn -0.9952 -0.0000 0.0980
vn -0.9952 -0.0000 -0.0980
vn -0.9569 -0.0000 -0.2903
vn -0.8819 -0.0000 -0.4714
vn -0.7730 -0.0000 -0.6344
vn -0.6344 -0.0000 -0.7730
vn -0.4714 -0.0000 -0.8819
vn -0.2903 -0.0000 -0.9569
vn -0.0980 -0.0000 -0.9952
vn 0.0980 -0.0000 -0.9952
vn 0.2903 -0.0000 -0.9569
vn 0.4714 -0.0000 -0.8819
vn 0.6344 -0.0000 -0.7730
vn 0.7730 -0.0000 -0.6344
vn 0.8819 -0.0000 -0.4714
vn 0.9569 -0.0000 -0.2903
vn 0.9952 -0.0000 -0.0980
vn 0.9952 -0.0000 0.0980
vn 0.9569 -0.0000 0.2903
vn 0.8819 -0.0000 0.4714
vn 0.7730 -0.0000 0.6344
vn 0.6344 -0.0000 0.7730
vn 0.4714 -0.0000 0.8819
vn 0.2903 -0.0000 0.9569
vn 0.0980 -0.0000 0.9952
vt 1.000000 0.552023
vt 1.000000 0.947962
vt 0.968750 0.954205
vt 0.968750 0.545780
vt 0.937500 0.972696
vt 0.937500 0.527289
vt 0.923972 0.514290
vt 0.923972 0.985695
vt 0.906250 0.997163
vt 0.906250 0.502821
vt 0.902993 1.000000
vt 0.875000 1.000000
vt 0.875000 0.500000
vt 0.903011 0.500000
vt 0.843750 1.000000
vt 0.843750 0.500000
vt 0.812500 1.000000
vt 0.812500 0.500000
vt 0.781250 1.000000
vt 0.781250 0.500000
vt 0.750000 1.000000
vt 0.750000 0.500000
vt 0.718750 1.000000
vt 0.718750 0.500000
vt 0.687500 1.000000
vt 0.687500 0.500000
vt 0.656250 1.000000
vt 0.656250 0.500000
vt 0.625000 1.000000
vt 0.625000 0.500000
vt 0.593750 0.502817
vt 0.596985 0.500000
vt 0.597002 1.000000
vt 0.593750 0.997167
vt 0.562500 0.527283
vt 0.576022 0.514290
vt 0.576022 0.985695
vt 0.562500 0.972702
vt 0.531250 0.954211
vt 0.531250 0.545774
vt 0.500000 0.947968
vt 0.500000 0.552017
vt 0.499998 0.947968
vt 0.499998 0.552017
vt 0.331369 0.446442
vt 0.249996 0.446442
vt 0.249996 0.310000
vt 0.250000 0.310000
vt 0.261705 0.308847
vt 0.272961 0.305433
vt 0.058104 0.238872
vt 0.019220 0.187985
vt 0.028269 0.158156
vt 0.050447 0.116663
vt 0.080294 0.080294
vt 0.112878 0.053553
vt 0.168629 0.053553
vt 0.227039 0.194567
vt 0.216666 0.200112
vt 0.207574 0.207574
vt 0.200112 0.216666
vt 0.194567 0.227039
vt 0.191153 0.238295
vt 0.190000 0.250000
vt 0.191153 0.261705
vt 0.194567 0.272961
vt 0.200112 0.283334
vt 0.207574 0.292426
vt 0.216666 0.299888
vt 0.227039 0.305433
vt 0.238295 0.308847
vt 0.112873 0.446442
vt 0.080294 0.419706
vt 0.050447 0.383337
vt 0.028269 0.341844
vt 0.014612 0.296822
vt 0.010000 0.250000
vt 0.014612 0.203178
vt 0.283334 0.299888
vt 0.292426 0.292426
vt 0.299888 0.283334
vt 0.305433 0.272961
vt 0.308847 0.261705
vt 0.310000 0.250000
vt 0.308847 0.238295
vt 0.305433 0.227039
vt 0.299888 0.216666
vt 0.292426 0.207574
vt 0.283334 0.200112
vt 0.272961 0.194567
vt 0.261705 0.191153
vt 0.250000 0.190000
vt 0.249996 0.190000
vt 0.249996 0.053554
vt 0.387122 0.053554
vt 0.419706 0.080294
vt 0.449553 0.116663
vt 0.471731 0.158156
vt 0.485388 0.203178
vt 0.490000 0.250000
vt 0.485388 0.296822
vt 0.471731 0.341844
vt 0.449553 0.383337
vt 0.419706 0.419706
vt 0.387127 0.446442
vt 0.238295 0.191153
vt 0.000000 0.947962
vt 0.000000 0.552023
vt 0.000002 0.552023
vt 0.000002 0.947962
vt 0.919706 0.419706
vt 0.949553 0.383337
vt 0.971731 0.341844
vt 0.985388 0.296822
vt 0.808847 0.261705
vt 0.805433 0.272961
vt 0.799888 0.283334
vt 0.792426 0.292426
vt 0.783334 0.299888
vt 0.772961 0.305433
vt 0.761705 0.308847
vt 0.750000 0.310000
vt 0.749996 0.310000
vt 0.749996 0.446459
vt 0.887107 0.446459
vt 0.738295 0.308847
vt 0.712121 0.440432
vt 0.710922 0.446459
vt 0.810000 0.250000
vt 0.990000 0.250000
vt 0.985388 0.203178
vt 0.971731 0.158156
vt 0.949553 0.116663
vt 0.919706 0.080294
vt 0.887102 0.053537
vt 0.749996 0.053537
vt 0.749996 0.190000
vt 0.750000 0.190000
vt 0.761705 0.191153
vt 0.772961 0.194567
vt 0.783334 0.200112
vt 0.792426 0.207574
vt 0.799888 0.216666
vt 0.805433 0.227039
vt 0.808847 0.238295
vt 0.538825 0.213641
vt 0.514612 0.203178
vt 0.510000 0.250000
vt 0.514612 0.296822
vt 0.528269 0.341844
vt 0.550447 0.383337
vt 0.580294 0.419706
vt 0.612893 0.446459
vt 0.702587 0.446459
vt 0.702301 0.427581
vt 0.727039 0.305433
vt 0.716666 0.299888
vt 0.707574 0.292426
vt 0.700112 0.283334
vt 0.694567 0.272961
vt 0.691153 0.261705
vt 0.690000 0.250000
vt 0.691153 0.238295
vt 0.694567 0.227039
vt 0.700112 0.216666
vt 0.707574 0.207574
vt 0.716666 0.200112
vt 0.727039 0.194567
vt 0.738295 0.191153
vt 0.612898 0.053537
vt 0.580294 0.080294
vt 0.550447 0.116663
vt 0.528269 0.158156
vt 0.519220 0.187985
vt 1.000000 0.933824
vt 1.000000 1.000000
vt 0.968750 1.000000
vt 0.968750 0.933824
vt 0.968750 0.500000
vt 1.000000 0.500000
vt 1.000000 0.566176
vt 0.968750 0.566176
vt 0.937500 1.000000
vt 0.937500 0.933824
vt 0.937500 0.500000
vt 0.937500 0.566176
vt 0.906250 1.000000
vt 0.906250 0.933824
vt 0.906250 0.500000
vt 0.906250 0.566176
vt 0.875000 0.933824
vt 0.875000 0.566176
vt 0.843750 0.933824
vt 0.843750 0.566176
vt 0.812500 0.933824
vt 0.812500 0.566176
vt 0.781250 0.933824
vt 0.781250 0.566176
vt 0.750000 0.933824
vt 0.750000 0.566176
vt 0.718750 0.933824
vt 0.718750 0.566176
vt 0.687500 0.933824
vt 0.687500 0.566176
vt 0.656250 0.933824
vt 0.656250 0.566176
vt 0.625000 0.933824
vt 0.625000 0.566176
vt 0.593750 1.000000
vt 0.593750 0.933824
vt 0.593750 0.566176
vt 0.593750 0.500000
vt 0.562500 1.000000
vt 0.562500 0.933824
vt 0.562500 0.566176
vt 0.562500 0.500000
vt 0.531250 1.000000
vt 0.531250 0.933824
vt 0.531250 0.566176
vt 0.531250 0.500000
vt 0.500000 1.000000
vt 0.500000 0.933824
vt 0.500000 0.566176
vt 0.500000 0.500000
vt 0.499990 0.933824
vt 0.468750 1.000000
vt 0.468750 0.933824
vt 0.499990 0.566176
vt 0.468750 0.566176
vt 0.468750 0.500000
vt 0.437500 1.000000
vt 0.437500 0.933824
vt 0.437500 0.566176
vt 0.437500 0.500000
vt 0.406250 1.000000
vt 0.406250 0.933824
vt 0.406250 0.566176
vt 0.406250 0.500000
vt 0.375000 1.000000
vt 0.375000 0.933824
vt 0.375000 0.566176
vt 0.375000 0.500000
vt 0.343750 1.000000
vt 0.343750 0.933824
vt 0.343750 0.500000
vt 0.343750 0.566176
vt 0.312500 1.000000
vt 0.312500 0.933824
vt 0.312500 0.500000
vt 0.312500 0.566176
vt 0.281250 1.000000
vt 0.281250 0.933824
vt 0.281250 0.500000
vt 0.281250 0.566176
vt 0.250000 1.000000
vt 0.250000 0.933824
vt 0.250000 0.500000
vt 0.250000 0.566176
vt 0.218750 1.000000
vt 0.218750 0.933824
vt 0.218750 0.500000
vt 0.218750 0.566176
vt 0.187500 1.000000
vt 0.187500 0.933824
vt 0.187500 0.500000
vt 0.187500 0.566176
vt 0.156250 1.000000
vt 0.156250 0.933824
vt 0.156250 0.500000
vt 0.156250 0.566176
vt 0.125000 1.000000
vt 0.125000 0.933824
vt 0.125000 0.500000
vt 0.125000 0.566176
vt 0.093750 1.000000
vt 0.093750 0.933824
vt 0.093750 0.500000
vt 0.093750 0.566176
vt 0.062500 1.000000
vt 0.062500 0.933824
vt 0.062500 0.500000
vt 0.062500 0.566176
vt 0.383337 0.050447
vt 0.383337 0.449553
vt 0.341844 0.471731
vt 0.296822 0.485388
vt 0.250000 0.490000
vt 0.203178 0.485388
vt 0.158156 0.471731
vt 0.116663 0.449553
vt 0.116663 0.050447
vt 0.158156 0.028269
vt 0.203178 0.014612
vt 0.250000 0.010000
vt 0.296822 0.014612
vt 0.341844 0.028269
vt 0.031250 1.000000
vt 0.031250 0.933824
vt 0.031250 0.500000
vt 0.031250 0.566176
vt 0.000010 0.933824
vt 0.000000 1.000000
vt 0.000000 0.933824
vt 0.000010 0.566176
vt 0.000000 0.566176
vt 0.000000 0.500000
vt 0.658156 0.471731
vt 0.703178 0.485388
vt 0.750000 0.490000
vt 0.796822 0.485388
vt 0.841844 0.471731
vt 0.883337 0.449553
vt 0.883337 0.050447
vt 0.841844 0.028269
vt 0.796822 0.014612
vt 0.750000 0.010000
vt 0.703178 0.014612
vt 0.658156 0.028269
vt 0.616663 0.050447
vt 0.616663 0.449553
vt 0.501573 0.250000
vt 0.498427 0.250000
vt 0.498427 0.218750
vt 0.501573 0.218750
vt 0.498427 0.000000
vt 0.501573 0.000000
vt 0.501573 0.031250
vt 0.498427 0.031250
vt 0.401012 0.289242
vt 0.411376 0.279166
vt 0.430369 0.266729
vt 0.452037 0.257488
vt 0.475549 0.251798
vt 0.524451 0.251798
vt 0.547963 0.257488
vt 0.569632 0.266729
vt 0.588624 0.279166
vt 0.530446 0.309561
vt 0.525927 0.305431
vt 0.520371 0.302011
vt 0.514032 0.299470
vt 0.507153 0.297905
vt 0.500000 0.297376
vt 0.492847 0.297905
vt 0.485968 0.299470
vt 0.479629 0.302011
vt 0.474073 0.305431
vt 0.469513 0.309598
vt 0.466248 0.314179
vt 0.598981 0.289235
vt 0.598981 0.500000
vt 0.401012 0.500000
vt 0.466124 0.314353
vt 0.464038 0.319511
vt 0.463333 0.324876
vt 0.464038 0.330241
vt 0.466124 0.335400
vt 0.469513 0.340155
vt 0.474073 0.344322
vt 0.479629 0.347742
vt 0.485968 0.350283
vt 0.492847 0.351848
vt 0.500000 0.352376
vt 0.507153 0.351848
vt 0.514032 0.350283
vt 0.520371 0.347742
vt 0.525927 0.344322
vt 0.530487 0.340155
vt 0.533876 0.335400
vt 0.535962 0.330241
vt 0.536667 0.324876
vt 0.535962 0.319511
vt 0.533876 0.314353
vt 0.530487 0.309598
vt 0.598984 0.750000
vt 0.401009 0.750000
vt 0.401008 0.750000
vt 0.598984 0.750000
vt 0.598981 0.500000
vt 0.401011 0.500000
vt 0.598984 0.960762
vt 0.588624 0.970834
vt 0.569631 0.983271
vt 0.547963 0.992512
vt 0.524451 0.998202
vt 0.501573 1.000000
vt 0.498427 1.000000
vt 0.475549 0.998202
vt 0.452037 0.992512
vt 0.430369 0.983271
vt 0.411376 0.970834
vt 0.469554 0.940439
vt 0.474073 0.944569
vt 0.479629 0.947989
vt 0.485968 0.950530
vt 0.492847 0.952095
vt 0.500000 0.952624
vt 0.507153 0.952095
vt 0.514032 0.950530
vt 0.520371 0.947989
vt 0.525927 0.944569
vt 0.530487 0.940402
vt 0.533752 0.935821
vt 0.401009 0.960755
vt 0.533875 0.935647
vt 0.535962 0.930489
vt 0.536667 0.925124
vt 0.535962 0.919759
vt 0.533876 0.914600
vt 0.530487 0.909845
vt 0.525927 0.905678
vt 0.520371 0.902258
vt 0.514032 0.899717
vt 0.507153 0.898152
vt 0.500000 0.897624
vt 0.492847 0.898152
vt 0.485968 0.899717
vt 0.479629 0.902258
vt 0.474073 0.905678
vt 0.469513 0.909845
vt 0.466124 0.914600
vt 0.464038 0.919759
vt 0.463333 0.925124
vt 0.464038 0.930489
vt 0.466124 0.935647
vt 0.469513 0.940402
vt 0.274876 0.531250
vt 0.222176 0.531250
vt 0.222176 0.522678
vt 0.317874 0.522678
vt 0.304291 0.536612
vt 0.291855 0.555554
vt 0.282614 0.577165
vt 0.276923 0.600614
vt 0.275002 0.625000
vt 0.276923 0.649386
vt 0.278843 0.657300
vt 0.282614 0.672835
vt 0.291855 0.694446
vt 0.304291 0.713388
vt 0.317876 0.727324
vt 0.222176 0.727324
vt 0.222176 0.718750
vt 0.274876 0.718750
vt 0.725124 0.718750
vt 0.777824 0.718750
vt 0.777824 0.727316
vt 0.682133 0.727316
vt 0.695709 0.713388
vt 0.708145 0.694446
vt 0.717386 0.672835
vt 0.721157 0.657300
vt 0.723077 0.649386
vt 0.724999 0.625000
vt 0.723077 0.600614
vt 0.717386 0.577165
vt 0.708145 0.555554
vt 0.695709 0.536612
vt 0.682135 0.522686
vt 0.777824 0.522686
vt 0.777824 0.531250
vt 0.725124 0.531250
vt 0.468750 0.600001
vt 0.468750 0.582503
vt 0.495674 0.586295
vt 0.495674 0.600001
vt 0.495674 0.899999
vt 0.495674 0.913701
vt 0.468750 0.917494
vt 0.468750 0.899999
vt 0.446503 0.926774
vt 0.437500 0.929303
vt 0.437500 0.899999
vt 0.437500 0.600001
vt 0.437500 0.570693
vt 0.446503 0.573222
vt 0.406250 0.943561
vt 0.406250 0.899999
vt 0.406250 0.600001
vt 0.406250 0.556435
vt 0.395765 0.949999
vt 0.375000 0.949999
vt 0.375000 0.899999
vt 0.375000 0.600001
vt 0.375000 0.550001
vt 0.395771 0.550001
vt 0.343750 0.949999
vt 0.343750 0.899999
vt 0.343750 0.600001
vt 0.343750 0.550001
vt 0.312500 0.949999
vt 0.312500 0.899999
vt 0.312500 0.550001
vt 0.312500 0.600001
vt 0.281250 0.949999
vt 0.281250 0.899999
vt 0.281250 0.550001
vt 0.281250 0.600001
vt 0.252010 0.550001
vt 0.252010 0.600001
vt 0.252010 0.949999
vt 0.252010 0.899999
vt 0.247990 0.899999
vt 0.247990 0.949999
vt 0.218750 0.949999
vt 0.218750 0.899999
vt 0.218750 0.550001
vt 0.247990 0.550001
vt 0.247990 0.600001
vt 0.218750 0.600001
vt 0.187500 0.949999
vt 0.187500 0.899999
vt 0.187500 0.550001
vt 0.187500 0.600001
vt 0.156250 0.949999
vt 0.156250 0.899999
vt 0.156250 0.550001
vt 0.156250 0.600001
vt 0.125000 0.949999
vt 0.125000 0.899999
vt 0.125000 0.550001
vt 0.125000 0.600001
vt 0.104221 0.949999
vt 0.093750 0.943570
vt 0.093750 0.899999
vt 0.093750 0.556427
vt 0.104215 0.550001
vt 0.093750 0.600001
vt 0.062500 0.929312
vt 0.062500 0.899999
vt 0.062500 0.570684
vt 0.062500 0.600001
vt 0.031250 0.899999
vt 0.053466 0.926774
vt 0.031250 0.917507
vt 0.031250 0.582490
vt 0.053466 0.573222
vt 0.031250 0.600001
vt 0.004326 0.913714
vt 0.004326 0.899999
vt 0.004326 0.586282
vt 0.004326 0.600001
vt 0.635784 0.500000
vt 0.633646 0.500000
vt 0.632655 0.500000
vt 0.635784 0.500000
vt 0.635784 0.500000
vt 0.635784 0.500000
vt 0.866351 0.500000
vt 0.864216 0.500000
vt 0.864216 0.500000
vt 0.864216 0.500000
vt 0.864216 0.500000
vt 0.867345 0.500000
vt 0.898340 0.500000
vt 0.898341 0.500000
vt 0.894478 0.500000
vt 0.883038 0.500000
vt 0.877542 0.500000
vt 0.891873 0.500000
vt 0.898340 0.500000
vt 0.101660 0.500000
vt 0.101660 0.500000
vt 0.108118 0.500000
vt 0.122449 0.500000
vt 0.116962 0.500000
vt 0.105522 0.500000
vt 0.132645 0.500000
vt 0.135773 0.500000
vt 0.135773 0.500000
vt 0.135773 0.500000
vt 0.135772 0.500000
vt 0.133649 0.500000
vt 0.366354 0.500000
vt 0.364228 0.500000
vt 0.364228 0.500000
vt 0.364227 0.500000
vt 0.364228 0.500000
vt 0.364227 0.500000
vt 0.364227 0.500000
vt 0.367356 0.500000
vt 0.394481 0.500000
vt 0.383042 0.500000
vt 0.377551 0.500000
vt 0.391882 0.500000
vt 0.398344 0.500000
vt 0.398344 0.500000
vt 0.398344 0.500000
vt 0.398344 0.500000
vt 0.616958 0.500000
vt 0.605519 0.500000
vt 0.601656 0.500000
vt 0.601656 0.500000
vt 0.601656 0.500000
vt 0.601656 0.500000
vt 0.608127 0.500000
vt 0.622458 0.500000
vt 0.506706 0.330047
vt 0.506928 0.330137
vt 0.522923 0.253202
vt 0.501474 0.250206
vt 0.498526 0.250206
vt 0.477077 0.253202
vt 0.455035 0.262687
vt 0.434721 0.278088
vt 0.416915 0.298816
vt 0.402302 0.324072
vt 0.391444 0.352886
vt 0.384758 0.384152
vt 0.382812 0.412166
vt 0.382812 0.500000
vt 0.617188 0.500000
vt 0.617188 0.412166
vt 0.615242 0.384152
vt 0.608556 0.352886
vt 0.597698 0.324072
vt 0.531784 0.357574
vt 0.533715 0.366058
vt 0.534375 0.375000
vt 0.533715 0.383942
vt 0.531758 0.392540
vt 0.528582 0.400464
vt 0.524307 0.407409
vt 0.519098 0.413109
vt 0.513155 0.417345
vt 0.506706 0.419953
vt 0.500000 0.420833
vt 0.493294 0.419953
vt 0.486845 0.417345
vt 0.480902 0.413109
vt 0.475693 0.407409
vt 0.471418 0.400464
vt 0.468242 0.392540
vt 0.466285 0.383942
vt 0.465625 0.375000
vt 0.466285 0.366058
vt 0.468242 0.357460
vt 0.471418 0.349536
vt 0.475693 0.342591
vt 0.480902 0.336891
vt 0.486845 0.332656
vt 0.493294 0.330047
vt 0.500000 0.329167
vt 0.531758 0.357460
vt 0.583085 0.298816
vt 0.565279 0.278088
vt 0.544965 0.262687
vt 0.513155 0.332655
vt 0.519098 0.336891
vt 0.524307 0.342591
vt 0.528582 0.349536
vt 0.500000 0.510417
vt 0.500000 0.739583
vt 0.617188 0.750000
vt 0.382812 0.750000
vt 0.597698 0.925928
vt 0.608556 0.897114
vt 0.615242 0.865848
vt 0.617188 0.837834
vt 0.382812 0.837834
vt 0.384758 0.865848
vt 0.391444 0.897114
vt 0.402302 0.925928
vt 0.416915 0.951184
vt 0.434720 0.971912
vt 0.455035 0.987313
vt 0.477077 0.996798
vt 0.498526 0.999794
vt 0.501474 0.999794
vt 0.522923 0.996798
vt 0.506928 0.919863
vt 0.506706 0.919953
vt 0.500000 0.920833
vt 0.493294 0.919953
vt 0.486845 0.917345
vt 0.480902 0.913109
vt 0.475693 0.907409
vt 0.471418 0.900464
vt 0.468242 0.892540
vt 0.466286 0.883942
vt 0.465625 0.875000
vt 0.466285 0.866058
vt 0.468242 0.857461
vt 0.471418 0.849536
vt 0.475693 0.842591
vt 0.480902 0.836891
vt 0.486845 0.832656
vt 0.493294 0.830047
vt 0.500000 0.829167
vt 0.506706 0.830047
vt 0.513155 0.832656
vt 0.519098 0.836891
vt 0.524307 0.842591
vt 0.528582 0.849536
vt 0.531758 0.857460
vt 0.533715 0.866058
vt 0.534375 0.875000
vt 0.533715 0.883942
vt 0.531784 0.892426
vt 0.544965 0.987313
vt 0.565279 0.971912
vt 0.583085 0.951184
vt 0.531758 0.892540
vt 0.528582 0.900464
vt 0.524307 0.907409
vt 0.519098 0.913109
vt 0.513155 0.917345
vt 1.000000 0.650000
vt 1.000000 0.616667
vt 0.968750 0.616667
vt 0.968750 0.650000
vt 0.968750 0.850000
vt 0.968750 0.883333
vt 1.000000 0.883333
vt 1.000000 0.850000
vt 0.937500 0.616667
vt 0.937500 0.650000
vt 0.937500 0.850000
vt 0.937500 0.883333
vt 0.906250 0.616667
vt 0.906250 0.650000
vt 0.906250 0.850000
vt 0.906250 0.883333
vt 0.875000 0.616667
vt 0.875000 0.650000
vt 0.875000 0.850000
vt 0.875000 0.883333
vt 0.843750 0.616667
vt 0.843750 0.650000
vt 0.843750 0.883333
vt 0.843750 0.850000
vt 0.812500 0.616667
vt 0.812500 0.650000
vt 0.812500 0.850000
vt 0.812500 0.883333
vt 0.781250 0.616667
vt 0.781250 0.650000
vt 0.781250 0.850000
vt 0.781250 0.883333
vt 0.750000 0.616667
vt 0.750000 0.650000
vt 0.750000 0.850000
vt 0.750000 0.883333
vt 0.718750 0.616667
vt 0.718750 0.650000
vt 0.718750 0.850000
vt 0.718750 0.883333
vt 0.687500 0.616667
vt 0.687500 0.650000
vt 0.687500 0.850000
vt 0.687500 0.883333
vt 0.656250 0.616667
vt 0.656250 0.650000
vt 0.656250 0.850000
vt 0.656250 0.883333
vt 0.625000 0.616667
vt 0.625000 0.650000
vt 0.625000 0.850000
vt 0.625000 0.883333
vt 0.593750 0.616667
vt 0.593750 0.650000
vt 0.593750 0.883333
vt 0.593750 0.850000
vt 0.562500 0.616667
vt 0.562500 0.650000
vt 0.562500 0.883333
vt 0.562500 0.850000
vt 0.531250 0.616667
vt 0.531250 0.650000
vt 0.531250 0.850000
vt 0.531250 0.883333
vt 0.500000 0.616667
vt 0.500000 0.650000
vt 0.500000 0.883333
vt 0.500000 0.850000
vt 0.468750 0.616667
vt 0.468750 0.650000
vt 0.468750 0.883333
vt 0.468750 0.850000
vt 0.437500 0.616667
vt 0.437500 0.650000
vt 0.437914 0.650000
vt 0.437500 0.883333
vt 0.437914 0.850000
vt 0.437500 0.850000
vt 0.436360 0.616667
vt 0.406250 0.616667
vt 0.406250 0.650000
vt 0.406250 0.883333
vt 0.406250 0.850000
vt 0.375000 0.616667
vt 0.375000 0.650000
vt 0.375000 0.883333
vt 0.405968 0.883333
vt 0.375000 0.850000
vt 0.343750 0.616667
vt 0.343750 0.650000
vt 0.343750 0.883333
vt 0.343750 0.850000
vt 0.312500 0.616667
vt 0.312500 0.650000
vt 0.312500 0.883333
vt 0.312500 0.850000
vt 0.281250 0.616667
vt 0.281250 0.650000
vt 0.282323 0.650000
vt 0.282323 0.850000
vt 0.281250 0.850000
vt 0.281250 0.883333
vt 0.250000 0.616667
vt 0.250000 0.650000
vt 0.250000 0.850000
vt 0.250000 0.883333
vt 0.218750 0.616667
vt 0.218750 0.650000
vt 0.218750 0.850000
vt 0.218750 0.883333
vt 0.187500 0.616667
vt 0.187500 0.650000
vt 0.187500 0.850000
vt 0.187500 0.883333
vt 0.156250 0.616667
vt 0.156250 0.650000
vt 0.156250 0.850000
vt 0.156250 0.883333
vt 0.125000 0.616667
vt 0.125000 0.650000
vt 0.125000 0.850000
vt 0.125000 0.883333
vt 0.094032 0.616667
vt 0.093750 0.616667
vt 0.093750 0.650000
vt 0.093750 0.850000
vt 0.093750 0.883333
vt 0.062500 0.616667
vt 0.062500 0.650000
vt 0.062500 0.850000
vt 0.062500 0.883333
vt 0.063639 0.883333
vt 0.031250 0.616667
vt 0.031250 0.650000
vt 0.031250 0.850000
vt 0.031250 0.883333
vt 0.000000 0.616667
vt 0.000000 0.650000
vt 0.000000 0.850000
vt 0.000000 0.883333
s 0
usemtl chrome
f 197/1/1 198/2/1 200/3/1 199/4/1
f 200/3/2 202/5/2 201/6/2 199/4/2
f 204/7/3 201/6/3 202/5/3 203/8/3 206/9/3 205/10/3
f 207/11/4 22/12/4 20/13/4 208/14/4 205/10/4 206/9/4
f 20/13/5 22/12/5 27/15/5 25/16/5
f 25/16/6 27/15/6 31/17/6 29/18/6
f 29/18/7 31/17/7 39/19/7 37/20/7
f 37/20/8 39/19/8 48/21/8 45/22/8
f 45/22/9 48/21/9 53/23/9 52/24/9
f 52/24/10 53/23/10 58/25/10 55/26/10
f 55/26/11 58/25/11 62/27/11 59/28/11
f 59/28/12 62/27/12 65/29/12 63/30/12
f 210/31/13 211/32/13 63/30/13 65/29/13 209/33/13 212/34/13
f 216/35/14 215/36/14 210/31/14 212/34/14 213/37/14 214/38/14
f 216/35/15 214/38/15 218/39/15 217/40/15
f 217/40/16 218/39/16 220/41/16 219/42/16
f 219/42/17 220/41/17 222/43/17 221/44/17
f 224/45/18 223/46/18 191/47/18 136/48/18 135/49/18 134/50/18
f 193/51/18 187/52/18 91/53/18 87/54/18 83/55/18 226/56/18 227/57/18 137/58/18 131/59/18 128/60/18 126/61/18 129/62/18 125/63/18 123/64/18 124/65/18 130/66/18 127/67/18 139/68/18 132/69/18 138/70/18 133/71/18 191/47/18 223/46/18 225/72/18 115/73/18 111/74/18 107/75/18 103/76/18 99/77/18 95/78/18
f 193/51/18 95/78/18 187/52/18
f 134/50/18 144/79/18 153/80/18 147/81/18 152/82/18 150/83/18 148/84/18 149/85/18 151/86/18 146/87/18 154/88/18 143/89/18 145/90/18 141/91/18 142/92/18 189/93/18 228/94/18 209/95/18 65/96/18 62/97/18 58/98/18 53/99/18 48/100/18 39/101/18 31/102/18 27/103/18 22/104/18 207/105/18 224/45/18
f 227/57/18 228/94/18 189/93/18 140/106/18 137/58/18
f 198/107/19 197/108/19 229/109/19 230/110/19
f 20/111/20 25/112/20 29/113/20 37/114/20 166/115/20 168/116/20 164/117/20 170/118/20 160/119/20 162/120/20 157/121/20 156/122/20 192/123/20 231/124/20 208/125/20
f 192/123/20 155/126/20 194/127/20 232/128/20 231/124/20
f 165/129/20 166/115/20 37/114/20 45/130/20 52/131/20 55/132/20 59/133/20 63/134/20 211/135/20 233/136/20 190/137/20 182/138/20 158/139/20 161/140/20 159/141/20 171/142/20 163/143/20 169/144/20 167/145/20
f 195/146/20 93/147/20 97/148/20 101/149/20 105/150/20 109/151/20 113/152/20 235/153/20 236/154/20 196/155/20 194/127/20 155/126/20 185/156/20 181/157/20 186/158/20 176/159/20 179/160/20 175/161/20 172/162/20 174/163/20 173/164/20 177/165/20 178/166/20 180/167/20 184/168/20 183/169/20 190/137/20 233/136/20 234/170/20 81/171/20 85/172/20 89/173/20 188/174/20
f 93/147/20 195/146/20 188/174/20
f 194/127/20 196/155/20 236/154/20 232/128/20
f 136/175/1 2/176/1 7/177/1 135/178/1
f 4/179/1 1/180/1 156/181/1 157/182/1
f 135/178/2 7/177/2 13/183/2 134/184/2
f 11/185/2 4/179/2 157/182/2 162/186/2
f 134/184/3 13/183/3 19/187/3 144/188/3
f 17/189/3 11/185/3 162/186/3 160/190/3
f 144/188/4 19/187/4 24/12/4 153/191/4
f 21/13/4 17/189/4 160/190/4 170/192/4
f 153/191/5 24/12/5 28/15/5 147/193/5
f 164/194/5 26/16/5 21/13/5 170/192/5
f 147/193/6 28/15/6 32/17/6 152/195/6
f 168/196/6 30/18/6 26/16/6 164/194/6
f 152/195/7 32/17/7 41/19/7 150/197/7
f 166/198/7 33/20/7 30/18/7 168/196/7
f 150/197/8 41/19/8 50/21/8 148/199/8
f 165/200/8 43/22/8 33/20/8 166/198/8
f 148/199/9 50/21/9 54/23/9 149/201/9
f 167/202/9 51/24/9 43/22/9 165/200/9
f 149/201/10 54/23/10 57/25/10 151/203/10
f 169/204/10 56/26/10 51/24/10 167/202/10
f 151/203/11 57/25/11 61/27/11 146/205/11
f 163/206/11 60/28/11 56/26/11 169/204/11
f 146/205/12 61/27/12 66/29/12 154/207/12
f 171/208/12 64/30/12 60/28/12 163/206/12
f 154/207/13 66/29/13 68/209/13 143/210/13
f 159/211/13 67/212/13 64/30/13 171/208/13
f 143/210/14 68/209/14 70/213/14 145/214/14
f 161/215/14 69/216/14 67/212/14 159/211/14
f 145/214/15 70/213/15 72/217/15 141/218/15
f 158/219/15 71/220/15 69/216/15 161/215/15
f 141/218/16 72/217/16 74/221/16 142/222/16
f 182/223/16 73/224/16 71/220/16 158/219/16
f 189/225/21 142/222/21 74/221/21 76/226/21 140/227/21
f 190/228/21 183/229/21 75/230/21 73/224/21 182/223/21
f 140/227/22 76/226/22 78/231/22 137/232/22
f 184/233/22 77/234/22 75/230/22 183/229/22
f 137/232/23 78/231/23 80/235/23 131/236/23
f 180/237/23 79/238/23 77/234/23 184/233/23
f 131/236/24 80/235/24 84/239/24 128/240/24
f 178/241/24 82/242/24 79/238/24 180/237/24
f 128/240/25 84/239/25 88/243/25 126/244/25
f 86/245/25 82/242/25 178/241/25 177/246/25
f 126/244/26 88/243/26 92/247/26 129/248/26
f 90/249/26 86/245/26 177/246/26 173/250/26
f 129/248/27 92/247/27 96/251/27 125/252/27
f 94/253/27 90/249/27 173/250/27 174/254/27
f 125/252/28 96/251/28 100/255/28 123/256/28
f 98/257/28 94/253/28 174/254/28 172/258/28
f 123/256/29 100/255/29 104/259/29 124/260/29
f 102/261/29 98/257/29 172/258/29 175/262/29
f 124/260/30 104/259/30 108/263/30 130/264/30
f 106/265/30 102/261/30 175/262/30 179/266/30
f 130/264/31 108/263/31 112/267/31 127/268/31
f 110/269/31 106/265/31 179/266/31 176/270/31
f 127/268/32 112/267/32 116/271/32 139/272/32
f 114/273/32 110/269/32 176/270/32 186/274/32
f 139/272/33 116/271/33 118/275/33 132/276/33
f 117/277/33 114/273/33 186/274/33 181/278/33
f 132/276/34 118/275/34 120/279/34 138/280/34
f 119/281/34 117/277/34 181/278/34 185/282/34
f 68/283/18 66/96/18 61/97/18 57/98/18 54/99/18 50/100/18 41/101/18 32/102/18 28/103/18 24/104/18 19/284/18 13/285/18 7/286/18 2/287/18 122/288/18 120/289/18 118/290/18 116/73/18 112/74/18 108/75/18 104/76/18 100/77/18 96/78/18 92/53/18 88/54/18 84/55/18 80/291/18 78/292/18 76/293/18 74/294/18 72/295/18 70/296/18
f 138/280/35 120/279/35 122/297/35 133/298/35
f 121/299/35 119/281/35 185/282/35 155/300/35
f 191/301/36 133/298/36 122/297/36 2/302/36 136/303/36
f 192/304/36 156/305/36 1/306/36 121/299/36 155/300/36
f 119/307/20 121/308/20 1/309/20 4/310/20 11/311/20 17/312/20 21/111/20 26/112/20 30/113/20 33/114/20 43/130/20 51/131/20 56/132/20 60/133/20 64/134/20 67/313/20 69/314/20 71/315/20 73/316/20 75/317/20 77/318/20 79/319/20 82/171/20 86/172/20 90/173/20 94/147/20 98/148/20 102/149/20 106/150/20 110/151/20 114/152/20 117/320/20
f 8/321/37 6/322/37 268/323/37 265/324/37
f 3/325/37 5/326/37 266/327/37 267/328/37
f 237/329/38 16/330/38 14/331/38 10/332/38 9/333/38 6/322/38 8/321/38 15/334/38 12/335/38 23/336/38 18/337/38 305/338/38 306/339/38 309/340/38 312/341/38 313/342/38 316/343/38 315/344/38 314/345/38 311/346/38 310/347/38 308/348/38 307/349/38
f 18/337/38 238/350/38 240/351/38 239/352/38 237/329/38 307/349/38 318/353/38 319/354/38 322/355/38 323/356/38 328/357/38 329/358/38 331/359/38 330/360/38 334/361/38 335/362/38 337/363/38 338/364/38 336/365/38 333/366/38 332/367/38 327/368/38 326/369/38 325/370/38 324/371/38 321/372/38 320/373/38 317/374/38 305/338/38
f 242/375/39 241/376/39 221/377/39 222/378/39
f 239/352/39 240/351/39 230/379/39 229/380/39
f 244/381/40 49/382/40 47/383/40 40/384/40 44/385/40 5/386/40 3/387/40 35/388/40 38/389/40 42/390/40 46/391/40 339/392/40 340/393/40 343/394/40 346/395/40 347/396/40 350/397/40 349/398/40 348/399/40 345/400/40 344/401/40 342/402/40 341/403/40
f 339/392/40 46/391/40 243/404/40 241/376/40 242/375/40 244/381/40 341/403/40 352/405/40 353/406/40 356/407/40 357/408/40 362/409/40 363/410/40 365/411/40 364/412/40 368/413/40 369/414/40 371/415/40 372/416/40 370/417/40 367/418/40 366/419/40 361/420/40 360/421/40 359/422/40 358/423/40 355/424/40 354/425/40 351/426/40
f 270/427/20 272/428/20 246/429/20 235/430/20 113/431/20 109/432/20 105/433/20 101/434/20 97/435/20 93/436/20 188/437/20 89/438/20 85/439/20 81/440/20 234/441/20 245/442/20 271/443/20 269/444/20
f 273/445/18 275/446/18 247/447/18 226/448/18 83/449/18 87/450/18 91/451/18 187/452/18 95/453/18 99/454/18 103/455/18 107/456/18 111/457/18 115/458/18 225/459/18 248/460/18 276/461/18 274/462/18
f 277/463/41 249/464/41 247/465/41 275/466/41
f 276/467/41 248/468/41 250/469/41 278/470/41
f 278/470/42 250/469/42 251/471/42 254/472/42 280/473/42
f 279/474/42 253/475/42 252/476/42 249/464/42 277/463/42
f 280/473/43 254/472/43 256/477/43 282/478/43
f 281/479/43 255/480/43 253/475/43 279/474/43
f 256/477/44 238/481/44 18/482/44 284/483/44 282/478/44
f 283/484/44 49/485/44 244/486/44 255/480/44 281/479/44
f 284/483/45 18/482/45 23/487/45 286/488/45
f 285/489/45 47/490/45 49/485/45 283/484/45
f 286/488/46 23/487/46 12/491/46 287/492/46
f 40/493/46 47/490/46 285/489/46 288/494/46
f 287/492/47 12/491/47 15/495/47 289/496/47
f 44/497/47 40/493/47 288/494/47 290/498/47
f 5/499/48 44/497/48 290/498/48 266/500/48
f 289/496/48 15/495/48 8/501/48 265/502/48
f 268/503/49 6/504/49 9/505/49 291/506/49
f 35/507/49 3/508/49 267/509/49 292/510/49
f 291/506/50 9/505/50 10/511/50 293/512/50
f 38/513/50 35/507/50 292/510/50 294/514/50
f 293/512/51 10/511/51 14/515/51 295/516/51
f 42/517/51 38/513/51 294/514/51 296/518/51
f 295/516/52 14/515/52 16/519/52 297/520/52
f 46/521/52 42/517/52 296/518/52 298/522/52
f 297/520/53 16/519/53 237/523/53 258/524/53 300/525/53
f 257/526/53 243/527/53 46/521/53 298/522/53 299/528/53
f 300/525/54 258/524/54 260/529/54 302/530/54
f 259/531/54 257/526/54 299/528/54 301/532/54
f 304/533/55 302/530/55 260/529/55 261/534/55 263/535/55
f 262/536/55 264/537/55 259/531/55 301/532/55 303/538/55
f 304/533/56 263/535/56 246/539/56 272/540/56
f 245/541/56 262/536/56 303/538/56 271/542/56
f 207/543/57 206/544/57 203/30/57 251/30/57 250/545/57 248/546/57 225/547/57 223/548/57 224/548/57
f 252/13/58 213/13/58 212/549/58 209/550/58 228/551/58 227/552/58 226/551/58 247/553/58 249/554/58
f 222/555/59 220/556/59 218/557/59 214/558/59 213/13/59 252/13/59 253/559/59 255/560/59 244/561/59 242/561/59
f 221/562/60 241/563/60 243/563/60 257/564/60 259/565/60 264/273/60 215/273/60 216/566/60 217/567/60 219/563/60
f 264/273/61 262/568/61 245/569/61 234/570/61 233/571/61 211/572/61 210/573/61 215/273/61
f 261/242/62 204/242/62 205/574/62 208/575/62 231/576/62 232/577/62 236/578/62 235/579/62 246/580/62 263/581/62
f 199/582/63 201/583/63 204/242/63 261/242/63 260/584/63 258/585/63 237/586/63 239/587/63 229/588/63 197/589/63
f 251/30/64 203/30/64 202/590/64 200/591/64 198/592/64 230/593/64 240/594/64 238/595/64 256/596/64 254/597/64
f 382/598/40 381/599/40 289/600/40 265/601/40 268/602/40 291/603/40 293/604/40 295/605/40 297/606/40 300/607/40 302/608/40 304/609/40 272/610/40 270/611/40 274/612/40 276/613/40 278/614/40 280/615/40 282/616/40 383/617/40 384/618/40 401/619/40 399/620/40 398/621/40 397/622/40 392/623/40 391/624/40 388/625/40 387/626/40 385/627/40 386/628/40 390/629/40 389/630/40 396/631/40 395/632/40 394/633/40 393/634/40 400/635/40 375/636/40 376/637/40 377/638/40 378/639/40 379/640/40 380/641/40 373/642/40 374/643/40
f 402/644/40 383/617/40 282/616/40 284/645/40 286/646/40 287/647/40 289/600/40 381/599/40 403/648/40 405/649/40 406/650/40 404/651/40
f 274/612/37 270/611/37 36/652/37 34/653/37 273/654/37
f 269/655/37 273/654/37 34/653/37 36/652/37 270/611/37
f 281/656/38 279/657/38 277/658/38 275/659/38 273/654/38 269/655/38 271/660/38 303/661/38 301/662/38 299/663/38 298/664/38 296/665/38 294/666/38 292/667/38 267/668/38 266/669/38 290/670/38 415/671/38 416/672/38 408/673/38 407/674/38 414/675/38 413/676/38 412/677/38 411/678/38 410/679/38 409/680/38 434/681/38 427/682/38 428/683/38 429/684/38 430/685/38 423/686/38 424/687/38 420/688/38 419/689/38 421/690/38 422/691/38 425/692/38 426/693/38 431/694/38 432/695/38 433/696/38 435/697/38 418/698/38 417/699/38
f 288/700/38 285/701/38 283/702/38 281/656/38 417/699/38 436/703/38 437/704/38 440/705/38 439/706/38 438/707/38 415/671/38 290/670/38
f 434/708/65 358/709/65 359/710/65 427/711/65
f 393/712/65 323/713/65 322/714/65 400/715/65
f 427/711/66 359/710/66 360/716/66 428/717/66
f 394/718/66 328/719/66 323/713/66 393/712/66
f 428/717/67 360/716/67 361/720/67 429/721/67
f 395/722/67 329/723/67 328/719/67 394/718/67
f 429/721/68 361/720/68 366/724/68 430/725/68
f 396/726/68 331/727/68 329/723/68 395/722/68
f 367/728/69 423/729/69 430/725/69 366/724/69
f 330/730/69 331/727/69 396/726/69 389/731/69
f 370/732/70 424/733/70 423/729/70 367/728/70
f 330/730/70 389/731/70 390/734/70 334/735/70
f 372/736/71 420/737/71 424/733/71 370/732/71
f 386/738/71 335/739/71 334/735/71 390/734/71
f 371/740/72 419/741/72 420/737/72 372/736/72
f 335/739/72 386/738/72 385/742/72 337/743/72
f 369/744/73 421/745/73 419/741/73 371/740/73
f 387/746/73 338/747/73 337/743/73 385/742/73
f 368/748/74 422/749/74 421/745/74 369/744/74
f 388/750/74 336/751/74 338/747/74 387/746/74
f 364/752/75 425/753/75 422/749/75 368/748/75
f 336/751/75 388/750/75 391/754/75 333/755/75
f 425/753/76 364/752/76 365/756/76 426/757/76
f 333/755/76 391/754/76 392/758/76 332/759/76
f 426/757/77 365/756/77 363/760/77 431/761/77
f 327/762/77 332/759/77 392/758/77 397/763/77
f 363/760/78 362/764/78 432/765/78 431/761/78
f 326/766/78 327/762/78 397/763/78 398/767/78
f 357/768/79 433/769/79 432/765/79 362/764/79
f 399/770/79 325/771/79 326/766/79 398/767/79
f 433/769/80 357/768/80 356/772/80 435/773/80
f 324/774/80 325/771/80 399/770/80 401/775/80
f 356/772/81 353/776/81 418/777/81 435/773/81
f 321/778/81 324/774/81 401/775/81 384/779/81
f 418/777/82 353/776/82 352/780/82 436/781/82 417/782/82
f 320/783/82 321/778/82 384/779/82 383/784/82 402/785/82
f 341/786/83 342/787/83 437/788/83 436/781/83 352/780/83
f 317/789/83 320/783/83 402/785/83 404/790/83
f 342/787/84 344/791/84 440/792/84 437/788/84
f 306/793/84 305/794/84 317/789/84 404/790/84 406/795/84
f 344/791/85 345/796/85 439/797/85 440/792/85
f 309/798/85 306/793/85 406/795/85 405/799/85
f 345/796/86 348/800/86 438/801/86 439/797/86
f 312/802/86 309/798/86 405/799/86 403/803/86
f 438/801/87 348/800/87 349/804/87 416/805/87 415/806/87
f 381/807/87 382/808/87 313/809/87 312/802/87 403/803/87
f 416/805/88 349/804/88 350/810/88 408/811/88
f 374/812/88 316/813/88 313/809/88 382/808/88
f 408/811/89 350/810/89 347/814/89 407/815/89
f 373/816/89 315/817/89 316/813/89 374/812/89
f 407/815/90 347/814/90 346/818/90 414/819/90
f 380/820/90 314/821/90 315/817/90 373/816/90
f 414/819/91 346/818/91 343/822/91 413/823/91
f 379/824/91 311/825/91 314/821/91 380/820/91
f 413/823/92 343/822/92 340/826/92 412/827/92
f 378/828/92 310/829/92 311/825/92 379/824/92
f 412/827/93 340/826/93 339/830/93 351/831/93 411/832/93
f 377/833/93 308/834/93 310/829/93 378/828/93
f 411/832/94 351/831/94 354/835/94 410/836/94
f 376/837/94 318/838/94 307/839/94 308/834/94 377/833/94
f 410/836/95 354/835/95 355/840/95 409/841/95
f 375/842/95 319/843/95 318/838/95 376/837/95
f 409/841/96 355/840/96 358/844/96 434/845/96
f 400/846/96 322/847/96 319/843/96 375/842/96
