# Blender 5.0.1
# www.blender.org
mtllib HugoInspoToolJawTop.mtl
o JawTop
v -2.060986 0.002013 0.000919
v -2.061170 0.001988 0.000863
v -2.061142 0.001988 0.002091
v -2.060941 0.002013 0.002082
v -2.061170 0.001988 0.000863
v -2.061326 0.001919 0.000815
v -2.061313 0.001919 0.002098
v -2.061142 0.001988 0.002091
v -2.061326 0.001919 0.000815
v -2.061430 0.001814 0.000783
v -2.061427 0.001814 0.002104
v -2.061313 0.001919 0.002098
v -2.061430 0.001814 0.000783
v -2.061467 0.001691 0.000772
v -2.061467 0.001691 0.002105
v -2.061427 0.001814 0.002104
v -2.054714 -0.001689 0.000000
v -2.054714 -0.001813 0.000035
v -2.056065 -0.001813 0.000807
v -2.056065 -0.001689 0.000772
v -2.054714 -0.001813 0.000035
v -2.054714 -0.001917 0.000135
v -2.056065 -0.001917 0.000906
v -2.056065 -0.001813 0.000807
v -2.054714 -0.001917 0.000135
v -2.054714 -0.001987 0.000284
v -2.056065 -0.001987 0.001055
v -2.056065 -0.001917 0.000906
v -2.054714 -0.001987 0.000284
v -2.054714 -0.002011 0.000459
v -2.056065 -0.002011 0.001231
v -2.056065 -0.001987 0.001055
v -2.058766 0.002013 0.001231
v -2.058766 0.001988 0.001055
v -2.060117 0.001988 0.000284
v -2.060117 0.002013 0.000459
v -2.058766 0.001988 0.001055
v -2.058766 0.001919 0.000906
v -2.060117 0.001919 0.000135
v -2.060117 0.001988 0.000284
v -2.058766 0.001919 0.000906
v -2.058766 0.001814 0.000807
v -2.060117 0.001814 0.000035
v -2.060117 0.001919 0.000135
v -2.058766 0.001814 0.000807
v -2.058766 0.001691 0.000772
v -2.060117 0.001691 0.000000
v -2.060117 0.001814 0.000035
v -2.059955 0.002013 0.003166
v -2.060098 0.001988 0.003230
v -2.058943 0.001988 0.003574
v -2.058866 0.002013 0.003491
v -2.060098 0.001988 0.003230
v -2.060219 0.001919 0.003284
v -2.059009 0.001919 0.003645
v -2.058943 0.001988 0.003574
v -2.060219 0.001919 0.003284
v -2.060300 0.001814 0.003320
v -2.059052 0.001814 0.003692
v -2.059009 0.001919 0.003645
v -2.060300 0.001814 0.003320
v -2.060329 0.001691 0.003333
v -2.059068 0.001691 0.003709
v -2.059052 0.001814 0.003692
v -2.061467 0.001691 0.000772
v -2.061430 0.001814 0.000783
v -2.060117 0.001814 0.000035
v -2.060117 0.001691 0.000000
v -2.061430 0.001814 0.000783
v -2.061326 0.001919 0.000815
v -2.060117 0.001919 0.000135
v -2.060117 0.001814 0.000035
v -2.061326 0.001919 0.000815
v -2.061170 0.001988 0.000863
v -2.060117 0.001988 0.000284
v -2.060117 0.001919 0.000135
v -2.061170 0.001988 0.000863
v -2.060986 0.002013 0.000919
v -2.060117 0.002013 0.000459
v -2.060117 0.001988 0.000284
v -2.056065 -0.001689 0.000772
v -2.056065 -0.001813 0.000807
v -2.057415 -0.001813 0.000035
v -2.057415 -0.001689 0.000000
v -2.056065 -0.001813 0.000807
v -2.056065 -0.001917 0.000906
v -2.057415 -0.001917 0.000135
v -2.057415 -0.001813 0.000035
v -2.056065 -0.001917 0.000906
v -2.056065 -0.001987 0.001055
v -2.057415 -0.001987 0.000284
v -2.057415 -0.001917 0.000135
v -2.056065 -0.001987 0.001055
v -2.056065 -0.002011 0.001231
v -2.057415 -0.002011 0.000459
v -2.057415 -0.001987 0.000284
v -2.046611 -0.001689 0.000000
v -2.046611 -0.001813 0.000035
v -2.047961 -0.001813 0.000807
v -2.047961 -0.001689 0.000772
v -2.046611 -0.001813 0.000035
v -2.046611 -0.001917 0.000135
v -2.047961 -0.001917 0.000906
v -2.047961 -0.001813 0.000807
v -2.046611 -0.001917 0.000135
v -2.046611 -0.001987 0.000284
v -2.047961 -0.001987 0.001055
v -2.047961 -0.001917 0.000906
v -2.046611 -0.001987 0.000284
v -2.046611 -0.002011 0.000459
v -2.047961 -0.002011 0.001231
v -2.047961 -0.001987 0.001055
v -2.058866 -0.002011 0.003491
v -2.058943 -0.001987 0.003574
v -2.060098 -0.001987 0.003230
v -2.059955 -0.002011 0.003166
v -2.058943 -0.001987 0.003574
v -2.059009 -0.001917 0.003645
v -2.060219 -0.001917 0.003284
v -2.060098 -0.001987 0.003230
v -2.059009 -0.001917 0.003645
v -2.059052 -0.001813 0.003692
v -2.060300 -0.001813 0.003320
v -2.060219 -0.001917 0.003284
v -2.059052 -0.001813 0.003692
v -2.059068 -0.001689 0.003709
v -2.060329 -0.001689 0.003333
v -2.060300 -0.001813 0.003320
v -2.037157 -0.001689 0.000772
v -2.037171 -0.001813 0.000797
v -2.038507 -0.001813 0.000035
v -2.038507 -0.001689 0.000000
v -2.037171 -0.001813 0.000797
v -2.037211 -0.001917 0.000869
v -2.038507 -0.001917 0.000135
v -2.038507 -0.001813 0.000035
v -2.037211 -0.001917 0.000869
v -2.037270 -0.001987 0.000976
v -2.038507 -0.001987 0.000284
v -2.038507 -0.001917 0.000135
v -2.037270 -0.001987 0.000976
v -2.037340 -0.002011 0.001103
v -2.038507 -0.002011 0.000459
v -2.038507 -0.001987 0.000284
v -2.057415 -0.001689 0.000000
v -2.057415 -0.001813 0.000035
v -2.058766 -0.001813 0.000807
v -2.058766 -0.001689 0.000772
v -2.057415 -0.001813 0.000035
v -2.057415 -0.001917 0.000135
v -2.058766 -0.001917 0.000906
v -2.058766 -0.001813 0.000807
v -2.057415 -0.001917 0.000135
v -2.057415 -0.001987 0.000284
v -2.058766 -0.001987 0.001055
v -2.058766 -0.001917 0.000906
v -2.057415 -0.001987 0.000284
v -2.057415 -0.002011 0.000459
v -2.058766 -0.002011 0.001231
v -2.058766 -0.001987 0.001055
v -2.037340 0.002013 0.001103
v -2.037270 0.001988 0.000976
v -2.038507 0.001988 0.000284
v -2.038507 0.002013 0.000459
v -2.037270 0.001988 0.000976
v -2.037211 0.001919 0.000869
v -2.038507 0.001919 0.000135
v -2.038507 0.001988 0.000284
v -2.037211 0.001919 0.000869
v -2.037171 0.001814 0.000797
v -2.038507 0.001814 0.000035
v -2.038507 0.001919 0.000135
v -2.037171 0.001814 0.000797
v -2.037157 0.001691 0.000772
v -2.038507 0.001691 0.000000
v -2.038507 0.001814 0.000035
v -2.060941 -0.002011 0.002082
v -2.061142 -0.001987 0.002091
v -2.061170 -0.001987 0.000863
v -2.060986 -0.002011 0.000919
v -2.061142 -0.001987 0.002091
v -2.061313 -0.001917 0.002098
v -2.061326 -0.001917 0.000815
v -2.061170 -0.001987 0.000863
v -2.061313 -0.001917 0.002098
v -2.061427 -0.001813 0.002104
v -2.061430 -0.001813 0.000783
v -2.061326 -0.001917 0.000815
v -2.061427 -0.001813 0.002104
v -2.061467 -0.001689 0.002105
v -2.061467 -0.001689 0.000772
v -2.061430 -0.001813 0.000783
v -2.038507 -0.001689 0.000000
v -2.038507 -0.001813 0.000035
v -2.039858 -0.001813 0.000807
v -2.039858 -0.001689 0.000772
v -2.038507 -0.001813 0.000035
v -2.038507 -0.001917 0.000135
v -2.039858 -0.001917 0.000906
v -2.039858 -0.001813 0.000807
v -2.038507 -0.001917 0.000135
v -2.038507 -0.001987 0.000284
v -2.039858 -0.001987 0.001055
v -2.039858 -0.001917 0.000906
v -2.038507 -0.001987 0.000284
v -2.038507 -0.002011 0.000459
v -2.039858 -0.002011 0.001231
v -2.039858 -0.001987 0.001055
v -2.060986 -0.002011 0.000919
v -2.061170 -0.001987 0.000863
v -2.060117 -0.001987 0.000284
v -2.060117 -0.002011 0.000459
v -2.061170 -0.001987 0.000863
v -2.061326 -0.001917 0.000815
v -2.060117 -0.001917 0.000135
v -2.060117 -0.001987 0.000284
v -2.061326 -0.001917 0.000815
v -2.061430 -0.001813 0.000783
v -2.060117 -0.001813 0.000035
v -2.060117 -0.001917 0.000135
v -2.061430 -0.001813 0.000783
v -2.061467 -0.001689 0.000772
v -2.060117 -0.001689 0.000000
v -2.060117 -0.001813 0.000035
v -2.015902 0.002013 0.004548
v -2.015824 0.001988 0.004673
v -2.014669 0.001988 0.004159
v -2.014813 0.002013 0.004063
v -2.015824 0.001988 0.004673
v -2.015759 0.001919 0.004779
v -2.014548 0.001919 0.004240
v -2.014669 0.001988 0.004159
v -2.015759 0.001919 0.004779
v -2.015715 0.001814 0.004850
v -2.014467 0.001814 0.004294
v -2.014548 0.001919 0.004240
v -2.015715 0.001814 0.004850
v -2.015699 0.001691 0.004874
v -2.014439 0.001691 0.004313
v -2.014467 0.001814 0.004294
v -2.013827 -0.002011 0.002446
v -2.013625 -0.001987 0.002459
v -2.013898 -0.001987 0.003389
v -2.014085 -0.002011 0.003337
v -2.013625 -0.001987 0.002459
v -2.013454 -0.001917 0.002471
v -2.013739 -0.001917 0.003433
v -2.013898 -0.001987 0.003389
v -2.013454 -0.001917 0.002471
v -2.013340 -0.001813 0.002478
v -2.013633 -0.001813 0.003462
v -2.013739 -0.001917 0.003433
v -2.013340 -0.001813 0.002478
v -2.013300 -0.001689 0.002481
v -2.013596 -0.001689 0.003472
v -2.013633 -0.001813 0.003462
v -2.060682 0.002013 0.002679
v -2.060869 0.001988 0.002714
v -2.060098 0.001988 0.003230
v -2.059955 0.002013 0.003166
v -2.060869 0.001988 0.002714
v -2.061028 0.001919 0.002743
v -2.060219 0.001919 0.003284
v -2.060098 0.001988 0.003230
v -2.061028 0.001919 0.002743
v -2.061134 0.001814 0.002763
v -2.060300 0.001814 0.003320
v -2.060219 0.001919 0.003284
v -2.061134 0.001814 0.002763
v -2.061171 0.001691 0.002770
v -2.060329 0.001691 0.003333
v -2.060300 0.001814 0.003320
v -2.058766 -0.001689 0.000772
v -2.058766 -0.001813 0.000807
v -2.060117 -0.001813 0.000035
v -2.060117 -0.001689 0.000000
v -2.058766 -0.001813 0.000807
v -2.058766 -0.001917 0.000906
v -2.060117 -0.001917 0.000135
v -2.060117 -0.001813 0.000035
v -2.058766 -0.001917 0.000906
v -2.058766 -0.001987 0.001055
v -2.060117 -0.001987 0.000284
v -2.060117 -0.001917 0.000135
v -2.058766 -0.001987 0.001055
v -2.058766 -0.002011 0.001231
v -2.060117 -0.002011 0.000459
v -2.060117 -0.001987 0.000284
v -2.058866 0.002013 0.003491
v -2.058943 0.001988 0.003574
v -2.057549 0.001988 0.003696
v -2.057529 0.002013 0.003606
v -2.058943 0.001988 0.003574
v -2.059009 0.001919 0.003645
v -2.057565 0.001919 0.003772
v -2.057549 0.001988 0.003696
v -2.059009 0.001919 0.003645
v -2.059052 0.001814 0.003692
v -2.057577 0.001814 0.003823
v -2.057565 0.001919 0.003772
v -2.059052 0.001814 0.003692
v -2.059068 0.001691 0.003709
v -2.057581 0.001691 0.003841
v -2.057577 0.001814 0.003823
v -2.038507 0.002013 0.000459
v -2.038507 0.001988 0.000284
v -2.039858 0.001988 0.001055
v -2.039858 0.002013 0.001231
v -2.038507 0.001988 0.000284
v -2.038507 0.001919 0.000135
v -2.039858 0.001919 0.000906
v -2.039858 0.001988 0.001055
v -2.038507 0.001919 0.000135
v -2.038507 0.001814 0.000035
v -2.039858 0.001814 0.000807
v -2.039858 0.001919 0.000906
v -2.038507 0.001814 0.000035
v -2.038507 0.001691 0.000000
v -2.039858 0.001691 0.000772
v -2.039858 0.001814 0.000807
v -2.014813 -0.002011 0.004063
v -2.014669 -0.001987 0.004159
v -2.015824 -0.001987 0.004673
v -2.015902 -0.002011 0.004548
v -2.014669 -0.001987 0.004159
v -2.014548 -0.001917 0.004240
v -2.015759 -0.001917 0.004779
v -2.015824 -0.001987 0.004673
v -2.014548 -0.001917 0.004240
v -2.014467 -0.001813 0.004294
v -2.015715 -0.001813 0.004850
v -2.015759 -0.001917 0.004779
v -2.014467 -0.001813 0.004294
v -2.014439 -0.001689 0.004313
v -2.015699 -0.001689 0.004874
v -2.015715 -0.001813 0.004850
v -2.039858 -0.001689 0.000772
v -2.039858 -0.001813 0.000807
v -2.041209 -0.001813 0.000035
v -2.041209 -0.001689 0.000000
v -2.039858 -0.001813 0.000807
v -2.039858 -0.001917 0.000906
v -2.041209 -0.001917 0.000135
v -2.041209 -0.001813 0.000035
v -2.039858 -0.001917 0.000906
v -2.039858 -0.001987 0.001055
v -2.041209 -0.001987 0.000284
v -2.041209 -0.001917 0.000135
v -2.039858 -0.001987 0.001055
v -2.039858 -0.002011 0.001231
v -2.041209 -0.002011 0.000459
v -2.041209 -0.001987 0.000284
v -2.059955 -0.002011 0.003166
v -2.060098 -0.001987 0.003230
v -2.060869 -0.001987 0.002714
v -2.060682 -0.002011 0.002679
v -2.060098 -0.001987 0.003230
v -2.060219 -0.001917 0.003284
v -2.061028 -0.001917 0.002743
v -2.060869 -0.001987 0.002714
v -2.060219 -0.001917 0.003284
v -2.060300 -0.001813 0.003320
v -2.061134 -0.001813 0.002763
v -2.061028 -0.001917 0.002743
v -2.060300 -0.001813 0.003320
v -2.060329 -0.001689 0.003333
v -2.061171 -0.001689 0.002770
v -2.061134 -0.001813 0.002763
v -2.013827 0.002013 0.002446
v -2.013625 0.001988 0.002459
v -2.013627 0.001988 0.000328
v -2.013829 0.002013 0.000463
v -2.013625 0.001988 0.002459
v -2.013454 0.001919 0.002471
v -2.013455 0.001919 0.000214
v -2.013627 0.001988 0.000328
v -2.013454 0.001919 0.002471
v -2.013340 0.001814 0.002478
v -2.013340 0.001814 0.000137
v -2.013455 0.001919 0.000214
v -2.013340 0.001814 0.002478
v -2.013300 0.001691 0.002481
v -2.013300 0.001691 0.000110
v -2.013340 0.001814 0.000137
v -2.039858 0.002013 0.001231
v -2.039858 0.001988 0.001055
v -2.041209 0.001988 0.000284
v -2.041209 0.002013 0.000459
v -2.039858 0.001988 0.001055
v -2.039858 0.001919 0.000906
v -2.041209 0.001919 0.000135
v -2.041209 0.001988 0.000284
v -2.039858 0.001919 0.000906
v -2.039858 0.001814 0.000807
v -2.041209 0.001814 0.000035
v -2.041209 0.001919 0.000135
v -2.039858 0.001814 0.000807
v -2.039858 0.001691 0.000772
v -2.041209 0.001691 0.000000
v -2.041209 0.001814 0.000035
v -2.041209 -0.001689 0.000000
v -2.041209 -0.001813 0.000035
v -2.042559 -0.001813 0.000807
v -2.042559 -0.001689 0.000772
v -2.041209 -0.001813 0.000035
v -2.041209 -0.001917 0.000135
v -2.042559 -0.001917 0.000906
v -2.042559 -0.001813 0.000807
v -2.041209 -0.001917 0.000135
v -2.041209 -0.001987 0.000284
v -2.042559 -0.001987 0.001055
v -2.042559 -0.001917 0.000906
v -2.041209 -0.001987 0.000284
v -2.041209 -0.002011 0.000459
v -2.042559 -0.002011 0.001231
v -2.042559 -0.001987 0.001055
v -2.013829 -0.002011 0.000463
v -2.013627 -0.001987 0.000328
v -2.013625 -0.001987 0.002459
v -2.013827 -0.002011 0.002446
v -2.013627 -0.001987 0.000328
v -2.013455 -0.001917 0.000214
v -2.013454 -0.001917 0.002471
v -2.013625 -0.001987 0.002459
v -2.013455 -0.001917 0.000214
v -2.013340 -0.001813 0.000137
v -2.013340 -0.001813 0.002478
v -2.013454 -0.001917 0.002471
v -2.013340 -0.001813 0.000137
v -2.013300 -0.001689 0.000110
v -2.013300 -0.001689 0.002481
v -2.013340 -0.001813 0.002478
v -2.050663 0.002013 0.001231
v -2.050663 0.001988 0.001055
v -2.052013 0.001988 0.000284
v -2.052013 0.002013 0.000459
v -2.050663 0.001988 0.001055
v -2.050663 0.001919 0.000906
v -2.052013 0.001919 0.000135
v -2.052013 0.001988 0.000284
v -2.050663 0.001919 0.000906
v -2.050663 0.001814 0.000807
v -2.052013 0.001814 0.000035
v -2.052013 0.001919 0.000135
v -2.050663 0.001814 0.000807
v -2.050663 0.001691 0.000772
v -2.052013 0.001691 0.000000
v -2.052013 0.001814 0.000035
v -2.017238 0.002013 0.004720
v -2.017219 0.001988 0.004855
v -2.015824 0.001988 0.004673
v -2.015902 0.002013 0.004548
v -2.017219 0.001988 0.004855
v -2.017202 0.001919 0.004969
v -2.015759 0.001919 0.004779
v -2.015824 0.001988 0.004673
v -2.017202 0.001919 0.004969
v -2.017190 0.001814 0.005045
v -2.015715 0.001814 0.004850
v -2.015759 0.001919 0.004779
v -2.017190 0.001814 0.005045
v -2.017186 0.001691 0.005072
v -2.015699 0.001691 0.004874
v -2.015715 0.001814 0.004850
v -2.041209 0.002013 0.000459
v -2.041209 0.001988 0.000284
v -2.042559 0.001988 0.001055
v -2.042559 0.002013 0.001231
v -2.041209 0.001988 0.000284
v -2.041209 0.001919 0.000135
v -2.042559 0.001919 0.000906
v -2.042559 0.001988 0.001055
v -2.041209 0.001919 0.000135
v -2.041209 0.001814 0.000035
v -2.042559 0.001814 0.000807
v -2.042559 0.001919 0.000906
v -2.041209 0.001814 0.000035
v -2.041209 0.001691 0.000000
v -2.042559 0.001691 0.000772
v -2.042559 0.001814 0.000807
v -2.047961 -0.001689 0.000772
v -2.047961 -0.001813 0.000807
v -2.049312 -0.001813 0.000035
v -2.049312 -0.001689 0.000000
v -2.047961 -0.001813 0.000807
v -2.047961 -0.001917 0.000906
v -2.049312 -0.001917 0.000135
v -2.049312 -0.001813 0.000035
v -2.047961 -0.001917 0.000906
v -2.047961 -0.001987 0.001055
v -2.049312 -0.001987 0.000284
v -2.049312 -0.001917 0.000135
v -2.047961 -0.001987 0.001055
v -2.047961 -0.002011 0.001231
v -2.049312 -0.002011 0.000459
v -2.049312 -0.001987 0.000284
v -2.042559 -0.001689 0.000772
v -2.042559 -0.001813 0.000807
v -2.043910 -0.001813 0.000035
v -2.043910 -0.001689 0.000000
v -2.042559 -0.001813 0.000807
v -2.042559 -0.001917 0.000906
v -2.043910 -0.001917 0.000135
v -2.043910 -0.001813 0.000035
v -2.042559 -0.001917 0.000906
v -2.042559 -0.001987 0.001055
v -2.043910 -0.001987 0.000284
v -2.043910 -0.001917 0.000135
v -2.042559 -0.001987 0.001055
v -2.042559 -0.002011 0.001231
v -2.043910 -0.002011 0.000459
v -2.043910 -0.001987 0.000284
v -2.052013 0.002013 0.000459
v -2.052013 0.001988 0.000284
v -2.053364 0.001988 0.001055
v -2.053364 0.002013 0.001231
v -2.052013 0.001988 0.000284
v -2.052013 0.001919 0.000135
v -2.053364 0.001919 0.000906
v -2.053364 0.001988 0.001055
v -2.052013 0.001919 0.000135
v -2.052013 0.001814 0.000035
v -2.053364 0.001814 0.000807
v -2.053364 0.001919 0.000906
v -2.052013 0.001814 0.000035
v -2.052013 0.001691 0.000000
v -2.053364 0.001691 0.000772
v -2.053364 0.001814 0.000807
v -2.042559 0.002013 0.001231
v -2.042559 0.001988 0.001055
v -2.043910 0.001988 0.000284
v -2.043910 0.002013 0.000459
v -2.042559 0.001988 0.001055
v -2.042559 0.001919 0.000906
v -2.043910 0.001919 0.000135
v -2.043910 0.001988 0.000284
v -2.042559 0.001919 0.000906
v -2.042559 0.001814 0.000807
v -2.043910 0.001814 0.000035
v -2.043910 0.001919 0.000135
v -2.042559 0.001814 0.000807
v -2.042559 0.001691 0.000772
v -2.043910 0.001691 0.000000
v -2.043910 0.001814 0.000035
v -2.049312 -0.001689 0.000000
v -2.049312 -0.001813 0.000035
v -2.050663 -0.001813 0.000807
v -2.050663 -0.001689 0.000772
v -2.049312 -0.001813 0.000035
v -2.049312 -0.001917 0.000135
v -2.050663 -0.001917 0.000906
v -2.050663 -0.001813 0.000807
v -2.049312 -0.001917 0.000135
v -2.049312 -0.001987 0.000284
v -2.050663 -0.001987 0.001055
v -2.050663 -0.001917 0.000906
v -2.049312 -0.001987 0.000284
v -2.049312 -0.002011 0.000459
v -2.050663 -0.002011 0.001231
v -2.050663 -0.001987 0.001055
v -2.043910 -0.001689 0.000000
v -2.043910 -0.001813 0.000035
v -2.045260 -0.001813 0.000807
v -2.045260 -0.001689 0.000772
v -2.043910 -0.001813 0.000035
v -2.043910 -0.001917 0.000135
v -2.045260 -0.001917 0.000906
v -2.045260 -0.001813 0.000807
v -2.043910 -0.001917 0.000135
v -2.043910 -0.001987 0.000284
v -2.045260 -0.001987 0.001055
v -2.045260 -0.001917 0.000906
v -2.043910 -0.001987 0.000284
v -2.043910 -0.002011 0.000459
v -2.045260 -0.002011 0.001231
v -2.045260 -0.001987 0.001055
v -2.014085 -0.002011 0.003337
v -2.013898 -0.001987 0.003389
v -2.014669 -0.001987 0.004159
v -2.014813 -0.002011 0.004063
v -2.013898 -0.001987 0.003389
v -2.013739 -0.001917 0.003433
v -2.014548 -0.001917 0.004240
v -2.014669 -0.001987 0.004159
v -2.013739 -0.001917 0.003433
v -2.013633 -0.001813 0.003462
v -2.014467 -0.001813 0.004294
v -2.014548 -0.001917 0.004240
v -2.013633 -0.001813 0.003462
v -2.013596 -0.001689 0.003472
v -2.014439 -0.001689 0.004313
v -2.014467 -0.001813 0.004294
v -2.060941 0.002013 0.002082
v -2.061142 0.001988 0.002091
v -2.060869 0.001988 0.002714
v -2.060682 0.002013 0.002679
v -2.061142 0.001988 0.002091
v -2.061313 0.001919 0.002098
v -2.061028 0.001919 0.002743
v -2.060869 0.001988 0.002714
v -2.061313 0.001919 0.002098
v -2.061427 0.001814 0.002104
v -2.061134 0.001814 0.002763
v -2.061028 0.001919 0.002743
v -2.061427 0.001814 0.002104
v -2.061467 0.001691 0.002105
v -2.061171 0.001691 0.002770
v -2.061134 0.001814 0.002763
v -2.053364 0.002013 0.001231
v -2.053364 0.001988 0.001055
v -2.054714 0.001988 0.000284
v -2.054714 0.002013 0.000459
v -2.053364 0.001988 0.001055
v -2.053364 0.001919 0.000906
v -2.054714 0.001919 0.000135
v -2.054714 0.001988 0.000284
v -2.053364 0.001919 0.000906
v -2.053364 0.001814 0.000807
v -2.054714 0.001814 0.000035
v -2.054714 0.001919 0.000135
v -2.053364 0.001814 0.000807
v -2.053364 0.001691 0.000772
v -2.054714 0.001691 0.000000
v -2.054714 0.001814 0.000035
v -2.014813 0.002013 0.004063
v -2.014669 0.001988 0.004159
v -2.013898 0.001988 0.003389
v -2.014085 0.002013 0.003337
v -2.014669 0.001988 0.004159
v -2.014548 0.001919 0.004240
v -2.013739 0.001919 0.003433
v -2.013898 0.001988 0.003389
v -2.014548 0.001919 0.004240
v -2.014467 0.001814 0.004294
v -2.013633 0.001814 0.003462
v -2.013739 0.001919 0.003433
v -2.014467 0.001814 0.004294
v -2.014439 0.001691 0.004313
v -2.013596 0.001691 0.003472
v -2.013633 0.001814 0.003462
v -2.043910 0.002013 0.000459
v -2.043910 0.001988 0.000284
v -2.045260 0.001988 0.001055
v -2.045260 0.002013 0.001231
v -2.043910 0.001988 0.000284
v -2.043910 0.001919 0.000135
v -2.045260 0.001919 0.000906
v -2.045260 0.001988 0.001055
v -2.043910 0.001919 0.000135
v -2.043910 0.001814 0.000035
v -2.045260 0.001814 0.000807
v -2.045260 0.001919 0.000906
v -2.043910 0.001814 0.000035
v -2.043910 0.001691 0.000000
v -2.045260 0.001691 0.000772
v -2.045260 0.001814 0.000807
v -2.049312 0.002013 0.000459
v -2.049312 0.001988 0.000284
v -2.050663 0.001988 0.001055
v -2.050663 0.002013 0.001231
v -2.049312 0.001988 0.000284
v -2.049312 0.001919 0.000135
v -2.050663 0.001919 0.000906
v -2.050663 0.001988 0.001055
v -2.049312 0.001919 0.000135
v -2.049312 0.001814 0.000035
v -2.050663 0.001814 0.000807
v -2.050663 0.001919 0.000906
v -2.049312 0.001814 0.000035
v -2.049312 0.001691 0.000000
v -2.050663 0.001691 0.000772
v -2.050663 0.001814 0.000807
v -2.050663 -0.001689 0.000772
v -2.050663 -0.001813 0.000807
v -2.052013 -0.001813 0.000035
v -2.052013 -0.001689 0.000000
v -2.050663 -0.001813 0.000807
v -2.050663 -0.001917 0.000906
v -2.052013 -0.001917 0.000135
v -2.052013 -0.001813 0.000035
v -2.050663 -0.001917 0.000906
v -2.050663 -0.001987 0.001055
v -2.052013 -0.001987 0.000284
v -2.052013 -0.001917 0.000135
v -2.050663 -0.001987 0.001055
v -2.050663 -0.002011 0.001231
v -2.052013 -0.002011 0.000459
v -2.052013 -0.001987 0.000284
v -2.045260 -0.001689 0.000772
v -2.045260 -0.001813 0.000807
v -2.046611 -0.001813 0.000035
v -2.046611 -0.001689 0.000000
v -2.045260 -0.001813 0.000807
v -2.045260 -0.001917 0.000906
v -2.046611 -0.001917 0.000135
v -2.046611 -0.001813 0.000035
v -2.045260 -0.001917 0.000906
v -2.045260 -0.001987 0.001055
v -2.046611 -0.001987 0.000284
v -2.046611 -0.001917 0.000135
v -2.045260 -0.001987 0.001055
v -2.045260 -0.002011 0.001231
v -2.046611 -0.002011 0.000459
v -2.046611 -0.001987 0.000284
v -2.057529 -0.002011 0.003606
v -2.057549 -0.001987 0.003696
v -2.058943 -0.001987 0.003574
v -2.058866 -0.002011 0.003491
v -2.057549 -0.001987 0.003696
v -2.057565 -0.001917 0.003772
v -2.059009 -0.001917 0.003645
v -2.058943 -0.001987 0.003574
v -2.057565 -0.001917 0.003772
v -2.057577 -0.001813 0.003823
v -2.059052 -0.001813 0.003692
v -2.059009 -0.001917 0.003645
v -2.057577 -0.001813 0.003823
v -2.057581 -0.001689 0.003841
v -2.059068 -0.001689 0.003709
v -2.059052 -0.001813 0.003692
v -2.054714 0.002013 0.000459
v -2.054714 0.001988 0.000284
v -2.056065 0.001988 0.001055
v -2.056065 0.002013 0.001231
v -2.054714 0.001988 0.000284
v -2.054714 0.001919 0.000135
v -2.056065 0.001919 0.000906
v -2.056065 0.001988 0.001055
v -2.054714 0.001919 0.000135
v -2.054714 0.001814 0.000035
v -2.056065 0.001814 0.000807
v -2.056065 0.001919 0.000906
v -2.054714 0.001814 0.000035
v -2.054714 0.001691 0.000000
v -2.056065 0.001691 0.000772
v -2.056065 0.001814 0.000807
v -2.045260 0.002013 0.001231
v -2.045260 0.001988 0.001055
v -2.046611 0.001988 0.000284
v -2.046611 0.002013 0.000459
v -2.045260 0.001988 0.001055
v -2.045260 0.001919 0.000906
v -2.046611 0.001919 0.000135
v -2.046611 0.001988 0.000284
v -2.045260 0.001919 0.000906
v -2.045260 0.001814 0.000807
v -2.046611 0.001814 0.000035
v -2.046611 0.001919 0.000135
v -2.045260 0.001814 0.000807
v -2.045260 0.001691 0.000772
v -2.046611 0.001691 0.000000
v -2.046611 0.001814 0.000035
v -2.052013 -0.001689 0.000000
v -2.052013 -0.001813 0.000035
v -2.053364 -0.001813 0.000807
v -2.053364 -0.001689 0.000772
v -2.052013 -0.001813 0.000035
v -2.052013 -0.001917 0.000135
v -2.053364 -0.001917 0.000906
v -2.053364 -0.001813 0.000807
v -2.052013 -0.001917 0.000135
v -2.052013 -0.001987 0.000284
v -2.053364 -0.001987 0.001055
v -2.053364 -0.001917 0.000906
v -2.052013 -0.001987 0.000284
v -2.052013 -0.002011 0.000459
v -2.053364 -0.002011 0.001231
v -2.053364 -0.001987 0.001055
v -2.014085 0.002013 0.003337
v -2.013898 0.001988 0.003389
v -2.013625 0.001988 0.002459
v -2.013827 0.002013 0.002446
v -2.013898 0.001988 0.003389
v -2.013739 0.001919 0.003433
v -2.013454 0.001919 0.002471
v -2.013625 0.001988 0.002459
v -2.013739 0.001919 0.003433
v -2.013633 0.001814 0.003462
v -2.013340 0.001814 0.002478
v -2.013454 0.001919 0.002471
v -2.013633 0.001814 0.003462
v -2.013596 0.001691 0.003472
v -2.013300 0.001691 0.002481
v -2.013340 0.001814 0.002478
v -2.056065 0.002013 0.001231
v -2.056065 0.001988 0.001055
v -2.057415 0.001988 0.000284
v -2.057415 0.002013 0.000459
v -2.056065 0.001988 0.001055
v -2.056065 0.001919 0.000906
v -2.057415 0.001919 0.000135
v -2.057415 0.001988 0.000284
v -2.056065 0.001919 0.000906
v -2.056065 0.001814 0.000807
v -2.057415 0.001814 0.000035
v -2.057415 0.001919 0.000135
v -2.056065 0.001814 0.000807
v -2.056065 0.001691 0.000772
v -2.057415 0.001691 0.000000
v -2.057415 0.001814 0.000035
v -2.046611 0.002013 0.000459
v -2.046611 0.001988 0.000284
v -2.047961 0.001988 0.001055
v -2.047961 0.002013 0.001231
v -2.046611 0.001988 0.000284
v -2.046611 0.001919 0.000135
v -2.047961 0.001919 0.000906
v -2.047961 0.001988 0.001055
v -2.046611 0.001919 0.000135
v -2.046611 0.001814 0.000035
v -2.047961 0.001814 0.000807
v -2.047961 0.001919 0.000906
v -2.046611 0.001814 0.000035
v -2.046611 0.001691 0.000000
v -2.047961 0.001691 0.000772
v -2.047961 0.001814 0.000807
v -2.015902 -0.002011 0.004548
v -2.015824 -0.001987 0.004673
v -2.017219 -0.001987 0.004855
v -2.017238 -0.002011 0.004720
v -2.015824 -0.001987 0.004673
v -2.015759 -0.001917 0.004779
v -2.017202 -0.001917 0.004969
v -2.017219 -0.001987 0.004855
v -2.015759 -0.001917 0.004779
v -2.015715 -0.001813 0.004850
v -2.017190 -0.001813 0.005045
v -2.017202 -0.001917 0.004969
v -2.015715 -0.001813 0.004850
v -2.015699 -0.001689 0.004874
v -2.017186 -0.001689 0.005072
v -2.017190 -0.001813 0.005045
v -2.060682 -0.002011 0.002679
v -2.060869 -0.001987 0.002714
v -2.061142 -0.001987 0.002091
v -2.060941 -0.002011 0.002082
v -2.060869 -0.001987 0.002714
v -2.061028 -0.001917 0.002743
v -2.061313 -0.001917 0.002098
v -2.061142 -0.001987 0.002091
v -2.061028 -0.001917 0.002743
v -2.061134 -0.001813 0.002763
v -2.061427 -0.001813 0.002104
v -2.061313 -0.001917 0.002098
v -2.061134 -0.001813 0.002763
v -2.061171 -0.001689 0.002770
v -2.061467 -0.001689 0.002105
v -2.061427 -0.001813 0.002104
v -2.053364 -0.001689 0.000772
v -2.053364 -0.001813 0.000807
v -2.054714 -0.001813 0.000035
v -2.054714 -0.001689 0.000000
v -2.053364 -0.001813 0.000807
v -2.053364 -0.001917 0.000906
v -2.054714 -0.001917 0.000135
v -2.054714 -0.001813 0.000035
v -2.053364 -0.001917 0.000906
v -2.053364 -0.001987 0.001055
v -2.054714 -0.001987 0.000284
v -2.054714 -0.001917 0.000135
v -2.053364 -0.001987 0.001055
v -2.053364 -0.002011 0.001231
v -2.054714 -0.002011 0.000459
v -2.054714 -0.001987 0.000284
v -2.057415 0.002013 0.000459
v -2.057415 0.001988 0.000284
v -2.058766 0.001988 0.001055
v -2.058766 0.002013 0.001231
v -2.057415 0.001988 0.000284
v -2.057415 0.001919 0.000135
v -2.058766 0.001919 0.000906
v -2.058766 0.001988 0.001055
v -2.057415 0.001919 0.000135
v -2.057415 0.001814 0.000035
v -2.058766 0.001814 0.000807
v -2.058766 0.001919 0.000906
v -2.057415 0.001814 0.000035
v -2.057415 0.001691 0.000000
v -2.058766 0.001691 0.000772
v -2.058766 0.001814 0.000807
v -2.047961 0.002013 0.001231
v -2.047961 0.001988 0.001055
v -2.049312 0.001988 0.000284
v -2.049312 0.002013 0.000459
v -2.047961 0.001988 0.001055
v -2.047961 0.001919 0.000906
v -2.049312 0.001919 0.000135
v -2.049312 0.001988 0.000284
v -2.047961 0.001919 0.000906
v -2.047961 0.001814 0.000807
v -2.049312 0.001814 0.000035
v -2.049312 0.001919 0.000135
v -2.047961 0.001814 0.000807
v -2.047961 0.001691 0.000772
v -2.049312 0.001691 0.000000
v -2.049312 0.001814 0.000035
v -2.038507 -0.001689 0.000000
v -2.038507 0.001691 0.000000
v -2.037157 0.001691 0.000772
v -2.037157 -0.001689 0.000772
v -2.039858 -0.001689 0.000772
v -2.039858 0.001691 0.000772
v -2.038507 0.001691 0.000000
v -2.038507 -0.001689 0.000000
v -2.041209 -0.001689 0.000000
v -2.041209 0.001691 0.000000
v -2.039858 0.001691 0.000772
v -2.039858 -0.001689 0.000772
v -2.042559 -0.001689 0.000772
v -2.042559 0.001691 0.000772
v -2.041209 0.001691 0.000000
v -2.041209 -0.001689 0.000000
v -2.043910 -0.001689 0.000000
v -2.043910 0.001691 0.000000
v -2.042559 0.001691 0.000772
v -2.042559 -0.001689 0.000772
v -2.045260 -0.001689 0.000772
v -2.045260 0.001691 0.000772
v -2.043910 0.001691 0.000000
v -2.043910 -0.001689 0.000000
v -2.046611 -0.001689 0.000000
v -2.046611 0.001691 0.000000
v -2.045260 0.001691 0.000772
v -2.045260 -0.001689 0.000772
v -2.047961 -0.001689 0.000772
v -2.047961 0.001691 0.000772
v -2.046611 0.001691 0.000000
v -2.046611 -0.001689 0.000000
v -2.049312 -0.001689 0.000000
v -2.049312 0.001691 0.000000
v -2.047961 0.001691 0.000772
v -2.047961 -0.001689 0.000772
v -2.050663 -0.001689 0.000772
v -2.050663 0.001691 0.000772
v -2.049312 0.001691 0.000000
v -2.049312 -0.001689 0.000000
v -2.052013 -0.001689 0.000000
v -2.052013 0.001691 0.000000
v -2.050663 0.001691 0.000772
v -2.050663 -0.001689 0.000772
v -2.053364 -0.001689 0.000772
v -2.053364 0.001691 0.000772
v -2.052013 0.001691 0.000000
v -2.052013 -0.001689 0.000000
v -2.054714 -0.001689 0.000000
v -2.054714 0.001691 0.000000
v -2.053364 0.001691 0.000772
v -2.053364 -0.001689 0.000772
v -2.056065 -0.001689 0.000772
v -2.056065 0.001691 0.000772
v -2.054714 0.001691 0.000000
v -2.054714 -0.001689 0.000000
v -2.057415 -0.001689 0.000000
v -2.057415 0.001691 0.000000
v -2.056065 0.001691 0.000772
v -2.056065 -0.001689 0.000772
v -2.058766 -0.001689 0.000772
v -2.058766 0.001691 0.000772
v -2.057415 0.001691 0.000000
v -2.057415 -0.001689 0.000000
v -2.060117 -0.001689 0.000000
v -2.060117 0.001691 0.000000
v -2.058766 0.001691 0.000772
v -2.058766 -0.001689 0.000772
v -2.061467 -0.001689 0.000772
v -2.061467 0.001691 0.000772
v -2.060117 0.001691 0.000000
v -2.060117 -0.001689 0.000000
v -2.057581 0.001691 0.003841
v -2.059068 0.001691 0.003709
v -2.059068 -0.001689 0.003709
v -2.057581 -0.001689 0.003841
v -2.059068 0.001691 0.003709
v -2.060329 0.001691 0.003333
v -2.060329 -0.001689 0.003333
v -2.059068 -0.001689 0.003709
v -2.060329 0.001691 0.003333
v -2.061171 0.001691 0.002770
v -2.061171 -0.001689 0.002770
v -2.060329 -0.001689 0.003333
v -2.061171 0.001691 0.002770
v -2.061467 0.001691 0.002105
v -2.061467 -0.001689 0.002105
v -2.061171 -0.001689 0.002770
v -2.013300 0.001691 0.002481
v -2.013596 0.001691 0.003472
v -2.013596 -0.001689 0.003472
v -2.013300 -0.001689 0.002481
v -2.013596 0.001691 0.003472
v -2.014439 0.001691 0.004313
v -2.014439 -0.001689 0.004313
v -2.013596 -0.001689 0.003472
v -2.014439 0.001691 0.004313
v -2.015699 0.001691 0.004874
v -2.015699 -0.001689 0.004874
v -2.014439 -0.001689 0.004313
v -2.015699 0.001691 0.004874
v -2.017186 0.001691 0.005072
v -2.017186 -0.001689 0.005072
v -2.015699 -0.001689 0.004874
v -2.061467 -0.001689 0.002105
v -2.061467 0.001691 0.002105
v -2.061467 0.001691 0.000772
v -2.061467 -0.001689 0.000772
v -2.013300 -0.001689 0.000110
v -2.013300 0.001691 0.000110
v -2.013300 0.001691 0.002481
v -2.013300 -0.001689 0.002481
v -2.034678 0.001988 0.000940
v -2.035091 0.001988 0.000956
v -2.035091 0.002013 0.001084
v -2.034678 0.002013 0.001067
v -2.035091 0.001988 0.000956
v -2.035504 0.001988 0.000968
v -2.035504 0.002013 0.001096
v -2.035091 0.002013 0.001084
v -2.035504 0.001988 0.000968
v -2.035917 0.001988 0.000975
v -2.035917 0.002013 0.001102
v -2.035504 0.002013 0.001096
v -2.035917 0.001988 0.000975
v -2.036330 0.001988 0.000977
v -2.036330 0.002013 0.001104
v -2.035917 0.002013 0.001102
v -2.036330 0.001691 0.000772
v -2.035917 0.001691 0.000769
v -2.035917 -0.001689 0.000769
v -2.036330 -0.001689 0.000772
v -2.035917 0.001691 0.000769
v -2.035504 0.001691 0.000762
v -2.035504 -0.001689 0.000762
v -2.035917 -0.001689 0.000769
v -2.035504 0.001691 0.000762
v -2.035091 0.001691 0.000751
v -2.035091 -0.001689 0.000751
v -2.035504 -0.001689 0.000762
v -2.035091 0.001691 0.000751
v -2.034678 0.001691 0.000734
v -2.034678 -0.001689 0.000734
v -2.035091 -0.001689 0.000751
v -2.034678 0.001919 0.000832
v -2.035091 0.001919 0.000848
v -2.035091 0.001988 0.000956
v -2.034678 0.001988 0.000940
v -2.035091 0.001919 0.000848
v -2.035504 0.001919 0.000860
v -2.035504 0.001988 0.000968
v -2.035091 0.001988 0.000956
v -2.035504 0.001919 0.000860
v -2.035917 0.001919 0.000867
v -2.035917 0.001988 0.000975
v -2.035504 0.001988 0.000968
v -2.035917 0.001919 0.000867
v -2.036330 0.001919 0.000869
v -2.036330 0.001988 0.000977
v -2.035917 0.001988 0.000975
v -2.036330 -0.001813 0.005706
v -2.035917 -0.001813 0.005703
v -2.035917 -0.001689 0.005730
v -2.036330 -0.001689 0.005733
v -2.035917 -0.001813 0.005703
v -2.035504 -0.001813 0.005694
v -2.035504 -0.001689 0.005720
v -2.035917 -0.001689 0.005730
v -2.035504 -0.001813 0.005694
v -2.035092 -0.001813 0.005678
v -2.035092 -0.001689 0.005704
v -2.035504 -0.001689 0.005720
v -2.035092 -0.001813 0.005678
v -2.034680 -0.001813 0.005655
v -2.034680 -0.001689 0.005682
v -2.035092 -0.001689 0.005704
v -2.036330 -0.001689 0.000772
v -2.035917 -0.001689 0.000769
v -2.035917 -0.001813 0.000795
v -2.036330 -0.001813 0.000797
v -2.035917 -0.001689 0.000769
v -2.035504 -0.001689 0.000762
v -2.035504 -0.001813 0.000788
v -2.035917 -0.001813 0.000795
v -2.035504 -0.001689 0.000762
v -2.035091 -0.001689 0.000751
v -2.035091 -0.001813 0.000776
v -2.035504 -0.001813 0.000788
v -2.035091 -0.001689 0.000751
v -2.034678 -0.001689 0.000734
v -2.034678 -0.001813 0.000760
v -2.035091 -0.001813 0.000776
v -2.036330 -0.001987 0.005516
v -2.035917 -0.001987 0.005513
v -2.035917 -0.001917 0.005627
v -2.036330 -0.001917 0.005630
v -2.035917 -0.001987 0.005513
v -2.035504 -0.001987 0.005504
v -2.035504 -0.001917 0.005617
v -2.035917 -0.001917 0.005627
v -2.035504 -0.001987 0.005504
v -2.035092 -0.001987 0.005488
v -2.035092 -0.001917 0.005601
v -2.035504 -0.001917 0.005617
v -2.035092 -0.001987 0.005488
v -2.034680 -0.001987 0.005465
v -2.034680 -0.001917 0.005579
v -2.035092 -0.001917 0.005601
v -2.034678 -0.001917 0.000832
v -2.035091 -0.001917 0.000848
v -2.035091 -0.001813 0.000776
v -2.034678 -0.001813 0.000760
v -2.035091 -0.001917 0.000848
v -2.035504 -0.001917 0.000860
v -2.035504 -0.001813 0.000788
v -2.035091 -0.001813 0.000776
v -2.035504 -0.001917 0.000860
v -2.035917 -0.001917 0.000867
v -2.035917 -0.001813 0.000795
v -2.035504 -0.001813 0.000788
v -2.035917 -0.001917 0.000867
v -2.036330 -0.001917 0.000869
v -2.036330 -0.001813 0.000797
v -2.035917 -0.001813 0.000795
v -2.034678 -0.001987 0.000940
v -2.035091 -0.001987 0.000956
v -2.035091 -0.001917 0.000848
v -2.034678 -0.001917 0.000832
v -2.035091 -0.001987 0.000956
v -2.035504 -0.001987 0.000968
v -2.035504 -0.001917 0.000860
v -2.035091 -0.001917 0.000848
v -2.035504 -0.001987 0.000968
v -2.035917 -0.001987 0.000975
v -2.035917 -0.001917 0.000867
v -2.035504 -0.001917 0.000860
v -2.035917 -0.001987 0.000975
v -2.036330 -0.001987 0.000977
v -2.036330 -0.001917 0.000869
v -2.035917 -0.001917 0.000867
v -2.034678 0.001814 0.000760
v -2.035091 0.001814 0.000776
v -2.035091 0.001919 0.000848
v -2.034678 0.001919 0.000832
v -2.035091 0.001814 0.000776
v -2.035504 0.001814 0.000788
v -2.035504 0.001919 0.000860
v -2.035091 0.001919 0.000848
v -2.035504 0.001814 0.000788
v -2.035917 0.001814 0.000795
v -2.035917 0.001919 0.000867
v -2.035504 0.001919 0.000860
v -2.035917 0.001814 0.000795
v -2.036330 0.001814 0.000797
v -2.036330 0.001919 0.000869
v -2.035917 0.001919 0.000867
v -2.036330 0.001988 0.005516
v -2.035917 0.001988 0.005513
v -2.035917 0.002013 0.005379
v -2.036330 0.002013 0.005382
v -2.035917 0.001988 0.005513
v -2.035504 0.001988 0.005504
v -2.035504 0.002013 0.005369
v -2.035917 0.002013 0.005379
v -2.035504 0.001988 0.005504
v -2.035092 0.001988 0.005488
v -2.035092 0.002013 0.005353
v -2.035504 0.002013 0.005369
v -2.035092 0.001988 0.005488
v -2.034680 0.001988 0.005465
v -2.034680 0.002013 0.005331
v -2.035092 0.002013 0.005353
v -2.034678 -0.002011 0.001067
v -2.035091 -0.002011 0.001084
v -2.035091 -0.001987 0.000956
v -2.034678 -0.001987 0.000940
v -2.035091 -0.002011 0.001084
v -2.035504 -0.002011 0.001095
v -2.035504 -0.001987 0.000968
v -2.035091 -0.001987 0.000956
v -2.035504 -0.002011 0.001095
v -2.035917 -0.002011 0.001102
v -2.035917 -0.001987 0.000975
v -2.035504 -0.001987 0.000968
v -2.035917 -0.002011 0.001102
v -2.036330 -0.002011 0.001104
v -2.036330 -0.001987 0.000977
v -2.035917 -0.001987 0.000975
v -2.036330 0.001919 0.005630
v -2.035917 0.001919 0.005627
v -2.035917 0.001988 0.005513
v -2.036330 0.001988 0.005516
v -2.035917 0.001919 0.005627
v -2.035504 0.001919 0.005617
v -2.035504 0.001988 0.005504
v -2.035917 0.001988 0.005513
v -2.035504 0.001919 0.005617
v -2.035092 0.001919 0.005601
v -2.035092 0.001988 0.005488
v -2.035504 0.001988 0.005504
v -2.035092 0.001919 0.005601
v -2.034680 0.001919 0.005579
v -2.034680 0.001988 0.005465
v -2.035092 0.001988 0.005488
v -2.036330 -0.001689 0.005733
v -2.035917 -0.001689 0.005730
v -2.035917 0.001691 0.005730
v -2.036330 0.001691 0.005733
v -2.035917 -0.001689 0.005730
v -2.035504 -0.001689 0.005720
v -2.035504 0.001691 0.005720
v -2.035917 0.001691 0.005730
v -2.035504 -0.001689 0.005720
v -2.035092 -0.001689 0.005704
v -2.035092 0.001691 0.005704
v -2.035504 0.001691 0.005720
v -2.035092 -0.001689 0.005704
v -2.034680 -0.001689 0.005682
v -2.034680 0.001691 0.005682
v -2.035092 0.001691 0.005704
v -2.036330 -0.002011 0.001104
v -2.035917 -0.002011 0.001102
v -2.035917 -0.002011 0.005379
v -2.036330 -0.002011 0.005382
v -2.035917 -0.002011 0.001102
v -2.035504 -0.002011 0.001095
v -2.035504 -0.002011 0.005369
v -2.035917 -0.002011 0.005379
v -2.035504 -0.002011 0.001095
v -2.035091 -0.002011 0.001084
v -2.035092 -0.002011 0.005353
v -2.035504 -0.002011 0.005369
v -2.035091 -0.002011 0.001084
v -2.034678 -0.002011 0.001067
v -2.034680 -0.002011 0.005331
v -2.035092 -0.002011 0.005353
v -2.036330 0.001814 0.005706
v -2.035917 0.001814 0.005703
v -2.035917 0.001919 0.005627
v -2.036330 0.001919 0.005630
v -2.035917 0.001814 0.005703
v -2.035504 0.001814 0.005694
v -2.035504 0.001919 0.005617
v -2.035917 0.001919 0.005627
v -2.035504 0.001814 0.005694
v -2.035092 0.001814 0.005678
v -2.035092 0.001919 0.005601
v -2.035504 0.001919 0.005617
v -2.035092 0.001814 0.005678
v -2.034680 0.001814 0.005655
v -2.034680 0.001919 0.005579
v -2.035092 0.001919 0.005601
v -2.036330 0.002013 0.005382
v -2.035917 0.002013 0.005379
v -2.035917 0.002013 0.001102
v -2.036330 0.002013 0.001104
v -2.035917 0.002013 0.005379
v -2.035504 0.002013 0.005369
v -2.035504 0.002013 0.001096
v -2.035917 0.002013 0.001102
v -2.035504 0.002013 0.005369
v -2.035092 0.002013 0.005353
v -2.035091 0.002013 0.001084
v -2.035504 0.002013 0.001096
v -2.035092 0.002013 0.005353
v -2.034680 0.002013 0.005331
v -2.034678 0.002013 0.001067
v -2.035091 0.002013 0.001084
v -2.036330 -0.002011 0.005382
v -2.035917 -0.002011 0.005379
v -2.035917 -0.001987 0.005513
v -2.036330 -0.001987 0.005516
v -2.035917 -0.002011 0.005379
v -2.035504 -0.002011 0.005369
v -2.035504 -0.001987 0.005504
v -2.035917 -0.001987 0.005513
v -2.035504 -0.002011 0.005369
v -2.035092 -0.002011 0.005353
v -2.035092 -0.001987 0.005488
v -2.035504 -0.001987 0.005504
v -2.035092 -0.002011 0.005353
v -2.034680 -0.002011 0.005331
v -2.034680 -0.001987 0.005465
v -2.035092 -0.001987 0.005488
v -2.036330 0.001691 0.005733
v -2.035917 0.001691 0.005730
v -2.035917 0.001814 0.005703
v -2.036330 0.001814 0.005706
v -2.035917 0.001691 0.005730
v -2.035504 0.001691 0.005720
v -2.035504 0.001814 0.005694
v -2.035917 0.001814 0.005703
v -2.035504 0.001691 0.005720
v -2.035092 0.001691 0.005704
v -2.035092 0.001814 0.005678
v -2.035504 0.001814 0.005694
v -2.035092 0.001691 0.005704
v -2.034680 0.001691 0.005682
v -2.034680 0.001814 0.005655
v -2.035092 0.001814 0.005678
v -2.034678 0.001691 0.000734
v -2.035091 0.001691 0.000751
v -2.035091 0.001814 0.000776
v -2.034678 0.001814 0.000760
v -2.035091 0.001691 0.000751
v -2.035504 0.001691 0.000762
v -2.035504 0.001814 0.000788
v -2.035091 0.001814 0.000776
v -2.035504 0.001691 0.000762
v -2.035917 0.001691 0.000769
v -2.035917 0.001814 0.000795
v -2.035504 0.001814 0.000788
v -2.035917 0.001691 0.000769
v -2.036330 0.001691 0.000772
v -2.036330 0.001814 0.000797
v -2.035917 0.001814 0.000795
v -2.036330 -0.001917 0.005630
v -2.035917 -0.001917 0.005627
v -2.035917 -0.001813 0.005703
v -2.036330 -0.001813 0.005706
v -2.035917 -0.001917 0.005627
v -2.035504 -0.001917 0.005617
v -2.035504 -0.001813 0.005694
v -2.035917 -0.001813 0.005703
v -2.035504 -0.001917 0.005617
v -2.035092 -0.001917 0.005601
v -2.035092 -0.001813 0.005678
v -2.035504 -0.001813 0.005694
v -2.035092 -0.001917 0.005601
v -2.034680 -0.001917 0.005579
v -2.034680 -0.001813 0.005655
v -2.035092 -0.001813 0.005678
v -2.013300 -0.001689 0.000110
v -2.013340 -0.001813 0.000137
v -2.034678 -0.001813 0.000760
v -2.034678 -0.001689 0.000734
v -2.037171 -0.001813 0.000797
v -2.037157 -0.001689 0.000772
v -2.036330 -0.001689 0.000772
v -2.036330 -0.001813 0.000797
v -2.013340 -0.001813 0.000137
v -2.013455 -0.001917 0.000214
v -2.034678 -0.001917 0.000832
v -2.034678 -0.001813 0.000760
v -2.037211 -0.001917 0.000869
v -2.037171 -0.001813 0.000797
v -2.036330 -0.001813 0.000797
v -2.036330 -0.001917 0.000869
v -2.013627 -0.001987 0.000328
v -2.034678 -0.001987 0.000940
v -2.034678 -0.001917 0.000832
v -2.013455 -0.001917 0.000214
v -2.037270 -0.001987 0.000976
v -2.037211 -0.001917 0.000869
v -2.036330 -0.001917 0.000869
v -2.036330 -0.001987 0.000977
v -2.013829 -0.002011 0.000463
v -2.034678 -0.002011 0.001067
v -2.034678 -0.001987 0.000940
v -2.013627 -0.001987 0.000328
v -2.037340 -0.002011 0.001103
v -2.037270 -0.001987 0.000976
v -2.036330 -0.001987 0.000977
v -2.036330 -0.002011 0.001104
v -2.034680 -0.001987 0.005465
v -2.034680 -0.002011 0.005331
v -2.017238 -0.002011 0.004720
v -2.017219 -0.001987 0.004855
v -2.057549 -0.001987 0.003696
v -2.057529 -0.002011 0.003606
v -2.036330 -0.002011 0.005382
v -2.036330 -0.001987 0.005516
v -2.034680 -0.001917 0.005579
v -2.034680 -0.001987 0.005465
v -2.017219 -0.001987 0.004855
v -2.017202 -0.001917 0.004969
v -2.057565 -0.001917 0.003772
v -2.057549 -0.001987 0.003696
v -2.036330 -0.001987 0.005516
v -2.036330 -0.001917 0.005630
v -2.034680 -0.001813 0.005655
v -2.034680 -0.001917 0.005579
v -2.017202 -0.001917 0.004969
v -2.017190 -0.001813 0.005045
v -2.057577 -0.001813 0.003823
v -2.057565 -0.001917 0.003772
v -2.036330 -0.001917 0.005630
v -2.036330 -0.001813 0.005706
v -2.034680 -0.001689 0.005682
v -2.034680 -0.001813 0.005655
v -2.017190 -0.001813 0.005045
v -2.017186 -0.001689 0.005072
v -2.057581 -0.001689 0.003841
v -2.057577 -0.001813 0.003823
v -2.036330 -0.001813 0.005706
v -2.036330 -0.001689 0.005733
v -2.036330 0.001988 0.005516
v -2.036330 0.002013 0.005382
v -2.057529 0.002013 0.003606
v -2.057549 0.001988 0.003696
v -2.017219 0.001988 0.004855
v -2.017238 0.002013 0.004720
v -2.034680 0.002013 0.005331
v -2.034680 0.001988 0.005465
v -2.036330 0.001919 0.005630
v -2.036330 0.001988 0.005516
v -2.057549 0.001988 0.003696
v -2.057565 0.001919 0.003772
v -2.017202 0.001919 0.004969
v -2.017219 0.001988 0.004855
v -2.034680 0.001988 0.005465
v -2.034680 0.001919 0.005579
v -2.036330 0.001814 0.005706
v -2.036330 0.001919 0.005630
v -2.057565 0.001919 0.003772
v -2.057577 0.001814 0.003823
v -2.017190 0.001814 0.005045
v -2.017202 0.001919 0.004969
v -2.034680 0.001919 0.005579
v -2.034680 0.001814 0.005655
v -2.036330 0.001691 0.005733
v -2.036330 0.001814 0.005706
v -2.057577 0.001814 0.003823
v -2.057581 0.001691 0.003841
v -2.017186 0.001691 0.005072
v -2.017190 0.001814 0.005045
v -2.034680 0.001814 0.005655
v -2.034680 0.001691 0.005682
v -2.034678 0.001988 0.000940
v -2.034678 0.002013 0.001067
v -2.013829 0.002013 0.000463
v -2.013627 0.001988 0.000328
v -2.036330 0.001988 0.000977
v -2.037270 0.001988 0.000976
v -2.037340 0.002013 0.001103
v -2.036330 0.002013 0.001104
v -2.034678 0.001919 0.000832
v -2.034678 0.001988 0.000940
v -2.013627 0.001988 0.000328
v -2.013455 0.001919 0.000214
v -2.036330 0.001919 0.000869
v -2.037211 0.001919 0.000869
v -2.037270 0.001988 0.000976
v -2.036330 0.001988 0.000977
v -2.034678 0.001814 0.000760
v -2.034678 0.001919 0.000832
v -2.013455 0.001919 0.000214
v -2.013340 0.001814 0.000137
v -2.036330 0.001919 0.000869
v -2.036330 0.001814 0.000797
v -2.037171 0.001814 0.000797
v -2.037211 0.001919 0.000869
v -2.034678 0.001691 0.000734
v -2.034678 0.001814 0.000760
v -2.013340 0.001814 0.000137
v -2.013300 0.001691 0.000110
v -2.036330 0.001814 0.000797
v -2.036330 0.001691 0.000772
v -2.037157 0.001691 0.000772
v -2.037171 0.001814 0.000797
v -2.013300 -0.001689 0.000110
v -2.034678 -0.001689 0.000734
v -2.034678 0.001691 0.000734
v -2.013300 0.001691 0.000110
v -2.036330 0.001691 0.000772
v -2.036330 -0.001689 0.000772
v -2.037157 -0.001689 0.000772
v -2.037157 0.001691 0.000772
v -2.054714 0.002013 0.000459
v -2.056065 0.002013 0.001231
v -2.057529 0.002013 0.003606
v -2.053364 0.002013 0.001231
v -2.057529 0.002013 0.003606
v -2.047961 0.002013 0.001231
v -2.050663 0.002013 0.001231
v -2.057529 0.002013 0.003606
v -2.050663 0.002013 0.001231
v -2.053364 0.002013 0.001231
v -2.050663 0.002013 0.001231
v -2.052013 0.002013 0.000459
v -2.053364 0.002013 0.001231
v -2.058766 0.002013 0.001231
v -2.060117 0.002013 0.000459
v -2.060986 0.002013 0.000919
v -2.060682 0.002013 0.002679
v -2.059955 0.002013 0.003166
v -2.058866 0.002013 0.003491
v -2.058766 0.002013 0.001231
v -2.056065 0.002013 0.001231
v -2.058766 0.002013 0.001231
v -2.058866 0.002013 0.003491
v -2.057529 0.002013 0.003606
v -2.060682 0.002013 0.002679
v -2.058766 0.002013 0.001231
v -2.060986 0.002013 0.000919
v -2.060941 0.002013 0.002082
v -2.036330 0.002013 0.005382
v -2.042559 0.002013 0.001231
v -2.043910 0.002013 0.000459
v -2.045260 0.002013 0.001231
v -2.045260 0.002013 0.001231
v -2.046611 0.002013 0.000459
v -2.047961 0.002013 0.001231
v -2.057529 0.002013 0.003606
v -2.036330 0.002013 0.005382
v -2.045260 0.002013 0.001231
v -2.047961 0.002013 0.001231
v -2.047961 0.002013 0.001231
v -2.049312 0.002013 0.000459
v -2.050663 0.002013 0.001231
v -2.041209 0.002013 0.000459
v -2.042559 0.002013 0.001231
v -2.036330 0.002013 0.005382
v -2.039858 0.002013 0.001231
v -2.056065 0.002013 0.001231
v -2.057415 0.002013 0.000459
v -2.058766 0.002013 0.001231
v -2.036330 0.002013 0.005382
v -2.037340 0.002013 0.001103
v -2.038507 0.002013 0.000459
v -2.039858 0.002013 0.001231
v -2.036330 0.002013 0.005382
v -2.036330 0.002013 0.001104
v -2.037340 0.002013 0.001103
v -2.017238 0.002013 0.004720
v -2.015902 0.002013 0.004548
v -2.014813 0.002013 0.004063
v -2.014085 0.002013 0.003337
v -2.014085 0.002013 0.003337
v -2.013827 0.002013 0.002446
v -2.013829 0.002013 0.000463
v -2.017238 0.002013 0.004720
v -2.034680 0.002013 0.005331
v -2.017238 0.002013 0.004720
v -2.013829 0.002013 0.000463
v -2.034678 0.002013 0.001067
v -2.041209 -0.002011 0.000459
v -2.039858 -0.002011 0.001231
v -2.036330 -0.002011 0.005382
v -2.042559 -0.002011 0.001231
v -2.058866 -0.002011 0.003491
v -2.059955 -0.002011 0.003166
v -2.060682 -0.002011 0.002679
v -2.058766 -0.002011 0.001231
v -2.053364 -0.002011 0.001231
v -2.052013 -0.002011 0.000459
v -2.050663 -0.002011 0.001231
v -2.060682 -0.002011 0.002679
v -2.060941 -0.002011 0.002082
v -2.060986 -0.002011 0.000919
v -2.058766 -0.002011 0.001231
v -2.043910 -0.002011 0.000459
v -2.042559 -0.002011 0.001231
v -2.036330 -0.002011 0.005382
v -2.045260 -0.002011 0.001231
v -2.060117 -0.002011 0.000459
v -2.058766 -0.002011 0.001231
v -2.060986 -0.002011 0.000919
v -2.038507 -0.002011 0.000459
v -2.037340 -0.002011 0.001103
v -2.036330 -0.002011 0.005382
v -2.039858 -0.002011 0.001231
v -2.037340 -0.002011 0.001103
v -2.036330 -0.002011 0.001104
v -2.036330 -0.002011 0.005382
v -2.054714 -0.002011 0.000459
v -2.053364 -0.002011 0.001231
v -2.057529 -0.002011 0.003606
v -2.056065 -0.002011 0.001231
v -2.053364 -0.002011 0.001231
v -2.050663 -0.002011 0.001231
v -2.057529 -0.002011 0.003606
v -2.050663 -0.002011 0.001231
v -2.047961 -0.002011 0.001231
v -2.057529 -0.002011 0.003606
v -2.045260 -0.002011 0.001231
v -2.036330 -0.002011 0.005382
v -2.057529 -0.002011 0.003606
v -2.047961 -0.002011 0.001231
v -2.056065 -0.002011 0.001231
v -2.057529 -0.002011 0.003606
v -2.058866 -0.002011 0.003491
v -2.058766 -0.002011 0.001231
v -2.058766 -0.002011 0.001231
v -2.057415 -0.002011 0.000459
v -2.056065 -0.002011 0.001231
v -2.050663 -0.002011 0.001231
v -2.049312 -0.002011 0.000459
v -2.047961 -0.002011 0.001231
v -2.047961 -0.002011 0.001231
v -2.046611 -0.002011 0.000459
v -2.045260 -0.002011 0.001231
v -2.014813 -0.002011 0.004063
v -2.015902 -0.002011 0.004548
v -2.017238 -0.002011 0.004720
v -2.014085 -0.002011 0.003337
v -2.034680 -0.002011 0.005331
v -2.034678 -0.002011 0.001067
v -2.013829 -0.002011 0.000463
v -2.017238 -0.002011 0.004720
v -2.014085 -0.002011 0.003337
v -2.017238 -0.002011 0.004720
v -2.013829 -0.002011 0.000463
v -2.013827 -0.002011 0.002446
v -2.036330 -0.001689 0.005733
v -2.036330 0.001691 0.005733
v -2.057581 0.001691 0.003841
v -2.057581 -0.001689 0.003841
v -2.034680 0.001691 0.005682
v -2.034680 -0.001689 0.005682
v -2.017186 -0.001689 0.005072
v -2.017186 0.001691 0.005072
vn -0.0664 0.9967 -0.0461
vn -0.2386 0.9570 -0.1651
vn -0.2586 0.9642 0.0589
vn -0.0661 0.9977 0.0157
vn -0.2383 0.9571 -0.1650
vn -0.4670 0.8233 -0.3226
vn -0.5323 0.8384 0.1176
vn -0.2583 0.9643 0.0588
vn -0.4675 0.8230 -0.3227
vn -0.7026 0.5207 -0.4850
vn -0.8230 0.5391 0.1788
vn -0.5328 0.8380 0.1176
vn -0.7022 0.5214 -0.4849
vn -0.8140 0.1487 -0.5615
vn -0.9658 0.1527 0.2096
vn -0.8225 0.5399 0.1788
vn -0.0000 -0.1316 -0.9913
vn -0.0000 -0.4629 -0.8864
vn -0.0000 -0.5456 -0.8380
vn -0.0000 -0.1459 -0.9893
vn -0.0000 -0.7779 -0.6283
vn -0.0000 -0.8510 -0.5251
vn -0.0000 -0.5455 -0.8381
vn -0.0000 -0.7780 -0.6283
vn -0.0000 -0.9400 -0.3412
vn -0.0000 -0.9755 -0.2201
vn -0.0000 -0.8511 -0.5250
vn -0.0000 -0.9950 -0.1000
vn -0.0000 -0.9993 -0.0380
vn -0.0000 0.9993 -0.0380
vn -0.0000 0.9755 -0.2201
vn -0.0006 0.9376 -0.3477
vn 0.0005 0.9948 -0.1021
vn -0.0000 0.8511 -0.5251
vn -0.0013 0.7716 -0.6361
vn -0.0005 0.9376 -0.3478
vn -0.0001 0.8511 -0.5250
vn -0.0000 0.5456 -0.8380
vn -0.0007 0.4560 -0.8900
vn -0.0014 0.7717 -0.6360
vn -0.0000 0.1459 -0.9893
vn -0.0001 0.1291 -0.9916
vn -0.0448 0.9931 0.1088
vn -0.1662 0.9106 0.3785
vn -0.0842 0.8822 0.4633
vn -0.0226 0.9907 0.1340
vn -0.3018 0.6881 0.6598
vn -0.1457 0.6206 0.7705
vn -0.3018 0.6880 0.6600
vn -0.3917 0.3690 0.8429
vn -0.1785 0.3122 0.9331
vn -0.1457 0.6204 0.7706
vn -0.3917 0.3689 0.8429
vn -0.4184 0.0936 0.9034
vn -0.1867 0.0771 0.9794
vn -0.1785 0.3121 0.9331
vn -0.8141 0.1478 -0.5617
vn -0.0007 0.4558 -0.8901
vn -0.0000 0.1289 -0.9917
vn -0.7023 0.5213 -0.4848
vn -0.4671 0.8233 -0.3225
vn -0.0012 0.7718 -0.6358
vn -0.0007 0.4563 -0.8898
vn -0.4673 0.8231 -0.3228
vn -0.2385 0.9570 -0.1651
vn -0.0006 0.9376 -0.3478
vn -0.0014 0.7716 -0.6361
vn -0.2385 0.9570 -0.1650
vn -0.0663 0.9967 -0.0462
vn 0.0004 0.9948 -0.1021
vn -0.0000 -0.1315 -0.9913
vn -0.0000 -0.5456 -0.8381
vn -0.0000 -0.7779 -0.6284
vn 0.0001 -0.8511 -0.5250
vn 0.0001 -0.1316 -0.9913
vn -0.0000 -0.4630 -0.8864
vn -0.0226 -0.9907 0.1341
vn -0.0842 -0.8822 0.4633
vn -0.1662 -0.9106 0.3785
vn -0.0448 -0.9931 0.1088
vn -0.0842 -0.8822 0.4634
vn -0.1457 -0.6205 0.7705
vn -0.3018 -0.6881 0.6599
vn -0.1457 -0.6205 0.7706
vn -0.1785 -0.3122 0.9331
vn -0.3917 -0.3691 0.8429
vn -0.3018 -0.6880 0.6599
vn -0.1785 -0.3121 0.9331
vn -0.1867 -0.0772 0.9794
vn -0.4184 -0.0937 0.9034
vn -0.3917 -0.3690 0.8429
vn 0.2377 -0.1148 -0.9645
vn 0.2134 -0.4470 -0.8687
vn 0.0005 -0.4585 -0.8887
vn -0.0000 -0.1298 -0.9915
vn 0.2133 -0.4474 -0.8685
vn 0.1493 -0.7748 -0.6143
vn 0.0007 -0.7743 -0.6328
vn 0.0004 -0.4588 -0.8885
vn 0.1494 -0.7747 -0.6144
vn 0.0713 -0.9525 -0.2960
vn 0.0003 -0.9387 -0.3448
vn 0.0008 -0.7742 -0.6329
vn 0.0712 -0.9526 -0.2959
vn 0.0156 -0.9978 -0.0649
vn -0.0002 -0.9949 -0.1011
vn -0.0000 -0.4631 -0.8863
vn -0.0000 -0.7781 -0.6282
vn -0.0000 -0.5457 -0.8380
vn 0.0156 0.9978 -0.0649
vn 0.0712 0.9526 -0.2959
vn 0.0003 0.9387 -0.3448
vn -0.0002 0.9949 -0.1011
vn 0.0713 0.9525 -0.2960
vn 0.1494 0.7747 -0.6144
vn 0.0008 0.7742 -0.6329
vn 0.1493 0.7748 -0.6143
vn 0.2133 0.4474 -0.8685
vn 0.0004 0.4588 -0.8885
vn 0.0007 0.7744 -0.6328
vn 0.2134 0.4470 -0.8687
vn 0.2377 0.1148 -0.9645
vn -0.0000 0.1298 -0.9915
vn 0.0005 0.4585 -0.8887
vn -0.0661 -0.9977 0.0157
vn -0.2586 -0.9642 0.0589
vn -0.2386 -0.9570 -0.1651
vn -0.0664 -0.9967 -0.0461
vn -0.2584 -0.9643 0.0588
vn -0.5323 -0.8383 0.1176
vn -0.4671 -0.8232 -0.3227
vn -0.2383 -0.9571 -0.1650
vn -0.5329 -0.8380 0.1176
vn -0.8230 -0.5391 0.1788
vn -0.7027 -0.5206 -0.4850
vn -0.4675 -0.8230 -0.3227
vn -0.8226 -0.5398 0.1788
vn -0.9658 -0.1526 0.2096
vn -0.8140 -0.1485 -0.5615
vn -0.7023 -0.5212 -0.4849
vn -0.0000 -0.1300 -0.9915
vn 0.0004 -0.4587 -0.8886
vn 0.0008 -0.7743 -0.6329
vn 0.0008 -0.7743 -0.6328
vn 0.0003 -0.9387 -0.3447
vn -0.0663 -0.9967 -0.0462
vn -0.2385 -0.9570 -0.1651
vn -0.0006 -0.9376 -0.3477
vn 0.0004 -0.9948 -0.1021
vn -0.2386 -0.9570 -0.1652
vn -0.4673 -0.8231 -0.3228
vn -0.0014 -0.7716 -0.6361
vn -0.0006 -0.9376 -0.3478
vn -0.4671 -0.8233 -0.3225
vn -0.7023 -0.5213 -0.4848
vn -0.0007 -0.4563 -0.8898
vn -0.0012 -0.7718 -0.6358
vn -0.7026 -0.5207 -0.4850
vn -0.8141 -0.1478 -0.5616
vn -0.0000 -0.1289 -0.9917
vn -0.0007 -0.4558 -0.8901
vn 0.0255 0.9954 0.0928
vn 0.0952 0.9335 0.3456
vn 0.1793 0.9463 0.2689
vn 0.0475 0.9963 0.0713
vn 0.0952 0.9335 0.3457
vn 0.1781 0.7428 0.6454
vn 0.3470 0.7802 0.5205
vn 0.1793 0.9463 0.2690
vn 0.1781 0.7427 0.6455
vn 0.2415 0.4202 0.8747
vn 0.4920 0.4617 0.7381
vn 0.3471 0.7801 0.5206
vn 0.2415 0.4200 0.8748
vn 0.2646 0.1108 0.9580
vn 0.5504 0.1242 0.8256
vn 0.4921 0.4615 0.7382
vn 0.0633 -0.9980 0.0091
vn 0.2508 -0.9674 0.0366
vn 0.2371 -0.9603 0.1469
vn 0.0620 -0.9973 0.0383
vn 0.2509 -0.9673 0.0366
vn 0.5235 -0.8485 0.0769
vn 0.4786 -0.8263 0.2970
vn 0.2372 -0.9603 0.1469
vn 0.5236 -0.8485 0.0769
vn 0.8231 -0.5548 0.1213
vn 0.7245 -0.5222 0.4499
vn 0.4786 -0.8262 0.2970
vn 0.8230 -0.5550 0.1213
vn 0.9768 -0.1579 0.1443
vn 0.8403 -0.1462 0.5220
vn 0.7244 -0.5224 0.4499
vn -0.0629 0.9960 0.0627
vn -0.2347 0.9466 0.2212
vn -0.1661 0.9106 0.3784
vn -0.0448 0.9931 0.1087
vn -0.2348 0.9465 0.2212
vn -0.4575 0.7875 0.4129
vn -0.3019 0.6881 0.6599
vn -0.4575 0.7876 0.4129
vn -0.6600 0.4741 0.5827
vn -0.3917 0.3692 0.8428
vn -0.6601 0.4738 0.5829
vn -0.7429 0.1280 0.6570
vn -0.4185 0.0936 0.9034
vn -0.0001 -0.1458 -0.9893
vn -0.0007 -0.4559 -0.8900
vn -0.0001 -0.1289 -0.9917
vn -0.0001 -0.8511 -0.5250
vn -0.0007 -0.4561 -0.8899
vn -0.0005 -0.9376 -0.3478
vn -0.0013 -0.7716 -0.6361
vn 0.0005 -0.9948 -0.1021
vn -0.0005 -0.9376 -0.3477
vn -0.0226 0.9907 0.1341
vn -0.0382 0.8972 0.4399
vn -0.0102 0.9929 0.1185
vn -0.0842 0.8822 0.4634
vn -0.1457 0.6205 0.7705
vn -0.0670 0.6429 0.7630
vn -0.0382 0.8972 0.4401
vn -0.0833 0.3281 0.9410
vn -0.0670 0.6428 0.7631
vn -0.1866 0.0772 0.9794
vn -0.0882 0.0813 0.9928
vn 0.0003 0.9387 -0.3447
vn 0.0008 0.7743 -0.6329
vn -0.0000 0.8511 -0.5250
vn 0.0004 0.4587 -0.8886
vn -0.0000 0.1300 -0.9915
vn 0.0475 -0.9963 0.0712
vn 0.1793 -0.9463 0.2689
vn 0.0952 -0.9335 0.3456
vn 0.0255 -0.9954 0.0928
vn 0.1793 -0.9463 0.2690
vn 0.3470 -0.7802 0.5205
vn 0.1781 -0.7428 0.6454
vn 0.0952 -0.9335 0.3457
vn 0.3470 -0.7801 0.5206
vn 0.4920 -0.4617 0.7381
vn 0.2414 -0.4202 0.8747
vn 0.1781 -0.7427 0.6456
vn 0.4920 -0.4616 0.7382
vn 0.5504 -0.1243 0.8256
vn 0.2645 -0.1109 0.9580
vn 0.2415 -0.4201 0.8748
vn -0.0000 -0.1460 -0.9893
vn -0.0001 -0.5456 -0.8380
vn -0.0001 -0.4630 -0.8863
vn -0.0000 -0.8511 -0.5251
vn -0.0000 -0.9755 -0.2202
vn -0.0000 -0.9400 -0.3413
vn -0.2347 -0.9466 0.2212
vn -0.0629 -0.9960 0.0628
vn -0.1662 -0.9105 0.3785
vn -0.4575 -0.7875 0.4130
vn -0.2348 -0.9465 0.2213
vn -0.3019 -0.6880 0.6599
vn -0.6601 -0.4738 0.5828
vn -0.4576 -0.7874 0.4130
vn -0.3917 -0.3689 0.8429
vn -0.4185 -0.0936 0.9034
vn -0.7429 -0.1281 0.6570
vn -0.6602 -0.4738 0.5829
vn 0.0633 0.9980 0.0091
vn 0.2508 0.9674 0.0365
vn 0.1491 0.9581 -0.2446
vn 0.0430 0.9965 -0.0722
vn 0.2510 0.9673 0.0365
vn 0.5237 0.8484 0.0768
vn 0.2915 0.8355 -0.4658
vn 0.1493 0.9580 -0.2447
vn 0.5234 0.8486 0.0768
vn 0.8230 0.5550 0.1213
vn 0.4520 0.5406 -0.7095
vn 0.2911 0.8356 -0.4658
vn 0.8234 0.5544 0.1213
vn 0.9770 0.1571 0.1442
vn 0.5314 0.1629 -0.8313
vn 0.4522 0.5404 -0.7096
vn -0.0000 0.9400 -0.3412
vn -0.0000 0.9950 -0.1000
vn -0.0000 0.9755 -0.2202
vn -0.0000 0.7779 -0.6283
vn -0.0000 0.9400 -0.3413
vn -0.0000 0.5455 -0.8381
vn -0.0000 0.4629 -0.8864
vn -0.0001 0.5457 -0.8380
vn -0.0000 0.1460 -0.9893
vn -0.0000 0.1316 -0.9913
vn -0.0001 0.4630 -0.8863
vn -0.0000 -0.1317 -0.9913
vn 0.0001 -0.4630 -0.8863
vn 0.0430 -0.9965 -0.0722
vn 0.1491 -0.9581 -0.2446
vn 0.1493 -0.9581 -0.2446
vn 0.2914 -0.8355 -0.4658
vn 0.5236 -0.8485 0.0768
vn 0.2510 -0.9673 0.0366
vn 0.2911 -0.8356 -0.4658
vn 0.4520 -0.5406 -0.7095
vn 0.5234 -0.8486 0.0768
vn 0.4522 -0.5404 -0.7096
vn 0.5314 -0.1629 -0.8313
vn 0.9770 -0.1570 0.1442
vn 0.8234 -0.5544 0.1213
vn 0.0001 0.8511 -0.5251
vn -0.0000 0.5456 -0.8381
vn -0.0000 0.7780 -0.6283
vn -0.0001 0.4630 -0.8864
vn 0.0077 0.9956 0.0933
vn 0.0298 0.9327 0.3595
vn 0.0255 0.9954 0.0929
vn 0.0298 0.9326 0.3596
vn 0.0561 0.7343 0.6765
vn 0.0952 0.9335 0.3458
vn 0.0755 0.4100 0.9090
vn 0.2414 0.4203 0.8747
vn 0.0755 0.4098 0.9091
vn 0.0825 0.1067 0.9909
vn 0.2645 0.1109 0.9580
vn 0.2414 0.4201 0.8748
vn -0.0000 0.7779 -0.6284
vn 0.0001 0.4631 -0.8863
vn -0.0000 0.1317 -0.9913
vn -0.0000 0.5457 -0.8380
vn -0.0000 -0.4628 -0.8864
vn -0.0000 -0.1314 -0.9913
vn -0.0000 -0.1461 -0.9893
vn -0.0001 -0.5457 -0.8380
vn -0.0001 -0.4631 -0.8863
vn -0.0001 -0.4630 -0.8864
vn 0.0001 0.4630 -0.8863
vn 0.0001 0.5456 -0.8380
vn -0.0000 0.4630 -0.8864
vn 0.0001 -0.1459 -0.9893
vn -0.0000 -0.4630 -0.8863
vn 0.0001 -0.5457 -0.8380
vn 0.2372 -0.9603 0.1470
vn 0.4787 -0.8262 0.2971
vn 0.3471 -0.7801 0.5206
vn 0.1794 -0.9463 0.2690
vn 0.7245 -0.5221 0.4500
vn 0.4921 -0.4617 0.7381
vn 0.7244 -0.5223 0.4499
vn 0.8403 -0.1460 0.5221
vn 0.5504 -0.1246 0.8256
vn 0.4920 -0.4618 0.7380
vn -0.0660 0.9977 0.0157
vn -0.2585 0.9642 0.0588
vn -0.2347 0.9466 0.2211
vn -0.5326 0.8382 0.1176
vn -0.2348 0.9466 0.2212
vn -0.5329 0.8380 0.1178
vn -0.8231 0.5390 0.1789
vn -0.6603 0.4736 0.5828
vn -0.4578 0.7873 0.4130
vn -0.8229 0.5393 0.1789
vn -0.9659 0.1519 0.2098
vn -0.7429 0.1283 0.6570
vn -0.6602 0.4739 0.5827
vn 0.0001 0.9400 -0.3413
vn -0.0000 0.8510 -0.5251
vn 0.0475 0.9963 0.0712
vn 0.2371 0.9603 0.1469
vn 0.0620 0.9973 0.0383
vn 0.1794 0.9463 0.2690
vn 0.4786 0.8262 0.2971
vn 0.2372 0.9603 0.1470
vn 0.4920 0.4618 0.7380
vn 0.7244 0.5223 0.4500
vn 0.4786 0.8263 0.2970
vn 0.4921 0.4617 0.7380
vn 0.5504 0.1244 0.8256
vn 0.8403 0.1459 0.5221
vn 0.7245 0.5221 0.4500
vn -0.0000 0.4630 -0.8863
vn -0.0000 0.1315 -0.9913
vn 0.0001 0.1459 -0.9893
vn 0.0001 -0.7779 -0.6284
vn 0.0001 -0.8511 -0.5251
vn -0.0102 -0.9929 0.1185
vn -0.0382 -0.8972 0.4400
vn -0.0225 -0.9907 0.1341
vn -0.0382 -0.8972 0.4401
vn -0.0670 -0.6429 0.7630
vn -0.0670 -0.6428 0.7631
vn -0.0833 -0.3281 0.9410
vn -0.1457 -0.6204 0.7706
vn -0.0882 -0.0813 0.9928
vn -0.1866 -0.0772 0.9794
vn 0.0001 0.7779 -0.6283
vn -0.0001 0.5457 -0.8379
vn -0.0000 0.1461 -0.9893
vn 0.2508 0.9673 0.0366
vn 0.5235 0.8486 0.0768
vn 0.2509 0.9673 0.0366
vn 0.4786 0.8262 0.2970
vn 0.7245 0.5222 0.4499
vn 0.8231 0.5548 0.1213
vn 0.5236 0.8485 0.0769
vn 0.7244 0.5223 0.4499
vn 0.8403 0.1461 0.5220
vn 0.9769 0.1577 0.1443
vn 0.8231 0.5549 0.1213
vn 0.0001 0.9400 -0.3412
vn 0.0001 0.1316 -0.9913
vn 0.0255 -0.9954 0.0929
vn 0.0298 -0.9327 0.3595
vn 0.0077 -0.9956 0.0932
vn 0.1780 -0.7427 0.6455
vn 0.0561 -0.7343 0.6765
vn 0.0298 -0.9326 0.3596
vn 0.2414 -0.4203 0.8747
vn 0.0755 -0.4100 0.9090
vn 0.2414 -0.4201 0.8748
vn 0.0825 -0.1067 0.9909
vn 0.0755 -0.4098 0.9090
vn -0.0629 -0.9960 0.0627
vn -0.2585 -0.9642 0.0588
vn -0.0660 -0.9977 0.0157
vn -0.2349 -0.9465 0.2212
vn -0.5327 -0.8381 0.1177
vn -0.2587 -0.9642 0.0589
vn -0.4578 -0.7873 0.4130
vn -0.6603 -0.4736 0.5829
vn -0.8231 -0.5390 0.1789
vn -0.5329 -0.8379 0.1178
vn -0.6601 -0.4741 0.5827
vn -0.7429 -0.1285 0.6569
vn -0.9658 -0.1522 0.2098
vn -0.8228 -0.5395 0.1788
vn 0.0001 -0.9400 -0.3413
vn 0.0001 0.7780 -0.6282
vn 0.0001 0.8511 -0.5250
vn 0.0001 0.5455 -0.8381
vn -0.0001 0.1458 -0.9893
vn -0.0000 0.1314 -0.9913
vn -0.0000 0.4628 -0.8864
vn 0.2377 0.1151 -0.9645
vn 0.2377 -0.1151 -0.9645
vn 0.0001 0.1301 -0.9915
vn 0.0001 -0.1301 -0.9915
vn -0.0001 0.1460 -0.9893
vn -0.0001 -0.1460 -0.9893
vn 0.0001 -0.1460 -0.9893
vn 0.0001 0.1460 -0.9893
vn -0.0001 -0.1290 -0.9916
vn -0.0001 0.1290 -0.9916
vn -0.8140 -0.1480 -0.5616
vn -0.8140 0.1480 -0.5616
vn -0.0000 0.1290 -0.9916
vn -0.0000 -0.1290 -0.9916
vn -0.1867 0.0772 0.9794
vn -0.4184 0.0937 0.9034
vn -0.4185 0.0937 0.9034
vn -0.7429 0.1282 0.6570
vn -0.7429 -0.1282 0.6570
vn -0.4185 -0.0937 0.9034
vn -0.9659 -0.1519 0.2098
vn 0.9769 0.1573 0.1443
vn 0.8404 0.1457 0.5221
vn 0.8404 -0.1457 0.5221
vn 0.9769 -0.1573 0.1443
vn 0.8403 0.1457 0.5222
vn 0.5504 0.1243 0.8256
vn 0.8403 -0.1457 0.5222
vn -0.9659 -0.1519 0.2097
vn -0.9659 0.1519 0.2097
vn -0.8141 0.1480 -0.5616
vn -0.8141 -0.1480 -0.5616
vn 0.5315 -0.1632 -0.8312
vn 0.5315 0.1632 -0.8312
vn 0.9770 0.1573 0.1442
vn 0.9770 -0.1573 0.1442
vn -0.0128 0.9290 -0.3699
vn -0.0125 0.9293 -0.3691
vn -0.0032 0.9956 -0.0941
vn -0.0033 0.9955 -0.0948
vn -0.0082 0.9293 -0.3693
vn -0.0021 0.9956 -0.0942
vn -0.0083 0.9293 -0.3693
vn -0.0040 0.9292 -0.3696
vn -0.0010 0.9955 -0.0942
vn -0.0040 0.9292 -0.3695
vn -0.0008 0.9288 -0.3706
vn -0.0002 0.9955 -0.0946
vn -0.0010 0.9956 -0.0942
vn -0.0028 0.1012 -0.9949
vn -0.0113 0.1013 -0.9948
vn -0.0113 -0.1013 -0.9948
vn -0.0028 -0.1012 -0.9949
vn -0.0113 0.1014 -0.9948
vn -0.0226 0.1014 -0.9946
vn -0.0226 -0.1014 -0.9946
vn -0.0113 -0.1014 -0.9948
vn -0.0226 0.1015 -0.9946
vn -0.0339 0.1014 -0.9943
vn -0.0339 -0.1014 -0.9943
vn -0.0226 -0.1015 -0.9946
vn -0.0343 0.1016 -0.9942
vn -0.0343 -0.1016 -0.9942
vn -0.0239 0.7210 -0.6925
vn -0.0236 0.7209 -0.6926
vn -0.0125 0.9293 -0.3692
vn -0.0128 0.9289 -0.3700
vn -0.0236 0.7209 -0.6927
vn -0.0156 0.7208 -0.6929
vn -0.0083 0.9292 -0.3694
vn -0.0125 0.9292 -0.3693
vn -0.0156 0.7209 -0.6928
vn -0.0077 0.7207 -0.6932
vn -0.0077 0.7206 -0.6933
vn -0.0017 0.7198 -0.6942
vn -0.0008 0.9288 -0.3707
vn -0.0374 -0.3827 0.9231
vn 0.0141 -0.4112 0.9114
vn 0.0154 -0.1068 0.9942
vn -0.0400 -0.0982 0.9944
vn 0.0282 -0.4112 0.9111
vn 0.0307 -0.1068 0.9938
vn 0.0281 -0.4112 0.9111
vn 0.0423 -0.4110 0.9106
vn 0.0461 -0.1067 0.9932
vn 0.0307 -0.1067 0.9938
vn 0.0423 -0.4111 0.9106
vn 0.0406 -0.4127 0.9100
vn 0.0443 -0.1070 0.9933
vn -0.0028 -0.1011 -0.9949
vn -0.0103 -0.3951 -0.9186
vn -0.0025 -0.3943 -0.9190
vn -0.0208 -0.3953 -0.9183
vn -0.0339 -0.1015 -0.9943
vn -0.0313 -0.3954 -0.9180
vn -0.0208 -0.3954 -0.9183
vn -0.0316 -0.3957 -0.9179
vn -0.0313 -0.3953 -0.9180
vn -0.0166 -0.9214 0.3881
vn 0.0055 -0.9344 0.3561
vn 0.0105 -0.7365 0.6764
vn -0.0294 -0.7055 0.7081
vn 0.0111 -0.9344 0.3560
vn 0.0209 -0.7365 0.6762
vn 0.0166 -0.9344 0.3559
vn 0.0314 -0.7364 0.6758
vn 0.0210 -0.7365 0.6761
vn 0.0166 -0.9343 0.3560
vn 0.0157 -0.9355 0.3530
vn 0.0301 -0.7383 0.6738
vn 0.0314 -0.7363 0.6759
vn -0.0239 -0.7209 -0.6926
vn -0.0236 -0.7208 -0.6927
vn -0.0313 -0.3955 -0.9180
vn -0.0316 -0.3958 -0.9178
vn -0.0236 -0.7209 -0.6927
vn -0.0156 -0.7208 -0.6929
vn -0.0208 -0.3955 -0.9182
vn -0.0313 -0.3955 -0.9179
vn -0.0156 -0.7208 -0.6930
vn -0.0077 -0.7205 -0.6934
vn -0.0104 -0.3952 -0.9185
vn -0.0077 -0.7206 -0.6933
vn -0.0017 -0.7197 -0.6943
vn -0.0025 -0.3945 -0.9189
vn -0.0103 -0.3952 -0.9185
vn -0.0128 -0.9290 -0.3700
vn -0.0125 -0.9293 -0.3692
vn -0.0236 -0.7209 -0.6926
vn -0.0239 -0.7210 -0.6925
vn -0.0083 -0.9292 -0.3694
vn -0.0156 -0.7209 -0.6929
vn -0.0083 -0.9293 -0.3693
vn -0.0040 -0.9292 -0.3696
vn -0.0077 -0.7207 -0.6932
vn -0.0040 -0.9292 -0.3697
vn -0.0008 -0.9288 -0.3707
vn -0.0017 -0.7198 -0.6942
vn -0.0316 0.3958 -0.9178
vn -0.0313 0.3955 -0.9180
vn -0.0236 0.7208 -0.6927
vn -0.0239 0.7209 -0.6926
vn -0.0313 0.3955 -0.9179
vn -0.0208 0.3954 -0.9183
vn -0.0156 0.7208 -0.6930
vn -0.0103 0.3952 -0.9185
vn -0.0077 0.7205 -0.6934
vn -0.0025 0.3944 -0.9189
vn -0.0017 0.7197 -0.6943
vn -0.0166 0.9215 0.3880
vn 0.0055 0.9345 0.3560
vn 0.0014 0.9959 0.0906
vn -0.0045 0.9947 0.1026
vn 0.0111 0.9344 0.3560
vn 0.0028 0.9959 0.0906
vn 0.0014 0.9959 0.0907
vn 0.0111 0.9344 0.3559
vn 0.0166 0.9344 0.3558
vn 0.0043 0.9959 0.0906
vn 0.0157 0.9355 0.3529
vn 0.0039 0.9960 0.0890
vn 0.0042 0.9959 0.0905
vn -0.0033 -0.9955 -0.0948
vn -0.0032 -0.9956 -0.0941
vn -0.0125 -0.9293 -0.3691
vn -0.0128 -0.9290 -0.3699
vn -0.0021 -0.9956 -0.0941
vn -0.0021 -0.9956 -0.0942
vn -0.0010 -0.9955 -0.0943
vn -0.0010 -0.9955 -0.0942
vn -0.0002 -0.9955 -0.0947
vn -0.0008 -0.9288 -0.3706
vn -0.0294 0.7055 0.7081
vn 0.0105 0.7365 0.6763
vn 0.0055 0.9344 0.3561
vn -0.0166 0.9215 0.3881
vn 0.0105 0.7365 0.6764
vn 0.0209 0.7365 0.6762
vn 0.0210 0.7365 0.6761
vn 0.0314 0.7364 0.6758
vn 0.0166 0.9344 0.3559
vn 0.0314 0.7363 0.6759
vn 0.0301 0.7383 0.6738
vn 0.0157 0.9355 0.3530
vn 0.0166 0.9344 0.3560
vn -0.0400 -0.0981 0.9944
vn 0.0154 -0.1067 0.9942
vn 0.0154 0.1067 0.9942
vn -0.0400 0.0981 0.9944
vn 0.0307 -0.1066 0.9938
vn 0.0307 0.1066 0.9938
vn 0.0461 -0.1066 0.9932
vn 0.0461 0.1066 0.9932
vn 0.0443 -0.1069 0.9933
vn 0.0443 0.1069 0.9933
vn -0.0002 -0.9955 -0.0946
vn -0.0010 -0.9956 -0.0941
vn 0.0014 -0.9959 0.0905
vn -0.0045 -0.9947 0.1026
vn -0.0021 -0.9956 -0.0940
vn 0.0028 -0.9959 0.0905
vn -0.0032 -0.9956 -0.0940
vn 0.0043 -0.9959 0.0905
vn 0.0039 -0.9960 0.0889
vn 0.0042 -0.9959 0.0905
vn -0.0374 0.3828 0.9231
vn 0.0141 0.4114 0.9114
vn -0.0293 0.7054 0.7082
vn 0.0141 0.4113 0.9114
vn 0.0282 0.4112 0.9111
vn 0.0209 0.7364 0.6762
vn 0.0423 0.4111 0.9106
vn 0.0210 0.7364 0.6763
vn 0.0406 0.4128 0.9099
vn 0.0301 0.7383 0.6739
vn 0.0314 0.7363 0.6760
vn 0.0014 0.9959 0.0905
vn -0.0010 0.9956 -0.0941
vn -0.0021 0.9956 -0.0940
vn 0.0043 0.9959 0.0905
vn -0.0032 0.9956 -0.0940
vn 0.0039 0.9960 0.0889
vn 0.0014 -0.9959 0.0906
vn 0.0055 -0.9345 0.3560
vn -0.0166 -0.9215 0.3880
vn 0.0028 -0.9959 0.0906
vn 0.0111 -0.9345 0.3559
vn 0.0043 -0.9959 0.0906
vn 0.0042 -0.9959 0.0906
vn 0.0039 -0.9960 0.0890
vn 0.0157 -0.9355 0.3528
vn 0.0166 -0.9344 0.3558
vn -0.0400 0.0982 0.9944
vn 0.0154 0.1068 0.9942
vn 0.0141 0.4112 0.9114
vn -0.0374 0.3827 0.9231
vn 0.0307 0.1068 0.9938
vn 0.0461 0.1067 0.9932
vn 0.0423 0.4110 0.9106
vn 0.0282 0.4111 0.9111
vn 0.0443 0.1071 0.9933
vn 0.0406 0.4127 0.9100
vn -0.0343 0.1017 -0.9942
vn -0.0339 0.1015 -0.9943
vn -0.0313 0.3954 -0.9180
vn -0.0316 0.3957 -0.9178
vn -0.0103 0.3951 -0.9186
vn -0.0208 0.3953 -0.9183
vn -0.0028 0.1011 -0.9949
vn -0.0025 0.3943 -0.9190
vn -0.0294 -0.7054 0.7082
vn 0.0141 -0.4113 0.9114
vn -0.0374 -0.3828 0.9231
vn 0.0210 -0.7364 0.6762
vn 0.0282 -0.4113 0.9111
vn 0.0209 -0.7364 0.6763
vn 0.0422 -0.4112 0.9106
vn 0.0315 -0.7362 0.6760
vn 0.0301 -0.7382 0.6739
vn 0.0406 -0.4127 0.9099
vn 0.4521 -0.5405 -0.7095
vn -0.0316 -0.3957 -0.9178
vn -0.0343 -0.1017 -0.9942
vn 0.2133 -0.4472 -0.8686
vn 0.2376 -0.1152 -0.9645
vn -0.0025 -0.3944 -0.9189
vn 0.4521 -0.5405 -0.7096
vn 0.2913 -0.8356 -0.4657
vn 0.1493 -0.7747 -0.6145
vn 0.2132 -0.4472 -0.8686
vn 0.1491 -0.9581 -0.2447
vn -0.0128 -0.9289 -0.3700
vn -0.0239 -0.7210 -0.6926
vn 0.0712 -0.9525 -0.2960
vn 0.1493 -0.7747 -0.6144
vn 0.0155 -0.9978 -0.0649
vn 0.0157 -0.9355 0.3529
vn 0.0077 -0.9956 0.0933
vn -0.0382 -0.8972 0.4399
vn -0.0045 -0.9947 0.1027
vn -0.0166 -0.9215 0.3881
vn 0.0561 -0.7344 0.6764
vn 0.0406 -0.4128 0.9099
vn -0.0833 -0.3282 0.9409
vn 0.0755 -0.4099 0.9090
vn 0.0824 -0.1068 0.9909
vn -0.0882 -0.0814 0.9928
vn -0.0833 -0.3280 0.9410
vn -0.0374 -0.3826 0.9231
vn -0.0401 -0.0982 0.9944
vn -0.0045 0.9947 0.1027
vn -0.0382 0.8972 0.4400
vn 0.0077 0.9956 0.0932
vn 0.0561 0.7344 0.6764
vn -0.0294 0.7054 0.7082
vn -0.0833 0.3282 0.9409
vn 0.0755 0.4099 0.9090
vn -0.0401 0.0982 0.9944
vn -0.0374 0.3826 0.9231
vn -0.0833 0.3280 0.9410
vn 0.0824 0.1068 0.9909
vn 0.0755 0.4098 0.9090
vn 0.0443 0.1070 0.9933
vn 0.1491 0.9581 -0.2447
vn -0.0008 0.9288 -0.3705
vn 0.0155 0.9978 -0.0649
vn 0.2913 0.8356 -0.4658
vn 0.1493 0.7747 -0.6144
vn 0.0712 0.9525 -0.2960
vn 0.2913 0.8356 -0.4657
vn 0.4521 0.5405 -0.7096
vn 0.2132 0.4472 -0.8686
vn 0.1493 0.7747 -0.6145
vn 0.4521 0.5405 -0.7095
vn 0.5315 0.1633 -0.8312
vn 0.2376 0.1152 -0.9645
vn 0.2133 0.4472 -0.8686
vn 0.2376 -0.1151 -0.9645
vn 0.2376 0.1151 -0.9645
vn -0.0000 0.9950 -0.0999
vn -0.0102 0.9929 0.1184
vn 0.0004 0.9948 -0.1020
vn -0.0663 0.9967 -0.0461
vn -0.0225 0.9907 0.1340
vn -0.0002 0.9949 -0.1010
vn 0.0430 0.9965 -0.0721
vn -0.0000 -0.9950 -0.0999
vn -0.0225 -0.9907 0.1340
vn -0.0448 -0.9931 0.1087
vn -0.0663 -0.9967 -0.0461
vn 0.0004 -0.9948 -0.1020
vn -0.0002 -0.9949 -0.1010
vn -0.0102 -0.9929 0.1184
vn 0.0474 -0.9963 0.0712
vn 0.0430 -0.9965 -0.0721
vn -0.0401 -0.0981 0.9944
vn -0.0401 0.0981 0.9944
vn 0.0824 -0.1067 0.9909
vn 0.0824 0.1067 0.9909
s 1
usemtl chrome.001
f 1//1 2//2 3//3 4//4
f 5//5 6//6 7//7 8//8
f 9//9 10//10 11//11 12//12
f 13//13 14//14 15//15 16//16
f 17//17 18//18 19//19 20//20
f 21//18 22//21 23//22 24//23
f 25//24 26//25 27//26 28//27
f 29//25 30//28 31//29 32//26
f 33//30 34//31 35//32 36//33
f 37//31 38//34 39//35 40//36
f 41//37 42//38 43//39 44//40
f 45//38 46//41 47//42 48//39
f 49//43 50//44 51//45 52//46
f 53//44 54//47 55//48 56//45
f 57//49 58//50 59//51 60//52
f 61//53 62//54 63//55 64//56
f 65//57 66//10 67//58 68//59
f 69//60 70//61 71//62 72//63
f 73//64 74//65 75//66 76//67
f 77//68 78//69 79//70 80//32
f 81//20 82//19 83//18 84//71
f 85//72 86//27 87//73 88//18
f 89//74 90//26 91//25 92//24
f 93//26 94//29 95//28 96//25
f 97//75 98//76 99//19 100//20
f 101//18 102//21 103//22 104//23
f 105//24 106//25 107//26 108//27
f 109//25 110//28 111//29 112//26
f 113//77 114//78 115//79 116//80
f 117//81 118//82 119//83 120//79
f 121//84 122//85 123//86 124//87
f 125//88 126//89 127//90 128//91
f 129//92 130//93 131//94 132//95
f 133//96 134//97 135//98 136//99
f 137//100 138//101 139//102 140//103
f 141//104 142//105 143//106 144//102
f 145//71 146//18 147//19 148//20
f 149//107 150//108 151//74 152//109
f 153//24 154//25 155//26 156//27
f 157//25 158//28 159//29 160//26
f 161//110 162//111 163//112 164//113
f 165//114 166//115 167//116 168//112
f 169//117 170//118 171//119 172//120
f 173//121 174//122 175//123 176//124
f 177//125 178//126 179//127 180//128
f 181//129 182//130 183//131 184//132
f 185//133 186//134 187//135 188//136
f 189//137 190//138 191//139 192//140
f 193//141 194//142 195//19 196//20
f 197//142 198//143 199//27 200//19
f 201//144 202//102 203//26 204//27
f 205//145 206//106 207//29 208//26
f 209//146 210//147 211//148 212//149
f 213//150 214//151 215//152 216//153
f 217//154 218//155 219//156 220//157
f 221//158 222//159 223//160 224//161
f 225//162 226//163 227//164 228//165
f 229//166 230//167 231//168 232//169
f 233//170 234//171 235//172 236//173
f 237//174 238//175 239//176 240//177
f 241//178 242//179 243//180 244//181
f 245//182 246//183 247//184 248//185
f 249//186 250//187 251//188 252//189
f 253//190 254//191 255//192 256//193
f 257//194 258//195 259//196 260//197
f 261//198 262//199 263//200 264//44
f 265//201 266//202 267//203 268//47
f 269//204 270//205 271//206 272//53
f 273//207 274//23 275//208 276//209
f 277//109 278//210 279//152 280//211
f 281//27 282//26 283//212 284//213
f 285//26 286//29 287//214 288//215
f 289//216 290//45 291//217 292//218
f 293//219 294//220 295//221 296//222
f 297//52 298//51 299//223 300//224
f 301//51 302//225 303//226 304//223
f 305//113 306//227 307//31 308//30
f 309//227 310//228 311//229 312//31
f 313//228 314//230 315//38 316//229
f 317//230 318//231 319//41 320//38
f 321//232 322//233 323//234 324//235
f 325//236 326//237 327//238 328//239
f 329//240 330//241 331//242 332//243
f 333//244 334//245 335//246 336//247
f 337//248 338//249 339//250 340//17
f 341//72 342//251 343//21 344//18
f 345//251 346//252 347//253 348//21
f 349//26 350//29 351//28 352//25
f 353//80 354//79 355//254 356//255
f 357//256 358//83 359//257 360//258
f 361//259 362//91 363//260 364//261
f 365//262 366//263 367//264 368//265
f 369//266 370//267 371//268 372//269
f 373//270 374//271 375//272 376//273
f 377//274 378//275 379//276 380//277
f 381//278 382//279 383//280 384//281
f 385//30 386//31 387//282 388//283
f 389//284 390//34 391//285 392//286
f 393//34 394//287 395//288 396//285
f 397//289 398//290 399//291 400//292
f 401//293 402//294 403//109 404//248
f 405//18 406//21 407//27 408//72
f 409//24 410//25 411//26 412//27
f 413//25 414//28 415//29 416//26
f 417//295 418//296 419//179 420//178
f 421//297 422//298 423//299 424//300
f 425//301 426//302 427//190 428//303
f 429//304 430//305 431//306 432//307
f 433//30 434//31 435//282 436//283
f 437//31 438//308 439//285 440//286
f 441//229 442//309 443//288 444//310
f 445//38 446//290 447//291 448//311
f 449//312 450//313 451//166 452//314
f 453//315 454//316 455//170 456//317
f 457//316 458//318 459//319 460//170
f 461//320 462//321 463//322 464//323
f 465//283 466//282 467//31 468//30
f 469//282 470//310 471//229 472//31
f 473//324 474//288 475//309 476//229
f 477//325 478//326 479//290 480//327
f 481//207 482//23 483//328 484//329
f 485//72 486//251 487//73 488//18
f 489//27 490//26 491//25 492//24
f 493//26 494//29 495//28 496//25
f 497//330 498//331 499//332 500//17
f 501//72 502//27 503//24 504//333
f 505//27 506//26 507//25 508//24
f 509//26 510//29 511//28 512//25
f 513//283 514//282 515//31 516//30
f 517//286 518//285 519//34 520//31
f 521//285 522//288 523//38 524//229
f 525//334 526//291 527//290 528//335
f 529//30 530//31 531//282 532//283
f 533//31 534//229 535//310 536//282
f 537//37 538//309 539//336 540//310
f 541//289 542//290 543//291 544//292
f 545//71 546//18 547//19 548//337
f 549//18 550//21 551//22 552//72
f 553//24 554//25 555//26 556//27
f 557//25 558//28 559//29 560//26
f 561//17 562//338 563//339 564//248
f 565//18 566//24 567//27 568//72
f 569//21 570//253 571//26 572//27
f 573//25 574//28 575//29 576//26
f 577//181 578//180 579//233 580//232
f 581//340 582//341 583//342 584//343
f 585//341 586//344 587//345 588//342
f 589//346 590//347 591//348 592//349
f 593//350 594//351 595//352 596//194
f 597//3 598//353 599//199 600//354
f 601//355 602//356 603//357 604//358
f 605//359 606//360 607//361 608//362
f 609//30 610//31 611//282 612//283
f 613//284 614//34 615//285 616//363
f 617//364 618//309 619//288 620//285
f 621//289 622//290 623//291 624//292
f 625//365 626//164 627//366 628//367
f 629//368 630//173 631//369 632//370
f 633//168 634//371 635//372 636//373
f 637//374 638//375 639//376 640//377
f 641//283 642//282 643//31 644//30
f 645//286 646//285 647//229 648//31
f 649//310 650//288 651//309 652//229
f 653//378 654//291 655//290 656//335
f 657//283 658//282 659//31 660//30
f 661//282 662//310 663//229 664//31
f 665//324 666//288 667//309 668//229
f 669//288 670//379 671//380 672//287
f 673//248 674//19 675//333 676//17
f 677//19 678//27 679//24 680//76
f 681//27 682//26 683//253 684//21
f 685//26 686//29 687//28 688//25
f 689//330 690//331 691//332 692//293
f 693//23 694//22 695//381 696//18
f 697//382 698//252 699//253 700//21
f 701//26 702//29 703//28 704//25
f 705//383 706//384 707//78 708//385
f 709//386 710//387 711//84 712//81
f 713//388 714//389 715//85 716//390
f 717//389 718//391 719//392 720//85
f 721//283 722//282 723//31 724//30
f 725//282 726//310 727//229 728//31
f 729//324 730//288 731//287 732//34
f 733//336 734//291 735//41 736//38
f 737//30 738//31 739//282 740//283
f 741//284 742//308 743//285 744//363
f 745//364 746//287 747//288 748//393
f 749//394 750//395 751//326 752//292
f 753//17 754//294 755//339 756//248
f 757//18 758//24 759//27 760//72
f 761//24 762//253 763//26 764//27
f 765//25 766//28 767//29 768//26
f 769//367 770//366 771//396 772//266
f 773//366 774//373 775//397 776//398
f 777//399 778//400 779//401 780//402
f 781//403 782//404 783//405 784//406
f 785//30 786//31 787//282 788//283
f 789//31 790//229 791//310 792//407
f 793//229 794//309 795//288 796//285
f 797//38 798//41 799//379 800//288
f 801//283 802//282 803//31 804//30
f 805//282 806//310 807//229 808//31
f 809//324 810//288 811//287 812//364
f 813//336 814//408 815//290 816//335
f 817//409 818//239 819//410 820//411
f 821//239 822//412 823//413 824//414
f 825//412 826//415 827//416 828//413
f 829//417 830//246 831//418 832//419
f 833//420 834//254 835//421 836//422
f 837//423 838//261 839//424 840//425
f 841//426 842//427 843//428 844//429
f 845//430 846//431 847//432 848//433
f 849//248 850//331 851//250 852//17
f 853//72 854//251 855//21 856//18
f 857//251 858//252 859//434 860//21
f 861//26 862//29 863//28 864//25
f 865//283 866//282 867//31 868//30
f 869//282 870//310 871//229 872//31
f 873//435 874//325 875//327 876//436
f 877//336 878//379 879//290 880//38
f 881//30 882//31 883//282 884//283
f 885//31 886//229 887//310 888//282
f 889//229 890//287 891//288 892//285
f 893//437 894//438 895//439 896//440
f 897//141 898//231 899//441 900//442
f 901//248 902//290 903//443 904//444
f 905//17 906//291 907//445 908//446
f 909//248 910//290 911//291 912//17
f 913//17 914//291 915//290 916//248
f 917//447 918//448 919//291 920//17
f 921//17 922//291 923//290 924//248
f 925//248 926//290 927//291 928//17
f 929//17 930//291 931//290 932//248
f 933//447 934//448 935//291 936//17
f 937//17 938//291 939//290 940//248
f 941//248 942//290 943//291 944//17
f 945//17 946//291 947//290 948//248
f 949//447 950//448 951//291 952//17
f 953//17 954//291 955//290 956//248
f 957//248 958//290 959//291 960//17
f 961//449 962//450 963//290 964//248
f 965//451 966//452 967//453 968//454
f 969//226 970//225 971//392 972//391
f 973//455 974//456 975//90 976//89
f 977//457 978//458 979//459 980//460
f 981//458 982//360 983//461 984//459
f 985//462 986//463 987//464 988//465
f 989//466 990//467 991//245 992//468
f 993//467 994//322 995//246 996//245
f 997//322 998//321 999//418 1000//246
f 1001//469 1002//470 1003//471 1004//472
f 1005//473 1006//474 1007//475 1008//476
f 1009//477 1010//478 1011//479 1012//480
f 1013//478 1014//481 1015//482 1016//479
f 1017//483 1018//484 1019//485 1020//482
f 1021//486 1022//487 1023//488 1024//489
f 1025//490 1026//491 1027//492 1028//493
f 1029//494 1030//495 1031//496 1032//497
f 1033//498 1034//499 1035//500 1036//501
f 1037//499 1038//502 1039//503 1040//500
f 1041//504 1042//505 1043//506 1044//507
f 1045//508 1046//509 1047//510 1048//511
f 1049//512 1050//513 1051//484 1052//483
f 1053//514 1054//515 1055//516 1056//484
f 1057//517 1058//518 1059//519 1060//520
f 1061//518 1062//521 1063//522 1064//519
f 1065//523 1066//524 1067//525 1068//526
f 1069//527 1070//528 1071//529 1072//525
f 1073//530 1074//492 1075//531 1076//532
f 1077//497 1078//501 1079//533 1080//531
f 1081//496 1082//534 1083//535 1084//536
f 1085//500 1086//503 1087//537 1088//538
f 1089//539 1090//540 1091//541 1092//542
f 1093//540 1094//543 1095//544 1096//541
f 1097//543 1098//545 1099//546 1100//547
f 1101//548 1102//549 1103//550 1104//551
f 1105//552 1106//553 1107//554 1108//555
f 1109//556 1110//557 1111//558 1112//559
f 1113//560 1114//561 1115//562 1116//536
f 1117//563 1118//564 1119//565 1120//566
f 1121//567 1122//568 1123//569 1124//570
f 1125//568 1126//571 1127//572 1128//556
f 1129//573 1130//574 1131//575 1132//572
f 1133//576 1134//577 1135//578 1136//563
f 1137//579 1138//580 1139//581 1140//582
f 1141//583 1142//584 1143//585 1144//581
f 1145//584 1146//586 1147//587 1148//585
f 1149//586 1150//588 1151//589 1152//514
f 1153//590 1154//591 1155//592 1156//593
f 1157//591 1158//594 1159//595 1160//596
f 1161//597 1162//598 1163//599 1164//595
f 1165//598 1166//600 1167//601 1168//602
f 1169//603 1170//604 1171//605 1172//606
f 1173//604 1174//607 1175//573 1176//605
f 1177//608 1178//609 1179//574 1180//573
f 1181//610 1182//611 1183//612 1184//574
f 1185//613 1186//614 1187//615 1188//616
f 1189//617 1190//618 1191//594 1192//615
f 1193//619 1194//620 1195//621 1196//594
f 1197//622 1198//623 1199//624 1200//625
f 1201//626 1202//627 1203//628 1204//629
f 1205//627 1206//630 1207//631 1208//628
f 1209//630 1210//632 1211//633 1212//631
f 1213//632 1214//634 1215//635 1216//633
f 1217//636 1218//637 1219//638 1220//639
f 1221//637 1222//640 1223//641 1224//638
f 1225//640 1226//642 1227//643 1228//641
f 1229//642 1230//603 1231//644 1232//645
f 1233//646 1234//647 1235//614 1236//648
f 1237//649 1238//650 1239//651 1240//617
f 1241//650 1242//652 1243//622 1244//653
f 1245//652 1246//654 1247//655 1248//656
f 1249//593 1250//657 1251//658 1252//488
f 1253//657 1254//595 1255//659 1256//658
f 1257//595 1258//660 1259//661 1260//659
f 1261//660 1262//662 1263//480 1264//661
f 1265//639 1266//663 1267//664 1268//665
f 1269//663 1270//666 1271//667 1272//664
f 1273//666 1274//668 1275//545 1276//543
f 1277//669 1278//670 1279//671 1280//672
f 1281//673 1282//674 1283//675 1284//676
f 1285//674 1286//677 1287//650 1288//675
f 1289//677 1290//678 1291//679 1292//680
f 1293//678 1294//681 1295//682 1296//652
f 1297//683 1298//684 1299//685 1300//686
f 1301//684 1302//495 1303//584 1304//685
f 1305//495 1306//491 1307//687 1308//688
f 1309//491 1310//689 1311//690 1312//687
f 1313//691 1314//541 1315//692 1316//693
f 1317//541 1318//694 1319//695 1320//692
f 1321//696 1322//551 1323//697 1324//523
f 1325//698 1326//699 1327//700 1328//527
f 1329//473 1330//701 1331//702 1332//703
f 1333//704 1334//705 1335//493 1336//706
f 1337//707 1338//708 1339//552 1340//555
f 1341//709 1342//710 1343//706 1344//564
f 1345//711 1346//712 1347//713 1348//708
f 1349//714 1350//715 1351//578 1352//577
f 1353//295 1354//603 1355//606 1356//296
f 1357//716 1358//104 1359//612 1360//636
f 1361//717 1362//670 1363//718 1364//410
f 1365//719 1366//383 1367//720 1368//721
f 1369//550 1370//717 1371//414 1372//722
f 1373//387 1374//384 1375//721 1376//542
f 1377//723 1378//550 1379//413 1380//416
f 1381//724 1382//388 1383//691 1384//693
f 1385//529 1386//528 1387//725 1388//726
f 1389//727 1390//728 1391//729 1392//730
f 1393//590 1394//731 1395//218 1396//732
f 1397//313 1398//733 1399//601 1400//600
f 1401//613 1402//616 1403//732 1404//221
f 1405//734 1406//315 1407//600 1408//623
f 1409//646 1410//735 1411//224 1412//736
f 1413//737 1414//316 1415//623 1416//654
f 1417//738 1418//739 1419//740 1420//226
f 1421//741 1422//742 1423//682 1424//743
f 1425//477 1426//480 1427//269 1428//744
f 1429//745 1430//111 1431//746 1432//488
f 1433//504 1434//507 1435//744 1436//747
f 1437//515 1438//748 1439//749 1440//516
f 1441//579 1442//582 1443//750 1444//751
f 1445//589 1446//588 1447//752 1448//753
f 1449//683 1450//686 1451//754 1452//755
f 1453//588 1454//490 1455//756 1456//757
f 1457//473 1458//703 1459//683 1460//755
f 1461//490 1462//493 1463//758 1464//759
f 1465//760 1466//30 1467//761 1468//30
f 1469//761 1470//30 1471//30
f 1472//761 1473//30 1474//30
f 1475//30 1476//760 1477//30
f 1478//30 1479//762 1480//763
f 1481//194 1482//197 1483//764 1484//30
f 1485//30 1486//30 1487//764 1488//761
f 1489//194 1490//30 1491//763 1492//350
f 1493//593 1494//30 1495//760 1496//30
f 1497//30 1498//760 1499//30
f 1500//761 1501//593 1502//30 1503//30
f 1504//30 1505//760 1506//30
f 1507//760 1508//30 1509//593 1510//30
f 1511//30 1512//760 1513//30
f 1514//593 1515//746 1516//765 1517//30
f 1518//593 1519//488 1520//746
f 1521//733 1522//162 1523//365 1524//367
f 1525//367 1526//266 1527//269 1528//733
f 1529//662 1530//733 1531//766 1532//480
f 1533//767 1534//29 1535//639 1536//29
f 1537//768 1538//769 1539//420 1540//29
f 1541//29 1542//767 1543//29
f 1544//420 1545//422 1546//770 1547//29
f 1548//767 1549//29 1550//639 1551//29
f 1552//771 1553//29 1554//770
f 1555//772 1556//716 1557//639 1558//29
f 1559//716 1560//636 1561//639
f 1562//767 1563//29 1564//773 1565//29
f 1566//29 1567//29 1568//773
f 1569//29 1570//29 1571//773
f 1572//29 1573//639 1574//773 1575//29
f 1576//29 1577//773 1578//768 1579//29
f 1580//29 1581//767 1582//29
f 1583//29 1584//767 1585//29
f 1586//29 1587//767 1588//29
f 1589//774 1590//235 1591//411 1592//181
f 1593//644 1594//603 1595//775 1596//411
f 1597//181 1598//411 1599//295 1600//178
f 1601//776 1602//777 1603//226 1604//391
f 1605//635 1606//634 1607//778 1608//779
