# Blender 5.0.1
# www.blender.org
mtllib HugoInspoToolRotator.mtl
o Rotator
v -0.050000 0.000000 0.100000
v -1.499999 -0.001951 -0.009808
v -0.220000 0.050000 -0.069126
v -1.499999 -0.003827 -0.009239
v -0.229996 -0.000000 0.020000
v -0.100000 -0.000000 0.100000
v -0.220000 0.046084 -0.075000
v -1.499999 -0.005556 -0.008314
v -0.229996 -0.003902 0.019616
v -0.050000 -0.019509 0.098079
v -1.499999 -0.007071 -0.007071
v -0.229996 -0.007654 0.018478
v -0.220000 0.049702 -0.071374
v -1.499999 -0.008315 -0.005555
v -0.100000 -0.019509 0.098079
v -0.229996 -0.011111 0.016629
v -1.499999 -0.009239 -0.003827
v -0.220000 0.048853 -0.073279
v -0.050000 -0.038268 0.092388
v -1.499999 -0.009808 -0.001951
v -0.229996 -0.014142 0.014142
v -1.499999 -0.010000 0.000000
v -0.220000 0.047582 -0.074553
v -0.100000 -0.038268 0.092388
v -1.499999 -0.009808 0.001951
v -0.229996 -0.016629 0.011111
v -0.220000 0.023916 -0.075000
v -0.050000 -0.055557 0.083147
v -1.499999 -0.009239 0.003827
v -0.220000 0.020000 -0.069126
v -1.499999 -0.008315 0.005556
v -0.229996 -0.018478 0.007654
v -0.100000 -0.055557 0.083147
v -0.220000 0.022418 -0.074553
v -1.499999 -0.007071 0.007071
v -0.229996 -0.019616 0.003902
v -1.499999 -0.005556 0.008315
v -0.050000 -0.070711 0.070711
v -0.229996 -0.020000 0.000000
v -0.220000 0.021147 -0.073279
v -1.499999 -0.003827 0.009239
v -0.100000 -0.070711 0.070711
v -1.499999 -0.001951 0.009808
v -0.229996 -0.019616 -0.003902
v -0.220000 0.020298 -0.071374
v -1.499999 -0.000000 0.010000
v -0.050000 -0.083147 0.055557
v -0.229996 -0.018478 -0.007654
v -1.499999 0.001951 0.009808
v -0.220000 0.016084 0.060000
v -0.100000 -0.083147 0.055557
v -1.499999 0.003827 0.009239
v -0.220000 0.020000 0.065874
v -0.229996 -0.016629 -0.011111
v -1.499999 0.005556 0.008315
v -0.220000 0.017582 0.060447
v -0.050000 -0.092388 0.038268
v -0.229996 -0.014142 -0.014142
v -1.499999 0.007071 0.007071
v -0.100000 -0.092388 0.038268
v -0.229996 -0.011111 -0.016629
v -1.499999 0.008315 0.005556
v -0.220000 0.018853 0.061721
v -1.499999 0.009239 0.003827
v -0.050000 -0.098079 0.019509
v -0.229996 -0.007654 -0.018478
v -1.499999 0.009808 0.001951
v -0.220000 0.019702 0.063626
v -0.100000 -0.098079 0.019509
v -0.229996 -0.003902 -0.019616
v -1.499999 0.010000 0.000000
v -0.220000 0.020000 -0.065874
v -1.499999 0.009808 -0.001951
v -0.220000 0.016084 -0.060000
v -0.229996 -0.000000 -0.020000
v -0.050000 -0.100000 -0.000000
v -1.499999 0.009239 -0.003827
v -0.100000 -0.100000 0.000000
v -0.220000 0.019702 -0.063626
v -1.499999 0.008315 -0.005555
v -0.229996 0.003902 -0.019616
v -1.499999 0.007071 -0.007071
v -0.050000 -0.098079 -0.019509
v -0.220000 0.018853 -0.061721
v -1.499999 0.005556 -0.008314
v -0.229996 0.007654 -0.018478
v -0.100000 -0.098079 -0.019509
v -1.499999 0.003827 -0.009239
v -0.220000 0.017582 -0.060447
v -0.229996 0.011111 -0.016629
v -0.220000 0.046084 0.075000
v -1.499999 0.001951 -0.009808
v -0.050000 -0.092388 -0.038268
v -1.499999 -0.000000 -0.010000
v -0.229996 0.014142 -0.014142
v -0.220000 0.050000 0.069126
v -0.100000 -0.092388 -0.038268
v -0.229996 0.016629 -0.011111
v -0.050000 -0.083147 -0.055557
v -0.220000 0.047582 0.074553
v -0.229996 0.018478 -0.007654
v -0.220000 0.048853 0.073279
v -0.100000 -0.083147 -0.055557
v -0.229996 0.019616 -0.003902
v -0.220000 0.049702 0.071374
v -0.050000 -0.070711 -0.070711
v -0.229996 0.020000 0.000000
v -0.100000 -0.070711 -0.070711
v -0.050000 -0.055557 -0.083147
v -0.229996 0.019616 0.003902
v -0.100000 -0.055557 -0.083147
v -0.050000 -0.038268 -0.092388
v -0.229996 0.018478 0.007654
v -0.100000 -0.038268 -0.092388
v -0.229996 0.016629 0.011111
v -0.050000 -0.019509 -0.098079
v -0.100000 -0.019509 -0.098079
v -0.050000 0.000000 -0.100000
v -0.229996 0.014142 0.014142
v -0.100000 -0.000000 -0.100000
v -0.229996 0.011111 0.016629
v -0.050000 0.019509 -0.098079
v -0.100000 0.019509 -0.098079
v -0.229996 0.007654 0.018478
v -0.050000 0.038268 -0.092388
v -0.100000 0.038268 -0.092388
v -0.229996 0.003902 0.019616
v -0.050000 0.055557 -0.083147
v -0.100000 0.055557 -0.083147
v -0.050000 0.070711 -0.070711
v -0.100000 0.070711 -0.070711
v -0.050000 0.083147 -0.055557
v -0.100000 0.083147 -0.055557
v -0.050000 0.092388 -0.038268
v -0.100000 0.092388 -0.038268
v -0.220000 -0.020000 -0.069126
v -0.050000 0.098079 -0.019509
v -0.220000 -0.023916 -0.075000
v -0.220000 -0.020298 -0.071374
v -0.100000 0.098079 -0.019509
v -0.050000 0.100000 -0.000000
v -0.220000 -0.021147 -0.073279
v -0.100000 0.100000 0.000000
v -0.220000 -0.022418 -0.074553
v -0.050000 0.098079 0.019509
v -0.100000 0.098079 0.019509
v -0.050000 0.092388 0.038268
v -0.100000 0.092388 0.038268
v -0.050000 0.083147 0.055557
v -0.100000 0.083147 0.055557
v -0.220000 -0.016084 -0.060000
v -0.220000 -0.020000 -0.065874
v -0.050000 0.070711 0.070711
v -0.100000 0.070711 0.070711
v -0.220000 -0.017582 -0.060447
v -0.050000 0.055557 0.083147
v -0.220000 -0.018853 -0.061721
v -0.100000 0.055557 0.083147
v -0.220000 -0.019702 -0.063626
v -0.050000 0.038268 0.092388
v -0.100000 0.038268 0.092388
v -0.050000 0.019509 0.098079
v -0.100000 0.019509 0.098079
v -0.220000 -0.046084 -0.075000
v -0.220000 -0.050000 -0.069126
v -0.220000 -0.047582 -0.074553
v -0.220000 -0.048853 -0.073279
v -0.220000 -0.049702 -0.071374
v -0.220000 -0.020000 0.065874
v -0.220000 -0.016084 0.060000
v -0.220000 -0.019702 0.063626
v -0.220000 -0.018853 0.061721
v -0.220000 -0.017582 0.060447
v -0.220000 -0.050000 0.069126
v -0.220000 -0.046084 0.075000
v -0.220000 -0.049702 0.071374
v -0.220000 -0.048853 0.073279
v -0.220000 -0.047582 0.074553
v -0.220000 0.020000 0.069126
v -0.220000 0.023916 0.075000
v -0.220000 0.020298 0.071374
v -0.220000 0.021147 0.073279
v -0.220000 0.022418 0.074553
v -0.220000 -0.023916 0.075000
v -0.220000 -0.020000 0.069126
v -0.220000 -0.022418 0.074553
v -0.220000 -0.021147 0.073279
v -0.220000 -0.020298 0.071374
v -0.100000 0.050000 0.069126
v -0.100000 0.049702 0.071374
v -0.100000 0.048853 0.073279
v -0.100000 0.047582 0.074553
v -0.100000 0.023916 0.075000
v -0.100000 0.022418 0.074553
v -0.100000 0.020000 0.069126
v -0.100000 0.020298 0.071374
v -0.100000 0.021147 0.073279
v -0.100000 0.046084 0.075000
v -0.100000 0.049702 -0.071374
v -0.100000 0.050000 -0.069126
v -0.100000 0.047582 -0.074553
v -0.100000 0.046084 -0.075000
v -0.100000 0.045471 -0.075000
v -0.100000 0.048853 -0.073279
v -0.100000 -0.020000 -0.069126
v -0.100000 -0.020298 -0.071374
v -0.100000 -0.021147 -0.073279
v -0.100000 -0.022418 -0.074553
v -0.100000 -0.023916 -0.075000
v -0.100000 -0.046084 -0.075000
v -0.100000 -0.047582 -0.074553
v -0.100000 -0.049702 -0.071374
v -0.100000 -0.050000 -0.069126
v -0.100000 -0.048853 -0.073279
v -0.100000 -0.045471 0.075000
v -0.100000 -0.047582 0.074553
v -0.100000 -0.046084 0.075000
v -0.100000 -0.049702 0.071374
v -0.100000 -0.050000 0.069126
v -0.100000 -0.048853 0.073279
v -0.100000 0.020000 0.065874
v -0.100000 0.018853 0.061721
v -0.100000 0.019702 0.063626
v -0.100000 0.016084 0.060000
v -0.100000 0.017582 0.060447
v -0.100000 -0.016084 0.060000
v -0.100000 -0.018853 0.061721
v -0.100000 -0.017582 0.060447
v -0.100000 -0.019702 0.063626
v -0.100000 -0.021147 0.073279
v -0.100000 -0.020298 0.071374
v -0.100000 -0.023916 0.075000
v -0.100000 -0.022418 0.074553
v -0.100000 -0.020000 0.065874
v -0.100000 -0.020000 0.069126
v -0.100000 0.023916 -0.075000
v -0.100000 0.021147 -0.073279
v -0.100000 0.022418 -0.074553
v -0.100000 0.020000 -0.069126
v -0.100000 0.018853 -0.061721
v -0.100000 0.019702 -0.063626
v -0.100000 0.020298 -0.071374
v -0.100000 0.020000 -0.065874
v -0.100000 -0.018853 -0.061721
v -0.100000 -0.017582 -0.060447
v -0.100000 -0.016084 -0.060000
v -0.100000 -0.020000 -0.065874
v -0.100000 -0.019702 -0.063626
v -0.100000 0.016084 -0.060000
v -0.100000 0.017582 -0.060447
v -0.220000 -0.018478 0.007654
v -0.220000 -0.020000 0.000000
v -0.220000 -0.019616 -0.003902
v -0.220000 -0.019616 0.003902
v -0.220000 -0.018478 -0.007654
v -0.220000 0.003902 0.019616
v -0.220000 -0.000000 0.020000
v -0.220000 -0.007654 -0.018478
v -0.220000 -0.007654 0.018478
v -0.220000 -0.003902 0.019616
v -0.220000 -0.014142 0.014142
v -0.220000 -0.016629 -0.011111
v -0.220000 -0.016629 0.011111
v -0.220000 -0.011111 -0.016629
v -0.220000 -0.014142 -0.014142
v -0.220000 -0.011111 0.016629
v -0.220000 0.016629 0.011111
v -0.220000 0.014142 -0.014142
v -0.220000 0.011111 -0.016629
v -0.220000 0.016629 -0.011111
v -0.220000 0.014142 0.014142
v -0.220000 0.007654 0.018478
v -0.220000 0.003902 -0.019616
v -0.220000 -0.003902 -0.019616
v -0.220000 -0.000000 -0.020000
v -0.220000 0.007654 -0.018478
v -0.220000 0.011111 0.016629
v -0.220000 0.018478 -0.007654
v -0.220000 0.018478 0.007654
v -0.220000 0.019616 -0.003902
v -0.220000 0.019616 0.003902
v -0.220000 0.020000 0.000000
v -0.243038 -0.000000 0.020000
v -0.243038 -0.003902 0.019616
v -0.243038 -0.007654 0.018478
v -0.243038 -0.011111 0.016629
v -0.243038 -0.014142 0.014142
v -0.243038 -0.016629 0.011111
v -0.243038 -0.018478 0.007654
v -0.243038 -0.019616 0.003902
v -0.243038 -0.020000 0.000000
v -0.243038 -0.019616 -0.003902
v -0.243038 -0.018478 -0.007654
v -0.243038 -0.016629 -0.011111
v -0.243038 -0.014142 -0.014142
v -0.243038 -0.011111 -0.016629
v -0.243038 -0.007654 -0.018478
v -0.243038 -0.003902 -0.019616
v -0.243038 -0.000000 -0.020000
v -0.243038 0.003902 -0.019616
v -0.243038 0.007654 -0.018478
v -0.243038 0.011111 -0.016629
v -0.243038 0.014142 -0.014142
v -0.243038 0.016629 -0.011111
v -0.243038 0.018478 -0.007654
v -0.243038 0.019616 -0.003902
v -0.243038 0.020000 0.000000
v -0.243038 0.019616 0.003902
v -0.243038 0.018478 0.007654
v -0.243038 0.016629 0.011111
v -0.243038 0.014142 0.014142
v -0.243038 0.011111 0.016629
v -0.243038 0.007654 0.018478
v -0.243038 0.003902 0.019616
v -0.243038 0.009808 -0.001951
v -0.243038 0.010000 0.000000
v -0.243038 0.009808 0.001951
v -0.243038 0.009239 0.003827
v -0.243038 0.008315 0.005556
v -0.243038 0.007071 0.007071
v -0.243038 0.005556 0.008315
v -0.243038 0.003827 0.009239
v -0.243038 0.001951 0.009808
v -0.243038 -0.000000 0.010000
v -0.243038 -0.001951 0.009808
v -0.243038 -0.003827 0.009239
v -0.243038 -0.005556 0.008315
v -0.243038 -0.007071 0.007071
v -0.243038 -0.008315 0.005556
v -0.243038 -0.009239 0.003827
v -0.243038 -0.009808 0.001951
v -0.243038 -0.010000 0.000000
v -0.243038 -0.009808 -0.001951
v -0.243038 -0.009239 -0.003827
v -0.243038 -0.008315 -0.005556
v -0.243038 -0.007071 -0.007071
v -0.243038 -0.005556 -0.008315
v -0.243038 -0.003827 -0.009239
v -0.243038 -0.001951 -0.009808
v -0.243038 -0.000000 -0.010000
v -0.243038 0.001951 -0.009808
v -0.243038 0.003827 -0.009239
v -0.243038 0.005556 -0.008315
v -0.243038 0.007071 -0.007071
v -0.243038 0.008315 -0.005556
v -0.243038 0.009239 -0.003827
v -1.999898 -0.000003 0.010000
v -1.999898 -0.000003 -0.010000
v -1.984000 -0.005943 0.008000
v -1.984000 -0.007074 0.007071
v -1.984000 0.009235 -0.003827
v -1.984000 0.009804 -0.001951
v -1.984000 -0.008318 0.005556
v -1.984000 0.009997 0.000000
v -1.984000 -0.009242 0.003827
v -1.984000 0.009804 0.001951
v -1.984000 -0.009811 0.001951
v -1.984000 0.009235 0.003827
v -1.984000 -0.010000 0.000033
v -1.984000 0.008311 0.005556
v -1.984000 -0.010000 -0.000033
v -1.984000 -0.009811 -0.001951
v -1.984000 0.007068 0.007071
v -1.984000 -0.009242 -0.003827
v -1.984000 0.005936 0.008000
v -1.984000 -0.008318 -0.005555
v -1.984000 -0.007074 -0.007071
v -1.984000 -0.005943 -0.008000
v -1.984000 0.005936 -0.008000
v -1.984000 0.007068 -0.007071
v -1.984000 0.008311 -0.005555
v -1.997657 -0.005657 0.008235
v -1.997737 -0.005559 0.008315
v -1.997308 -0.005943 0.008000
v -1.997657 0.005657 0.008229
v -1.997317 0.005936 0.008000
v -1.997742 0.005552 0.008315
v -1.998983 0.003823 0.009239
v -1.998651 0.004444 0.008907
v -1.999729 0.001947 0.009808
v -1.999391 0.003061 0.009470
v -1.997308 -0.005943 -0.008000
v -1.997657 -0.005657 -0.008234
v -1.997737 -0.005559 -0.008314
v -1.999729 0.001947 -0.009808
v -1.998983 0.003823 -0.009239
v -1.999391 0.003061 -0.009470
v -1.999898 0.001036 0.009898
v -1.999846 0.001561 0.009846
v -1.997742 0.005552 -0.008314
v -1.998651 0.004444 -0.008907
v -1.998651 -0.004445 -0.008910
v -1.998980 -0.003830 -0.009239
v -1.999898 0.001036 -0.009897
v -1.999846 0.001561 -0.009846
v -1.999727 -0.001954 0.009808
v -1.999846 -0.001561 0.009847
v -1.999898 -0.001036 0.009899
v -1.997317 0.005936 -0.008000
v -1.997657 0.005657 -0.008229
v -1.999391 -0.003062 -0.009472
v -1.999727 -0.001954 -0.009808
v -1.998980 -0.003830 0.009239
v -1.999391 -0.003062 0.009472
v -1.999846 -0.001561 -0.009846
v -1.999898 -0.001036 -0.009898
v -1.998651 -0.004445 0.008911
v -1.999958 0.000420 0.008000
v -1.999972 0.000285 0.008058
v -1.999963 -0.000370 0.008086
v -1.999929 -0.000715 0.008000
v -1.999898 0.001036 0.009627
v -1.999898 -0.001036 0.009215
v -1.999898 0.001036 -0.008000
v -1.999903 0.000981 -0.008000
v -1.999898 -0.001036 -0.008000
v -1.999906 -0.000953 -0.008000
v -1.998651 -0.004445 -0.008000
v -1.999391 -0.003062 -0.008000
v -1.997657 -0.005657 -0.008000
v -1.997657 0.005657 -0.008000
v -1.998651 0.004444 -0.008000
v -1.999391 0.003061 -0.008000
v -1.999846 0.001561 -0.008000
v -1.999846 -0.001561 -0.008000
v -1.997657 -0.005657 0.008000
v -1.998651 -0.004445 0.008000
v -1.999391 -0.003062 0.008000
v -1.997657 0.005657 0.008000
v -1.998651 0.004444 0.008000
v -1.999391 0.003061 0.008000
v -1.999846 0.001561 0.008000
v -1.999846 -0.001561 0.008000
v -1.992000 0.002200 0.009732
v -1.991158 0.002032 0.009782
v -1.991571 0.002158 0.009744
v -1.992429 0.002158 0.009744
v -1.990999 0.001947 0.009808
v -1.992842 0.002032 0.009782
v -1.993001 0.001947 0.009808
v -1.993001 0.001947 -0.009808
v -1.990999 0.001947 -0.009808
v -1.992842 0.002032 -0.009782
v -1.992000 0.002200 -0.009731
v -1.991571 0.002158 -0.009744
v -1.992429 0.002158 -0.009744
v -1.991158 0.002032 -0.009782
v -1.990444 0.001555 0.009847
v -1.990777 0.001829 0.009820
v -1.989800 -0.000003 0.010000
v -1.989800 -0.000000 0.010000
v -1.989842 0.000429 0.009958
v -1.989967 0.000842 0.009917
v -1.990171 0.001222 0.009880
v -1.994200 -0.000000 0.010000
v -1.994199 -0.000003 0.010000
v -1.993222 0.001829 0.009820
v -1.994158 0.000429 0.009958
v -1.993555 0.001555 0.009847
v -1.994032 0.000842 0.009917
v -1.993829 0.001222 0.009880
v -1.990444 0.001555 -0.009846
v -1.990777 0.001829 -0.009819
v -1.989800 -0.000003 -0.010000
v -1.989800 -0.000000 -0.009999
v -1.989842 0.000429 -0.009957
v -1.989967 0.000842 -0.009916
v -1.990171 0.001222 -0.009879
v -1.994200 -0.000000 -0.009999
v -1.994199 -0.000003 -0.010000
v -1.993222 0.001829 -0.009819
v -1.993555 0.001555 -0.009846
v -1.994158 0.000429 -0.009957
v -1.993829 0.001222 -0.009879
v -1.994032 0.000842 -0.009916
v -1.991011 -0.001954 0.009808
v -1.990444 -0.001556 0.009847
v -1.990777 -0.001829 0.009820
v -1.989842 -0.000429 0.009958
v -1.989967 -0.000842 0.009918
v -1.990171 -0.001222 0.009880
v -1.992988 -0.001954 0.009808
v -1.994158 -0.000429 0.009958
v -1.993222 -0.001829 0.009820
v -1.993555 -0.001556 0.009847
v -1.994032 -0.000842 0.009918
v -1.993829 -0.001222 0.009880
v -1.991011 -0.001954 -0.009808
v -1.991158 -0.002033 -0.009784
v -1.991571 -0.002158 -0.009746
v -1.992000 -0.002200 -0.009733
v -1.992429 -0.002158 -0.009746
v -1.992842 -0.002033 -0.009784
v -1.992988 -0.001954 -0.009808
v -1.992842 -0.002033 0.009784
v -1.991158 -0.002033 0.009784
v -1.991571 -0.002158 0.009746
v -1.992000 -0.002200 0.009734
v -1.992429 -0.002158 0.009746
v -1.989842 -0.000429 -0.009958
v -1.989967 -0.000842 -0.009917
v -1.990777 -0.001829 -0.009820
v -1.990171 -0.001222 -0.009880
v -1.990444 -0.001556 -0.009847
v -1.993222 -0.001829 -0.009820
v -1.994158 -0.000429 -0.009958
v -1.994032 -0.000842 -0.009917
v -1.993829 -0.001222 -0.009880
v -1.993555 -0.001556 -0.009847
v -1.994100 -0.000620 -0.008000
v -1.994158 -0.000429 -0.008000
v -1.994100 0.000619 -0.008000
v -1.994158 0.000429 -0.008000
v -1.994200 -0.000000 -0.008000
v -1.994032 -0.000842 -0.008000
v -1.994032 0.000842 -0.008000
v -1.993829 0.001222 -0.008000
v -1.993829 -0.001222 -0.008000
v -1.993555 -0.001556 -0.008000
v -1.993555 0.001555 -0.008000
v -1.993222 -0.001829 -0.008000
v -1.993222 0.001829 -0.008000
v -1.992842 0.002032 -0.008000
v -1.992842 -0.002033 -0.008000
v -1.992429 -0.002158 -0.008000
v -1.992000 -0.002200 -0.008000
v -1.992000 0.002200 -0.008000
v -1.992429 0.002158 -0.008000
v -1.991571 -0.002158 -0.008000
v -1.991571 0.002158 -0.008000
v -1.991158 0.002032 -0.008000
v -1.991158 -0.002033 -0.008000
v -1.990777 -0.001829 -0.008000
v -1.990777 0.001829 -0.008000
v -1.990444 0.001555 -0.008000
v -1.990444 -0.001556 -0.008000
v -1.990171 0.001222 -0.008000
v -1.989967 0.000842 -0.008000
v -1.990171 -0.001222 -0.008000
v -1.989967 -0.000842 -0.008000
v -1.989842 0.000429 -0.008000
v -1.989842 -0.000429 -0.008000
v -1.989800 -0.000000 -0.008000
v -1.993870 -0.001146 0.008000
v -1.994182 -0.000175 0.008000
v -1.994158 -0.000429 0.008000
v -1.994032 -0.000842 0.008000
v -1.993829 -0.001222 0.008000
v -1.993555 -0.001556 0.008000
v -1.994200 -0.000000 0.008000
v -1.994158 0.000429 0.008000
v -1.993222 -0.001829 0.008000
v -1.994032 0.000842 0.008000
v -1.992842 -0.002033 0.008000
v -1.992429 -0.002158 0.008000
v -1.992000 -0.002200 0.008000
v -1.993829 0.001222 0.008000
v -1.993555 0.001555 0.008000
v -1.991571 -0.002158 0.008000
v -1.993222 0.001829 0.008000
v -1.992842 0.002032 0.008000
v -1.991158 -0.002033 0.008000
v -1.990777 -0.001829 0.008000
v -1.992000 0.002200 0.008000
v -1.992429 0.002158 0.008000
v -1.990444 -0.001556 0.008000
v -1.991571 0.002158 0.008000
v -1.991158 0.002032 0.008000
v -1.990171 -0.001222 0.008000
v -1.989967 -0.000842 0.008000
v -1.989842 -0.000429 0.008000
v -1.990777 0.001829 0.008000
v -1.990444 0.001555 0.008000
v -1.989800 -0.000000 0.008000
v -1.990171 0.001222 0.008000
v -1.989842 0.000429 0.008000
v -1.989967 0.000842 0.008000
vn -0.0000 -0.0980 0.9952
vn -0.0000 -0.2903 0.9569
vn -0.0000 -0.4714 0.8819
vn -0.0000 -0.6344 0.7730
vn -0.0000 -0.7730 0.6344
vn -0.0000 -0.8819 0.4714
vn -0.0000 -0.9569 0.2903
vn -0.0000 -0.9952 0.0980
vn -0.0000 -0.9952 -0.0980
vn -0.0000 -0.9569 -0.2903
vn -0.0000 -0.8819 -0.4714
vn -0.0000 -0.7730 -0.6344
vn -0.0000 -0.6344 -0.7730
vn -0.0000 -0.4714 -0.8819
vn -0.0000 -0.2903 -0.9569
vn -0.0000 -0.0980 -0.9952
vn -0.0000 0.0980 -0.9952
vn -0.0000 0.2903 -0.9569
vn -0.0000 0.4714 -0.8819
vn -0.0000 0.6344 -0.7730
vn -0.0000 0.7730 -0.6344
vn -0.0000 0.8819 -0.4714
vn -0.0000 0.9569 -0.2903
vn -0.0000 0.9952 -0.0980
vn -0.0000 0.9952 0.0980
vn -0.0000 0.9569 0.2903
vn -0.0000 0.8819 0.4714
vn -0.0000 0.7730 0.6344
vn -0.0000 0.6344 0.7730
vn -0.0000 0.4714 0.8819
vn -1.0000 -0.0000 -0.0000
vn -0.0000 0.2903 0.9569
vn -0.0000 0.0980 0.9952
vn 1.0000 -0.0000 -0.0000
vn -0.0000 0.9913 -0.1315
vn -0.0000 0.9135 -0.4069
vn -0.0000 0.7079 -0.7063
vn -0.0000 0.2859 -0.9583
vn -0.0000 0.2859 0.9583
vn -0.0000 0.7079 0.7063
vn -0.0000 0.9135 0.4069
vn -0.0000 0.9913 0.1315
vn -0.0000 -0.2859 -0.9583
vn -0.0000 -0.7079 -0.7063
vn -0.0000 -0.9135 -0.4069
vn -0.0000 -0.9913 -0.1315
vn -0.0000 -0.9913 0.1315
vn -0.0000 -0.9135 0.4069
vn -0.0000 -0.7079 0.7063
vn -0.0000 -0.2859 0.9583
vn -0.0000 -0.0000 -1.0000
vn -0.0000 1.0000 -0.0000
vn -0.0000 -1.0000 -0.0000
vn -0.0000 -0.0000 1.0000
vn -0.9997 -0.0069 0.0254
vn -1.0000 0.0001 -0.0000
vn -0.6344 -0.7730 -0.0000
vn -0.7730 -0.6344 -0.0000
vn -0.8819 -0.4714 -0.0000
vn -0.9569 -0.2903 -0.0000
vn -0.9569 -0.2904 -0.0000
vn -0.9952 -0.0981 -0.0000
vn -0.9952 -0.0980 -0.0000
vn -0.9952 0.0978 -0.0000
vn -0.9952 0.0979 -0.0000
vn -0.9569 0.2904 -0.0000
vn -0.8819 0.4714 -0.0000
vn -0.7730 0.6344 0.0001
vn -0.7730 0.6344 -0.0001
vn -0.6343 0.7731 -0.0000
vn -0.9568 0.2906 -0.0000
vn -0.8820 0.4713 -0.0000
vn -0.7732 0.6342 -0.0000
vn -0.6342 0.7731 -0.0000
vn -0.4714 0.8819 -0.0000
vn -0.4715 0.8819 -0.0000
vn -0.2902 0.9570 -0.0000
vn -0.0980 0.9952 -0.0000
vn 0.0980 0.9952 -0.0000
vn 0.2902 0.9570 -0.0000
vn 0.4714 0.8819 -0.0000
vn 0.6342 0.7731 -0.0000
vn 0.6344 0.7730 -0.0000
vn 0.7732 0.6342 -0.0000
vn 0.8820 0.4713 -0.0000
vn 0.9568 0.2906 -0.0000
vn 0.9952 0.0978 -0.0000
vn 0.9952 0.0977 -0.0000
vn 0.9952 -0.0978 -0.0000
vn 0.9569 -0.2904 -0.0000
vn 0.8819 -0.4715 -0.0000
vn 0.7730 -0.6343 -0.0000
vn 0.6345 -0.7729 -0.0000
vn 0.4714 -0.8819 -0.0000
vn 0.2903 -0.9569 -0.0000
vn 0.0980 -0.9952 -0.0000
vn -0.0980 -0.9952 -0.0000
vn -0.2903 -0.9569 -0.0000
vn -0.2902 -0.9570 -0.0000
vn -0.4715 -0.8819 -0.0000
vn -0.6343 -0.7731 -0.0000
vn -0.7730 -0.6343 -0.0000
vn -0.8819 -0.4715 -0.0000
vn -0.9568 -0.2907 -0.0000
vn -0.9952 -0.0978 -0.0000
vt 1.000000 0.500000
vt 1.000000 1.000000
vt 0.968750 1.000000
vt 0.968750 0.500000
vt 0.937500 1.000000
vt 0.937500 0.500000
vt 0.906250 1.000000
vt 0.906250 0.500000
vt 0.875000 1.000000
vt 0.875000 0.500000
vt 0.843750 1.000000
vt 0.843750 0.500000
vt 0.812500 1.000000
vt 0.812500 0.500000
vt 0.781250 1.000000
vt 0.781250 0.500000
vt 0.750000 1.000000
vt 0.750000 0.500000
vt 0.718750 1.000000
vt 0.718750 0.500000
vt 0.687500 1.000000
vt 0.687500 0.500000
vt 0.656250 1.000000
vt 0.656250 0.500000
vt 0.625000 1.000000
vt 0.625000 0.500000
vt 0.593750 1.000000
vt 0.593750 0.500000
vt 0.562500 1.000000
vt 0.562500 0.500000
vt 0.531250 1.000000
vt 0.531250 0.500000
vt 0.500000 1.000000
vt 0.500000 0.500000
vt 0.468750 1.000000
vt 0.468750 0.500000
vt 0.437500 1.000000
vt 0.437500 0.500000
vt 0.406250 1.000000
vt 0.406250 0.500000
vt 0.375000 1.000000
vt 0.375000 0.500000
vt 0.343750 1.000000
vt 0.343750 0.500000
vt 0.312500 1.000000
vt 0.312500 0.500000
vt 0.281250 1.000000
vt 0.281250 0.500000
vt 0.250000 1.000000
vt 0.250000 0.500000
vt 0.218750 1.000000
vt 0.218750 0.500000
vt 0.187500 1.000000
vt 0.187500 0.500000
vt 0.156250 1.000000
vt 0.156250 0.500000
vt 0.125000 1.000000
vt 0.125000 0.500000
vt 0.093750 1.000000
vt 0.093750 0.500000
vt 0.062500 1.000000
vt 0.062500 0.500000
vt 0.307399 0.430000
vt 0.359130 0.430000
vt 0.341844 0.471731
vt 0.296822 0.485388
vt 0.250000 0.490000
vt 0.203178 0.485388
vt 0.158156 0.471731
vt 0.116663 0.449553
vt 0.080294 0.419706
vt 0.050447 0.383337
vt 0.028269 0.341844
vt 0.014612 0.296822
vt 0.010000 0.250000
vt 0.014612 0.203178
vt 0.028269 0.158156
vt 0.050447 0.116663
vt 0.080294 0.080294
vt 0.116663 0.050447
vt 0.158156 0.028269
vt 0.140870 0.070000
vt 0.139399 0.070000
vt 0.135802 0.071073
vt 0.132753 0.074129
vt 0.130715 0.078703
vt 0.130000 0.084098
vt 0.130000 0.415902
vt 0.130715 0.421297
vt 0.132753 0.425871
vt 0.135802 0.428927
vt 0.139399 0.430000
vt 0.192601 0.430000
vt 0.196198 0.428927
vt 0.199247 0.425871
vt 0.201285 0.421297
vt 0.202000 0.415902
vt 0.202000 0.408098
vt 0.202715 0.402703
vt 0.204753 0.398129
vt 0.207802 0.395073
vt 0.211399 0.394000
vt 0.288601 0.394000
vt 0.292198 0.395073
vt 0.295247 0.398129
vt 0.297285 0.402703
vt 0.298000 0.408098
vt 0.298000 0.415902
vt 0.298715 0.421297
vt 0.300753 0.425871
vt 0.303802 0.428927
vt 0.211399 0.106000
vt 0.207802 0.104927
vt 0.204753 0.101871
vt 0.202715 0.097297
vt 0.202000 0.091902
vt 0.202000 0.084098
vt 0.201285 0.078703
vt 0.199247 0.074129
vt 0.196198 0.071073
vt 0.192601 0.070000
vt 0.203178 0.014612
vt 0.250000 0.010000
vt 0.296822 0.014612
vt 0.341844 0.028269
vt 0.383337 0.050447
vt 0.419706 0.080294
vt 0.449553 0.116663
vt 0.471731 0.158156
vt 0.485388 0.203178
vt 0.490000 0.250000
vt 0.485388 0.296822
vt 0.471731 0.341844
vt 0.449553 0.383337
vt 0.419706 0.419706
vt 0.383337 0.449553
vt 0.360601 0.430000
vt 0.364198 0.428927
vt 0.367247 0.425871
vt 0.369285 0.421297
vt 0.370000 0.415902
vt 0.370000 0.084098
vt 0.369285 0.078703
vt 0.367247 0.074129
vt 0.364198 0.071073
vt 0.360601 0.070000
vt 0.307399 0.070000
vt 0.303802 0.071073
vt 0.300753 0.074129
vt 0.298715 0.078703
vt 0.298000 0.084098
vt 0.298000 0.091902
vt 0.297285 0.097297
vt 0.295247 0.101871
vt 0.292198 0.104927
vt 0.288601 0.106000
vt 0.031250 1.000000
vt 0.031250 0.500000
vt 0.000000 1.000000
vt 0.000000 0.500000
vt 0.703178 0.485388
vt 0.750000 0.490000
vt 0.796822 0.485388
vt 0.841844 0.471731
vt 0.883337 0.449553
vt 0.919706 0.419706
vt 0.949553 0.383337
vt 0.971731 0.341844
vt 0.985388 0.296822
vt 0.990000 0.250000
vt 0.985388 0.203178
vt 0.971731 0.158156
vt 0.949553 0.116663
vt 0.919706 0.080294
vt 0.883337 0.050447
vt 0.841844 0.028269
vt 0.796822 0.014612
vt 0.750000 0.010000
vt 0.703178 0.014612
vt 0.658156 0.028269
vt 0.616663 0.050447
vt 0.580294 0.080294
vt 0.550447 0.116663
vt 0.528269 0.158156
vt 0.514612 0.203178
vt 0.510000 0.250000
vt 0.514612 0.296822
vt 0.528269 0.341844
vt 0.550447 0.383337
vt 0.580294 0.419706
vt 0.616663 0.449553
vt 0.658156 0.471731
vt 0.381044 0.250248
vt 0.381044 0.000000
vt 0.384791 0.000000
vt 0.384791 0.250000
vt 0.376434 0.251434
vt 0.375000 0.000000
vt 0.131044 0.500000
vt 0.131044 0.750000
vt 0.125000 0.750000
vt 0.125000 0.500000
vt 0.134790 0.500000
vt 0.134791 0.750000
vt 0.131044 0.500000
vt 0.868956 0.500000
vt 0.868956 0.750000
vt 0.865210 0.750000
vt 0.865209 0.500000
vt 0.875000 0.500000
vt 0.875000 0.750000
vt 0.618956 0.250248
vt 0.618956 0.000000
vt 0.625000 0.000000
vt 0.623566 0.251434
vt 0.615209 0.250000
vt 0.615209 0.000000
vt 0.371219 0.497985
vt 0.371219 0.752015
vt 0.368473 0.753263
vt 0.368473 0.496737
vt 0.375956 0.499044
vt 0.375956 0.750956
vt 0.381044 0.499752
vt 0.381044 0.750248
vt 0.384791 0.500000
vt 0.384791 0.750000
vt 0.618956 0.499752
vt 0.618956 0.750248
vt 0.615209 0.750000
vt 0.615209 0.500000
vt 0.624044 0.499044
vt 0.624044 0.750956
vt 0.628781 0.497986
vt 0.628781 0.752015
vt 0.631527 0.496736
vt 0.631527 0.753263
vt 0.435438 0.500000
vt 0.435438 0.750000
vt 0.472905 0.750000
vt 0.472905 0.500000
vt 0.375001 0.500000
vt 0.375000 0.750000
vt 0.306044 0.500000
vt 0.306044 0.750000
vt 0.300000 0.750000
vt 0.300000 0.500000
vt 0.309791 0.500000
vt 0.309791 0.750000
vt 0.193956 0.500000
vt 0.193956 0.750000
vt 0.190209 0.750000
vt 0.190209 0.500000
vt 0.200000 0.500000
vt 0.200000 0.750000
vt 0.435438 0.250000
vt 0.435438 0.000000
vt 0.375000 0.250000
vt 0.472905 0.250000
vt 0.472905 0.000000
vt 0.809791 0.500000
vt 0.809791 0.750000
vt 0.806044 0.750000
vt 0.806044 0.500000
vt 0.800000 0.750000
vt 0.800000 0.500000
vt 0.625000 0.250000
vt 0.625000 0.000000
vt 0.564561 0.000000
vt 0.564562 0.250000
vt 0.527095 0.000000
vt 0.527095 0.250000
vt 0.527095 0.500000
vt 0.527095 0.750000
vt 0.564562 0.750000
vt 0.564561 0.500000
vt 0.564562 0.500000
vt 0.625000 0.750000
vt 0.625000 0.500000
vt 0.700000 0.500000
vt 0.700000 0.750000
vt 0.693956 0.750000
vt 0.693956 0.500000
vt 0.690210 0.750000
vt 0.690210 0.500000
vt 0.140110 0.500000
vt 0.140110 0.750000
vt 0.149476 0.750000
vt 0.149476 0.500000
vt 0.435438 0.000000
vt 0.472905 0.000000
vt 0.435438 0.500000
vt 0.472905 0.500000
vt 0.375001 0.500000
vt 0.359891 0.500000
vt 0.359890 0.750000
vt 0.375000 0.500000
vt 0.350524 0.500000
vt 0.350524 0.750000
vt 0.359890 0.500000
vt 0.564562 0.250000
vt 0.564562 0.000000
vt 0.527095 0.000000
vt 0.859890 0.500000
vt 0.859890 0.750000
vt 0.875000 0.500000
vt 0.850524 0.500000
vt 0.850524 0.750000
vt 0.640110 0.500000
vt 0.640110 0.750000
vt 0.649476 0.750000
vt 0.649476 0.500000
vt 0.625000 0.500000
vt 0.564563 0.500000
vt 0.564562 0.750000
vt 0.527095 0.500000
vt 0.564562 0.500000
vt 0.136323 0.750000
vt 0.622132 0.927868
vt 0.618956 0.925745
vt 0.609791 0.925000
vt 0.606044 0.924255
vt 0.602868 0.922133
vt 0.600745 0.918956
vt 0.400000 0.915209
vt 0.486980 0.884546
vt 0.497771 0.893943
vt 0.508193 0.902602
vt 0.517478 0.910193
vt 0.525069 0.916422
vt 0.530641 0.921050
vt 0.534032 0.923900
vt 0.535169 0.924862
vt 0.534032 0.923900
vt 0.530641 0.921050
vt 0.525069 0.916421
vt 0.517478 0.910193
vt 0.508193 0.902602
vt 0.497771 0.893943
vt 0.486980 0.884546
vt 0.476621 0.874774
vt 0.467280 0.865003
vt 0.459224 0.855610
vt 0.452483 0.846959
vt 0.446991 0.839381
vt 0.442698 0.833167
vt 0.439598 0.828552
vt 0.437717 0.825712
vt 0.437085 0.824753
vt 0.437717 0.825712
vt 0.439598 0.828552
vt 0.442698 0.833167
vt 0.446991 0.839381
vt 0.452483 0.846959
vt 0.467279 0.865002
vt 0.400000 0.834790
vt 0.399255 0.831044
vt 0.397132 0.827868
vt 0.393956 0.825745
vt 0.390209 0.825000
vt 0.381044 0.824255
vt 0.377868 0.822133
vt 0.375745 0.818956
vt 0.375000 0.815210
vt 0.624255 0.931044
vt 0.625000 0.934790
vt 0.625000 0.990210
vt 0.624255 0.993956
vt 0.622132 0.997132
vt 0.618956 0.999255
vt 0.615209 1.000000
vt 0.476621 0.874774
vt 0.633150 0.753173
vt 1.000000 0.500197
vt 0.968750 0.500197
vt 0.937500 0.500197
vt 0.906250 0.500197
vt 0.875000 0.500197
vt 0.843750 0.500197
vt 0.812500 0.500197
vt 0.781250 0.500197
vt 0.750000 0.500197
vt 0.718750 0.500197
vt 0.687500 0.500197
vt 0.656250 0.500197
vt 0.625000 0.500197
vt 0.593750 0.500197
vt 0.562500 0.500197
vt 0.531250 0.500197
vt 0.500000 0.500197
vt 0.468750 0.500197
vt 0.437500 0.500197
vt 0.406250 0.500197
vt 0.375000 0.500197
vt 0.343750 0.500197
vt 0.312500 0.500197
vt 0.281250 0.500197
vt 0.250000 0.500197
vt 0.218750 0.500197
vt 0.187500 0.500197
vt 0.156250 0.500197
vt 0.125000 0.500197
vt 0.093750 0.500197
vt 0.062500 0.500197
vt 0.031250 0.500197
vt 0.000000 0.500197
vt 0.132306 0.226589
vt 0.130000 0.250000
vt 0.132306 0.273411
vt 0.139134 0.295922
vt 0.150224 0.316668
vt 0.165147 0.334853
vt 0.183332 0.349776
vt 0.204078 0.360866
vt 0.226589 0.367694
vt 0.250000 0.370000
vt 0.273411 0.367694
vt 0.295922 0.360866
vt 0.316669 0.349776
vt 0.334853 0.334853
vt 0.349776 0.316668
vt 0.360866 0.295922
vt 0.367694 0.273411
vt 0.370000 0.250000
vt 0.367694 0.226589
vt 0.360866 0.204078
vt 0.349776 0.183332
vt 0.334853 0.165147
vt 0.316668 0.150224
vt 0.295922 0.139134
vt 0.273411 0.132306
vt 0.250000 0.130000
vt 0.226589 0.132306
vt 0.204078 0.139134
vt 0.183332 0.150224
vt 0.165147 0.165147
vt 0.150224 0.183332
vt 0.139134 0.204078
vt 0.968750 0.983447
vt 1.000000 0.983447
vt 0.937500 0.983447
vt 0.906250 0.983447
vt 0.875000 0.983447
vt 0.843750 0.983447
vt 0.812500 0.983447
vt 0.781250 0.983447
vt 0.750000 0.983447
vt 0.718750 0.983447
vt 0.687500 0.983447
vt 0.656250 0.983447
vt 0.625000 0.983447
vt 0.593750 0.983447
vt 0.562500 0.983447
vt 0.531250 0.983447
vt 0.500000 0.983447
vt 0.468750 0.983447
vt 0.437500 0.983447
vt 0.406250 0.983447
vt 0.375000 0.983447
vt 0.343750 0.983447
vt 0.312500 0.983447
vt 0.281250 0.983447
vt 0.250000 0.983447
vt 0.218750 0.983447
vt 0.187500 0.983447
vt 0.156250 0.983447
vt 0.125000 0.983447
vt 0.093750 0.983447
vt 0.062500 0.983447
vt 0.031250 0.983447
vt 0.000000 0.983447
vt 0.595767 0.500000
vt 0.601658 0.500000
vt 0.218750 0.500000
vt 0.718750 0.500000
vt 0.398342 0.500000
vt 0.404095 0.500000
vt 0.426274 0.500000
vt 0.875000 0.500000
vt 0.450194 0.500000
vt 0.468750 0.500000
vt 0.467335 0.500000
vt 0.465250 0.500000
vt 0.464546 0.500000
vt 0.465250 0.500000
vt 0.467335 0.500000
vt 0.906250 0.500000
vt 0.898342 0.500000
vt 0.898342 0.500000
vt 0.904233 0.500000
vt 0.049806 0.500000
vt 0.032665 0.500000
vt 0.034750 0.500000
vt 0.035454 0.500000
vt 0.034750 0.500000
vt 0.032665 0.500000
vt 0.470646 0.500000
vt 0.475029 0.500000
vt 0.480369 0.500000
vt 0.486464 0.500000
vt 0.493076 0.500000
vt 0.474946 0.500000
vt 0.483352 0.500000
vt 0.499947 0.500000
vt 0.493075 0.500000
vt 0.486464 0.500000
vt 0.480369 0.500000
vt 0.475029 0.500000
vt 0.470646 0.500000
vt 0.073726 0.500000
vt 0.926395 0.500000
vt 0.006924 0.500000
vt 0.013536 0.500000
vt 0.019631 0.500000
vt 0.024971 0.500000
vt 0.029354 0.500000
vt 0.016648 0.500000
vt 0.025054 0.500000
vt 0.029354 0.500000
vt 0.024971 0.500000
vt 0.019631 0.500000
vt 0.013536 0.500000
vt 0.006925 0.500000
vt 0.000053 0.500000
vt 0.506823 0.500000
vt 0.513433 0.500000
vt 0.519526 0.500000
vt 0.524866 0.500000
vt 0.529248 0.500000
vt 0.516541 0.500000
vt 0.524947 0.500000
vt 0.529248 0.500000
vt 0.524866 0.500000
vt 0.519525 0.500000
vt 0.513433 0.500000
vt 0.506822 0.500000
vt 0.095904 0.500000
vt 0.101658 0.500000
vt 0.950305 0.500000
vt 0.967445 0.500000
vt 0.965359 0.500000
vt 0.964655 0.500000
vt 0.965359 0.500000
vt 0.967445 0.500000
vt 0.549695 0.500000
vt 0.532555 0.500000
vt 0.534641 0.500000
vt 0.535345 0.500000
vt 0.534641 0.500000
vt 0.532555 0.500000
vt 0.970751 0.500000
vt 0.975134 0.500000
vt 0.980474 0.500000
vt 0.986567 0.500000
vt 0.993177 0.500000
vt 0.975054 0.500000
vt 0.983459 0.500000
vt 0.993178 0.500000
vt 0.986567 0.500000
vt 0.980475 0.500000
vt 0.975134 0.500000
vt 0.970752 0.500000
vt 0.573605 0.500000
vt 0.619869 0.624036
vt 0.553252 0.546204
vt 0.516544 0.500004
vt 0.501931 0.514950
vt 0.621293 0.617960
vt 0.624995 0.619738
vt 0.625000 0.633935
vt 0.125104 0.637929
vt 0.125033 0.612040
vt 0.483918 0.500000
vt 0.469517 0.500000
vt 0.499486 0.500000
vt 0.500514 0.500000
vt 0.530483 0.500000
vt 0.559794 0.500000
vt 0.586808 0.500000
vt 0.610485 0.500000
vt 0.440206 0.500000
vt 0.413192 0.500000
vt 0.389515 0.500000
vt 0.125000 0.612050
vt 0.125000 0.612733
vt 0.125000 0.636907
vt 0.125000 0.637950
vt 0.125000 0.644509
vt 0.125000 0.663268
vt 0.125000 0.680557
vt 0.125000 0.695711
vt 0.125000 0.699281
vt 0.125000 0.632747
vt 0.125000 0.630365
vt 0.125000 0.625000
vt 0.125000 0.619635
vt 0.125000 0.617260
vt 0.125000 0.550802
vt 0.125000 0.554289
vt 0.125000 0.569443
vt 0.125000 0.586732
vt 0.125000 0.605491
vt 0.125000 0.699280
vt 0.125000 0.550801
vt 0.125000 0.614476
vt 0.125000 0.609722
vt 0.125000 0.605555
vt 0.125000 0.602135
vt 0.125000 0.599594
vt 0.125000 0.598028
vt 0.125000 0.597500
vt 0.125000 0.598028
vt 0.125000 0.599593
vt 0.125000 0.602135
vt 0.125000 0.605555
vt 0.125000 0.609722
vt 0.125000 0.614476
vt 0.125000 0.619635
vt 0.125000 0.625000
vt 0.125000 0.630365
vt 0.125000 0.635524
vt 0.125000 0.640278
vt 0.125000 0.644445
vt 0.125000 0.647865
vt 0.125000 0.650407
vt 0.125000 0.651972
vt 0.125000 0.652500
vt 0.125000 0.651971
vt 0.125000 0.650407
vt 0.125000 0.647865
vt 0.125000 0.644446
vt 0.125000 0.640278
vt 0.125000 0.635524
vt 0.625000 0.639319
vt 0.625000 0.699281
vt 0.625000 0.695711
vt 0.625000 0.680557
vt 0.625000 0.627182
vt 0.625000 0.630365
vt 0.625000 0.635524
vt 0.625000 0.663268
vt 0.625000 0.644509
vt 0.625000 0.619742
vt 0.625000 0.605491
vt 0.625000 0.586732
vt 0.625000 0.569443
vt 0.625000 0.554289
vt 0.625000 0.550802
vt 0.625000 0.550801
vt 0.625000 0.699280
vt 0.625000 0.640278
vt 0.625000 0.644445
vt 0.625000 0.647865
vt 0.625000 0.650407
vt 0.625000 0.651972
vt 0.625000 0.652500
vt 0.625000 0.651971
vt 0.625000 0.650407
vt 0.625000 0.647865
vt 0.625000 0.644445
vt 0.625000 0.640278
vt 0.625000 0.635524
vt 0.625000 0.630365
vt 0.625000 0.625000
vt 0.625000 0.619635
vt 0.625000 0.614476
vt 0.625000 0.609722
vt 0.625000 0.605554
vt 0.625000 0.602135
vt 0.625000 0.599593
vt 0.625000 0.598028
vt 0.625000 0.597500
vt 0.625000 0.598028
vt 0.625000 0.599593
vt 0.625000 0.602135
vt 0.625000 0.605555
vt 0.625000 0.609722
vt 0.625000 0.614476
vt 0.625000 0.619635
vt 0.625000 0.625000
vt 0.375000 0.544141
vt 0.383973 0.550002
vt 0.375000 0.550001
vt 0.383973 0.950000
vt 0.375000 0.955859
vt 0.375000 0.949999
vt 0.343750 0.527241
vt 0.372478 0.542133
vt 0.343750 0.550001
vt 0.372478 0.957866
vt 0.343750 0.972759
vt 0.343750 0.949999
vt 0.312500 0.513202
vt 0.329866 0.519030
vt 0.312500 0.550001
vt 0.329866 0.980967
vt 0.312500 0.986798
vt 0.312500 0.949999
vt 0.281250 0.503836
vt 0.289445 0.504805
vt 0.281250 0.550001
vt 0.289445 0.995196
vt 0.281250 0.996164
vt 0.281250 0.949999
vt 0.270743 0.502544
vt 0.270743 0.550001
vt 0.270743 0.980359
vt 0.257405 0.952155
vt 0.264307 0.949998
vt 0.270743 0.997456
vt 0.218750 0.550001
vt 0.218750 0.503852
vt 0.229257 0.502560
vt 0.229257 0.550001
vt 0.229257 0.990662
vt 0.229257 0.997440
vt 0.218750 0.996148
vt 0.218750 0.949999
vt 0.241587 0.949998
vt 0.244301 0.951430
vt 0.187500 0.550001
vt 0.187500 0.513252
vt 0.210699 0.504803
vt 0.210699 0.995193
vt 0.187500 0.986748
vt 0.187500 0.949999
vt 0.156250 0.550001
vt 0.156250 0.527330
vt 0.170279 0.519034
vt 0.170279 0.980972
vt 0.156250 0.972670
vt 0.156250 0.949999
vt 0.125000 0.550001
vt 0.125000 0.544277
vt 0.127696 0.542131
vt 0.127696 0.957863
vt 0.125000 0.955723
vt 0.125000 0.949999
vt 0.116239 0.549999
vt 0.116239 0.949997
vt 0.999717 0.916775
vt 1.000000 0.916666
vt 1.000000 0.883338
vt 0.968750 0.883338
vt 0.968750 0.915972
vt 1.000000 0.616671
vt 1.000000 0.583344
vt 0.999717 0.583441
vt 0.968750 0.584037
vt 0.968750 0.616671
vt 0.937500 0.915295
vt 0.937500 0.883338
vt 0.937500 0.584715
vt 0.937500 0.616671
vt 0.906250 0.883338
vt 0.906250 0.914670
vt 0.906250 0.585339
vt 0.906250 0.616671
vt 0.875000 0.914123
vt 0.875000 0.883338
vt 0.875000 0.585886
vt 0.875000 0.616671
vt 0.843750 0.913674
vt 0.843750 0.883338
vt 0.843750 0.586335
vt 0.843750 0.616671
vt 0.812500 0.913073
vt 0.824536 0.913470
vt 0.812500 0.883338
vt 0.812500 0.586937
vt 0.812500 0.616671
vt 0.824536 0.586541
vt 0.781250 0.883338
vt 0.781250 0.912440
vt 0.781250 0.587570
vt 0.781250 0.616671
vt 0.750000 0.912226
vt 0.750000 0.883338
vt 0.750000 0.587783
vt 0.750000 0.616671
vt 0.718750 0.883338
vt 0.718750 0.912440
vt 0.718750 0.587570
vt 0.718750 0.616671
vt 0.687500 0.883338
vt 0.687500 0.913073
vt 0.687500 0.586937
vt 0.687500 0.616671
vt 0.675464 0.913469
vt 0.656250 0.883338
vt 0.656250 0.913674
vt 0.675464 0.586540
vt 0.656250 0.586335
vt 0.656250 0.616671
vt 0.625000 0.914123
vt 0.625000 0.883338
vt 0.625000 0.585886
vt 0.625000 0.616671
vt 0.593750 0.883338
vt 0.593750 0.914671
vt 0.593750 0.585339
vt 0.593750 0.616671
vt 0.562500 0.883338
vt 0.562500 0.915295
vt 0.587447 0.883338
vt 0.562500 0.584715
vt 0.562500 0.616671
vt 0.531250 0.883338
vt 0.531250 0.915972
vt 0.531250 0.584037
vt 0.531250 0.616671
vt 0.545662 0.616684
vt 0.500000 0.916666
vt 0.500283 0.916573
vt 0.512726 0.883308
vt 0.500000 0.883338
vt 0.500000 0.583344
vt 0.500000 0.616671
vt 0.500283 0.583240
vt 0.468750 0.915962
vt 0.468750 0.883338
vt 0.468750 0.584048
vt 0.468750 0.616672
vt 0.437500 0.883338
vt 0.437500 0.915284
vt 0.437500 0.584725
vt 0.437500 0.616671
vt 0.454385 0.616688
vt 0.406250 0.883338
vt 0.406250 0.914660
vt 0.406250 0.585350
vt 0.406250 0.616671
vt 0.375000 0.883338
vt 0.375000 0.914113
vt 0.375000 0.585897
vt 0.375000 0.616671
vt 0.343750 0.913663
vt 0.343750 0.883338
vt 0.343750 0.586346
vt 0.343750 0.616671
vt 0.312500 0.913040
vt 0.325555 0.913469
vt 0.312500 0.883338
vt 0.325555 0.586541
vt 0.312500 0.586970
vt 0.312500 0.616671
vt 0.281250 0.912407
vt 0.281250 0.883338
vt 0.281250 0.587603
vt 0.281250 0.616671
vt 0.250000 0.912193
vt 0.250000 0.883338
vt 0.250000 0.587817
vt 0.250000 0.616671
vt 0.218750 0.912407
vt 0.218750 0.883338
vt 0.218750 0.587603
vt 0.218750 0.616671
vt 0.187500 0.913040
vt 0.187500 0.883338
vt 0.187500 0.586970
vt 0.187500 0.616671
vt 0.156250 0.913663
vt 0.174445 0.913469
vt 0.156250 0.883338
vt 0.174445 0.586540
vt 0.156250 0.586346
vt 0.156250 0.616671
vt 0.125000 0.914113
vt 0.125000 0.883338
vt 0.125000 0.585897
vt 0.125000 0.616671
vt 0.093750 0.883338
vt 0.093750 0.914660
vt 0.093750 0.585350
vt 0.093750 0.616671
vt 0.062500 0.915284
vt 0.062500 0.883338
vt 0.062500 0.584725
vt 0.062500 0.616671
vt 0.031250 0.915962
vt 0.031250 0.883338
vt 0.031250 0.584048
vt 0.031250 0.616671
vt 0.000000 0.883338
vt 0.000000 0.916666
vt 0.000000 0.583343
vt 0.000000 0.616671
s 0
usemtl chrome
f 1/1/1 6/2/1 15/3/1 10/4/1
f 10/4/2 15/3/2 24/5/2 19/6/2
f 19/6/3 24/5/3 33/7/3 28/8/3
f 28/8/4 33/7/4 42/9/4 38/10/4
f 38/10/5 42/9/5 51/11/5 47/12/5
f 47/12/6 51/11/6 60/13/6 57/14/6
f 57/14/7 60/13/7 69/15/7 65/16/7
f 65/16/8 69/15/8 78/17/8 76/18/8
f 76/18/9 78/17/9 87/19/9 83/20/9
f 83/20/10 87/19/10 97/21/10 93/22/10
f 93/22/11 97/21/11 103/23/11 99/24/11
f 99/24/12 103/23/12 108/25/12 106/26/12
f 106/26/13 108/25/13 111/27/13 109/28/13
f 109/28/14 111/27/14 114/29/14 112/30/14
f 112/30/15 114/29/15 117/31/15 116/32/15
f 116/32/16 117/31/16 120/33/16 118/34/16
f 118/34/17 120/33/17 123/35/17 122/36/17
f 122/36/18 123/35/18 126/37/18 125/38/18
f 125/38/19 126/37/19 129/39/19 128/40/19
f 128/40/20 129/39/20 131/41/20 130/42/20
f 130/42/21 131/41/21 133/43/21 132/44/21
f 132/44/22 133/43/22 135/45/22 134/46/22
f 134/46/23 135/45/23 140/47/23 137/48/23
f 137/48/24 140/47/24 143/49/24 141/50/24
f 141/50/25 143/49/25 146/51/25 145/52/25
f 145/52/26 146/51/26 148/53/26 147/54/26
f 147/54/27 148/53/27 150/55/27 149/56/27
f 149/56/28 150/55/28 154/57/28 153/58/28
f 153/58/29 154/57/29 158/59/29 156/60/29
f 156/60/30 158/59/30 161/61/30 160/62/30
f 232/63/31 215/64/31 24/65/31 15/66/31 6/67/31 163/68/31 161/69/31 158/70/31 154/71/31 150/72/31 148/73/31 146/74/31 143/75/31 140/76/31 135/77/31 133/78/31 131/79/31 129/80/31 126/81/31 203/82/31 202/83/31 201/84/31 204/85/31 199/86/31 200/87/31 189/88/31 190/89/31 191/90/31 192/91/31 198/92/31 193/93/31 194/94/31 197/95/31 196/96/31 195/97/31 221/98/31 223/99/31 222/100/31 225/101/31 224/102/31 226/103/31 228/104/31 227/105/31 229/106/31 234/107/31 235/108/31 231/109/31 230/110/31 233/111/31
f 249/112/31 250/113/31 240/114/31 241/115/31 243/116/31 239/117/31 242/118/31 237/119/31 238/120/31 236/121/31 203/82/31 126/81/31 123/122/31 120/123/31 117/124/31 114/125/31 111/126/31 108/127/31 103/128/31 97/129/31 87/130/31 78/131/31 69/132/31 60/133/31 51/134/31 42/135/31 33/136/31 24/65/31 215/64/31 217/137/31 216/138/31 220/139/31 218/140/31 219/141/31 213/142/31 212/143/31 214/144/31 211/145/31 210/146/31 209/147/31 208/148/31 207/149/31 206/150/31 205/151/31 247/152/31 248/153/31 244/154/31 245/155/31 246/156/31
f 160/62/32 161/61/32 163/157/32 162/158/32
f 162/158/33 163/157/33 6/159/33 1/160/33
f 162/161/34 1/162/34 10/163/34 19/164/34 28/165/34 38/166/34 47/167/34 57/168/34 65/169/34 76/170/34 83/171/34 93/172/34 99/173/34 106/174/34 109/175/34 112/176/34 116/177/34 118/178/34 122/179/34 125/180/34 128/181/34 130/182/34 132/183/34 134/184/34 137/185/34 141/186/34 145/187/34 147/188/34 149/189/34 153/190/34 156/191/34 160/192/34
f 199/193/35 13/194/35 3/195/35 200/196/35
f 204/197/36 18/198/36 13/194/36 199/193/36
f 201/199/37 23/200/37 18/201/37 204/202/37
f 202/203/38 7/204/38 23/200/38 201/205/38
f 192/206/39 100/207/39 91/208/39 198/209/39
f 191/210/40 102/211/40 100/207/40 192/206/40
f 190/212/41 105/213/41 102/214/41 191/215/41
f 189/216/42 96/217/42 105/213/42 190/212/42
f 211/218/43 166/219/43 164/220/43 210/221/43
f 214/222/44 167/223/44 166/219/44 211/218/44
f 212/224/45 168/225/45 167/223/45 214/222/45
f 213/226/46 165/227/46 168/225/46 212/224/46
f 218/228/47 176/229/47 174/230/47 219/231/47
f 220/232/48 177/233/48 176/229/48 218/228/48
f 216/234/49 178/235/49 177/233/49 220/232/49
f 217/236/50 175/237/50 178/235/50 216/234/50
f 206/238/35 139/239/35 136/240/35 205/241/35
f 207/242/36 142/243/36 139/239/36 206/238/36
f 208/244/37 144/245/37 142/246/37 207/247/37
f 209/248/38 138/249/38 144/245/38 208/244/38
f 238/250/43 34/251/43 27/252/43 236/253/43
f 237/254/44 40/255/44 34/251/44 238/250/44
f 242/256/45 45/257/45 40/198/45 237/258/45
f 239/259/46 30/260/46 45/257/46 242/256/46
f 193/261/50 180/262/50 183/263/50 194/264/50
f 194/264/49 183/263/49 182/265/49 197/266/49
f 197/267/48 182/268/48 181/269/48 196/270/48
f 196/270/47 181/269/47 179/271/47 195/272/47
f 235/273/42 185/274/42 188/275/42 231/276/42
f 231/277/41 188/275/41 187/278/41 230/279/41
f 230/280/40 187/281/40 186/282/40 233/283/40
f 233/283/39 186/282/39 184/284/39 232/285/39
f 225/286/50 56/287/50 50/288/50 224/289/50
f 222/58/49 63/201/49 56/287/49 225/286/49
f 223/256/48 68/290/48 63/198/48 222/258/48
f 221/259/47 53/291/47 68/290/47 223/256/47
f 229/292/42 171/239/42 169/240/42 234/293/42
f 227/294/41 172/243/41 171/239/41 229/292/41
f 228/295/40 173/296/40 172/243/40 227/297/40
f 226/298/39 170/299/39 173/296/39 228/300/39
f 241/301/46 79/302/46 72/303/46 243/272/46
f 240/267/45 84/214/45 79/302/45 241/301/45
f 250/304/44 89/305/44 84/211/44 240/306/44
f 249/307/43 74/308/43 89/305/43 250/304/43
f 245/309/38 155/310/38 151/311/38 246/312/38
f 244/313/37 157/278/37 155/310/37 245/309/37
f 248/314/36 159/315/36 157/278/36 244/313/36
f 247/316/35 152/274/35 159/315/35 248/317/35
f 203/318/51 236/253/51 27/253/51 7/204/51 202/204/51
f 3/195/52 96/217/52 189/216/52 200/196/52
f 40/319/31 45/320/31 30/321/31 72/321/31 79/322/31 84/323/31 89/324/31 74/325/31 273/326/31 276/327/31 269/328/31 268/329/31 270/330/31 278/331/31 280/332/31 282/333/31 281/334/31 279/335/31 267/336/31 271/337/31 277/338/31 272/339/31 256/340/31 257/341/31 260/342/31 259/343/31 266/344/31 261/345/31 263/346/31 251/347/31 254/348/31 252/349/31 253/350/31 255/351/31 262/352/31 265/353/31 264/354/31 258/343/31 274/355/31 151/356/31 155/357/31 157/358/31 159/359/31 152/360/31 136/360/31 139/361/31 142/362/31 144/363/31 138/364/31 164/220/31 166/219/31 167/223/31 168/225/31 165/227/31 174/227/31 176/225/31 177/223/31 178/219/31 175/220/31 184/364/31 186/363/31 187/362/31 188/361/31 185/360/31 169/360/31 171/359/31 172/358/31 173/357/31 170/356/31 50/325/31 56/324/31 63/323/31 68/322/31 53/321/31 179/321/31 181/320/31 182/319/31 183/365/31 180/366/31 91/367/31 100/368/31 102/369/31 105/370/31 96/371/31 3/371/31 13/370/31 18/369/31 23/368/31 7/367/31 27/366/31 34/365/31
f 275/372/31 273/326/31 74/325/31 151/356/31 274/355/31
f 243/272/53 72/303/53 30/260/53 239/259/53
f 224/289/54 50/289/54 170/298/54 226/298/54
f 195/272/53 179/271/53 53/291/53 221/259/53
f 246/311/51 151/311/51 74/308/51 249/308/51
f 198/209/54 91/209/54 180/261/54 193/261/54
f 205/241/52 136/240/52 152/274/52 247/316/52
f 210/221/51 164/221/51 138/248/51 209/248/51
f 219/231/53 174/230/53 165/227/53 213/226/53
f 234/293/52 169/240/52 185/274/52 235/273/52
f 215/373/54 232/285/54 184/285/54 175/237/54 217/237/54
f 257/374/1 5/2/1 9/3/1 260/375/1
f 260/375/2 9/3/2 12/5/2 259/376/2
f 259/376/3 12/5/3 16/7/3 266/377/3
f 266/377/4 16/7/4 21/9/4 261/378/4
f 261/378/5 21/9/5 26/11/5 263/379/5
f 263/379/6 26/11/6 32/13/6 251/380/6
f 251/380/7 32/13/7 36/15/7 254/381/7
f 254/381/8 36/15/8 39/17/8 252/382/8
f 252/382/9 39/17/9 44/19/9 253/383/9
f 253/383/10 44/19/10 48/21/10 255/384/10
f 255/384/11 48/21/11 54/23/11 262/385/11
f 262/385/12 54/23/12 58/25/12 265/386/12
f 265/386/13 58/25/13 61/27/13 264/387/13
f 264/387/14 61/27/14 66/29/14 258/388/14
f 258/388/15 66/29/15 70/31/15 274/389/15
f 274/389/16 70/31/16 75/33/16 275/390/16
f 275/390/17 75/33/17 81/35/17 273/391/17
f 273/391/18 81/35/18 86/37/18 276/392/18
f 276/392/19 86/37/19 90/39/19 269/393/19
f 269/393/20 90/39/20 95/41/20 268/394/20
f 268/394/21 95/41/21 98/43/21 270/395/21
f 270/395/22 98/43/22 101/45/22 278/396/22
f 278/396/23 101/45/23 104/47/23 280/397/23
f 280/397/24 104/47/24 107/49/24 282/398/24
f 282/398/25 107/49/25 110/51/25 281/399/25
f 281/399/26 110/51/26 113/53/26 279/400/26
f 279/400/27 113/53/27 115/55/27 267/401/27
f 267/401/28 115/55/28 119/57/28 271/402/28
f 271/402/29 119/57/29 121/59/29 277/403/29
f 277/403/30 121/59/30 124/61/30 272/404/30
f 61/27/13 58/25/13 295/25/13 296/27/13
f 272/404/32 124/61/32 127/157/32 256/405/32
f 256/405/33 127/157/33 5/159/33 257/406/33
f 95/41/20 90/39/20 302/39/20 303/41/20
f 115/55/27 113/53/27 309/53/27 310/55/27
f 36/15/7 32/13/7 289/13/7 290/15/7
f 66/29/14 61/27/14 296/27/14 297/29/14
f 98/43/21 95/41/21 303/41/21 304/43/21
f 9/3/1 5/2/1 283/2/1 284/3/1
f 119/57/28 115/55/28 310/55/28 311/57/28
f 39/17/8 36/15/8 290/15/8 291/17/8
f 70/31/15 66/29/15 297/29/15 298/31/15
f 101/45/22 98/43/22 304/43/22 305/45/22
f 12/5/2 9/3/2 284/3/2 285/5/2
f 121/59/29 119/57/29 311/57/29 312/59/29
f 44/19/9 39/17/9 291/17/9 292/19/9
f 75/33/16 70/31/16 298/31/16 299/33/16
f 104/47/23 101/45/23 305/45/23 306/47/23
f 16/7/3 12/5/3 285/5/3 286/7/3
f 124/61/30 121/59/30 312/59/30 313/61/30
f 48/21/10 44/19/10 292/19/10 293/21/10
f 81/35/17 75/33/17 299/33/17 300/35/17
f 107/49/24 104/47/24 306/47/24 307/49/24
f 21/9/4 16/7/4 286/7/4 287/9/4
f 5/159/33 127/157/33 314/157/33 283/159/33
f 54/23/11 48/21/11 293/21/11 294/23/11
f 86/37/18 81/35/18 300/35/18 301/37/18
f 127/157/32 124/61/32 313/61/32 314/157/32
f 110/51/25 107/49/25 307/49/25 308/51/25
f 26/11/5 21/9/5 287/9/5 288/11/5
f 58/25/12 54/23/12 294/23/12 295/25/12
f 90/39/19 86/37/19 301/37/19 302/39/19
f 113/53/26 110/51/26 308/51/26 309/53/26
f 32/13/6 26/11/6 288/11/6 289/13/6
f 288/134/31 287/135/31 286/136/31 285/65/31 284/66/31 283/67/31 314/68/31 313/69/31 312/70/31 311/71/31 310/72/31 309/73/31 308/74/31 307/75/31 306/76/31 315/407/31 316/408/31 317/409/31 318/410/31 319/411/31 320/412/31 321/413/31 322/414/31 323/415/31 324/416/31 325/417/31 326/418/31 327/419/31 328/420/31 329/421/31 330/422/31 331/423/31 290/132/31 289/133/31
f 304/78/31 303/79/31 302/80/31 301/81/31 300/122/31 299/123/31 298/124/31 297/125/31 296/126/31 295/127/31 294/128/31 293/129/31 292/130/31 291/131/31 290/132/31 331/423/31 332/424/31 333/425/31 334/426/31 335/427/31 336/428/31 337/429/31 338/430/31 339/431/31 340/432/31 341/433/31 342/434/31 343/435/31 344/436/31 345/437/31 346/438/31 315/407/31 306/76/31 305/77/31
f 339/439/16 2/4/16 94/1/16 340/440/16
f 338/441/15 4/6/15 2/4/15 339/439/15
f 337/442/14 8/8/14 4/6/14 338/441/14
f 336/443/13 11/10/13 8/8/13 337/442/13
f 335/444/12 14/12/12 11/10/12 336/443/12
f 334/445/11 17/14/11 14/12/11 335/444/11
f 333/446/10 20/16/10 17/14/10 334/445/10
f 332/447/9 22/18/9 20/16/9 333/446/9
f 331/448/8 25/20/8 22/18/8 332/447/8
f 330/449/7 29/22/7 25/20/7 331/448/7
f 329/450/6 31/24/6 29/22/6 330/449/6
f 328/451/5 35/26/5 31/24/5 329/450/5
f 327/452/4 37/28/4 35/26/4 328/451/4
f 326/453/3 41/30/3 37/28/3 327/452/3
f 325/454/2 43/32/2 41/30/2 326/453/2
f 324/455/1 46/34/1 43/32/1 325/454/1
f 323/456/33 49/36/33 46/34/33 324/455/33
f 322/457/32 52/38/32 49/36/32 323/456/32
f 321/458/30 55/40/30 52/38/30 322/457/30
f 320/459/29 59/42/29 55/40/29 321/458/29
f 319/460/28 62/44/28 59/42/28 320/459/28
f 318/461/27 64/46/27 62/44/27 319/460/27
f 317/462/26 67/48/26 64/46/26 318/461/26
f 316/463/25 71/50/25 67/48/25 317/462/25
f 315/464/24 73/52/24 71/50/24 316/463/24
f 346/465/23 77/54/23 73/52/23 315/464/23
f 345/466/22 80/56/22 77/54/22 346/465/22
f 344/467/21 82/58/21 80/56/21 345/466/21
f 343/468/20 85/60/20 82/58/20 344/467/20
f 342/469/19 88/62/19 85/60/19 343/468/19
f 341/470/18 92/158/18 88/62/18 342/469/18
f 340/471/17 94/160/17 92/158/17 341/470/17
f 373/28/4 372/472/4 374/473/4 349/473/4 350/26/4 35/26/4 37/28/4
f 73/52/23 77/54/23 351/54/23 352/474/23
f 353/24/5 31/24/5 35/26/5 350/26/5
f 71/50/24 73/52/24 352/474/24 354/50/24
f 355/22/6 29/22/6 31/24/6 353/24/6
f 67/48/25 71/50/25 354/50/25 356/48/25
f 357/475/7 25/20/7 29/22/7 355/22/7
f 64/46/26 67/48/26 356/48/26 358/46/26
f 62/44/27 64/46/27 358/46/27 360/44/27
f 59/42/28 62/44/28 360/44/28 363/42/28
f 364/14/10 17/14/10 20/16/10 362/16/10
f 55/40/29 59/42/29 363/42/29 365/476/29 376/476/29 375/477/29 377/40/29
f 366/12/11 14/12/11 17/14/11 364/14/11
f 379/478/30 378/38/30 52/38/30 55/40/30 377/40/30
f 367/479/12 11/10/12 14/12/12 366/12/12
f 52/38/32 378/38/32 381/480/32 380/481/32 440/481/32 439/482/32 437/483/32 434/484/32 436/485/32 435/486/32 438/481/32 49/36/32
f 384/487/13 8/8/13 11/10/13 367/479/13 368/488/13 382/489/13 383/490/13
f 441/158/18 385/158/18 387/491/18 386/62/18 88/62/18 92/158/18 442/158/18 447/492/18 445/493/18 444/494/18 446/495/18 443/496/18
f 451/34/33 450/34/33 46/34/33 49/36/33 438/481/33 449/497/33 448/498/33 454/499/33 453/500/33 452/501/33
f 440/481/33 380/481/33 389/502/33 388/503/33 347/34/33 456/34/33 455/504/33 458/505/33 460/506/33 461/507/33 459/508/33 457/509/33
f 391/510/19 390/60/19 85/60/19 88/62/19 386/62/19
f 393/6/14 4/6/14 8/8/14 384/487/14 392/511/14
f 442/158/17 92/158/17 94/160/17 464/160/17 465/160/17 466/512/17 467/513/17 468/514/17 462/515/17 463/516/17
f 470/160/17 348/160/17 394/517/17 395/518/17 385/158/17 441/158/17 471/519/17 472/520/17 474/521/17 475/522/17 473/523/17 469/524/17
f 43/32/1 46/34/1 450/34/1 479/525/1 480/526/1 481/527/1 477/528/1 478/529/1 476/32/1
f 347/34/1 398/530/1 397/531/1 396/32/1 482/32/1 484/532/1 485/533/1 487/534/1 486/535/1 483/536/1 456/34/1
f 400/537/20 399/538/20 369/538/20 370/58/20 82/58/20 85/60/20 390/60/20
f 488/4/15 2/4/15 4/6/15 393/6/15 401/539/15 402/4/15 494/4/15 493/540/15 492/541/15 491/542/15 490/543/15 489/544/15
f 404/545/2 403/30/2 41/30/2 43/32/2 476/32/2 496/546/2 497/547/2 498/548/2 499/549/2 495/550/2 482/32/2 396/32/2
f 80/56/21 82/58/21 370/58/21 371/56/21
f 464/1/16 94/1/16 2/4/16 488/4/16 502/551/16 504/552/16 503/553/16 501/554/16 500/555/16
f 494/4/16 402/4/16 405/556/16 406/557/16 348/1/16 470/1/16 506/558/16 507/559/16 508/560/16 509/561/16 505/562/16
f 407/563/3 373/28/3 37/28/3 41/30/3 403/30/3
f 77/54/22 80/56/22 371/56/22 351/54/22
f 410/564/55 413/565/55 398/566/55 347/34/55 388/503/55 412/567/55 409/568/55 408/569/55 411/570/55
f 416/571/56 414/572/56 394/573/56 348/1/56 406/557/56
f 362/574/31 361/575/31 359/576/31 357/577/31 355/578/31 353/579/31 350/580/31 349/26/31 365/26/31 363/580/31 360/579/31 358/578/31 356/577/31 354/34/31 352/574/31 351/581/31 371/582/31 370/583/31 369/243/31 368/243/31 367/583/31 366/582/31 364/581/31
f 414/584/54 415/585/54 417/586/54 416/587/54 425/588/54 419/589/54 418/590/54 420/591/54 382/592/54 510/593/54 511/594/54 514/595/54 513/596/54 512/597/54 399/598/54 421/599/54 422/600/54 423/601/54 424/602/54
f 510/593/54 382/592/54 368/603/54 369/604/54 399/598/54 512/597/54 516/605/54 517/606/54 520/607/54 522/608/54 523/609/54 528/610/54 527/611/54 530/612/54 531/613/54 534/614/54 535/615/54 537/616/54 538/617/54 541/618/54 543/619/54 542/620/54 540/621/54 539/622/54 536/623/54 533/624/54 532/625/54 529/626/54 526/627/54 525/628/54 524/629/54 521/630/54 519/631/54 518/632/54 515/633/54
f 544/634/51 374/635/51 426/636/51 427/637/51 545/638/51 546/639/51 547/640/51
f 428/641/51 433/642/51 411/570/51 408/643/51 432/644/51 431/645/51 430/646/51 429/647/51 376/648/51 365/649/51 349/650/51 374/635/51 544/634/51 548/651/51 549/652/51 552/653/51 554/654/51 555/655/51 556/656/51 559/657/51 562/658/51 563/659/51 566/660/51 569/661/51 570/662/51 571/663/51 574/664/51 576/665/51 577/666/51 575/667/51 573/668/51 572/669/51 568/670/51 567/671/51 564/672/51 565/673/51 561/674/51 560/675/51 558/676/51 557/677/51 553/678/51 551/679/51 550/680/51 545/638/51 427/637/51
f 383/681/57 382/682/57 420/683/57
f 374/684/57 372/685/57 426/686/57
f 392/687/58 384/688/58 383/681/58 420/683/58 418/689/58
f 426/686/58 372/685/58 373/690/58 407/691/58 427/692/58
f 401/693/59 393/694/59 392/687/59 418/689/59 419/695/59
f 407/691/59 403/696/59 404/697/59 428/698/59 427/692/59
f 405/699/60 402/700/60 401/693/60 419/695/60 425/701/60
f 404/697/61 396/702/61 397/703/61 433/704/61 428/698/61
f 406/705/62 405/699/62 425/701/62 416/706/62
f 413/707/63 410/708/63 411/709/63 433/704/63 397/703/63 398/710/63
f 424/711/64 395/712/64 394/713/64 414/714/64
f 412/715/65 388/716/65 389/717/65 432/718/65 408/719/65 409/720/65
f 423/721/66 387/722/66 385/723/66 395/712/66 424/711/66
f 432/718/66 389/717/66 380/724/66 381/725/66 431/726/66
f 422/727/67 391/728/67 386/729/67 387/722/67 423/721/67
f 431/726/67 381/725/67 378/730/67 379/731/67 430/732/67
f 422/727/68 421/733/68 400/734/68 390/735/68 391/728/68
f 430/732/69 379/731/69 377/736/69 375/737/69 429/738/69
f 400/734/70 421/733/70 399/739/70
f 429/738/70 375/737/70 376/740/70
f 450/741/64 451/742/64 574/743/64 571/744/64 479/745/64
f 543/746/64 465/747/64 464/748/64 500/749/64 542/750/64
f 480/751/71 479/745/71 571/744/71 570/752/71
f 501/753/71 540/754/71 542/750/71 500/749/71
f 569/755/72 481/756/72 480/751/72 570/752/72
f 503/757/72 539/758/72 540/754/72 501/753/72
f 477/759/73 481/756/73 569/755/73 566/760/73
f 539/758/73 503/757/73 504/761/73 536/762/73
f 478/763/74 477/759/74 566/760/74 563/764/74
f 502/765/74 533/766/74 536/762/74 504/761/74
f 496/767/75 476/768/75 478/763/75 563/764/75 562/769/75
f 489/770/76 532/771/76 533/766/76 502/765/76 488/772/76
f 496/767/77 562/769/77 559/773/77 497/774/77
f 490/775/77 529/776/77 532/771/77 489/770/77
f 498/777/78 497/774/78 559/773/78 556/778/78
f 491/779/78 526/780/78 529/776/78 490/775/78
f 498/777/79 556/778/79 555/781/79 499/782/79
f 526/780/79 491/779/79 492/783/79 525/784/79
f 554/785/80 495/786/80 499/782/80 555/781/80
f 493/787/80 524/788/80 525/784/80 492/783/80
f 482/789/81 495/786/81 554/785/81 552/790/81 484/791/81
f 493/787/81 494/792/81 505/793/81 521/794/81 524/788/81
f 485/795/82 484/791/82 552/790/82 549/796/82
f 505/793/83 509/797/83 519/798/83 521/794/83
f 548/799/84 487/800/84 485/795/84 549/796/84
f 508/801/84 518/802/84 519/798/84 509/797/84
f 547/803/85 486/804/85 487/800/85 548/799/85 544/805/85
f 518/802/85 508/801/85 507/806/85 515/807/85
f 486/804/86 547/803/86 546/808/86 483/809/86
f 507/806/86 506/810/86 511/811/86 510/812/86 515/807/86
f 455/813/87 456/814/87 483/809/87 546/808/87 545/815/87 550/816/87
f 469/817/88 514/818/88 511/811/88 506/810/88 470/819/88
f 458/820/89 455/813/89 550/816/89 551/821/89
f 469/817/89 473/822/89 513/823/89 514/818/89
f 553/824/90 460/825/90 458/820/90 551/821/90
f 473/822/90 475/826/90 516/827/90 512/828/90 513/823/90
f 557/829/91 461/830/91 460/825/91 553/824/91
f 475/826/91 474/831/91 517/832/91 516/827/91
f 558/833/92 459/834/92 461/830/92 557/829/92
f 474/831/92 472/835/92 520/836/92 517/832/92
f 457/837/93 459/834/93 558/833/93 560/838/93
f 520/836/93 472/835/93 471/839/93 522/840/93
f 439/841/94 440/842/94 457/837/94 560/838/94 561/843/94
f 471/839/94 441/844/94 443/845/94 523/846/94 522/840/94
f 437/847/95 439/841/95 561/843/95 565/848/95
f 443/845/95 446/849/95 528/850/95 523/846/95
f 434/851/96 437/847/96 565/848/96 564/852/96
f 446/849/96 444/853/96 527/854/96 528/850/96
f 436/855/97 434/851/97 564/852/97 567/856/97
f 444/853/97 445/857/97 530/858/97 527/854/97
f 435/859/98 436/855/98 567/856/98 568/860/98
f 445/857/99 447/861/99 531/862/99 530/858/99
f 449/863/100 438/864/100 435/859/100 568/860/100 572/865/100
f 447/861/100 442/866/100 463/867/100 534/868/100 531/862/100
f 448/869/101 449/863/101 572/865/101 573/870/101
f 463/867/101 462/871/101 535/872/101 534/868/101
f 575/873/102 454/874/102 448/869/102 573/870/102
f 535/872/102 462/871/102 468/875/102 537/876/102
f 453/877/103 454/874/103 575/873/103 577/878/103
f 537/876/103 468/875/103 467/879/103 538/880/103
f 452/881/104 453/877/104 577/878/104 576/882/104
f 538/880/104 467/879/104 466/883/104 541/884/104
f 574/885/105 451/886/105 452/881/105 576/882/105
f 541/884/105 466/883/105 465/887/105 543/888/105
f 362/574/53 20/16/53 22/18/53 25/20/53 357/577/53 359/576/53 361/575/53
